<svg width="500" height="500" viewBox="0 0 500 500" fill="none" xmlns="http://www.w3.org/2000/svg">
<path d="M250.5 72L439.727 373.5H61.2735L250.5 72Z" fill="white"/>
<path d="M404 356.316L250.502 92L136.001 289.154H175.566L250.498 160.149L344.898 322.68H205.21V322.794H116.468L97 356.316H404Z" fill="black"/>
<path d="M366 254H136V291H366V254Z" fill="white"/>
<path d="M161.08 260.859H157.37L157.84 264.169V284.549H161.44L161.08 281.849V260.859Z" fill="black"/>
<path d="M188.33 260.859H184.91L185.38 264.169V278.179L183.8 275.839L170.58 260.859H168.39L168.86 264.169V284.549H172.17L171.81 281.849V267.089L173.36 269.429L186.86 284.549H188.55L188.33 281.849V260.859Z" fill="black"/>
<path d="M204.42 260.429C198.27 260.429 193.62 265.969 193.62 272.919C193.62 279.369 197.12 284.589 203.27 284.949V287.209L211.91 291.319L213.28 288.289L205.29 284.909C210.76 284.189 214.83 278.969 214.83 272.489C214.83 265.579 211.37 260.429 204.42 260.429ZM197.15 272.709C197.15 267.339 200 262.989 204.24 262.989C208.49 262.989 211.3 267.339 211.3 272.709C211.3 278.069 208.49 282.429 204.24 282.429C200 282.429 197.15 278.069 197.15 272.709Z" fill="black"/>
<path d="M235.78 275.479C235.78 279.289 233.3 282.389 229.73 282.389C226.2 282.389 223.61 279.549 223.61 275.729V260.859H219.9L220.37 264.169V276.019C220.37 276.589 220.59 285.019 229.08 285.019C234.99 285.019 238.8 280.909 238.8 275.079V260.859H235.31L235.78 264.169V275.479Z" fill="black"/>
<path d="M249.89 260.859H246.18L246.65 264.169V284.549H250.25L249.89 281.849V260.859Z" fill="black"/>
<path d="M255.8 282.349C255.8 282.349 257.99 285.019 262.24 285.019C266.63 285.019 269.4 282.099 269.4 278.029C269.4 270.979 259.25 271.409 259.25 266.229C259.25 264.139 261.02 262.989 262.71 262.989C265.44 262.989 267.75 264.569 267.82 264.749L268.76 262.119C267.68 261.439 265.66 260.429 262.82 260.429C258.75 260.429 255.87 263.489 255.87 267.199C255.87 273.569 266.2 273.749 266.2 278.499C266.2 281.019 264.4 282.429 262.35 282.429C258.78 282.429 256.16 279.259 256.16 279.259C256.16 279.259 255.83 282.319 255.8 282.349Z" fill="black"/>
<path d="M278.4 260.859H274.7L275.16 264.169V284.549H278.76L278.4 281.849V260.859Z" fill="black"/>
<path d="M282.54 263.599H290.1V284.549H293.7L293.34 281.849V263.599H301.12V260.859H282.54V263.599Z" fill="black"/>
<path d="M313 260.429C306.84 260.429 302.2 265.969 302.2 272.919C302.2 279.579 305.94 285.019 312.53 285.019C318.69 285.019 323.4 279.469 323.4 272.489C323.4 265.579 319.95 260.429 313 260.429ZM305.73 272.709C305.73 267.339 308.57 262.989 312.82 262.989C317.07 262.989 319.88 267.339 319.88 272.709C319.88 278.069 317.07 282.429 312.82 282.429C308.57 282.429 305.73 278.069 305.73 272.709Z" fill="black"/>
<path d="M345.83 284.549L338.45 274.759C341.3 273.429 343.06 270.799 343.06 267.989C343.06 263.129 339.24 260.859 335.28 260.859H328.59L329.06 264.169V284.549H332.66L332.3 281.849V275.689C334.42 275.689 334.92 275.689 335.32 275.659L341.66 284.549H345.83ZM332.3 273.029V263.529H334.64C337.3 263.529 339.64 265.039 339.64 267.989C339.64 270.729 337.3 273.029 334.64 273.029H332.3Z" fill="black"/>
<path opacity="0.12" d="M294.013 252.623C294.013 252.623 279.537 229.703 250 229.703C220.463 229.703 205.987 252.623 205.987 252.623C211.271 249.981 216.249 247.936 220.826 246.349C220.272 248.628 219.967 251.006 219.967 253.452C219.967 270.013 233.44 283.487 250.001 283.487C266.561 283.487 280.036 270.013 280.036 253.452C280.036 251.006 279.736 248.629 279.181 246.351C283.757 247.939 288.732 249.982 294.013 252.623ZM255.521 245.488C258.217 245.488 260.404 247.674 260.404 250.368C260.404 253.064 258.218 255.249 255.521 255.249C252.827 255.249 250.641 253.063 250.641 250.368C250.641 247.674 252.828 245.488 255.521 245.488ZM250 276.231C237.44 276.231 227.222 266.012 227.222 253.452C227.222 249.981 228.016 246.695 229.411 243.748C233.642 242.655 237.351 241.973 240.404 241.558C236.934 244.361 234.712 248.645 234.712 253.451C234.712 261.895 241.557 268.74 250 268.74C258.444 268.74 265.288 261.895 265.288 253.451C265.288 248.644 263.065 244.361 259.596 241.558C262.654 241.974 266.366 242.656 270.604 243.752C271.997 246.697 272.779 249.985 272.779 253.453C272.779 266.012 262.559 276.231 250 276.231Z" fill="black"/>
</svg>
