<?xml version="1.0" encoding="UTF-8" standalone="no" ?>
<!DOCTYPE svg PUBLIC "-//W3C//DTD SVG 1.1//EN" "http://www.w3.org/Graphics/SVG/1.1/DTD/svg11.dtd">
<svg xmlns="http://www.w3.org/2000/svg" xmlns:xlink="http://www.w3.org/1999/xlink" version="1.1" width="500" height="500" viewBox="0 0 500 500" xml:space="preserve">
<desc>Created with Fabric.js 3.6.3</desc>
<defs>
</defs>
<rect x="0" y="0" width="100%" height="100%" fill="#ffffff"></rect>
<g transform="matrix(3.8127646890795956 0 0 3.8127646890795956 250.5 224.1580496528769)"  >
<polygon style="stroke: none; stroke-width: 0; stroke-dasharray: none; stroke-linecap: butt; stroke-dashoffset: 0; stroke-linejoin: miter; stroke-miterlimit: 4; fill: rgb(0,0,0); fill-rule: nonzero; opacity: 1;"  points="40.259499999999996,34.662 0.0005000000000023874,-34.662 -30.0305,17.046999999999997 -19.6535,17.046999999999997 -0.0005000000000023874,-16.788000000000004 24.758500000000005,25.839999999999996 -11.878500000000003,25.839999999999996 -11.878500000000003,25.869999999999997 -35.1535,25.869999999999997 -40.2595,34.662 " />
</g>
<g transform="matrix(1,0,0,1,250.00000000000003,375.37134748556485)" style=""  ><path fill="#000000" opacity="1" d="M-77.44 3.13C-77.54 4.13-77.99 4.29-78.77 4.21L-78.87 6.97L-78.01 6.97L-77.50 5.25C-75.48 5.25-73.65 5.25-71.63 5.25L-71.13 6.97L-70.26 6.97L-70.37 4.21L-71.41 4.21L-71.41-5.53L-70.77-5.96L-70.77-6.44L-77.25-6.44L-77.25-5.96L-76.54-5.53ZM-75.37-5.44L-73.10-5.44L-73.10 4.21L-76.75 4.21L-76.75 4.16C-76.25 3.88-76.24 3.48-76.19 2.94Z"/><path fill="#000000" opacity="1" d="M-63.44 5.25L-63.44 2.89L-64.14 2.89L-64.68 4.29L-67.17 4.29L-67.17 4.21C-66.90 4.13-66.83 3.99-66.83 3.74L-66.83 0.49L-65.46 0.49L-65.05 1.25L-64.58 1.25L-64.58-1.28L-65.05-1.28L-65.46-0.47L-66.83-0.47L-66.83-4.36L-64.86-4.36L-64.43-2.94L-63.64-2.94L-63.64-5.29L-69.02-5.29L-69.02-4.89L-68.47-4.47L-68.47 4.33L-69.12 4.80L-69.12 5.25Z"/><path fill="#000000" opacity="1" d="M-57.23-4.31L-56.70-2.62L-55.95-2.62L-56.01-5.29C-58.07-5.29-60.12-5.29-62.19-5.29L-62.24-2.62L-61.49-2.62L-60.99-4.31L-59.92-4.31C-59.92-1.45-59.92 1.39-59.92 4.23L-60.55 4.71L-60.55 5.25C-59.69 5.25-58.52 5.25-57.65 5.25L-57.65 4.71L-58.27 4.23C-58.27 1.39-58.27-1.45-58.27-4.31Z"/><path fill="#000000" opacity="1" d="M-49.01 5.25L-49.01 2.89L-49.72 2.89L-50.25 4.29L-52.74 4.29L-52.74 4.21C-52.47 4.13-52.40 3.99-52.40 3.74L-52.40 0.49L-51.04 0.49L-50.62 1.25L-50.15 1.25L-50.15-1.28L-50.62-1.28L-51.04-0.47L-52.40-0.47L-52.40-4.36L-50.43-4.36L-50.00-2.94L-49.21-2.94L-49.21-5.29L-54.59-5.29L-54.59-4.89L-54.04-4.47L-54.04 4.33L-54.69 4.80L-54.69 5.25Z"/><path fill="#000000" opacity="1" d="M-40.90-5.29C-41.27-5.27-41.70-5.32-42.08-5.26C-44.14-4.87-43.30-0.77-45.29-0.77L-45.29-4.42L-44.76-4.84L-44.76-5.29L-47.43-5.29L-47.43-4.84L-46.88-4.42L-46.88 4.33L-47.51 4.80L-47.51 5.25L-44.64 5.25L-44.64 4.80L-45.29 4.33L-45.29 0.12C-45.14 0.12-44.99 0.12-44.84 0.12C-43.92 0.12-43.60 0.87-43.42 1.79L-42.99 3.89C-42.82 4.75-42.47 5.36-41.48 5.35C-41.22 5.35-40.76 5.31-40.48 5.15L-40.46 4.53C-40.90 4.63-41.22 4.13-41.32 3.66L-41.78 1.47C-41.98 0.52-42.40-0.43-43.15-0.50C-43.15-0.52-43.15-0.52-43.15-0.53C-42.57-0.73-42.02-3.19-41.73-3.94C-41.55-4.42-41.42-4.69-40.90-4.69L-40.90-5.29Z"/><path fill="#000000" opacity="1" d="M-34.65-4.31L-34.12-2.62L-33.37-2.62L-33.43-5.29C-35.49-5.29-37.54-5.29-39.61-5.29L-39.66-2.62L-38.91-2.62L-38.41-4.31L-37.34-4.31C-37.34-1.45-37.34 1.39-37.34 4.23L-37.98 4.71L-37.98 5.25C-37.11 5.25-35.94 5.25-35.07 5.25L-35.07 4.71L-35.69 4.23C-35.69 1.39-35.69-1.45-35.69-4.31Z"/><path fill="#000000" opacity="1" d="M-27.94-4.84C-27.76-4.69-27.57-4.54-27.40-4.39L-29.28 0.57L-29.84 2.46L-29.84-4.42L-29.33-4.84L-29.33-5.27L-31.98-5.27L-31.98-4.84L-31.46-4.42L-31.46 4.33L-32.08 4.81L-32.08 5.25L-29.23 5.25L-29.23 4.81L-29.83 4.34L-28.01-0.43L-27.42-2.35C-27.42-0.25-27.40 2.21-27.40 4.33L-28.04 4.81L-28.04 5.25L-25.18 5.25L-25.18 4.81L-25.80 4.33L-25.80-4.42L-25.28-4.84L-25.28-5.27L-27.94-5.27Z"/><path fill="#000000" opacity="1" d="M-17.47 3.11L-17.47 1.34C-17.47 0.37-17.92-0.18-18.60-0.45C-18.07-0.68-17.79-1.25-17.79-1.83L-17.79-3.35C-17.79-4.91-18.74-5.29-20.27-5.29L-23.51-5.29L-23.51-4.84L-22.96-4.42L-22.96 4.33L-23.61 4.80L-23.61 5.25L-20.17 5.25C-18.72 5.25-17.47 4.81-17.47 3.11ZM-21.71 4.31L-21.71 4.23C-21.44 4.14-21.38 4.01-21.38 3.73L-21.38 0.07L-20.34 0.07C-19.42 0.07-19.10 0.49-19.10 1.34L-19.10 3.08C-19.12 3.94-19.49 4.31-20.21 4.31ZM-19.41-1.83C-19.41-1.18-19.69-0.72-20.31-0.72L-21.38-0.72L-21.38-4.36L-20.31-4.36C-19.72-4.36-19.41-4.02-19.41-3.35Z"/><path fill="#000000" opacity="1" d="M-15.11 4.41L-15.75 4.80L-15.75 5.25L-12.88 5.25L-12.88 4.80L-13.51 4.41L-13.51 0.32L-11.17 0.32L-11.17 4.41L-11.79 4.80L-11.79 5.25L-8.93 5.25L-8.93 4.80L-9.59 4.41L-9.59-4.42L-9.05-4.84L-9.05-5.29L-11.71-5.29L-11.71-4.84L-11.17-4.42L-11.17-0.58L-13.51-0.58L-13.51-4.42L-12.98-4.84L-12.98-5.29L-15.65-5.29L-15.65-4.84L-15.11-4.42Z"/><path fill="#000000" opacity="1" d="M-1.00-2.65C-1.00-4.36-2.20-5.46-4.06-5.46C-5.91-5.46-7.10-4.34-7.10-2.65C-7.10-0.90-7.10 0.84-7.10 2.59C-7.10 4.28-5.91 5.40-4.06 5.40C-2.20 5.40-1.00 4.29-1.00 2.59ZM-5.46-2.65C-5.46-3.82-5.03-4.41-4.06-4.41C-3.09-4.41-2.64-3.62-2.64-2.65C-2.64-0.90-2.64 0.84-2.64 2.59C-2.64 3.54-3.09 4.34-4.06 4.34C-5.03 4.34-5.46 3.74-5.46 2.59Z"/><path fill="#000000" opacity="1" d="M6.51 5.25L6.51 2.89L5.81 2.89L5.28 4.29L2.79 4.29L2.79 4.21C3.06 4.13 3.12 3.99 3.12 3.74L3.12 0.49L4.49 0.49L4.91 1.25L5.38 1.25L5.38-1.28L4.91-1.28L4.49-0.47L3.12-0.47L3.12-4.36L5.09-4.36L5.53-2.94L6.31-2.94L6.31-5.29L0.94-5.29L0.94-4.89L1.49-4.47L1.49 4.33L0.83 4.80L0.83 5.25Z"/><path fill="#000000" opacity="1" d=""/><path fill="#000000" opacity="1" d="M12.73 2.42C12.71 2.42 12.69 2.42 15.43 2.42L15.92 4.49L15.48 4.85L15.48 5.25L18.12 5.25L18.12 4.76L17.59 4.41L15.18-5.34L13.56-5.34C12.79-2.27 11.96 1.37 11.22 4.46L10.69 4.76L10.69 5.25L12.74 5.25L12.74 4.76L12.24 4.48ZM14.08-3.42L15.21 1.52L12.93 1.52C13.31-0.21 13.74-2.12 14.06-3.42Z"/><path fill="#000000" opacity="1" d="M19.09-5.29L19.09-4.84L19.64-4.36L19.64 4.33L18.99 4.80L18.99 5.25L21.86 5.25L21.86 4.80L21.23 4.33L21.23-4.36L23.28-4.36L23.75-2.77L24.50-2.77L24.52-5.29Z"/><path fill="#000000" opacity="1" d="M31.40 5.25L31.40 2.89L30.69 2.89L30.16 4.29L27.67 4.29L27.67 4.21C27.94 4.13 28.01 3.99 28.01 3.74L28.01 0.49L29.38 0.49L29.79 1.25L30.26 1.25L30.26-1.28L29.79-1.28L29.38-0.47L28.01-0.47L28.01-4.36L29.98-4.36L30.41-2.94L31.20-2.94L31.20-5.29L25.82-5.29L25.82-4.89L26.37-4.47L26.37 4.33L25.72 4.80L25.72 5.25Z"/><path fill="#000000" opacity="1" d="M33.53 4.41L32.90 4.80L32.90 5.25L35.77 5.25L35.77 4.80L35.14 4.41L35.14 0.32L37.47 0.32L37.47 4.41L36.86 4.80L36.86 5.25L39.71 5.25L39.71 4.80L39.06 4.41L39.06-4.42L39.60-4.84L39.60-5.29L36.94-5.29L36.94-4.84L37.47-4.42L37.47-0.58L35.14-0.58L35.14-4.42L35.67-4.84L35.67-5.29L33.00-5.29L33.00-4.84L33.53-4.42Z"/><path fill="#000000" opacity="1" d="M45.98-4.31L46.51-2.62L47.26-2.62L47.19-5.29C45.14-5.29 43.09-5.29 41.02-5.29L40.97-2.62L41.72-2.62L42.22-4.31L43.29-4.31C43.29-1.45 43.29 1.39 43.29 4.23L42.65 4.71L42.65 5.25C43.52 5.25 44.69 5.25 45.56 5.25L45.56 4.71L44.94 4.23C44.94 1.39 44.94-1.45 44.94-4.31Z"/><path fill="#000000" opacity="1" d="M54.74-5.32L53.66-5.32L53.52-4.82L53.49-4.82C53.02-5.27 52.35-5.39 51.74-5.39C49.95-5.39 48.83-4.41 48.83-2.60C48.83-1.97 48.83 1.99 48.83 2.61C48.83 4.54 50.17 5.41 51.84 5.41C53.52 5.41 54.84 4.61 54.84 2.74L54.84 2.16L53.19 2.16L53.19 2.72C53.19 3.76 52.89 4.38 51.82 4.38C50.97 4.38 50.47 3.86 50.47 2.61C50.47 1.99 50.47-1.97 50.47-2.60C50.47-3.92 51.14-4.36 51.79-4.36C52.84-4.36 53.11-3.59 53.11-2.65L53.11-2.37L54.74-2.37Z"/><path fill="#000000" opacity="1" d="M61.09-4.31L61.62-2.62L62.37-2.62L62.31-5.29C60.25-5.29 58.20-5.29 56.13-5.29L56.08-2.62L56.83-2.62L57.33-4.31L58.40-4.31C58.40-1.45 58.40 1.39 58.40 4.23L57.77 4.71L57.77 5.25C58.63 5.25 59.80 5.25 60.67 5.25L60.67 4.71L60.05 4.23C60.05 1.39 60.05-1.45 60.05-4.31Z"/><path fill="#000000" opacity="1" d="M69.77 3.11L69.77 1.34C69.77 0.37 69.32-0.18 68.64-0.45C69.17-0.68 69.46-1.25 69.46-1.83L69.46-3.35C69.46-4.91 68.50-5.29 66.97-5.29L63.73-5.29L63.73-4.84L64.28-4.42L64.28 4.33L63.63 4.80L63.63 5.25L67.07 5.25C68.52 5.25 69.77 4.81 69.77 3.11ZM65.53 4.31L65.53 4.23C65.80 4.14 65.86 4.01 65.86 3.73L65.86 0.07L66.90 0.07C67.82 0.07 68.14 0.49 68.14 1.34L68.14 3.08C68.12 3.94 67.75 4.31 67.03 4.31ZM67.84-1.83C67.84-1.18 67.55-0.72 66.93-0.72L65.86-0.72L65.86-4.36L66.93-4.36C67.52-4.36 67.84-4.02 67.84-3.35Z"/><path fill="#000000" opacity="1" d="M77.87-2.65C77.87-4.36 76.67-5.46 74.82-5.46C72.96-5.46 71.78-4.34 71.78-2.65C71.78-0.90 71.78 0.84 71.78 2.59C71.78 4.28 72.96 5.40 74.82 5.40C76.67 5.40 77.87 4.29 77.87 2.59ZM73.41-2.65C73.41-3.82 73.85-4.41 74.82-4.41C75.78-4.41 76.24-3.62 76.24-2.65C76.24-0.90 76.24 0.84 76.24 2.59C76.24 3.54 75.78 4.34 74.82 4.34C73.85 4.34 73.41 3.74 73.41 2.59Z"/></g><g transform="matrix(0.48223350253807107 0 0 0.07868020304568528 250.5 257.1580496528769)"  >
<rect style="stroke: none; stroke-width: 1; stroke-dasharray: none; stroke-linecap: butt; stroke-dashoffset: 0; stroke-linejoin: miter; stroke-miterlimit: 4; fill: rgb(255,255,255); fill-rule: evenodd; opacity: 1;"  x="-393.5" y="-393.5" rx="0" ry="0" width="787" height="787" />
</g>
<g transform="matrix(1,0,0,1,250,267.23936944983126)" style=""  ><path fill="#000000" opacity="1" d="M-88.92-12.38L-92.63-12.38L-92.16-9.07L-92.16 11.31L-88.56 11.31L-88.92 8.61Z"/><path fill="#000000" opacity="1" d="M-61.67-12.38L-65.09-12.38L-64.62-9.07L-64.62 4.94L-66.20 2.60L-79.42-12.38L-81.61-12.38L-81.14-9.07L-81.14 11.31L-77.83 11.31L-78.19 8.61L-78.19-6.15L-76.64-3.81L-63.14 11.31L-61.45 11.31L-61.67 8.61Z"/><path fill="#000000" opacity="1" d="M-45.58-12.81C-51.73-12.81-56.38-7.27-56.38-0.32C-56.38 6.13-52.88 11.35-46.73 11.71L-46.73 13.97L-38.09 18.08L-36.72 15.05L-44.71 11.67C-39.24 10.95-35.17 5.73-35.17-0.75C-35.17-7.66-38.63-12.81-45.58-12.81ZM-52.85-0.53C-52.85-5.90-50.00-10.25-45.76-10.25C-41.51-10.25-38.70-5.90-38.70-0.53C-38.70 4.83-41.51 9.19-45.76 9.19C-50.00 9.19-52.85 4.83-52.85-0.53Z"/><path fill="#000000" opacity="1" d="M-14.22 2.24C-14.22 6.05-16.70 9.15-20.27 9.15C-23.80 9.15-26.39 6.31-26.39 2.49L-26.39-12.38L-30.10-12.38L-29.63-9.07L-29.63 2.78C-29.63 3.35-29.41 11.78-20.92 11.78C-15.01 11.78-11.20 7.67-11.20 1.84L-11.20-12.38L-14.69-12.38L-14.22-9.07Z"/><path fill="#000000" opacity="1" d="M-0.11-12.38L-3.82-12.38L-3.35-9.07L-3.35 11.31L0.25 11.31L-0.11 8.61Z"/><path fill="#000000" opacity="1" d="M5.80 9.11C5.80 9.11 7.99 11.78 12.24 11.78C16.63 11.78 19.40 8.86 19.40 4.79C19.40-2.26 9.25-1.83 9.25-7.01C9.25-9.10 11.02-10.25 12.71-10.25C15.44-10.25 17.75-8.67 17.82-8.49L18.76-11.12C17.68-11.80 15.66-12.81 12.82-12.81C8.75-12.81 5.87-9.75 5.87-6.04C5.87 0.33 16.20 0.51 16.20 5.26C16.20 7.78 14.40 9.19 12.35 9.19C8.78 9.19 6.16 6.02 6.16 6.02C6.16 6.02 5.83 9.08 5.80 9.11Z"/><path fill="#000000" opacity="1" d="M28.40-12.38L24.70-12.38L25.16-9.07L25.16 11.31L28.76 11.31L28.40 8.61Z"/><path fill="#000000" opacity="1" d="M32.54-9.64L40.10-9.64L40.10 11.31L43.70 11.31L43.34 8.61L43.34-9.64L51.12-9.64L51.12-12.38L32.54-12.38Z"/><path fill="#000000" opacity="1" d="M63.00-12.81C56.84-12.81 52.20-7.27 52.20-0.32C52.20 6.34 55.94 11.78 62.53 11.78C68.69 11.78 73.40 6.23 73.40-0.75C73.40-7.66 69.95-12.81 63.00-12.81ZM55.73-0.53C55.73-5.90 58.57-10.25 62.82-10.25C67.07-10.25 69.88-5.90 69.88-0.53C69.88 4.83 67.07 9.19 62.82 9.19C58.57 9.19 55.73 4.83 55.73-0.53Z"/><path fill="#000000" opacity="1" d="M95.83 11.31L88.45 1.52C91.30 0.19 93.06-2.44 93.06-5.25C93.06-10.11 89.24-12.38 85.28-12.38L78.59-12.38L79.06-9.07L79.06 11.31L82.66 11.31L82.30 8.61L82.30 2.45C84.42 2.45 84.92 2.45 85.32 2.42L91.66 11.31ZM82.30-0.21L82.30-9.71L84.64-9.71C87.30-9.71 89.64-8.20 89.64-5.25C89.64-2.51 87.30-0.21 84.64-0.21Z"/></g><g transform="matrix(0.880266754952865 0 0 0.880266754952865 249.99999999999997 256.5949530219242)"  >
<path style="stroke: none; stroke-width: 0; stroke-dasharray: none; stroke-linecap: butt; stroke-dashoffset: 0; stroke-linejoin: miter; stroke-miterlimit: 4; fill: rgb(0,0,0); fill-rule: nonzero; opacity: 0.12;"  transform=" translate(-50, -50.3915)" d="M 100 45.879 c 0 0 -16.445 -26.037 -50 -26.037 c -33.555 0 -50 26.037 -50 26.037 c 6.003 -3.001 11.658 -5.324 16.858 -7.127 c -0.63 2.589 -0.976 5.29 -0.976 8.069 c 0 18.814 15.306 34.12 34.119 34.12 c 18.813 0 34.12 -15.306 34.12 -34.12 c 0 -2.779 -0.34 -5.479 -0.971 -8.067 C 88.349 40.558 94 42.879 100 45.879 z M 56.272 37.774 c 3.063 0 5.547 2.483 5.547 5.544 c 0 3.062 -2.483 5.545 -5.547 5.545 c -3.06 0 -5.544 -2.484 -5.544 -5.545 S 53.213 37.774 56.272 37.774 z M 50 72.698 c -14.268 0 -25.876 -11.609 -25.876 -25.877 c 0 -3.943 0.902 -7.676 2.487 -11.024 c 4.806 -1.242 9.019 -2.016 12.488 -2.488 c -3.942 3.185 -6.467 8.051 -6.467 13.511 c 0 9.592 7.776 17.369 17.368 17.369 c 9.593 0 17.367 -7.777 17.367 -17.369 c 0 -5.461 -2.525 -10.327 -6.466 -13.511 c 3.474 0.473 7.691 1.248 12.505 2.493 c 1.583 3.345 2.471 7.081 2.471 11.02 C 75.877 61.089 64.267 72.698 50 72.698 z" stroke-linecap="round" />
</g>
</svg>