<?xml version="1.0" encoding="UTF-8" standalone="no"?>
<!-- Created with Inkscape (http://www.inkscape.org/) -->

<svg
   version="1.1"
   id="svg2"
   width="586.05334"
   height="486.46667"
   viewBox="0 0 586.05334 486.46667"
   sodipodi:docname="2893827.eps"
   xmlns:inkscape="http://www.inkscape.org/namespaces/inkscape"
   xmlns:sodipodi="http://sodipodi.sourceforge.net/DTD/sodipodi-0.dtd"
   xmlns="http://www.w3.org/2000/svg"
   xmlns:svg="http://www.w3.org/2000/svg">
  <defs
     id="defs6">
    <clipPath
       clipPathUnits="userSpaceOnUse"
       id="clipPath100">
      <path
         d="M 864.078,2769.58 H 667.957 c -55.164,0.19 -120.121,0.42 -192.535,0.67 0,0.93 0,1.86 0,2.79 l 125.98,226.73 104.621,-147.13 63.567,78.13 94.484,-161.03 c 0,-0.06 0.004,-0.11 0.004,-0.16"
         id="path98" />
    </clipPath>
  </defs>
  <sodipodi:namedview
     id="namedview4"
     pagecolor="#ffffff"
     bordercolor="#000000"
     borderopacity="0.25"
     inkscape:showpageshadow="2"
     inkscape:pageopacity="0.0"
     inkscape:pagecheckerboard="0"
     inkscape:deskcolor="#d1d1d1" />
  <g
     id="g8"
     inkscape:groupmode="layer"
     inkscape:label="ink_ext_XXXXXX"
     transform="matrix(1.3333333,0,0,-1.3333333,0,486.46667)">
    <g
       id="g10"
       transform="scale(0.1)">
      <path
         d="m 1131.1,385.352 c 158.93,117.5 189.05,326.777 176.55,513.609 -2.09,31.199 0.31,64.23 -15.62,91.109 -15.94,26.91 -51.65,44.46 -79.56,30.36 -23.13,-11.68 -32.5,-38.989 -44.91,-61.731 -16.52,-30.258 -41.78,-55.687 -71.92,-72.41 -19.81,-10.98 -44.53,-18.109 -64.76,-7.937 -27.78,13.957 -32.2,51.046 -33.017,82.117 -1.515,57.881 -3.027,115.761 -4.543,173.651 -0.808,31.06 -1.734,62.77 -12.488,91.92 -10.742,29.15 -33.246,55.81 -63.449,63.09 -30.199,7.28 -66.664,-10.98 -71.992,-41.58 -2.219,-12.73 0.824,-25.78 0.367,-38.7 -0.453,-12.91 -6.082,-27.38 -18.367,-31.39 -12.438,-4.05 -25.309,4.35 -35.02,13.11 -33.488,30.28 -56.836,69.94 -78.738,109.43 -21.899,39.49 -43.223,79.94 -73.797,113.16 -30.57,33.22 -72.223,58.97 -117.356,60.01 -45.14,1.02 -92.253,-28.02 -102.222,-72.06 -9.996,-44.15 17.328,-87.71 46.637,-122.21 43.476,-51.2 94.41,-96.05 150.683,-132.73 10.149,-6.62 21.141,-13.77 25.309,-25.15 7.5,-20.46 -11.707,-41.69 -32.188,-49.19 -23.207,-8.48 -48.73,-6.91 -73.164,-10.58 -24.445,-3.67 -50.68,-15.22 -59.219,-38.4 -11.851,-32.178 16.129,-64.561 43.297,-85.459 54.41,-41.879 116.051,-74.352 181.352,-95.551 23.422,-7.602 48.008,-14.121 67.191,-29.551 19.188,-15.437 31.356,-42.969 20.797,-65.211 -10.57,-22.269 -39.293,-30.226 -63.676,-26.598 -24.386,3.641 -46.507,15.911 -69.886,23.75 -43.766,14.668 -99.504,9.879 -125.996,-27.921 -17.418,-24.829 -17.922,-58.649 -7.774,-87.239 10.137,-28.601 29.613,-52.871 50.18,-75.16 71.902,-77.949 162.719,-139.621 264.129,-170.621 101.422,-31 194.65,-37.219 293.17,2.063"
         style="fill:#eeeeee;fill-opacity:1;fill-rule:nonzero;stroke:none"
         id="path12" />
      <path
         d="m 464.328,1445.21 c 0,0 1.024,-1.02 3.184,-2.8 2.328,-1.91 5.535,-4.53 9.648,-7.87 8.496,-6.89 21.016,-17.08 36.758,-30.62 31.531,-26.99 75.914,-67.75 124.48,-123.94 24.375,-27.99 49.782,-59.78 76.434,-94.37 26.582,-34.66 54.746,-71.87 82.871,-112.1 28.129,-40.2 56.387,-83.362 82,-130.17 12.906,-23.352 24.543,-47.852 36.391,-72.809 11.808,-24.949 23.769,-50.269 35.894,-75.902 48.092,-102.649 90.682,-202.039 121.802,-295.168 31.3,-93.051 50.92,-179.609 60.64,-253.18 9.87,-73.59 10.23,-133.902 8.46,-175.3513 -1,-20.7188 -2.13,-36.8086 -3.28,-47.6914 -0.47,-5.2774 -0.84,-9.3985 -1.11,-12.3867 -0.23,-2.80082 -0.22,-4.24222 -0.22,-4.24222 0,0 3.93,22.69142 6.44,64.23042 2.33,41.5122 2.49,102.0002 -7.01,175.8712 -9.32,73.84 -28.66,160.758 -59.82,254.109 -30.97,93.442 -73.53,193.078 -121.652,295.801 -12.129,25.629 -24.113,50.961 -35.929,75.918 -11.84,24.91 -23.579,49.57 -36.579,73.012 -25.785,46.988 -54.203,90.229 -82.484,130.449 -28.277,40.24 -56.598,77.41 -83.336,111.99 -26.816,34.53 -52.422,66.25 -77.012,94.17 -49.011,56.05 -93.867,96.56 -125.8,123.16 -15.957,13.35 -28.66,23.31 -37.364,29.96 -4.23,3.2 -7.523,5.69 -9.925,7.5 -2.254,1.67 -3.481,2.43 -3.481,2.43"
         style="fill:#e3e3e2;fill-opacity:1;fill-rule:nonzero;stroke:none"
         id="path14" />
      <path
         d="m 882.539,945.969 c 0.324,-0.039 1.176,4.73 2.434,13.383 1.304,8.636 2.816,21.199 4.48,36.738 3.352,31.06 6.559,74.12 9.981,121.61 3.425,47.52 7.379,90.42 11.394,121.34 1.957,15.47 3.699,27.98 5.027,36.59 1.282,8.62 1.848,13.44 1.524,13.5 -0.316,0.06 -1.484,-4.63 -3.32,-13.18 -1.883,-8.53 -4.129,-21 -6.512,-36.45 -4.883,-30.89 -9.367,-73.9 -12.793,-121.45 -3.328,-47.08 -6.34,-89.69 -8.602,-121.659 -1.203,-14.891 -2.218,-27.27 -2.996,-36.852 -0.703,-8.687 -0.937,-13.519 -0.617,-13.57"
         style="fill:#e3e3e2;fill-opacity:1;fill-rule:nonzero;stroke:none"
         id="path16" />
      <path
         d="m 475.617,1007.19 c 0,-0.16 1.442,-0.34 4.184,-0.54 3.301,-0.17 7.25,-0.38 12.008,-0.62 10.418,-0.5 25.488,-1.18 44.086,-2.65 37.183,-2.61 88.433,-8.091 144.679,-16.63 56.254,-8.648 106.809,-18.668 143.149,-27.031 18.203,-4.039 32.836,-7.731 42.965,-10.231 4.628,-1.129 8.48,-2.058 11.687,-2.84 2.688,-0.589 4.117,-0.839 4.164,-0.679 0.047,0.172 -1.297,0.703 -3.906,1.59 -3.145,1.011 -6.918,2.23 -11.457,3.679 -9.988,3.051 -24.531,7.242 -42.676,11.711 -36.227,9.192 -86.828,19.77 -143.219,28.43 -56.383,8.57 -107.836,13.541 -145.187,15.311 -18.656,1.04 -33.793,1.23 -44.242,1.16 -4.77,-0.1 -8.731,-0.18 -12.036,-0.25 -2.75,-0.11 -4.203,-0.24 -4.199,-0.41"
         style="fill:#e3e3e2;fill-opacity:1;fill-rule:nonzero;stroke:none"
         id="path18" />
      <path
         d="m 1073.16,508.172 c 0.15,-0.063 1.01,1.66 2.5,5 1.66,3.828 3.77,8.687 6.37,14.699 5.48,12.801 12.95,31.488 21.9,54.699 17.94,46.41 40.74,111.262 64.99,183.16 24.27,71.899 46.55,136.852 63.66,183.508 8.51,22.871 15.45,41.582 20.5,55.192 2.27,6.13 4.1,11.11 5.53,15.01 1.23,3.45 1.8,5.3 1.65,5.37 -0.16,0.06 -1.02,-1.67 -2.52,-5.01 -1.64,-3.82 -3.75,-8.69 -6.36,-14.71 -5.48,-12.781 -12.95,-31.481 -21.89,-54.692 -17.95,-46.41 -40.75,-111.269 -65.01,-183.179 -24.26,-71.867 -46.53,-136.828 -63.65,-183.489 -8.5,-22.871 -15.45,-41.582 -20.5,-55.179 -2.27,-6.141 -4.1,-11.121 -5.53,-15.031 -1.22,-3.45 -1.8,-5.29 -1.64,-5.348"
         style="fill:#e3e3e2;fill-opacity:1;fill-rule:nonzero;stroke:none"
         id="path20" />
      <path
         d="m 530.078,661.352 c -0.031,-0.153 1.84,-0.813 5.43,-1.891 4.094,-1.18 9.336,-2.691 15.808,-4.539 14.321,-4.031 34.063,-9.57 58.211,-16.34 49.121,-13.863 116.754,-33.832 191.411,-56.07 74.683,-22.242 142.511,-41.723 191.898,-54.774 24.704,-6.539 44.724,-11.629 58.624,-14.898 6.57,-1.52 11.89,-2.75 16.03,-3.711 3.68,-0.777 5.62,-1.117 5.67,-0.957 0.04,0.148 -1.84,0.797 -5.44,1.887 -4.09,1.171 -9.32,2.679 -15.8,4.543 -14.31,4.027 -34.05,9.546 -58.201,16.328 -49.133,13.859 -116.766,33.84 -191.446,56.082 -74.664,22.226 -142.488,41.718 -191.867,54.758 -24.695,6.531 -44.726,11.64 -58.629,14.902 -6.566,1.527 -11.879,2.75 -16.027,3.699 -3.684,0.801 -5.625,1.141 -5.672,0.981"
         style="fill:#e3e3e2;fill-opacity:1;fill-rule:nonzero;stroke:none"
         id="path22" />
      <path
         d="M 0,2096.37 H 1589.72 V 3161.11 H 0 Z"
         style="fill:#eeeeee;fill-opacity:1;fill-rule:nonzero;stroke:none"
         id="path24" />
      <path
         d="m 0,3054.75 h 1589.72 v 106.359 H 0 Z"
         style="fill:#e3e3e2;fill-opacity:1;fill-rule:nonzero;stroke:none"
         id="path26" />
      <path
         d="m 68.8594,3107.93 c 0,-6.59 -5.7578,-11.94 -12.8477,-11.94 -7.0976,0 -12.8515,5.35 -12.8515,11.94 0,6.6 5.7539,11.94 12.8515,11.94 7.0899,0 12.8477,-5.34 12.8477,-11.94"
         style="fill:#fcfdfd;fill-opacity:1;fill-rule:nonzero;stroke:none"
         id="path28" />
      <path
         d="m 110.324,3107.93 c 0,-6.59 -5.754,-11.94 -12.8513,-11.94 -7.0938,0 -12.8477,5.35 -12.8477,11.94 0,6.6 5.7539,11.94 12.8477,11.94 7.0973,0 12.8513,-5.34 12.8513,-11.94"
         style="fill:#fcfdfd;fill-opacity:1;fill-rule:nonzero;stroke:none"
         id="path30" />
      <path
         d="m 151.789,3107.93 c 0,-6.59 -5.754,-11.94 -12.848,-11.94 -7.093,0 -12.851,5.35 -12.851,11.94 0,6.6 5.758,11.94 12.851,11.94 7.094,0 12.848,-5.34 12.848,-11.94"
         style="fill:#fcfdfd;fill-opacity:1;fill-rule:nonzero;stroke:none"
         id="path32" />
      <path
         d="M 2802.74,2128.11 H 4392.47 V 3192.86 H 2802.74 Z"
         style="fill:#eeeeee;fill-opacity:1;fill-rule:nonzero;stroke:none"
         id="path34" />
      <path
         d="M 4392.47,3086.5 H 2802.74 v 106.36 H 4392.47 V 3086.5"
         style="fill:#e3e3e2;fill-opacity:1;fill-rule:nonzero;stroke:none"
         id="path36" />
      <path
         d="m 2871.6,3139.68 c 0,-6.6 -5.75,-11.95 -12.84,-11.95 -7.1,0 -12.86,5.35 -12.86,11.95 0,6.59 5.76,11.93 12.86,11.93 7.09,0 12.84,-5.34 12.84,-11.93"
         style="fill:#fcfdfd;fill-opacity:1;fill-rule:nonzero;stroke:none"
         id="path38" />
      <path
         d="m 2913.06,3139.68 c 0,-6.6 -5.75,-11.95 -12.84,-11.95 -7.1,0 -12.85,5.35 -12.85,11.95 0,6.59 5.75,11.93 12.85,11.93 7.09,0 12.84,-5.34 12.84,-11.93"
         style="fill:#fcfdfd;fill-opacity:1;fill-rule:nonzero;stroke:none"
         id="path40" />
      <path
         d="m 2954.53,3139.68 c 0,-6.6 -5.75,-11.95 -12.84,-11.95 -7.1,0 -12.86,5.35 -12.86,11.95 0,6.59 5.76,11.93 12.86,11.93 7.09,0 12.84,-5.34 12.84,-11.93"
         style="fill:#fcfdfd;fill-opacity:1;fill-rule:nonzero;stroke:none"
         id="path42" />
      <path
         d="m 322.414,2052.04 h 2028.36 V 3410.55 H 322.414 Z"
         style="fill:#ffffff;fill-opacity:1;fill-rule:nonzero;stroke:none"
         id="path44" />
      <path
         d="m 324.379,3284.49 h 2028.35 v 135.703 H 324.379 Z"
         style="fill:#eeeeee;fill-opacity:1;fill-rule:nonzero;stroke:none"
         id="path46" />
      <path
         d="m 431.652,3361.98 c 0,-8.41 -7.339,-15.23 -16.39,-15.23 -9.059,0 -16.399,6.82 -16.399,15.23 0,8.42 7.34,15.24 16.399,15.24 9.051,0 16.39,-6.82 16.39,-15.24"
         style="fill:#fcfdfd;fill-opacity:1;fill-rule:nonzero;stroke:none"
         id="path48" />
      <path
         d="m 484.559,3361.98 c 0,-8.41 -7.34,-15.23 -16.391,-15.23 -9.055,0 -16.398,6.82 -16.398,15.23 0,8.42 7.343,15.24 16.398,15.24 9.051,0 16.391,-6.82 16.391,-15.24"
         style="fill:#fcfdfd;fill-opacity:1;fill-rule:nonzero;stroke:none"
         id="path50" />
      <path
         d="m 537.465,3361.98 c 0,-8.41 -7.34,-15.23 -16.395,-15.23 -9.05,0 -16.39,6.82 -16.39,15.23 0,8.42 7.34,15.24 16.39,15.24 9.055,0 16.395,-6.82 16.395,-15.24"
         style="fill:#fcfdfd;fill-opacity:1;fill-rule:nonzero;stroke:none"
         id="path52" />
      <path
         d="m 2352.73,2061.67 c 0,0 -0.16,8.45 -0.25,24.65 -0.06,16.26 -0.15,40.26 -0.26,71.62 -0.13,62.82 -0.33,155.05 -0.58,273.16 -0.3,236.03 -0.71,575.38 -1.21,989.1 l 2.29,-2.31 c -558.92,-0.16 -1264.02,-0.36 -2028.181,-0.58 h -0.16 l 2.875,2.89 c -0.082,-484 -0.168,-944.24 -0.242,-1358.53 l -2.633,2.64 c 597.223,-0.53 1103.981,-0.98 1461.521,-1.3 178.92,-0.3 320.48,-0.55 417.42,-0.71 48.43,-0.14 85.71,-0.25 110.97,-0.31 12.56,-0.07 22.12,-0.13 28.64,-0.16 6.44,-0.05 9.8,-0.16 9.8,-0.16 0,0 -3.15,-0.1 -9.5,-0.15 -6.45,-0.04 -15.9,-0.09 -28.33,-0.16 -25.15,-0.07 -62.24,-0.17 -110.45,-0.32 -96.8,-0.16 -238.16,-0.4 -416.81,-0.7 -357.98,-0.33 -865.327,-0.78 -1463.261,-1.3 h -2.641 v 2.63 c -0.07,414.29 -0.152,874.53 -0.242,1358.53 v 2.87 h 2.883 0.16 c 764.161,-0.21 1469.261,-0.41 2028.181,-0.57 h 2.31 v -2.3 c -0.51,-414.32 -0.92,-754.16 -1.21,-990.53 -0.26,-117.89 -0.45,-209.95 -0.59,-272.64 -0.11,-31.18 -0.2,-55.03 -0.25,-71.2 -0.08,-16.03 -0.25,-24.16 -0.25,-24.16"
         style="fill:#1d2a30;fill-opacity:1;fill-rule:nonzero;stroke:none"
         id="path54" />
      <path
         d="M 917.645,2631.15 H 456.441 V 2662 h 461.204 v -30.85"
         style="fill:#f03658;fill-opacity:1;fill-rule:nonzero;stroke:none"
         id="path56" />
      <path
         d="m 1052.14,3059.48 h 461.199 v 30.8555 H 1052.14 Z"
         style="fill:#f03658;fill-opacity:1;fill-rule:nonzero;stroke:none"
         id="path58" />
      <path
         d="m 2199.27,2975.45 c 0,-1.6 -256.81,-2.89 -573.53,-2.89 -316.84,0 -573.6,1.29 -573.6,2.89 0,1.58 256.76,2.87 573.6,2.87 316.72,0 573.53,-1.29 573.53,-2.87"
         style="fill:#1d2a30;fill-opacity:1;fill-rule:nonzero;stroke:none"
         id="path60" />
      <path
         d="m 2199.27,2908.07 c 0,-1.59 -256.81,-2.87 -573.53,-2.87 -316.84,0 -573.6,1.28 -573.6,2.87 0,1.59 256.76,2.88 573.6,2.88 316.72,0 573.53,-1.29 573.53,-2.88"
         style="fill:#1d2a30;fill-opacity:1;fill-rule:nonzero;stroke:none"
         id="path62" />
      <path
         d="m 2199.27,2840.71 c 0,-1.6 -256.81,-2.88 -573.53,-2.88 -316.84,0 -573.6,1.28 -573.6,2.88 0,1.58 256.76,2.87 573.6,2.87 316.72,0 573.53,-1.29 573.53,-2.87"
         style="fill:#1d2a30;fill-opacity:1;fill-rule:nonzero;stroke:none"
         id="path64" />
      <path
         d="m 2199.27,2773.34 c 0,-1.59 -256.81,-2.88 -573.53,-2.88 -316.84,0 -573.6,1.29 -573.6,2.88 0,1.59 256.76,2.87 573.6,2.87 316.72,0 573.53,-1.28 573.53,-2.87"
         style="fill:#1d2a30;fill-opacity:1;fill-rule:nonzero;stroke:none"
         id="path66" />
      <path
         d="m 2199.27,2705.96 c 0,-1.58 -256.81,-2.87 -573.53,-2.87 -316.84,0 -573.6,1.29 -573.6,2.87 0,1.6 256.76,2.89 573.6,2.89 316.72,0 573.53,-1.29 573.53,-2.89"
         style="fill:#1d2a30;fill-opacity:1;fill-rule:nonzero;stroke:none"
         id="path68" />
      <path
         d="m 1499.93,2638.6 c 0,-1.59 -100.25,-2.88 -223.88,-2.88 -123.68,0 -223.91,1.29 -223.91,2.88 0,1.59 100.23,2.88 223.91,2.88 123.63,0 223.88,-1.29 223.88,-2.88"
         style="fill:#1d2a30;fill-opacity:1;fill-rule:nonzero;stroke:none"
         id="path70" />
      <path
         d="m 2190.9,2507.86 c 0,-1.6 -168.81,-2.89 -376.99,-2.89 -208.24,0 -377.01,1.29 -377.01,2.89 0,1.58 168.77,2.87 377.01,2.87 208.18,0 376.99,-1.29 376.99,-2.87"
         style="fill:#1d2a30;fill-opacity:1;fill-rule:nonzero;stroke:none"
         id="path72" />
      <path
         d="m 2190.9,2436.34 c 0,-1.59 -168.81,-2.88 -376.99,-2.88 -208.24,0 -377.01,1.29 -377.01,2.88 0,1.59 168.77,2.88 377.01,2.88 208.18,0 376.99,-1.29 376.99,-2.88"
         style="fill:#1d2a30;fill-opacity:1;fill-rule:nonzero;stroke:none"
         id="path74" />
      <path
         d="m 2190.9,2364.83 c 0,-1.59 -168.81,-2.88 -376.99,-2.88 -208.24,0 -377.01,1.29 -377.01,2.88 0,1.59 168.77,2.88 377.01,2.88 208.18,0 376.99,-1.29 376.99,-2.88"
         style="fill:#1d2a30;fill-opacity:1;fill-rule:nonzero;stroke:none"
         id="path76" />
      <path
         d="m 2190.9,2293.31 c 0,-1.58 -168.81,-2.87 -376.99,-2.87 -208.24,0 -377.01,1.29 -377.01,2.87 0,1.6 168.77,2.89 377.01,2.89 208.18,0 376.99,-1.29 376.99,-2.89"
         style="fill:#1d2a30;fill-opacity:1;fill-rule:nonzero;stroke:none"
         id="path78" />
      <path
         d="m 918.805,2514.7 c 0,-1.6 -100.621,-2.88 -224.715,-2.88 -124.141,0 -224.746,1.28 -224.746,2.88 0,1.58 100.605,2.87 224.746,2.87 124.094,0 224.715,-1.29 224.715,-2.87"
         style="fill:#1d2a30;fill-opacity:1;fill-rule:nonzero;stroke:none"
         id="path80" />
      <path
         d="m 918.805,2458.53 c 0,-1.59 -100.621,-2.88 -224.715,-2.88 -124.141,0 -224.746,1.29 -224.746,2.88 0,1.59 100.605,2.88 224.746,2.88 124.094,0 224.715,-1.29 224.715,-2.88"
         style="fill:#1d2a30;fill-opacity:1;fill-rule:nonzero;stroke:none"
         id="path82" />
      <path
         d="m 918.805,2402.37 c 0,-1.59 -100.621,-2.88 -224.715,-2.88 -124.141,0 -224.746,1.29 -224.746,2.88 0,1.59 100.605,2.88 224.746,2.88 124.094,0 224.715,-1.29 224.715,-2.88"
         style="fill:#1d2a30;fill-opacity:1;fill-rule:nonzero;stroke:none"
         id="path84" />
      <path
         d="m 918.805,2346.21 c 0,-1.59 -100.621,-2.88 -224.715,-2.88 -124.141,0 -224.746,1.29 -224.746,2.88 0,1.59 100.605,2.88 224.746,2.88 124.094,0 224.715,-1.29 224.715,-2.88"
         style="fill:#1d2a30;fill-opacity:1;fill-rule:nonzero;stroke:none"
         id="path86" />
      <path
         d="m 918.805,2290.05 c 0,-1.59 -100.621,-2.88 -224.715,-2.88 -124.141,0 -224.746,1.29 -224.746,2.88 0,1.59 100.605,2.88 224.746,2.88 124.094,0 224.715,-1.29 224.715,-2.88"
         style="fill:#1d2a30;fill-opacity:1;fill-rule:nonzero;stroke:none"
         id="path88" />
      <path
         d="m 1051.86,2225.39 h 327.223 v 316.578 H 1051.86 Z"
         style="fill:#f03658;fill-opacity:1;fill-rule:nonzero;stroke:none"
         id="path90" />
      <path
         d="m 437.652,2731.29 h 462.363 v 447.332 H 437.652 Z"
         style="fill:#f03658;fill-opacity:1;fill-rule:nonzero;stroke:none"
         id="path92" />
      <g
         id="g94">
        <g
           id="g96"
           clip-path="url(#clipPath100)">
          <path
             d="m 475.422,2769.58 h 388.656 v 230.191 H 475.422 Z"
             style="fill:#bc283b;fill-opacity:1;fill-rule:nonzero;stroke:none"
             id="path102" />
        </g>
      </g>
      <path
         d="m 717.313,3011.27 c -18.379,0 -33.274,14.89 -33.274,33.27 0,18.37 14.895,33.27 33.274,33.27 18.378,0 33.273,-14.9 33.273,-33.27 0,-18.38 -14.895,-33.27 -33.273,-33.27"
         style="fill:#bc283b;fill-opacity:1;fill-rule:nonzero;stroke:none"
         id="path104" />
      <path
         d="m 471.586,2766.41 v 1.93 c -0.07,54.48 -0.145,113.71 -0.215,176.36 -0.016,31.34 -0.035,63.52 -0.055,96.39 -0.003,16.44 -0.011,33.05 -0.011,49.81 -0.004,8.38 -0.004,16.8 -0.004,25.25 v 12.71 l -0.004,6.37 v 3.19 1.6 0.8 0.39 0.2 0.1 c -0.34,-0.33 -0.481,-0.47 -0.488,-0.47 -0.012,0 0.668,0.69 1.351,1.39 0.692,0.69 1.387,1.39 1.406,1.39 0,0 -0.007,-0.02 -0.031,-0.04 143.36,-0.11 277.488,-0.22 390.633,-0.31 l 1.898,-0.01 -0.011,-1.89 c -0.399,-112.21 -0.731,-205.66 -0.965,-271.29 -0.211,-32.39 -0.375,-57.91 -0.492,-75.55 -0.094,-8.5 -0.168,-15.09 -0.215,-19.76 -0.051,-2.09 -0.082,-3.72 -0.11,-5.02 -0.031,-1.07 -0.066,-1.62 -0.101,-1.62 -0.004,0 -0.004,0 -0.004,0.01 -0.027,0.02 -0.059,0.44 -0.09,1.24 h 0.09 l -0.094,0.16 c -0.004,0.13 -0.011,0.27 -0.015,0.42 -0.024,1.35 -0.063,3.05 -0.102,5.22 -0.055,4.76 -0.129,11.48 -0.227,20.13 -0.109,17.74 -0.277,43.4 -0.488,75.97 -0.23,64.97 -0.566,157.34 -0.957,268.2 -112.18,-0.09 -244.832,-0.19 -386.586,-0.3 v -0.96 -3.19 -6.37 -12.71 c 0,-8.45 -0.004,-16.87 -0.004,-25.25 0,-16.76 -0.004,-33.37 -0.015,-49.81 -0.02,-32.87 -0.035,-65.05 -0.055,-96.39 -0.066,-60.84 -0.137,-118.47 -0.203,-171.66 l -1.926,-3.46 h 194.461 c 33.008,-0.12 62.512,-0.22 88.004,-0.3 34.137,-0.22 61.062,-0.39 79.672,-0.51 9.09,-0.09 16.14,-0.17 21.133,-0.22 2.289,-0.05 4.074,-0.08 5.472,-0.11 1.246,-0.04 1.895,-0.06 1.93,-0.1 0.035,-0.04 -0.543,-0.08 -1.711,-0.11 -1.348,-0.03 -3.066,-0.07 -5.269,-0.12 -4.903,-0.04 -11.829,-0.12 -20.762,-0.22 -18.504,-0.12 -45.281,-0.28 -79.235,-0.5 -68.765,-0.24 -166.582,-0.57 -283.695,-0.98 h -1.91"
         style="fill:#bc283b;fill-opacity:1;fill-rule:nonzero;stroke:none"
         id="path106" />
      <path
         d="m 864.168,2769.58 h -0.09 c 0,0.05 -0.004,0.1 -0.004,0.16 l 0.094,-0.16 m -196.211,0 H 473.496 l 1.926,3.46 c 0,-0.93 0,-1.86 0,-2.79 72.414,-0.25 137.371,-0.48 192.535,-0.67"
         style="fill:#801c28;fill-opacity:1;fill-rule:nonzero;stroke:none"
         id="path108" />
      <path
         d="M 2113.11,2030.04 H 4077.3 V 3345.59 H 2113.11 Z"
         style="fill:#ffffff;fill-opacity:1;fill-rule:nonzero;stroke:none"
         id="path110" />
      <path
         d="M 4079.2,3223.52 H 2115.01 v 131.41 H 4079.2 v -131.41"
         style="fill:#eeeeee;fill-opacity:1;fill-rule:nonzero;stroke:none"
         id="path112" />
      <path
         d="m 2218.89,3298.56 c 0,-8.15 -7.11,-14.76 -15.88,-14.76 -8.77,0 -15.87,6.61 -15.87,14.76 0,8.15 7.1,14.75 15.87,14.75 8.77,0 15.88,-6.6 15.88,-14.75"
         style="fill:#fcfdfd;fill-opacity:1;fill-rule:nonzero;stroke:none"
         id="path114" />
      <path
         d="m 2270.12,3298.56 c 0,-8.15 -7.11,-14.76 -15.88,-14.76 -8.75,0 -15.86,6.61 -15.86,14.76 0,8.15 7.11,14.75 15.86,14.75 8.77,0 15.88,-6.6 15.88,-14.75"
         style="fill:#fcfdfd;fill-opacity:1;fill-rule:nonzero;stroke:none"
         id="path116" />
      <path
         d="m 2321.35,3298.56 c 0,-8.15 -7.11,-14.76 -15.86,-14.76 -8.77,0 -15.88,6.61 -15.88,14.76 0,8.15 7.11,14.75 15.88,14.75 8.75,0 15.86,-6.6 15.86,-14.75"
         style="fill:#fcfdfd;fill-opacity:1;fill-rule:nonzero;stroke:none"
         id="path118" />
      <path
         d="m 4079.2,2039.38 c 0,0 -0.17,8.18 -0.25,23.88 -0.06,15.75 -0.14,38.98 -0.26,69.36 -0.14,60.83 -0.33,150.15 -0.59,264.52 -0.28,228.56 -0.7,557.16 -1.2,957.78 l 2.3,-2.3 c -541.25,-0.16 -1224.05,-0.35 -1964.04,-0.58 h -0.15 l 2.88,2.88 c -0.09,-468.67 -0.17,-914.36 -0.25,-1315.54 l -2.63,2.64 c 578.32,-0.54 1069.03,-0.99 1415.27,-1.3 173.25,-0.31 310.33,-0.55 404.21,-0.72 46.91,-0.13 83.01,-0.24 107.48,-0.31 12.16,-0.07 21.42,-0.13 27.73,-0.15 6.24,-0.06 9.5,-0.16 9.5,-0.16 0,0 -3.05,-0.11 -9.19,-0.16 -6.25,-0.04 -15.4,-0.09 -27.44,-0.15 -24.35,-0.07 -60.27,-0.18 -106.95,-0.33 -93.73,-0.16 -230.61,-0.4 -403.61,-0.7 -346.66,-0.32 -837.97,-0.77 -1417,-1.3 l -2.64,-0.01 v 2.65 c -0.07,401.18 -0.16,846.87 -0.24,1315.54 v 2.88 h 2.88 0.15 c 739.99,-0.21 1422.79,-0.42 1964.04,-0.57 h 2.3 v -2.31 c -0.51,-401.21 -0.93,-730.31 -1.21,-959.21 -0.25,-114.15 -0.45,-203.29 -0.59,-264.01 -0.11,-30.18 -0.19,-53.28 -0.25,-68.93 -0.09,-15.53 -0.25,-23.39 -0.25,-23.39"
         style="fill:#1d2a30;fill-opacity:1;fill-rule:nonzero;stroke:none"
         id="path120" />
      <path
         d="M 2689.51,2590.84 H 2242.9 v 29.88 h 446.61 v -29.88"
         style="fill:#f03658;fill-opacity:1;fill-rule:nonzero;stroke:none"
         id="path122" />
      <path
         d="m 3266.36,3005.63 h -446.61 v 29.87 h 446.61 v -29.87"
         style="fill:#f03658;fill-opacity:1;fill-rule:nonzero;stroke:none"
         id="path124" />
      <path
         d="m 3930.6,2924.24 c 0,-1.59 -248.69,-2.88 -555.4,-2.88 -306.8,0 -555.45,1.29 -555.45,2.88 0,1.59 248.65,2.88 555.45,2.88 306.71,0 555.4,-1.29 555.4,-2.88"
         style="fill:#1d2a30;fill-opacity:1;fill-rule:nonzero;stroke:none"
         id="path126" />
      <path
         d="m 3930.6,2859 c 0,-1.59 -248.69,-2.88 -555.4,-2.88 -306.8,0 -555.45,1.29 -555.45,2.88 0,1.59 248.65,2.88 555.45,2.88 306.71,0 555.4,-1.29 555.4,-2.88"
         style="fill:#1d2a30;fill-opacity:1;fill-rule:nonzero;stroke:none"
         id="path128" />
      <path
         d="m 3930.6,2793.76 c 0,-1.58 -248.69,-2.87 -555.4,-2.87 -306.8,0 -555.45,1.29 -555.45,2.87 0,1.6 248.65,2.88 555.45,2.88 306.71,0 555.4,-1.28 555.4,-2.88"
         style="fill:#1d2a30;fill-opacity:1;fill-rule:nonzero;stroke:none"
         id="path130" />
      <path
         d="m 3930.6,2728.53 c 0,-1.59 -248.69,-2.88 -555.4,-2.88 -306.8,0 -555.45,1.29 -555.45,2.88 0,1.59 248.65,2.88 555.45,2.88 306.71,0 555.4,-1.29 555.4,-2.88"
         style="fill:#1d2a30;fill-opacity:1;fill-rule:nonzero;stroke:none"
         id="path132" />
      <path
         d="m 3930.6,2663.29 c 0,-1.59 -248.69,-2.88 -555.4,-2.88 -306.8,0 -555.45,1.29 -555.45,2.88 0,1.59 248.65,2.88 555.45,2.88 306.71,0 555.4,-1.29 555.4,-2.88"
         style="fill:#1d2a30;fill-opacity:1;fill-rule:nonzero;stroke:none"
         id="path134" />
      <path
         d="m 3253.38,2598.05 c 0,-1.59 -97.08,-2.88 -216.81,-2.88 -119.77,0 -216.82,1.29 -216.82,2.88 0,1.59 97.05,2.88 216.82,2.88 119.73,0 216.81,-1.29 216.81,-2.88"
         style="fill:#1d2a30;fill-opacity:1;fill-rule:nonzero;stroke:none"
         id="path136" />
      <path
         d="m 3922.48,2471.44 c 0,-1.59 -163.46,-2.88 -365.05,-2.88 -201.66,0 -365.09,1.29 -365.09,2.88 0,1.59 163.43,2.88 365.09,2.88 201.59,0 365.05,-1.29 365.05,-2.88"
         style="fill:#1d2a30;fill-opacity:1;fill-rule:nonzero;stroke:none"
         id="path138" />
      <path
         d="m 3922.48,2402.19 c 0,-1.59 -163.46,-2.87 -365.05,-2.87 -201.66,0 -365.09,1.28 -365.09,2.87 0,1.59 163.43,2.88 365.09,2.88 201.59,0 365.05,-1.29 365.05,-2.88"
         style="fill:#1d2a30;fill-opacity:1;fill-rule:nonzero;stroke:none"
         id="path140" />
      <path
         d="m 3922.48,2332.94 c 0,-1.59 -163.46,-2.88 -365.05,-2.88 -201.66,0 -365.09,1.29 -365.09,2.88 0,1.59 163.43,2.88 365.09,2.88 201.59,0 365.05,-1.29 365.05,-2.88"
         style="fill:#1d2a30;fill-opacity:1;fill-rule:nonzero;stroke:none"
         id="path142" />
      <path
         d="m 3922.48,2263.69 c 0,-1.59 -163.46,-2.88 -365.05,-2.88 -201.66,0 -365.09,1.29 -365.09,2.88 0,1.59 163.43,2.88 365.09,2.88 201.59,0 365.05,-1.29 365.05,-2.88"
         style="fill:#1d2a30;fill-opacity:1;fill-rule:nonzero;stroke:none"
         id="path144" />
      <path
         d="m 2690.63,2478.07 c 0,-1.59 -97.44,-2.88 -217.61,-2.88 -120.21,0 -217.63,1.29 -217.63,2.88 0,1.59 97.42,2.88 217.63,2.88 120.17,0 217.61,-1.29 217.61,-2.88"
         style="fill:#1d2a30;fill-opacity:1;fill-rule:nonzero;stroke:none"
         id="path146" />
      <path
         d="m 2690.63,2423.69 c 0,-1.6 -97.44,-2.89 -217.61,-2.89 -120.21,0 -217.63,1.29 -217.63,2.89 0,1.58 97.42,2.87 217.63,2.87 120.17,0 217.61,-1.29 217.61,-2.87"
         style="fill:#1d2a30;fill-opacity:1;fill-rule:nonzero;stroke:none"
         id="path148" />
      <path
         d="m 2690.63,2369.3 c 0,-1.59 -97.44,-2.88 -217.61,-2.88 -120.21,0 -217.63,1.29 -217.63,2.88 0,1.59 97.42,2.88 217.63,2.88 120.17,0 217.61,-1.29 217.61,-2.88"
         style="fill:#1d2a30;fill-opacity:1;fill-rule:nonzero;stroke:none"
         id="path150" />
      <path
         d="m 2690.63,2314.92 c 0,-1.6 -97.44,-2.89 -217.61,-2.89 -120.21,0 -217.63,1.29 -217.63,2.89 0,1.58 97.42,2.87 217.63,2.87 120.17,0 217.61,-1.29 217.61,-2.87"
         style="fill:#1d2a30;fill-opacity:1;fill-rule:nonzero;stroke:none"
         id="path152" />
      <path
         d="m 2690.63,2260.53 c 0,-1.59 -97.44,-2.88 -217.61,-2.88 -120.21,0 -217.63,1.29 -217.63,2.88 0,1.59 97.42,2.88 217.63,2.88 120.17,0 217.61,-1.29 217.61,-2.88"
         style="fill:#1d2a30;fill-opacity:1;fill-rule:nonzero;stroke:none"
         id="path154" />
      <path
         d="m 2819.48,2197.92 h 316.871 v 306.559 H 2819.48 Z"
         style="fill:#f03658;fill-opacity:1;fill-rule:nonzero;stroke:none"
         id="path156" />
      <path
         d="M 1014.61,1903.35 H 3597.6 V 3633.36 H 1014.61 Z"
         style="fill:#ffffff;fill-opacity:1;fill-rule:nonzero;stroke:none"
         id="path158" />
      <path
         d="m 3600.1,3472.83 h -2583 v 172.81 h 2583 v -172.81"
         style="fill:#e3e3e2;fill-opacity:1;fill-rule:nonzero;stroke:none"
         id="path160" />
      <path
         d="m 1153.72,3571.52 c 0,-10.72 -9.35,-19.41 -20.88,-19.41 -11.53,0 -20.88,8.69 -20.88,19.41 0,10.71 9.35,19.4 20.88,19.4 11.53,0 20.88,-8.69 20.88,-19.4"
         style="fill:#fcfdfd;fill-opacity:1;fill-rule:nonzero;stroke:none"
         id="path162" />
      <path
         d="m 1221.09,3571.52 c 0,-10.72 -9.35,-19.41 -20.88,-19.41 -11.53,0 -20.87,8.69 -20.87,19.41 0,10.71 9.34,19.4 20.87,19.4 11.53,0 20.88,-8.69 20.88,-19.4"
         style="fill:#fcfdfd;fill-opacity:1;fill-rule:nonzero;stroke:none"
         id="path164" />
      <path
         d="m 1288.46,3571.52 c 0,-10.72 -9.34,-19.41 -20.88,-19.41 -11.52,0 -20.87,8.69 -20.87,19.41 0,10.71 9.35,19.4 20.87,19.4 11.54,0 20.88,-8.69 20.88,-19.4"
         style="fill:#fcfdfd;fill-opacity:1;fill-rule:nonzero;stroke:none"
         id="path166" />
      <path
         d="m 3600.1,1915.64 c -0.02,18.8 -0.89,676.23 -2.3,1730 l 2.3,-2.3 c -711.75,-0.16 -1609.66,-0.36 -2582.79,-0.58 h -0.2 l 2.87,2.88 c -0.09,-616.34 -0.16,-1202.43 -0.24,-1730 l -2.63,2.64 c 1521.31,-1.56 2559.43,-2.62 2582.99,-2.64 -23.55,-0.03 -1061.68,-1.09 -2582.99,-2.64 h -2.65 v 2.64 c -0.07,527.57 -0.15,1113.66 -0.23,1730 v 2.88 h 2.88 0.2 c 973.13,-0.22 1871.04,-0.42 2582.79,-0.57 h 2.31 l -0.01,-2.31 c -1.4,-1053.77 -2.28,-1711.22 -2.3,-1730"
         style="fill:#1d2a30;fill-opacity:1;fill-rule:nonzero;stroke:none"
         id="path168" />
      <path
         d="m 1772.59,2640.84 h -587.31 v 39.29 h 587.31 v -39.29"
         style="fill:#f03658;fill-opacity:1;fill-rule:nonzero;stroke:none"
         id="path170" />
      <path
         d="m 2531.19,3186.3 h -587.32 v 39.29 h 587.32 v -39.29"
         style="fill:#f03658;fill-opacity:1;fill-rule:nonzero;stroke:none"
         id="path172" />
      <path
         d="m 3404.69,3079.27 c 0,-1.59 -327.04,-2.88 -730.37,-2.88 -403.47,0 -730.45,1.29 -730.45,2.88 0,1.59 326.98,2.88 730.45,2.88 403.33,0 730.37,-1.29 730.37,-2.88"
         style="fill:#1d2a30;fill-opacity:1;fill-rule:nonzero;stroke:none"
         id="path174" />
      <path
         d="m 3404.69,2993.48 c 0,-1.59 -327.04,-2.87 -730.37,-2.87 -403.47,0 -730.45,1.28 -730.45,2.87 0,1.59 326.98,2.88 730.45,2.88 403.33,0 730.37,-1.29 730.37,-2.88"
         style="fill:#1d2a30;fill-opacity:1;fill-rule:nonzero;stroke:none"
         id="path176" />
      <path
         d="m 3404.69,2907.7 c 0,-1.6 -327.04,-2.89 -730.37,-2.89 -403.47,0 -730.45,1.29 -730.45,2.89 0,1.58 326.98,2.87 730.45,2.87 403.33,0 730.37,-1.29 730.37,-2.87"
         style="fill:#1d2a30;fill-opacity:1;fill-rule:nonzero;stroke:none"
         id="path178" />
      <path
         d="m 3404.69,2821.9 c 0,-1.59 -327.04,-2.88 -730.37,-2.88 -403.47,0 -730.45,1.29 -730.45,2.88 0,1.59 326.98,2.88 730.45,2.88 403.33,0 730.37,-1.29 730.37,-2.88"
         style="fill:#1d2a30;fill-opacity:1;fill-rule:nonzero;stroke:none"
         id="path180" />
      <path
         d="m 3404.69,2736.11 c 0,-1.59 -327.04,-2.88 -730.37,-2.88 -403.47,0 -730.45,1.29 -730.45,2.88 0,1.59 326.98,2.88 730.45,2.88 403.33,0 730.37,-1.29 730.37,-2.88"
         style="fill:#1d2a30;fill-opacity:1;fill-rule:nonzero;stroke:none"
         id="path182" />
      <path
         d="m 2514.11,2650.32 c 0,-1.59 -127.67,-2.87 -285.11,-2.87 -157.49,0 -285.13,1.28 -285.13,2.87 0,1.59 127.64,2.88 285.13,2.88 157.44,0 285.11,-1.29 285.11,-2.88"
         style="fill:#1d2a30;fill-opacity:1;fill-rule:nonzero;stroke:none"
         id="path184" />
      <path
         d="m 3394.01,2483.82 c 0,-1.58 -214.95,-2.87 -480.06,-2.87 -265.19,0 -480.11,1.29 -480.11,2.87 0,1.59 214.92,2.88 480.11,2.88 265.11,0 480.06,-1.29 480.06,-2.88"
         style="fill:#1d2a30;fill-opacity:1;fill-rule:nonzero;stroke:none"
         id="path186" />
      <path
         d="m 3394.01,2392.76 c 0,-1.59 -214.95,-2.88 -480.06,-2.88 -265.19,0 -480.11,1.29 -480.11,2.88 0,1.58 214.92,2.87 480.11,2.87 265.11,0 480.06,-1.29 480.06,-2.87"
         style="fill:#1d2a30;fill-opacity:1;fill-rule:nonzero;stroke:none"
         id="path188" />
      <path
         d="m 3394.01,2301.69 c 0,-1.59 -214.95,-2.88 -480.06,-2.88 -265.19,0 -480.11,1.29 -480.11,2.88 0,1.59 214.92,2.88 480.11,2.88 265.11,0 480.06,-1.29 480.06,-2.88"
         style="fill:#1d2a30;fill-opacity:1;fill-rule:nonzero;stroke:none"
         id="path190" />
      <path
         d="m 3394.01,2210.62 c 0,-1.59 -214.95,-2.88 -480.06,-2.88 -265.19,0 -480.11,1.29 -480.11,2.88 0,1.59 214.92,2.88 480.11,2.88 265.11,0 480.06,-1.29 480.06,-2.88"
         style="fill:#1d2a30;fill-opacity:1;fill-rule:nonzero;stroke:none"
         id="path192" />
      <path
         d="m 1774.08,2492.54 c 0,-1.59 -128.14,-2.88 -286.17,-2.88 -158.08,0 -286.19,1.29 -286.19,2.88 0,1.58 128.11,2.87 286.19,2.87 158.03,0 286.17,-1.29 286.17,-2.87"
         style="fill:#1d2a30;fill-opacity:1;fill-rule:nonzero;stroke:none"
         id="path194" />
      <path
         d="m 1774.08,2421.02 c 0,-1.59 -128.14,-2.88 -286.17,-2.88 -158.08,0 -286.19,1.29 -286.19,2.88 0,1.59 128.11,2.88 286.19,2.88 158.03,0 286.17,-1.29 286.17,-2.88"
         style="fill:#1d2a30;fill-opacity:1;fill-rule:nonzero;stroke:none"
         id="path196" />
      <path
         d="m 1774.08,2349.5 c 0,-1.59 -128.14,-2.88 -286.17,-2.88 -158.08,0 -286.19,1.29 -286.19,2.88 0,1.59 128.11,2.88 286.19,2.88 158.03,0 286.17,-1.29 286.17,-2.88"
         style="fill:#1d2a30;fill-opacity:1;fill-rule:nonzero;stroke:none"
         id="path198" />
      <path
         d="m 1774.08,2277.98 c 0,-1.59 -128.14,-2.88 -286.17,-2.88 -158.08,0 -286.19,1.29 -286.19,2.88 0,1.59 128.11,2.88 286.19,2.88 158.03,0 286.17,-1.29 286.17,-2.88"
         style="fill:#1d2a30;fill-opacity:1;fill-rule:nonzero;stroke:none"
         id="path200" />
      <path
         d="m 1774.08,2206.46 c 0,-1.59 -128.14,-2.88 -286.17,-2.88 -158.08,0 -286.19,1.29 -286.19,2.88 0,1.59 128.11,2.88 286.19,2.88 158.03,0 286.17,-1.29 286.17,-2.88"
         style="fill:#1d2a30;fill-opacity:1;fill-rule:nonzero;stroke:none"
         id="path202" />
      <path
         d="m 1943.52,2124.12 h 416.691 v 403.148 H 1943.52 Z"
         style="fill:#f03658;fill-opacity:1;fill-rule:nonzero;stroke:none"
         id="path204" />
      <path
         d="M 2327.83,2158.63 H 2151.6 c -49.83,0.17 -108.55,0.38 -174.04,0.61 0,0.83 0,1.67 0,2.51 l 113.54,204.34 94.28,-132.6 57.29,70.42 85.15,-145.14 c 0.01,-0.05 0.01,-0.09 0.01,-0.14"
         style="fill:#bc283b;fill-opacity:1;fill-rule:nonzero;stroke:none"
         id="path206" />
      <path
         d="m 2195.55,2376.45 c -16.55,0 -29.98,13.42 -29.98,29.98 0,16.57 13.43,29.99 29.98,29.99 16.57,0 29.99,-13.42 29.99,-29.99 0,-16.56 -13.42,-29.98 -29.99,-29.98"
         style="fill:#bc283b;fill-opacity:1;fill-rule:nonzero;stroke:none"
         id="path208" />
      <path
         d="m 1974.1,2155.78 v 1.73 c -0.06,49.11 -0.13,102.49 -0.19,158.95 -0.02,28.24 -0.04,57.25 -0.05,86.87 -0.01,14.81 -0.01,29.78 -0.02,44.89 0,7.55 0,15.14 0,22.76 v 11.45 5.74 2.87 1.44 0.72 0.36 0.18 0.09 c -0.31,-0.3 -0.44,-0.42 -0.44,-0.42 -0.01,0 0.6,0.62 1.22,1.25 0.62,0.62 1.25,1.25 1.27,1.25 0,0 -0.01,-0.01 -0.03,-0.04 129.2,-0.1 250.07,-0.2 352.05,-0.28 h 1.71 v -1.7 c -0.38,-101.13 -0.67,-185.36 -0.88,-244.5 -0.19,-29.2 -0.35,-52.19 -0.44,-68.08 -0.09,-7.66 -0.16,-13.61 -0.2,-17.82 -0.04,-1.88 -0.08,-3.36 -0.1,-4.52 -0.02,-0.97 -0.05,-1.46 -0.09,-1.46 v 0 c -0.03,0.02 -0.05,0.4 -0.08,1.12 h 0.08 l -0.09,0.14 c 0,0.12 -0.01,0.25 -0.01,0.39 -0.02,1.21 -0.05,2.74 -0.09,4.7 -0.05,4.29 -0.12,10.34 -0.2,18.15 -0.1,15.98 -0.26,39.1 -0.44,68.46 -0.22,58.55 -0.52,141.79 -0.87,241.72 -101.1,-0.09 -220.65,-0.18 -348.4,-0.29 v -0.86 -2.87 -5.74 -11.45 c 0,-7.62 0,-15.21 0,-22.76 -0.01,-15.11 -0.01,-30.08 -0.02,-44.89 -0.01,-29.62 -0.03,-58.63 -0.04,-86.87 -0.07,-54.84 -0.13,-106.78 -0.19,-154.71 l -1.73,-3.12 h 175.77 c 29.54,-0.1 55.95,-0.19 78.79,-0.27 30.77,-0.19 55.03,-0.34 71.79,-0.45 8.21,-0.09 14.56,-0.16 19.06,-0.21 2.06,-0.04 3.67,-0.07 4.93,-0.09 1.12,-0.04 1.71,-0.07 1.74,-0.1 0.04,-0.03 -0.49,-0.07 -1.55,-0.1 -1.21,-0.02 -2.76,-0.06 -4.74,-0.1 -4.42,-0.05 -10.66,-0.11 -18.71,-0.2 -16.68,-0.1 -40.81,-0.26 -71.41,-0.46 -61.98,-0.21 -150.14,-0.51 -255.67,-0.86 l -1.73,-0.01"
         style="fill:#bc283b;fill-opacity:1;fill-rule:nonzero;stroke:none"
         id="path210" />
      <path
         d="m 2327.91,2158.63 h -0.08 c 0,0.05 0,0.09 -0.01,0.14 l 0.09,-0.14 m -176.31,0 h -175.77 l 1.73,3.12 c 0,-0.84 0,-1.68 0,-2.51 65.49,-0.23 124.21,-0.44 174.04,-0.61"
         style="fill:#801c28;fill-opacity:1;fill-rule:nonzero;stroke:none"
         id="path212" />
      <path
         d="m 1161.35,2768.36 h 588.797 v 569.652 H 1161.35 Z"
         style="fill:#f03658;fill-opacity:1;fill-rule:nonzero;stroke:none"
         id="path214" />
      <path
         d="m 1704.39,2817.12 h -249.21 c -70.37,0.24 -153.27,0.53 -245.73,0.85 0,1.19 0.01,2.37 0.01,3.56 l 160.42,288.72 133.23,-187.36 80.95,99.5 120.32,-205.07 c 0,-0.07 0.01,-0.14 0.01,-0.2"
         style="fill:#bc283b;fill-opacity:1;fill-rule:nonzero;stroke:none"
         id="path216" />
      <path
         d="m 1517.49,3124.89 c -23.41,0 -42.38,18.97 -42.38,42.38 0,23.4 18.97,42.37 42.38,42.37 23.4,0 42.37,-18.97 42.37,-42.37 0,-23.41 -18.97,-42.38 -42.37,-42.38"
         style="fill:#bc283b;fill-opacity:1;fill-rule:nonzero;stroke:none"
         id="path218" />
      <path
         d="m 1204.56,2813.08 v 2.46 c -0.08,69.38 -0.17,144.81 -0.27,224.59 -0.02,39.9 -0.04,80.89 -0.07,122.75 0,20.93 0,42.08 -0.01,63.42 0,10.68 0,21.4 0,32.16 v 16.18 l -0.01,8.11 v 4.07 2.03 1.02 0.51 0.25 0.13 c -0.43,-0.43 -0.61,-0.6 -0.62,-0.6 -0.02,0 0.85,0.88 1.72,1.76 0.88,0.88 1.77,1.77 1.79,1.77 0.01,0 0,-0.02 -0.03,-0.05 182.56,-0.14 353.35,-0.28 497.44,-0.39 h 2.42 l -0.01,-2.41 c -0.52,-142.9 -0.94,-261.91 -1.23,-345.48 -0.27,-41.25 -0.49,-73.75 -0.63,-96.21 -0.13,-10.82 -0.21,-19.22 -0.28,-25.17 -0.06,-2.66 -0.1,-4.74 -0.14,-6.38 -0.04,-1.38 -0.08,-2.07 -0.13,-2.07 v 0 c -0.04,0.04 -0.07,0.57 -0.11,1.59 h 0.11 l -0.12,0.2 c -0.01,0.17 -0.01,0.35 -0.02,0.54 -0.03,1.71 -0.08,3.88 -0.13,6.65 -0.07,6.06 -0.16,14.62 -0.28,25.63 -0.15,22.59 -0.36,55.26 -0.62,96.75 -0.3,82.74 -0.73,200.35 -1.23,341.54 -142.86,-0.12 -311.78,-0.25 -492.29,-0.39 v -1.22 -4.07 -8.11 -16.18 c 0,-10.76 -0.01,-21.48 -0.01,-32.16 0,-21.34 -0.01,-42.49 -0.02,-63.42 -0.02,-41.86 -0.04,-82.85 -0.07,-122.75 -0.08,-77.49 -0.17,-150.87 -0.25,-218.6 l -2.46,-4.41 h 248.18 c 41.81,-0.15 79.2,-0.28 111.53,-0.39 43.47,-0.27 77.75,-0.48 101.45,-0.64 11.58,-0.12 20.56,-0.22 26.91,-0.29 2.91,-0.05 5.19,-0.09 6.98,-0.13 1.57,-0.04 2.4,-0.09 2.45,-0.14 0.05,-0.04 -0.69,-0.09 -2.18,-0.14 -1.72,-0.03 -3.9,-0.08 -6.71,-0.14 -6.24,-0.06 -15.06,-0.16 -26.43,-0.28 -23.57,-0.15 -57.67,-0.36 -100.91,-0.64 -87.57,-0.3 -212.14,-0.73 -361.27,-1.24 l -2.44,-0.01"
         style="fill:#bc283b;fill-opacity:1;fill-rule:nonzero;stroke:none"
         id="path220" />
      <path
         d="m 1704.5,2817.12 h -0.11 c 0,0.06 -0.01,0.13 -0.01,0.2 l 0.12,-0.2 m -249.32,0 H 1207 l 2.46,4.41 c 0,-1.19 -0.01,-2.37 -0.01,-3.56 92.46,-0.32 175.36,-0.61 245.73,-0.85"
         style="fill:#801c28;fill-opacity:1;fill-rule:nonzero;stroke:none"
         id="path222" />
      <path
         d="M 4395.36,3.05859 C 4395.36,1.37109 3423.71,0 2225.41,0 1026.68,0 55.2422,1.37109 55.2422,3.05859 c 0,1.69141 971.4378,3.0625 2170.1678,3.0625 1198.3,0 2169.95,-1.37109 2169.95,-3.0625"
         style="fill:#1d2a30;fill-opacity:1;fill-rule:nonzero;stroke:none"
         id="path224" />
      <path
         d="m 2261.54,90.1094 -25.46,-84.92971 181.61,2.17187 8.09,90.85934 -164.24,-8.1015"
         style="fill:#f03658;fill-opacity:1;fill-rule:nonzero;stroke:none"
         id="path226" />
      <path
         d="m 2421.2,24.5586 c 0.02,-0.7773 -10.09,-1.668 -26.44,-2.0781 -16.36,-0.4414 -38.94,-0.3203 -63.85,0.3086 -23.76,0.7617 -45.28,1.4492 -63.76,2.0507 -16.29,0.6485 -26.39,1.25 -26.4,2.0586 -0.01,0.7813 10.09,1.6211 26.44,2.0118 16.35,0.3984 38.94,0.25 63.86,-0.3711 23.75,-0.7383 45.27,-1.418 63.73,-1.9883 16.31,-0.6289 26.41,-1.1719 26.42,-1.9922"
         style="fill:#1d2a30;fill-opacity:1;fill-rule:nonzero;stroke:none"
         id="path228" />
      <path
         d="m 2343.33,101.66 c 1.59,-0.078 1.93,-17.2381 0.76,-38.3084 -1.16,-21.0703 -3.4,-38.0703 -4.99,-37.9805 -1.58,0.0781 -1.93,17.2305 -0.76,38.3086 1.17,21.0625 3.4,38.0703 4.99,37.9803"
         style="fill:#1d2a30;fill-opacity:1;fill-rule:nonzero;stroke:none"
         id="path230" />
      <path
         d="m 2314.41,6.10938 v 0 l 103.28,1.24218 1.48,16.57814 v 0 L 2417.69,7.35156 2314.41,6.10938 m -78.05,0.01171 c -0.07,0 -0.22,0 -0.29,0 l -0.01,1.10938 3.04,19.64843 1.66,-0.0195 c 0.08,-0.1797 0.65,-0.3477 1.67,-0.5078 l -6.07,-20.23051"
         style="fill:#ffffff;fill-opacity:1;fill-rule:nonzero;stroke:none"
         id="path232" />
      <path
         d="m 2236.08,5.17969 -0.01,0.9414 c 0.07,0 0.22,0 0.29,0 l -0.28,-0.9414 78.33,0.92969 v 0 l -78.33,-0.92969"
         style="fill:#a5adad;fill-opacity:1;fill-rule:nonzero;stroke:none"
         id="path234" />
      <path
         d="m 2236.08,5.17969 0.28,0.9414 6.07,20.23051 c 3.5,-0.5508 12.32,-1.0118 24.72,-1.5118 18.48,-0.6015 40,-1.289 63.76,-2.0507 15.01,-0.3789 29.18,-0.5782 41.65,-0.5782 8.22,0 15.7,0.0899 22.2,0.2696 12.03,0.3008 20.69,0.8711 24.41,1.4492 L 2417.69,7.35156 2314.41,6.10938 2236.08,5.17969"
         style="fill:#f9a8bf;fill-opacity:1;fill-rule:nonzero;stroke:none"
         id="path236" />
      <path
         d="m 2372.56,22.2109 c -12.47,0 -26.64,0.1993 -41.65,0.5782 -23.76,0.7617 -45.28,1.4492 -63.76,2.0507 -12.4,0.5 -21.22,0.961 -24.72,1.5118 -1.02,0.1601 -1.59,0.3281 -1.67,0.5078 l 98.05,-1.2774 c 0.09,-0.1406 0.19,-0.2109 0.29,-0.2109 h 0.01 c 0.1,0 0.21,0.0703 0.32,0.1992 l 79.8,-1.039 -0.06,-0.6016 v 0 c -3.72,-0.5781 -12.38,-1.1484 -24.41,-1.4492 -6.5,-0.1797 -13.98,-0.2696 -22.2,-0.2696"
         style="fill:#a5adad;fill-opacity:1;fill-rule:nonzero;stroke:none"
         id="path238" />
      <path
         d="m 2339.11,25.3711 h -0.01 c -0.1,0 -0.2,0.0703 -0.29,0.2109 l 0.62,-0.0117 c -0.11,-0.1289 -0.22,-0.1992 -0.32,-0.1992"
         style="fill:#a5adad;fill-opacity:1;fill-rule:nonzero;stroke:none"
         id="path240" />
      <path
         d="m 2964.37,66.0195 -313.79,1624.2905 0.4,0.09 c -0.6,2.42 -1.19,4.7 -1.78,7.06 l -0.06,0.31 h -0.02 c -48.16,190.98 -86.18,237.84 -86.18,237.84 l -469.4,-12.79 c -36.82,-66.21 -41.5,-225.05 -41.5,-225.05 -5.05,-19.47 209.1,-1611.8481 209.1,-1611.8481 L 2422.03,99.1016 2367,1597.25 2786.8,62.0586 l 177.57,3.9609"
         style="fill:#1d2a30;fill-opacity:1;fill-rule:nonzero;stroke:none"
         id="path242" />
      <path
         d="m 2491.13,1648.01 c 0.4,-1.54 -51.84,-16.39 -116.67,-33.17 -64.84,-16.79 -117.73,-29.14 -118.13,-27.6 -0.39,1.54 51.84,16.39 116.69,33.17 64.83,16.78 117.72,29.13 118.11,27.6"
         style="fill:#365462;fill-opacity:1;fill-rule:nonzero;stroke:none"
         id="path244" />
      <path
         d="m 2066.27,2482.17 -359.65,-21.99 -310.33,277.79 -3.25,9.55 c -1.83,5.21 -3.74,11.03 -5.68,17.7 -2.25,7.68 -3.13,15.73 -2.74,23.74 0.48,9.73 1.63,22.62 4.39,29.48 3.41,8.49 -4.99,16.82 -11.94,12.48 -6.94,-4.35 -16.92,-27.51 -15.78,-57.06 1.13,-29.55 -28.85,5.33 -39.99,17.84 -11.15,12.51 -47.41,49.55 -53.87,49.07 -9.48,-0.7 -10.51,-11.25 0.9,-23.48 11.55,-12.37 43.13,-51.36 36.4,-57.09 -6.63,-5.65 -62.52,58.83 -62.52,58.83 0,0 -9.77,15.76 -17.76,9.41 -14.41,-11.47 49.93,-75.51 56.2,-81.45 4.36,-4.13 -2.73,-10.62 -7.18,-5.93 -4.58,4.82 -54.3,65.64 -69.07,54.12 -11.35,-8.86 52.44,-53.2 55.92,-71.7 3.47,-18.51 -45.04,38.68 -55.54,29.77 -3.9,-3.32 -6.37,-6.35 26.11,-35.05 15.76,-13.92 40.99,-39 68.44,-58.75 l -0.05,-0.04 324.2,-357.77 452.9,-39.5 -10.11,220.03"
         style="fill:#f9ad95;fill-opacity:1;fill-rule:nonzero;stroke:none"
         id="path246" />
      <path
         d="m 3185.23,3060.79 c -12.56,5.65 -43.31,-62.74 -45.11,-44 -1.78,18.74 47.21,79.03 33.85,84.39 -17.39,6.97 -48.29,-65.24 -51.36,-71.15 -2.96,-5.74 -11.58,-1.47 -8.53,3.72 4.37,7.43 48.43,86.8 31.4,93.82 -9.43,3.9 -14.45,-13.96 -14.45,-13.96 0,0 -35.83,-77.44 -43.76,-73.86 -8.04,3.64 11.48,49.85 19.14,64.95 7.58,14.91 3.66,24.76 -5.64,22.81 -6.35,-1.34 -30.91,-46.98 -38.15,-62.08 -7.23,-15.11 -26.37,-56.94 -33.47,-28.23 -7.1,28.7 -23.12,48.19 -30.99,50.44 -7.88,2.25 -13.65,-8.09 -8.01,-15.3 4.55,-5.82 9.23,-17.89 12.39,-27.11 2.6,-7.59 3.98,-15.56 3.96,-23.57 -0.02,-6.93 -0.24,-13.07 -0.56,-18.57 l -0.46,-10.08 -221.15,-352.94 -351.65,-78.61 62.61,-226.75 412.88,176.08 212.29,433.64 -0.06,0.03 c 20.9,26.58 38.18,57.67 49.46,75.42 23.25,36.58 20.04,38.8 15.37,40.91"
         style="fill:#f9ad95;fill-opacity:1;fill-rule:nonzero;stroke:none"
         id="path248" />
      <path
         d="m 2520.78,2280.14 5.69,20.82 c 14.42,8.99 183.93,114.7 190.36,115.68 6.71,1.02 -75.53,194.62 -75.53,194.62 l -192.93,-27.64 c -19.42,5.43 -32.59,6.48 -32.59,6.48 l -226.76,1.93 c 0,0 -59.98,-9.95 -86.05,-28.85 l -205.2,-77.49 46.39,-238.74 161.27,13.92 c 2.23,-17.98 12.11,-85.82 16.42,-103.42 14.33,-58.4 22.8,-136.57 -7.57,-188.07 0,0 -62.24,-124.03 -62.33,-227.69 l 572.26,66.98 c 0,0 -24.64,100.45 -128.53,234.2 l 4.96,141.04 20.14,96.23"
         style="fill:#365462;fill-opacity:1;fill-rule:nonzero;stroke:none"
         id="path250" />
      <path
         d="m 2200.83,3035.88 c -47.56,-21.56 -66.67,-74.11 -71.34,-122.4 -4.67,-48.28 0.27,-98.55 -18.36,-143.77 -15.69,-38.07 -47.94,-72.84 -44.33,-113.64 2.69,-30.43 25.35,-57.22 29.49,-87.54 8.03,-58.69 -54.27,-111.23 -42.96,-169.51 5.18,-26.68 25.63,-49.54 50.11,-65.32 24.48,-15.77 52.92,-25.43 81.02,-34.81 37.85,-12.63 79.89,-25.09 117.03,-11.9 33,11.73 55.47,41.86 89.66,50.5 32.83,8.3 67.62,-5.26 101.85,-5.98 31.61,-0.67 63.62,10.58 84.19,32.01 20.57,21.44 28.37,53.13 17.41,80.17 -15.26,37.6 -62.17,61.8 -69.4,101.22 -6.53,35.66 22.52,70.97 13.36,106.19 -10.2,39.23 -62.69,59.85 -75.4,98.5 -15.24,46.34 33.45,95.76 14.48,141.01 -11.15,26.61 -43.21,43.42 -51.84,70.76 -5.93,18.76 0.45,38.92 -3.81,58.02 -7.36,33 -44.48,54.35 -80.68,61.85 -44.46,9.21 -92.79,3.06 -130.83,-18.9 -38.04,-21.96 -64.76,-59.98 -68.24,-101.01"
         style="fill:#1d2a30;fill-opacity:1;fill-rule:nonzero;stroke:none"
         id="path252" />
      <path
         d="m 2271.79,3069.42 c 43.4,16.58 94.03,13.01 134.68,-9.46 40.66,-22.48 70.59,-63.47 79.62,-109.03 7.3,-36.77 1.88,-76.55 17.86,-110.45 17.37,-36.81 58.09,-62.1 64.26,-102.34 5.97,-38.86 -23.02,-74.23 -29.07,-113.09 -6.3,-40.45 12.74,-81.36 8.14,-122.05 -4.56,-40.32 -34.37,-76.68 -73.03,-89.05 -38.65,-12.37 -84.03,-0.08 -111.16,30.1"
         style="fill:#1d2a30;fill-opacity:1;fill-rule:nonzero;stroke:none"
         id="path254" />
      <path
         d="m 2079.94,2433.01 c -0.09,-0.03 -0.29,0.51 -0.57,1.61 -0.21,1.1 -0.8,2.72 -0.97,4.92 -0.53,4.39 -0.15,11.12 2.68,19.09 2.74,8.01 8.04,16.89 14.41,26.78 6.2,9.92 14.06,21.02 17.9,34.89 3.86,13.86 2.25,30.22 -3.58,46.24 -5.64,16.2 -15.51,31.83 -26.46,48.03 -10.78,16.24 -22.8,33.62 -29.39,54.61 -6.49,20.93 -6.27,44.7 1.37,66.64 3.85,10.95 9.36,21.22 16.36,30.11 6.92,8.91 14.76,16.57 22.07,24.24 7.32,7.65 14.26,15.32 19.36,23.82 5.18,8.44 8.18,17.72 8.73,27.14 1.14,18.97 -4.66,37.03 -7.21,54.4 -2.84,17.5 -1.49,34.47 2.75,48.91 8.28,29.27 25.5,48.23 38.22,58.71 6.57,5.19 12.11,8.6 16.01,10.61 3.94,1.95 6.03,2.88 6.12,2.7 0.33,-0.57 -8.23,-4.28 -20.69,-15.01 -12.03,-10.8 -28.24,-29.69 -35.73,-58.08 -3.84,-14.07 -4.9,-30.18 -1.97,-47.09 2.64,-16.94 8.81,-35.05 7.8,-55.5 -0.5,-10.15 -3.8,-20.57 -9.31,-29.61 -5.43,-9.15 -12.64,-17.13 -19.99,-24.89 -7.37,-7.77 -15.06,-15.35 -21.63,-23.86 -6.62,-8.44 -11.79,-18.11 -15.45,-28.49 -7.24,-20.78 -7.48,-43.31 -1.42,-63.09 6.15,-19.92 17.74,-37.01 28.42,-53.34 10.82,-16.27 20.89,-32.5 26.55,-49.39 5.86,-16.7 7.39,-34.12 3,-48.9 -4.41,-14.77 -12.71,-25.81 -19.14,-35.57 -6.62,-9.71 -12.05,-18.2 -15,-25.8 -6.22,-15.35 -2.35,-24.88 -3.24,-24.83"
         style="fill:#1d2a30;fill-opacity:1;fill-rule:nonzero;stroke:none"
         id="path256" />
      <path
         d="m 2506.99,2339.51 c -0.22,0.23 2.31,2.45 6.27,7.28 3.92,4.83 8.65,13.04 11.13,24.62 2.51,11.46 2.09,26.64 -4.33,42.08 -3.16,7.69 -8.11,15.37 -15.14,21.58 -6.96,6.34 -16.05,10.49 -26.34,13.29 -10.18,3.04 -21.49,5.04 -32.39,10.78 -10.92,5.41 -19.97,18.14 -18.47,31.99 1.24,13.63 8.89,25.6 17.8,35.89 9.23,10.41 20.16,18.79 28.75,29.76 8.68,10.51 15.05,24.4 10.56,37.83 -3.94,13.43 -16.96,22.33 -30.09,29.72 -13.21,7.64 -28.04,14.17 -40.13,25.88 -6.02,5.75 -10.98,13.29 -12.94,21.77 -2.13,8.45 -1.55,17.27 0.24,25.52 3.66,16.58 11.08,31.19 15.19,46.27 4.31,14.83 3.7,30.95 -5.87,42.3 -19.3,22.55 -53.77,26.14 -72.73,50.2 -9.46,11.45 -14.58,25.28 -17.23,38.69 -2.72,13.49 -3.19,26.82 -2.81,39.56 1.05,25.46 4.46,48.76 3.04,70.02 -1.16,21.07 -6.9,40.33 -18.12,52.74 -11.15,12.47 -24.85,19.17 -36.35,21.24 -11.65,2.31 -20.95,-0.47 -26.4,-3.23 -5.59,-2.78 -7.85,-5.4 -8.13,-5.04 -0.07,0.07 0.51,0.66 1.73,1.76 1.2,1.12 2.99,2.79 5.84,4.3 5.44,3.19 15.11,6.48 27.33,4.42 12.08,-1.83 26.45,-8.44 38.38,-21.31 12.13,-12.96 18.34,-33.05 19.78,-54.62 1.7,-21.75 -1.52,-45.4 -2.33,-70.41 -0.26,-12.5 0.3,-25.49 3,-38.41 2.62,-12.87 7.58,-25.82 16.36,-36.33 8.56,-10.74 21.36,-17.59 34.59,-24.17 13.07,-6.72 27.86,-13.03 38.45,-25.89 5.24,-6.36 8.54,-14.43 9.44,-22.74 0.94,-8.33 -0.34,-16.69 -2.45,-24.58 -4.3,-15.77 -11.7,-30.44 -15.08,-45.99 -3.8,-15.36 -0.55,-31.68 11.1,-41.99 10.95,-10.71 25.45,-17.3 38.9,-25.05 6.74,-3.94 13.46,-8.02 19.41,-13.29 5.89,-5.3 10.82,-12.04 13.14,-19.76 2.59,-7.64 1.95,-16.03 -0.44,-23.34 -2.56,-7.32 -6.64,-13.75 -11.25,-19.38 -9.06,-11.43 -20.4,-20.07 -29.07,-29.79 -8.64,-9.77 -15.73,-21.09 -16.85,-32.92 -1.31,-11.91 6.01,-22.6 15.86,-27.73 9.9,-5.38 21.07,-7.58 31.39,-10.76 10.38,-2.93 20.35,-7.59 27.65,-14.49 7.41,-6.76 12.48,-14.95 15.65,-23.06 6.43,-16.28 6.48,-32 3.55,-43.79 -2.91,-11.91 -8.13,-20.17 -12.42,-24.88 -4.34,-4.69 -7.17,-6.54 -7.17,-6.54"
         style="fill:#365462;fill-opacity:1;fill-rule:nonzero;stroke:none"
         id="path258" />
      <path
         d="m 2189.38,2307.05 c -0.18,-0.07 -1.4,2.54 -3.55,7.58 -2.14,5.05 -5.13,12.57 -8.66,22.38 -3.41,9.85 -7.36,22.02 -10.54,36.55 -3,14.5 -5.77,31.53 -3.83,50.4 1.52,18.78 9.05,39.41 23.54,56.41 6.96,8.56 14.82,16.7 20.67,26.36 6.02,9.52 8.89,21.02 8.83,32.84 -0.63,23.97 -12.41,47.58 -25.38,70.6 -13.38,22.88 -27.2,48.65 -28.79,78.21 -0.8,14.6 3.15,29.85 12.38,41.27 9.19,11.56 21.85,18.04 31.85,26.28 10.25,7.94 17.22,18.89 19.42,31.04 2.52,12.08 0.82,24.58 -1.55,36.37 -5.04,23.75 -14.21,45.49 -18.36,67.36 -4,21.79 -4.21,42.64 -1.77,61.25 5.01,37.38 18.79,65.38 30.31,82.68 5.7,8.77 10.89,15.05 14.56,19.12 3.7,4.07 5.72,6.13 5.86,5.99 0.51,-0.42 -7.61,-8.73 -18.52,-26.31 -10.82,-17.46 -23.78,-45.28 -28.17,-81.97 -2.14,-18.27 -1.68,-38.64 2.4,-59.85 4.2,-21.15 13.52,-42.79 18.88,-67.16 2.5,-12.15 4.44,-25.25 1.75,-38.54 -2.25,-13.29 -10.33,-25.93 -21.24,-34.36 -10.61,-8.67 -22.83,-15.11 -30.94,-25.47 -8.23,-10.26 -11.82,-23.81 -11.11,-37.48 1.48,-27.72 14.6,-52.78 27.96,-75.67 12.96,-23.25 25.18,-47.5 25.76,-73.29 0.03,-12.72 -3.25,-25.37 -9.81,-35.54 -6.35,-10.27 -14.43,-18.43 -21.3,-26.77 -14.13,-16.32 -21.39,-35.58 -23.18,-53.79 -2.15,-18.2 0.27,-34.97 2.93,-49.33 2.84,-14.4 6.45,-26.58 9.52,-36.49 3.16,-9.43 5.7,-16.96 7.61,-22.67 1.8,-5.17 2.66,-7.93 2.47,-8"
         style="fill:#365462;fill-opacity:1;fill-rule:nonzero;stroke:none"
         id="path260" />
      <path
         d="m 2974.46,49.9492 -0.7,18.5196 -187.55,-5.418 1.62,-61.0508 11.6,-0.37891 c 51.6,-1.281246 262.48,-3.10937 296.62,7.50782 C 3134.14,21 2974.46,49.9492 2974.46,49.9492"
         style="fill:#f03658;fill-opacity:1;fill-rule:nonzero;stroke:none"
         id="path262" />
      <path
         d="m 2786.5,51.9492 -0.03,1.0391 v 0 l 0.03,-1.0391"
         style="fill:#ffffff;fill-opacity:1;fill-rule:nonzero;stroke:none"
         id="path264" />
      <path
         d="m 2787.94,4.53125 -1.44,47.41795 -0.03,1.0391 c 2.16,0.2226 4.31,0.332 6.45,0.332 13.49,0 26.57,-4.2695 37.58,-11.7695 12.2,-8.3125 21.04,-20.7617 24.53,-34.44142 L 2788,5.87891 2787.94,4.53125"
         style="fill:#f9a8bf;fill-opacity:1;fill-rule:nonzero;stroke:none"
         id="path266" />
      <path
         d="m 2881.92,0 c -9.39,0 -18.62,0.0507813 -27.58,0.128906 20.04,0.011719 39.82,0.019532 59.61,0.03125 C 2903.17,0.0585938 2892.45,0 2881.92,0"
         style="fill:#ffffff;fill-opacity:1;fill-rule:nonzero;stroke:none"
         id="path268" />
      <path
         d="m 2854.34,0.128906 c -25.1,0.25 -48.08,0.851563 -66.51,1.871094 v 0 l 11.6,-0.37891 c 18.5,-0.46093 57.49,-0.992184 101.46,-0.992184 21.69,0 44.6,0.132813 66.86,0.460934 -17.57,-0.441402 -35.75,-0.757809 -53.8,-0.929684 -19.79,-0.011718 -39.57,-0.019531 -59.61,-0.03125"
         style="fill:#a5adad;fill-opacity:1;fill-rule:nonzero;stroke:none"
         id="path270" />
      <path
         d="m 3094.4,8.67188 c 0.59,0.14843 1.14,0.30859 1.65,0.45703 5.3,1.66019 6.77,3.64059 5.37,5.83199 1.17,-1.3398 1.45,-2.6406 0.53,-3.8398 -0.65,-0.8516 -3.27,-1.67188 -7.55,-2.44922 m -29.08,21.19922 c -4.03,1.1211 -8.25,2.2305 -12.55,3.3203 1.06,-0.2617 6.08,-1.5 12.55,-3.3203"
         style="fill:#ffffff;fill-opacity:1;fill-rule:nonzero;stroke:none"
         id="path272" />
      <path
         d="m 2900.89,0.628906 c -43.97,0 -82.96,0.531254 -101.46,0.992184 L 2787.83,2 l 0.11,2.53125 0.01,-0.05078 67.53,0.69141 c -0.14,0.64843 -0.29,1.29687 -0.45,1.9375 l 181.7,3.33202 c 0,0 4.97,22.0781 15.83,22.7969 0,0 0.07,-0.0195 0.21,-0.0469 4.3,-1.0898 8.52,-2.1992 12.55,-3.3203 12.87,-3.6328 31.47,-9.6094 36.1,-14.9102 1.4,-2.1914 -0.07,-4.1718 -5.37,-5.83199 -0.51,-0.14844 -1.06,-0.3086 -1.65,-0.45703 -18.76,-3.4336 -69.45,-6.16016 -126.65,-7.58204 -22.26,-0.328121 -45.17,-0.460934 -66.86,-0.460934"
         style="fill:#f9a8bf;fill-opacity:1;fill-rule:nonzero;stroke:none"
         id="path274" />
      <path
         d="m 2787.95,4.48047 -0.01,0.05078 0.06,1.34766 67.03,1.23047 c 0.16,-0.64063 0.31,-1.28907 0.45,-1.9375 l -67.53,-0.69141"
         style="fill:#fddde8;fill-opacity:1;fill-rule:nonzero;stroke:none"
         id="path276" />
      <path
         d="m 2785.07,5.91016 c 0,-0.08203 1.11,-0.14844 3.22,-0.23828 2.77,-0.08204 5.81,-0.17188 9.24,-0.28125 9.23,-0.1211 20.58,-0.28125 33.97,-0.46094 28.69,-0.21094 68.34,0.01172 112.11,1.12109 43.78,1.1211 83.38,2.9375 112.01,4.62112 13.37,0.8672 24.69,1.5976 33.9,2.1992 3.42,0.2773 6.44,0.5195 9.21,0.75 2.1,0.1875 3.2,0.3281 3.19,0.3984 0,0.0703 -1.11,0.0821 -3.22,0.0196 -2.78,-0.1094 -5.81,-0.2305 -9.23,-0.3477 -9.22,-0.4219 -20.56,-0.9297 -33.94,-1.543 -28.64,-1.289 -68.23,-2.87887 -111.99,-3.99996 -43.74,-1.10938 -83.36,-1.54688 -112.04,-1.72656 -13.39,-0.08204 -24.74,-0.15235 -33.96,-0.21094 -3.43,-0.03125 -6.47,-0.08203 -9.24,-0.10938 -2.11,-0.0625 -3.23,-0.12109 -3.23,-0.1914"
         style="fill:#1d2a30;fill-opacity:1;fill-rule:nonzero;stroke:none"
         id="path278" />
      <path
         d="m 3036.76,7.75 c 0.7,-0.05859 1,7.4883 5.88,15.2188 4.75,7.8203 11.61,11.8632 11.2,12.3906 -0.14,0.5117 -8.05,-2.961 -13.16,-11.3281 -5.21,-8.3204 -4.47,-16.42192 -3.92,-16.2813"
         style="fill:#1d2a30;fill-opacity:1;fill-rule:nonzero;stroke:none"
         id="path280" />
      <path
         d="m 2980.89,32.2891 c 0.53,-0.3008 3.07,2.75 5.68,6.8203 2.6,4.0508 4.28,7.582 3.73,7.8906 -0.53,0.2891 -3.08,-2.7617 -5.68,-6.8203 -2.6,-4.0586 -4.28,-7.5977 -3.73,-7.8906"
         style="fill:#1d2a30;fill-opacity:1;fill-rule:nonzero;stroke:none"
         id="path282" />
      <path
         d="m 2965.53,39.3203 c 0.43,-0.4219 3.32,1.4805 6.46,4.2617 3.13,2.7696 5.33,5.3594 4.9,5.7774 -0.43,0.4219 -3.32,-1.4883 -6.45,-4.2578 -3.14,-2.7696 -5.34,-5.3594 -4.91,-5.7813"
         style="fill:#1d2a30;fill-opacity:1;fill-rule:nonzero;stroke:none"
         id="path284" />
      <path
         d="m 2955.48,55.4492 c 0.01,-0.5781 4.39,-0.9804 9.78,-0.8984 5.39,0.0898 9.75,0.6289 9.74,1.2187 -0.01,0.5703 -4.39,0.9688 -9.78,0.8907 -5.39,-0.0782 -9.75,-0.6211 -9.74,-1.211"
         style="fill:#1d2a30;fill-opacity:1;fill-rule:nonzero;stroke:none"
         id="path286" />
      <path
         d="m 2951.84,66.9219 c -0.18,-0.5235 4.62,-2.3906 10.97,-2.6524 6.34,-0.289 11.32,1.1407 11.18,1.6797 -0.13,0.6016 -5.05,0.1406 -11.07,0.4219 -6.03,0.25 -10.89,1.1289 -11.08,0.5508"
         style="fill:#1d2a30;fill-opacity:1;fill-rule:nonzero;stroke:none"
         id="path288" />
      <path
         d="m 2986.75,47.5898 c -0.01,-0.2304 4.61,-0.6289 12,0.3907 3.68,0.5117 8.03,1.4414 12.69,2.9492 2.32,0.8398 4.75,1.4922 7.23,3 1.16,0.7695 2.45,1.8398 2.86,3.5391 0.45,1.6796 -0.57,3.5429 -1.95,4.4101 -11.63,5.2227 -22.94,-1.0781 -27.02,-6.6992 -2.27,-2.8711 -3.26,-5.6406 -3.7,-7.5391 -0.42,-1.9218 -0.35,-3.0117 -0.21,-3.0312 0.42,-0.1211 0.67,4.4219 5.17,9.6601 2.22,2.5821 5.62,5.1094 10.06,6.4688 4.2,1.2812 10.23,1.75 14.33,-0.5274 1.94,-1.2617 1.27,-3.3711 -0.82,-4.5898 -1.93,-1.2422 -4.46,-2.0313 -6.66,-2.8594 -4.49,-1.5703 -8.69,-2.6328 -12.27,-3.3125 -7.14,-1.3789 -11.72,-1.5078 -11.71,-1.8594"
         style="fill:#1d2a30;fill-opacity:1;fill-rule:nonzero;stroke:none"
         id="path290" />
      <path
         d="m 2989.88,47.1211 c 0.18,-0.1094 1.85,2.7891 1.14,7.7891 -0.36,2.4492 -1.42,5.3515 -3.51,8.0586 -2.2,2.4101 -5.03,5.7617 -10.17,5.4218 -2.77,-0.4023 -4.04,-3.3789 -3.54,-5.2422 0.28,-1.9492 1.27,-3.6093 2.19,-4.9296 1.87,-2.75 3.96,-4.9375 5.87,-6.5977 3.87,-3.332 6.88,-4.5625 7,-4.3398 0.21,0.2773 -2.45,1.9375 -5.87,5.3789 -1.69,1.7304 -3.55,3.9218 -5.22,6.5586 -1.72,2.3203 -2.98,6.5312 0.02,7.1132 3,0.3399 6.14,-2.3515 8.05,-4.5312 1.96,-2.3594 3.08,-4.9297 3.61,-7.1602 1.05,-4.5195 0.03,-7.4414 0.43,-7.5195"
         style="fill:#1d2a30;fill-opacity:1;fill-rule:nonzero;stroke:none"
         id="path292" />
      <path
         d="m 2787.44,53.5117 c 0.05,-0.3906 5.33,0.6094 13.8,-0.0898 8.39,-0.6406 20.1,-3.5313 30.45,-10.7422 10.33,-7.2383 16.56,-16.8984 19.56,-24.2188 3.07,-7.3593 3.5,-12.35934 3.92,-12.28902 0.14,0.00781 0.17,1.25781 -0.1,3.48828 -0.26,2.25004 -0.93,5.46874 -2.32,9.30864 -2.68,7.6523 -8.93,17.8515 -19.71,25.3906 -10.78,7.5195 -23.05,10.2695 -31.7,10.5508 -4.34,0.1601 -7.87,-0.1289 -10.25,-0.5196 -2.39,-0.3789 -3.68,-0.75 -3.65,-0.8789"
         style="fill:#1d2a30;fill-opacity:1;fill-rule:nonzero;stroke:none"
         id="path294" />
      <path
         d="m 2878.46,22.7188 c -0.06,-0.5469 12.16,-2.0899 27.34,-1.7969 15.18,0.25 27.33,2.207 27.24,2.75 -0.07,0.6094 -12.24,-0.4024 -27.28,-0.6524 -15.03,-0.2812 -27.24,0.3008 -27.3,-0.3007"
         style="fill:#1d2a30;fill-opacity:1;fill-rule:nonzero;stroke:none"
         id="path296" />
      <path
         d="m 2841.87,21.8008 c -0.45,-0.4297 1.07,-2.3711 2.39,-4.9414 1.37,-2.5508 2.07,-4.8477 2.72,-4.8008 0.6,0.0195 0.88,2.7734 -0.68,5.7305 -1.55,2.9609 -4.04,4.4531 -4.43,4.0117"
         style="fill:#1d2a30;fill-opacity:1;fill-rule:nonzero;stroke:none"
         id="path298" />
      <path
         d="m 2827.59,37.3984 c -0.43,-0.4179 0.83,-2.1875 2.82,-3.9687 1.99,-1.7695 3.94,-2.8594 4.38,-2.4375 0.43,0.418 -0.83,2.1992 -2.82,3.957 -1.98,1.7696 -3.95,2.8711 -4.38,2.4492"
         style="fill:#1d2a30;fill-opacity:1;fill-rule:nonzero;stroke:none"
         id="path300" />
      <path
         d="m 2807.63,44.1719 c 0.16,-0.5821 2.64,-0.4922 5.4,-1.3203 2.8,-0.7735 4.79,-2.1328 5.27,-1.7305 0.5,0.3281 -1.15,2.7578 -4.6,3.7383 -3.44,0.9922 -6.27,-0.1602 -6.07,-0.6875"
         style="fill:#1d2a30;fill-opacity:1;fill-rule:nonzero;stroke:none"
         id="path302" />
      <path
         d="m 2793.48,47.2422 c -0.2,-0.5508 0.89,-1.4141 2.46,-1.9219 1.57,-0.5195 3,-0.5 3.22,0.0508 0.2,0.5391 -0.89,1.4102 -2.46,1.9297 -1.57,0.5195 -3,0.4883 -3.22,-0.0586"
         style="fill:#1d2a30;fill-opacity:1;fill-rule:nonzero;stroke:none"
         id="path304" />
      <path
         d="m 3789.28,246.379 c 27.84,14.359 60.61,16.23 91.52,11.109 16.6,-2.738 33.91,-7.699 45.2,-20.168 11.3,-12.468 13.44,-34.429 0.47,-45.14 -7.72,-6.371 -18.48,-7.34 -28.5,-7.231 -24.19,0.281 -51.04,4.539 -70.37,-10.008 -11.02,-8.312 -18.37,-22.109 -31.55,-26.203 -12.9,-3.996 -27.45,3.621 -34.29,15.262 -6.84,11.641 -7.07,26.191 -3.88,39.309 0,0 3.36,28.601 31.4,43.07"
         style="fill:#f03658;fill-opacity:1;fill-rule:nonzero;stroke:none"
         id="path306" />
      <path
         d="m 3788.85,147.672 c -10.77,0 -21.5,6.816 -27.09,16.328 -4.14,7.051 -5.86,15.16 -5.86,23.379 0,5.359 0.72,10.762 1.98,15.93 0,0 3.36,28.601 31.4,43.07 18.8,9.703 39.86,13.703 61.06,13.703 10.2,0 20.42,-0.922 30.46,-2.594 16.6,-2.738 33.91,-7.699 45.2,-20.168 5.96,-6.582 9.37,-15.789 9.36,-24.601 0,-7.899 -2.76,-15.477 -8.89,-20.539 -7.37,-6.078 -17.5,-7.239 -27.12,-7.239 -0.46,0 -0.92,0 -1.38,0.008 -9.23,0.102 -18.85,0.789 -28.28,0.789 -15.3,0 -30.13,-1.797 -42.09,-10.797 -11.02,-8.312 -18.37,-22.109 -31.55,-26.203 -2.36,-0.726 -4.78,-1.066 -7.2,-1.066"
         style="fill:#f25278;fill-opacity:1;fill-rule:nonzero;stroke:none"
         id="path308" />
      <path
         d="m 3725.51,369.488 c 17.02,-24.308 50.1,-16.258 65.43,-1.418 15.35,14.828 21.83,36.34 27.73,56.86 13.48,46.851 27.08,96.011 17.06,143.73 -3,14.262 -8.34,28.488 -18.36,39.078 -10.03,10.582 -25.44,16.871 -39.54,13.153 -16.68,-4.403 -27.04,-20.743 -34.53,-36.289 -22.03,-45.672 -33.69,-96.313 -33.87,-147.043 -0.08,-23.68 2.71,-48.508 16.08,-68.071"
         style="fill:#f03658;fill-opacity:1;fill-rule:nonzero;stroke:none"
         id="path310" />
      <path
         d="m 3755.81,353.988 c -11.31,0 -22.5,4.352 -30.3,15.5 -13.21,19.332 -16.09,43.813 -16.08,67.242 0,0.282 0,0.551 0,0.829 0.18,50.73 11.84,101.371 33.87,147.043 7.49,15.546 17.85,31.886 34.53,36.289 2.78,0.738 5.6,1.078 8.43,1.078 11.53,0 23.06,-5.731 31.11,-14.231 10.02,-10.59 15.36,-24.816 18.36,-39.078 2.43,-11.558 3.47,-23.199 3.46,-34.871 -0.02,-36.519 -10.3,-73.359 -20.52,-108.859 -5.9,-20.52 -12.38,-42.032 -27.73,-56.86 -8.29,-8.031 -21.79,-14.082 -35.13,-14.082"
         style="fill:#bc283b;fill-opacity:1;fill-rule:nonzero;stroke:none"
         id="path312" />
      <path
         d="m 3678.77,334.602 c 18.47,21.937 21.98,53.929 13.76,81.41 -8.23,27.48 -26.81,50.859 -48.22,69.937 -25.1,22.371 -54.62,39.789 -86.33,50.942 -12.49,4.39 -25.66,7.851 -38.83,6.601 -13.18,-1.262 -26.45,-8.004 -32.59,-19.722 -9.08,-17.329 -0.37,-38.348 9.05,-55.489 16.6,-30.222 35.58,-59.121 56.71,-86.359 16.99,-21.91 36.47,-43.531 62.36,-53.43 25.91,-9.902 52.82,-8.742 66.55,9.227"
         style="fill:#f03658;fill-opacity:1;fill-rule:nonzero;stroke:none"
         id="path314" />
      <path
         d="m 3724.35,2.76953 c 0.32,-0.01953 0.84,3.91016 1.55,11.03907 0.78,8.043 1.75,18.1406 2.93,30.1523 1.4,12.6797 3.26,27.7774 6.77,44.2188 3.52,16.3903 9.02,34.1723 16.08,52.1913 7.31,17.918 16.23,34.199 26.65,47.219 10.35,13.09 22.38,22.551 33.7,28.019 11.27,5.571 21.38,7.832 28.37,8.84 7.05,0.711 10.99,1.27 10.99,1.59 0.01,0.313 -3.94,0.359 -11.19,0.16 -7.17,-0.469 -17.7,-2.289 -29.58,-7.687 -11.92,-5.293 -24.69,-14.903 -35.54,-28.262 -10.94,-13.289 -20.19,-29.93 -27.63,-48.18 -7.18,-18.34 -12.6,-36.281 -15.96,-53.0309 -3.34,-16.7305 -4.87,-32 -5.88,-44.7891 -0.95,-12.8008 -1.32,-23.1602 -1.49,-30.3281 -0.16,-7.1719 -0.08,-11.13284 0.23,-11.15237"
         style="fill:#1d2a30;fill-opacity:1;fill-rule:nonzero;stroke:none"
         id="path316" />
      <path
         d="m 3726.43,25.9609 c 0.16,0.0079 0.26,1.7774 0.3,5.1289 -0.01,3.8594 -0.02,8.6993 -0.04,14.6602 -0.04,12.7188 -0.03,31.1289 0.65,53.8594 1.12,45.4606 5.04,94.3906 12.6,163.3706 7.16,64.872 16.77,140.348 26.91,189.442 2.18,11.16 4.37,21.207 6.43,30 1.96,8.808 3.64,16.41 5.26,22.558 1.4,5.801 2.53,10.508 3.43,14.25 0.73,3.27 1.04,5.008 0.9,5.059 -0.16,0.043 -0.76,-1.609 -1.79,-4.801 -1.11,-3.699 -2.52,-8.34 -4.25,-14.058 -1.89,-6.078 -3.83,-13.641 -6.03,-22.418 -2.31,-8.762 -4.72,-18.782 -7.1,-29.922 -10.03,-44.469 -20.66,-106.629 -28.29,-175.781 -7.58,-69.118 -10.99,-132.059 -11.29,-177.6371 -0.28,-22.793 0.21,-41.2422 0.79,-53.961 0.37,-5.9609 0.66,-10.8007 0.9,-14.6523 0.25,-3.3477 0.47,-5.1094 0.62,-5.0977"
         style="fill:#1d2a30;fill-opacity:1;fill-rule:nonzero;stroke:none"
         id="path318" />
      <path
         d="m 3726.74,147.359 c 0.31,0.012 0.26,5.45 -0.11,15.313 -0.57,9.84 -1.92,24.058 -4.69,41.476 -2.94,17.391 -7.04,38.024 -13.5,60.442 -2.79,10.262 -9.36,34.82 -25.27,71.531 -20.97,49.719 -49.44,90.391 -74.23,115.57 -5.81,6.68 -12.27,11.508 -17.46,16.231 -2.67,2.269 -5.04,4.527 -7.45,6.308 -2.43,1.668 -4.69,3.231 -6.78,4.668 -8.15,5.582 -12.72,8.532 -12.89,8.25 -0.73,-0.976 18.26,-12.168 42.26,-37.687 23.88,-25.461 51.57,-65.84 72.37,-115.16 11.59,-26.75 19.68,-50.602 25.41,-70.86 6.63,-22.211 11.04,-42.64 14.36,-59.839 3.16,-17.25 5,-31.321 6.1,-41.082 0.91,-9.758 1.56,-15.168 1.88,-15.161"
         style="fill:#1d2a30;fill-opacity:1;fill-rule:nonzero;stroke:none"
         id="path320" />
    </g>
  </g>
</svg>
