<?xml version="1.0" encoding="UTF-8" standalone="no"?>
<!-- Created with Inkscape (http://www.inkscape.org/) -->

<svg
   version="1.1"
   id="svg2"
   width="925.33331"
   height="537.5733"
   viewBox="0 0 925.33331 537.5733"
   sodipodi:docname="5179476.eps"
   xmlns:inkscape="http://www.inkscape.org/namespaces/inkscape"
   xmlns:sodipodi="http://sodipodi.sourceforge.net/DTD/sodipodi-0.dtd"
   xmlns="http://www.w3.org/2000/svg"
   xmlns:svg="http://www.w3.org/2000/svg">
  <defs
     id="defs6" />
  <sodipodi:namedview
     id="namedview4"
     pagecolor="#ffffff"
     bordercolor="#000000"
     borderopacity="0.25"
     inkscape:showpageshadow="2"
     inkscape:pageopacity="0.0"
     inkscape:pagecheckerboard="0"
     inkscape:deskcolor="#d1d1d1" />
  <g
     id="g8"
     inkscape:groupmode="layer"
     inkscape:label="ink_ext_XXXXXX"
     transform="matrix(1.3333333,0,0,-1.3333333,0,537.57333)">
    <g
       id="g10"
       transform="scale(0.1)">
      <path
         d="m 6070.97,3481.42 c -37.49,-38.83 -36.4,-100.69 2.43,-138.18 38.82,-37.48 100.69,-36.39 138.17,2.44 37.48,38.82 36.4,100.68 -2.42,138.17 -38.83,37.48 -100.7,36.39 -138.18,-2.43 z m -48.55,121.33 c 17.22,10.41 35.55,18.3 54.46,23.67 l 11.22,53.9 91.07,1.6 13.11,-53.47 c 19.09,-4.7 37.69,-11.95 55.26,-21.75 l 46.04,30.18 65.53,-63.27 -28.53,-47.06 c 10.41,-17.23 18.3,-35.56 23.66,-54.48 l 53.91,-11.21 1.6,-91.08 -53.48,-13.11 c -4.7,-19.08 -11.94,-37.67 -21.73,-55.25 l 30.16,-46.04 -63.27,-65.54 -47.05,28.54 c -17.23,-10.41 -35.57,-18.3 -54.47,-23.67 l -11.22,-53.91 -91.08,-1.59 -13.11,53.48 c -19.08,4.7 -37.68,11.94 -55.26,21.74 l -46.03,-30.18 -65.53,63.28 28.53,47.06 c -10.4,17.22 -18.3,35.55 -23.67,54.46 l -53.9,11.22 -1.6,91.08 53.47,13.11 c 4.71,19.08 11.96,37.68 21.74,55.26 l -30.17,46.03 63.27,65.53 47.07,-28.53"
         style="fill:#e7e8e5;fill-opacity:1;fill-rule:nonzero;stroke:none"
         id="path12" />
      <path
         d="m 3082.59,3288.29 c -30.23,-31.31 -29.35,-81.19 1.96,-111.41 31.31,-30.24 81.19,-29.35 111.41,1.95 30.22,31.31 29.35,81.19 -1.96,111.42 -31.3,30.22 -81.18,29.34 -111.41,-1.96 z m -39.15,97.83 c 13.89,8.39 28.67,14.75 43.91,19.08 l 9.05,43.47 73.44,1.29 10.57,-43.12 c 15.39,-3.79 30.39,-9.63 44.56,-17.53 l 37.11,24.33 52.84,-51.02 -23,-37.94 c 8.39,-13.89 14.76,-28.68 19.08,-43.93 l 43.46,-9.04 1.29,-73.44 -43.11,-10.57 c -3.8,-15.38 -9.64,-30.38 -17.53,-44.56 l 24.32,-37.11 -51.01,-52.84 -37.95,23.01 c -13.88,-8.4 -28.67,-14.76 -43.92,-19.09 l -9.04,-43.46 -73.44,-1.29 -10.57,43.12 c -15.39,3.79 -30.38,9.63 -44.55,17.53 l -37.12,-24.33 -52.84,51.02 23,37.94 c -8.39,13.89 -14.75,28.67 -19.08,43.92 l -43.47,9.05 -1.29,73.43 43.13,10.57 c 3.79,15.39 9.63,30.39 17.52,44.56 l -24.32,37.12 51.01,52.84 37.95,-23.01"
         style="fill:#f3f2f1;fill-opacity:1;fill-rule:nonzero;stroke:none"
         id="path14" />
      <path
         d="m 3082.59,3288.29 c 0,0 4.12,5.8 14.67,12.87 10.36,6.9 28.45,14.58 51.4,12.16 11.31,-1.27 23.67,-4.96 34.94,-12.42 11.15,-7.45 21.68,-18.06 28.26,-31.83 3.46,-6.76 5.86,-14.27 7.16,-22.12 1.42,-7.82 1.62,-16.06 0.44,-24.25 -1.99,-16.47 -9.77,-32.68 -21.87,-45.43 -12.31,-12.54 -28.25,-20.89 -44.64,-23.47 -8.14,-1.46 -16.38,-1.55 -24.26,-0.41 -7.88,1.03 -15.47,3.16 -22.36,6.39 -13.99,6.08 -24.96,16.24 -32.8,27.12 -7.85,11 -11.97,23.23 -13.63,34.48 -3.23,22.85 3.81,41.2 10.34,51.8 6.69,10.78 12.35,15.11 12.35,15.11 0.43,-0.36 -4.76,-5.17 -10.83,-15.99 -5.93,-10.63 -12.21,-28.56 -8.71,-50.44 1.8,-10.77 5.92,-22.4 13.53,-32.79 7.61,-10.28 18.14,-19.84 31.45,-25.49 6.55,-3.01 13.75,-4.99 21.22,-5.91 7.46,-1.04 15.26,-0.93 22.96,0.49 15.49,2.5 30.49,10.41 42.13,22.25 11.42,12.05 18.8,27.32 20.74,42.88 1.15,7.74 0.99,15.54 -0.31,22.96 -1.19,7.43 -3.41,14.56 -6.65,20.99 -6.12,13.11 -16.04,23.29 -26.58,30.54 -10.66,7.24 -22.42,10.94 -33.25,12.36 -21.99,2.74 -39.69,-4.16 -50.1,-10.47 -10.6,-6.45 -15.23,-11.8 -15.6,-11.38"
         style="fill:#f3f2f1;fill-opacity:1;fill-rule:nonzero;stroke:none"
         id="path16" />
      <path
         d="m 3043.44,3386.12 c 0,-0.07 -0.82,0.37 -2.45,1.29 -1.78,1.03 -4.17,2.41 -7.27,4.21 -6.64,3.91 -16.19,9.56 -28.6,16.89 l 0.89,0.12 c -12.98,-13.61 -30.06,-31.5 -50.71,-53.14 l 0.14,1.42 c 7.41,-11.21 15.65,-23.68 24.47,-37.02 l 0.44,-0.66 -0.39,-0.71 c -7.21,-13.06 -13.27,-27.94 -17.24,-44.26 l -0.21,-0.87 -0.88,-0.21 c -13.43,-3.34 -27.97,-6.95 -43.09,-10.7 l 1.23,1.59 c 0.46,-23.12 0.94,-47.67 1.45,-73.43 l -1.41,1.7 c 13.46,-2.77 28.29,-5.82 43.48,-8.96 l 1.11,-0.22 0.3,-1.09 c 4.04,-14.18 10.34,-29.25 18.96,-43.42 l 0.61,-1.01 -0.61,-1.01 c -7.11,-11.77 -14.96,-24.75 -22.95,-37.98 l -0.32,2.49 c 16.61,-16 34.53,-33.26 52.9,-50.95 l -2.62,0.25 c 11.56,7.59 24.25,15.92 37.1,24.36 l 1.09,0.72 1.13,-0.64 c 12.95,-7.22 28.09,-13.38 44.03,-17.28 l 1.29,-0.31 0.31,-1.29 c 3.32,-13.5 6.94,-28.24 10.6,-43.11 l -2.19,1.68 c 23.26,0.42 48.17,0.87 73.44,1.32 l -2.16,-1.78 c 2.85,13.72 5.94,28.54 9.04,43.46 l 0.27,1.34 1.32,0.37 c 14.46,4.09 29.44,10.41 43.33,18.83 l 0.03,0.02 1.19,0.7 1.16,-0.7 c 12.74,-7.73 25.4,-15.4 37.94,-23.01 l -2.79,-0.36 c 17.24,17.85 34.26,35.46 51.02,52.82 l -0.26,-2.78 c -8.18,12.5 -16.28,24.88 -24.31,37.13 l -0.73,1.13 0.65,1.16 c 7.8,13.98 13.6,28.84 17.34,44 l 0.32,1.29 1.29,0.31 c 14.58,3.57 28.94,7.08 43.12,10.54 l -1.64,-2.12 c -0.41,25.06 -0.82,49.55 -1.21,73.43 l 1.65,-2 c -14.74,3.09 -29.22,6.13 -43.45,9.1 l -1.2,0.26 -0.34,1.18 c -4.4,15.57 -10.82,30.19 -18.81,43.45 l -0.61,1.02 0.61,1.01 c 7.91,13 15.59,25.6 23.08,37.9 l 0.3,-2.32 c -18.55,17.98 -36.07,34.96 -52.74,51.12 l 2.15,-0.2 c -13.07,-8.52 -25.34,-16.52 -37.17,-24.24 l -0.83,-0.53 -0.85,0.47 c -14.79,8.28 -29.62,13.87 -44.13,17.51 l -0.87,0.22 -0.21,0.86 c -3.79,15.69 -7.2,29.82 -10.43,43.16 l 1.32,-1.02 c -28.45,-0.37 -52.69,-0.69 -73.44,-0.96 l 0.97,0.8 c -3.72,-17.33 -6.77,-31.56 -9.32,-43.41 l -0.1,-0.43 -0.42,-0.12 c -15.54,-4.33 -26.47,-9.41 -33.57,-12.92 -3.4,-1.77 -6,-3.13 -7.91,-4.12 -1.78,-0.98 -2.63,-1.41 -2.63,-1.34 0,0.06 0.84,0.63 2.45,1.67 1.68,1.03 4.22,2.58 7.74,4.46 7.03,3.73 17.92,9.05 33.53,13.65 l -0.51,-0.55 c 2.39,11.88 5.26,26.14 8.76,43.52 l 0.16,0.79 0.82,0.02 c 20.74,0.45 44.98,0.99 73.43,1.61 l 1.06,0.02 0.26,-1.04 c 3.31,-13.32 6.81,-27.42 10.71,-43.08 l -1.08,1.09 c 14.76,-3.6 29.88,-9.21 44.99,-17.56 l -1.68,-0.06 c 11.79,7.78 24.02,15.84 37.06,24.42 l 1.15,0.76 1,-0.96 c 16.73,-16.09 34.31,-33 52.94,-50.91 l 1.08,-1.04 -0.78,-1.29 c -7.45,-12.33 -15.07,-24.95 -22.94,-37.98 v 2.03 c 8.21,-13.54 14.82,-28.47 19.35,-44.38 l -1.52,1.43 c 14.23,-2.95 28.72,-5.94 43.47,-8.99 l 1.62,-0.34 0.03,-1.67 c 0.45,-23.87 0.9,-48.36 1.37,-73.43 l 0.03,-1.72 -1.67,-0.41 c -14.18,-3.48 -28.54,-7.02 -43.11,-10.6 l 1.6,1.6 c -3.82,-15.54 -9.74,-30.78 -17.72,-45.11 l -0.08,2.29 c 8.03,-12.25 16.15,-24.61 24.34,-37.1 l 0.98,-1.5 -1.24,-1.28 c -16.76,-17.37 -33.76,-35 -51,-52.86 l -1.25,-1.29 -1.54,0.94 c -12.54,7.6 -25.21,15.27 -37.95,22.99 h 2.34 l -0.04,-0.02 c -14.24,-8.63 -29.6,-15.11 -44.43,-19.3 l 1.59,1.71 c -3.11,-14.92 -6.2,-29.74 -9.05,-43.46 l -0.37,-1.75 -1.79,-0.04 c -25.26,-0.43 -50.19,-0.86 -73.44,-1.25 l -1.77,-0.04 -0.42,1.72 c -3.64,14.88 -7.24,29.62 -10.54,43.13 l 1.6,-1.6 c -16.33,4.02 -31.83,10.35 -45.07,17.77 l 2.21,0.08 c -12.87,-8.41 -25.57,-16.72 -37.14,-24.28 l -1.41,-0.93 -1.2,1.17 c -18.32,17.73 -36.2,35.03 -52.78,51.08 l -1.16,1.12 0.84,1.37 c 8.03,13.2 15.91,26.16 23.06,37.91 v -2.02 c -8.76,14.51 -15.15,29.93 -19.22,44.42 l 1.42,-1.32 c -15.19,3.2 -30,6.31 -43.45,9.13 l -1.39,0.3 -0.02,1.42 c -0.39,25.76 -0.77,50.3 -1.12,73.44 l -0.02,1.28 1.24,0.31 c 15.15,3.66 29.71,7.19 43.15,10.44 l -1.08,-1.09 c 4.14,16.58 10.39,31.65 17.81,44.85 l 0.05,-1.37 c -8.71,13.41 -16.85,25.94 -24.18,37.22 l -0.5,0.77 0.64,0.65 c 20.89,21.4 38.17,39.09 51.32,52.55 l 0.4,0.42 0.48,-0.31 c 12.13,-7.54 21.47,-13.36 27.96,-17.39 3.06,-1.94 5.42,-3.45 7.19,-4.56 1.61,-1.05 2.43,-1.61 2.43,-1.67"
         style="fill:#f3f2f1;fill-opacity:1;fill-rule:nonzero;stroke:none"
         id="path18" />
      <path
         d="m 989.047,3641.33 c -0.707,0.02 -1.613,8.22 -2.684,23.71 -0.343,7.75 -1.054,17.31 -3.179,28.47 -1.735,11.18 -3.325,24.13 -7.477,38.25 -6.262,28.61 -19.227,62.46 -39.727,98.4 -20.667,35.8 -50.578,73.31 -91.507,105.41 -40.805,31.8 -92.403,59.17 -152.285,71 -59.485,11.45 -126.84,11.02 -191.407,-11.94 -32.476,-10.47 -63.929,-26.7 -92.965,-47.42 -14.988,-9.79 -28.164,-22.19 -41.957,-34.07 -12.504,-13.25 -25.644,-26.16 -36.507,-41.26 -46.032,-58.33 -72.973,-134.01 -75.625,-212.64 -1.192,-78.69 22.039,-155.61 65.183,-216.13 10.125,-15.61 22.617,-29.16 34.469,-43 13.203,-12.54 25.762,-25.57 40.266,-36.07 27.992,-22.11 58.625,-39.86 90.566,-51.9 63.379,-26.07 130.648,-29.76 190.617,-21.21 60.391,8.93 113.258,33.75 155.559,63.54 42.429,30.08 74.129,66.09 96.508,100.84 22.207,34.91 36.796,68.09 44.445,96.36 4.828,13.9 7.043,26.75 9.32,37.84 2.664,11.04 3.836,20.54 4.555,28.28 1.82,15.41 3.125,23.55 3.832,23.54 0.711,-0.02 0.789,-8.2 0.285,-23.91 -0.062,-7.87 -0.598,-17.58 -2.656,-28.91 -1.676,-11.38 -3.324,-24.6 -7.649,-38.97 -6.632,-29.21 -20.457,-63.74 -42.429,-100.33 -22.149,-36.42 -54.153,-74.43 -97.707,-106.48 -43.403,-31.73 -98.243,-58.48 -161.34,-68.59 -62.656,-9.73 -133.266,-6.49 -200.211,20.41 -33.703,12.45 -66.098,30.9 -95.727,54.04 -15.32,11.02 -28.664,24.63 -42.613,37.83 -12.594,14.5 -25.793,28.78 -36.555,45.19 -45.73,63.68 -70.547,145.05 -69.211,228.13 2.727,83.02 31.465,163.06 80.227,224.43 11.551,15.87 25.422,29.47 38.699,43.35 14.574,12.5 28.563,25.44 44.395,35.7 30.715,21.66 63.965,38.52 98.222,49.32 68.164,23.61 138.836,23.42 200.942,10.67 62.535,-13.16 116.004,-42.53 157.82,-76.33 41.949,-34.11 72.078,-73.63 92.43,-111.09 20.179,-37.61 32.308,-72.78 37.523,-102.28 3.621,-14.56 4.629,-27.85 5.746,-39.3 1.508,-11.42 1.575,-21.14 1.25,-29.01 -0.254,-15.71 -0.73,-23.89 -1.441,-23.87"
         style="fill:#e7e8e5;fill-opacity:1;fill-rule:nonzero;stroke:none"
         id="path20" />
      <path
         d="m 914.457,3874.29 c 0.82,-1.15 -5.902,-7 -18.887,-16.66 -7.121,-5.11 -15.086,-10.82 -23.996,-17.22 -4.758,-3.25 -9.726,-6.94 -15.269,-10.41 -5.864,-3.07 -11.989,-6.27 -18.36,-9.59 C 788.051,3791.57 709,3762.13 618.73,3765.2 c -11.199,0.5 -22.269,0.99 -33.183,1.48 -10.77,1.68 -21.395,3.34 -31.844,4.98 -5.207,0.88 -10.402,1.58 -15.476,2.6 -5,1.33 -9.954,2.65 -14.868,3.96 -9.773,2.71 -19.453,5.01 -28.668,7.96 -36.589,12.73 -68.187,27.56 -93.007,42.86 -49.965,30.21 -74.286,57.69 -72.399,59.46 2.016,2.31 29.176,-20.7 79.508,-46.83 25.008,-13.28 56.133,-26.2 91.559,-37.47 8.918,-2.58 18.246,-4.55 27.656,-6.96 4.719,-1.17 9.484,-2.36 14.289,-3.55 4.894,-0.74 9.836,-1.49 14.82,-2.24 9.988,-1.47 20.141,-2.96 30.434,-4.48 10.402,-0.42 20.949,-0.84 31.629,-1.27 85.82,-2.96 161.84,22.76 212.265,47.66 6.45,2.8 12.641,5.49 18.578,8.07 5.657,2.96 10.793,6.12 15.735,8.86 9.445,5.2 17.894,9.86 25.445,14.02 14.149,7.49 22.43,11.13 23.254,9.98"
         style="fill:#e7e8e5;fill-opacity:1;fill-rule:nonzero;stroke:none"
         id="path22" />
      <path
         d="m 317.93,3420.93 c -0.821,1.16 5.902,7 18.886,16.66 7.125,5.11 15.09,10.83 23.997,17.22 4.757,3.26 9.73,6.94 15.273,10.41 5.863,3.07 11.984,6.26 18.359,9.6 49.891,28.83 128.946,58.27 219.211,55.2 11.203,-0.5 22.274,-0.99 33.184,-1.48 10.773,-1.68 21.398,-3.34 31.848,-4.98 5.203,-0.88 10.398,-1.57 15.472,-2.6 5.004,-1.33 9.961,-2.65 14.867,-3.95 9.778,-2.72 19.453,-5.02 28.668,-7.97 36.586,-12.72 68.188,-27.56 93.004,-42.85 49.969,-30.21 74.293,-57.7 72.403,-59.47 -2.016,-2.31 -29.176,20.7 -79.508,46.83 -25.004,13.28 -56.133,26.2 -91.559,37.47 -8.914,2.59 -18.25,4.55 -27.656,6.96 -4.715,1.18 -9.477,2.36 -14.285,3.55 -4.899,0.74 -9.844,1.49 -14.824,2.24 -9.985,1.47 -20.137,2.96 -30.43,4.48 -10.406,0.42 -20.957,0.84 -31.633,1.28 -85.82,2.95 -161.84,-22.77 -212.269,-47.67 -6.446,-2.8 -12.637,-5.49 -18.575,-8.06 -5.652,-2.96 -10.789,-6.14 -15.73,-8.86 -9.449,-5.21 -17.899,-9.87 -25.449,-14.03 -14.153,-7.49 -22.434,-11.13 -23.254,-9.98"
         style="fill:#e7e8e5;fill-opacity:1;fill-rule:nonzero;stroke:none"
         id="path24" />
      <path
         d="m 988.84,3632.67 c -0.137,-5.66 -167.168,-6.19 -373.02,-1.19 -205.925,5 -372.695,13.64 -372.558,19.3 0.136,5.66 167.133,6.19 373.058,1.19 205.848,-5 372.657,-13.65 372.52,-19.3"
         style="fill:#e7e8e5;fill-opacity:1;fill-rule:nonzero;stroke:none"
         id="path26" />
      <path
         d="m 598.863,3277.94 c -5.66,0.14 -6.195,167.11 -1.203,372.9 5,205.85 13.641,372.56 19.305,372.43 5.656,-0.14 6.191,-167.08 1.195,-372.93 -5,-205.79 -13.637,-372.54 -19.297,-372.4"
         style="fill:#e7e8e5;fill-opacity:1;fill-rule:nonzero;stroke:none"
         id="path28" />
      <path
         d="m 598.871,3278.5 c -1.406,-2.17 -42.48,25.68 -89.887,88.74 -23.441,31.49 -48.043,72.02 -66.64,121 -18.512,48.89 -30.106,106.44 -28.852,167.06 1.074,60.82 16.363,117.72 37.637,165.38 21.277,47.86 47.992,86.93 72.82,117.27 50.215,60.68 91.629,87.58 93.016,85.42 2.012,-2.33 -35.5,-32.85 -81.594,-94.35 -22.793,-30.74 -47.398,-69.45 -66.902,-115.84 -19.516,-46.24 -33.449,-100.47 -34.481,-158.26 -1.191,-57.84 9.27,-112.86 26.094,-160.19 16.914,-47.42 39.387,-87.37 60.731,-119.1 43.152,-63.56 80.14,-94.87 78.058,-97.13"
         style="fill:#e7e8e5;fill-opacity:1;fill-rule:nonzero;stroke:none"
         id="path30" />
      <path
         d="m 625.313,4023.17 c 1.406,2.16 42.484,-25.69 89.89,-88.74 23.445,-31.5 48.043,-72.02 66.645,-121 18.507,-48.89 30.101,-106.45 28.847,-167.07 -1.078,-60.81 -16.359,-117.72 -37.636,-165.38 -21.282,-47.85 -47.989,-86.92 -72.821,-117.27 -50.215,-60.68 -91.625,-87.57 -93.015,-85.41 -2.012,2.33 35.504,32.85 81.597,94.34 22.793,30.74 47.395,69.45 66.903,115.84 19.511,46.25 33.449,100.48 34.476,158.27 1.188,57.84 -9.265,112.86 -26.097,160.19 -16.914,47.42 -39.379,87.37 -60.723,119.1 -43.152,63.55 -80.141,94.87 -78.066,97.13"
         style="fill:#e7e8e5;fill-opacity:1;fill-rule:nonzero;stroke:none"
         id="path32" />
      <path
         d="m 1524.99,3034.1 c -68.17,-70.61 -66.2,-183.1 4.41,-251.27 70.61,-68.17 183.11,-66.19 251.27,4.42 68.17,70.61 66.2,183.11 -4.41,251.27 -70.61,68.16 -183.11,66.19 -251.27,-4.42 z m -88.3,220.65 c 31.32,18.92 64.66,33.27 99.04,43.04 l 20.4,98.03 165.63,2.91 23.84,-97.25 c 34.71,-8.55 68.54,-21.72 100.5,-39.53 l 83.7,54.87 119.18,-115.07 -51.88,-85.57 c 18.93,-31.32 33.28,-64.68 43.04,-99.07 l 98.02,-20.39 2.91,-165.63 -97.25,-23.84 c -8.55,-34.71 -21.72,-68.52 -39.53,-100.49 l 54.86,-83.71 -115.06,-119.18 -85.57,51.89 c -31.33,-18.93 -64.67,-33.27 -99.06,-43.04 l -20.4,-98.03 -165.63,-2.91 -23.84,97.26 c -34.7,8.55 -68.53,21.72 -100.49,39.53 l -83.71,-54.87 -119.17,115.07 51.88,85.57 c -18.92,31.32 -33.28,64.66 -43.04,99.05 l -98.03,20.4 -2.9,165.63 97.25,23.85 c 8.55,34.7 21.73,68.52 39.53,100.48 l -54.86,83.71 115.05,119.18 85.59,-51.89"
         style="fill:#dadbd8;fill-opacity:1;fill-rule:nonzero;stroke:none"
         id="path34" />
      <path
         d="m 1524.99,3034.1 c 0,0 9.29,13.1 33.08,29.04 23.36,15.56 64.18,32.87 115.94,27.41 25.48,-2.86 53.37,-11.17 78.79,-27.99 25.14,-16.81 48.89,-40.73 63.72,-71.79 7.81,-15.26 13.23,-32.2 16.17,-49.89 3.19,-17.65 3.65,-36.22 1,-54.7 -4.51,-37.13 -22.05,-73.7 -49.33,-102.45 -27.77,-28.29 -63.72,-47.13 -100.68,-52.94 -18.38,-3.31 -36.96,-3.5 -54.71,-0.93 -17.79,2.32 -34.91,7.14 -50.43,14.41 -31.56,13.73 -56.31,36.62 -74,61.17 -17.7,24.81 -26.98,52.39 -30.74,77.76 -7.27,51.54 8.6,92.94 23.33,116.82 15.09,24.34 27.86,34.08 27.86,34.08 0.95,-0.81 -10.73,-11.66 -24.42,-36.05 -13.39,-23.98 -27.55,-64.42 -19.65,-113.76 4.07,-24.3 13.33,-50.51 30.51,-73.96 17.16,-23.18 40.91,-44.73 70.93,-57.49 14.76,-6.79 31.01,-11.24 47.87,-13.33 16.83,-2.35 34.41,-2.08 51.77,1.12 34.94,5.62 68.76,23.46 95.03,50.17 25.75,27.19 42.38,61.61 46.76,96.72 2.6,17.46 2.24,35.03 -0.7,51.77 -2.68,16.76 -7.69,32.84 -15,47.35 -13.8,29.56 -36.18,52.53 -59.94,68.87 -24.02,16.34 -50.56,24.68 -74.98,27.89 -49.59,6.17 -89.51,-9.4 -113,-23.63 -23.91,-14.54 -34.34,-26.61 -35.18,-25.67"
         style="fill:#dadbd8;fill-opacity:1;fill-rule:nonzero;stroke:none"
         id="path36" />
      <path
         d="m 1436.68,3254.75 c 0.01,-0.14 -1.84,0.84 -5.51,2.91 -4.03,2.33 -9.43,5.45 -16.41,9.49 -14.97,8.84 -36.52,21.57 -64.51,38.1 l 2.02,0.26 c -29.29,-30.69 -67.79,-71.03 -114.37,-119.83 l 0.31,3.2 c 16.72,-25.29 35.31,-53.41 55.2,-83.49 l 0.99,-1.5 -0.88,-1.59 c -16.26,-29.47 -29.93,-63.01 -38.9,-99.83 l -0.47,-1.96 -1.98,-0.49 c -30.28,-7.52 -63.07,-15.65 -97.18,-24.13 l 2.76,3.59 c 1.04,-52.15 2.14,-107.5 3.3,-165.61 l -3.19,3.85 c 30.35,-6.25 63.79,-13.14 98.05,-20.2 l 2.5,-0.52 0.7,-2.46 c 9.1,-31.97 23.33,-65.97 42.75,-97.93 l 1.38,-2.26 -1.38,-2.29 c -16.04,-26.55 -33.74,-55.83 -51.76,-85.65 l -0.72,5.62 c 37.47,-36.1 77.89,-75.02 119.31,-114.92 l -5.9,0.56 c 26.06,17.12 54.67,35.9 83.66,54.95 l 2.45,1.61 2.56,-1.43 c 29.21,-16.28 63.35,-30.19 99.31,-38.98 l 2.89,-0.7 0.72,-2.91 c 7.48,-30.46 15.65,-63.68 23.9,-97.24 l -4.94,3.8 c 52.44,0.95 108.65,1.96 165.63,2.98 l -4.86,-4.03 c 6.43,30.97 13.38,64.38 20.37,98.03 l 0.63,3.02 2.96,0.84 c 32.62,9.23 66.4,23.49 97.72,42.46 l 0.09,0.05 2.67,1.58 2.6,-1.59 c 28.74,-17.42 57.29,-34.73 85.58,-51.89 l -6.3,-0.81 c 38.9,40.26 77.27,79.98 115.09,119.14 l -0.59,-6.27 c -18.46,28.19 -36.74,56.11 -54.83,83.74 l -1.66,2.53 1.48,2.65 c 17.59,31.51 30.67,65.03 39.11,99.23 l 0.72,2.9 2.9,0.71 c 32.89,8.04 65.28,15.95 97.26,23.77 l -3.69,-4.8 c -0.94,56.54 -1.85,111.77 -2.75,165.62 l 3.73,-4.5 c -33.24,6.96 -65.91,13.8 -98,20.52 l -2.71,0.57 -0.74,2.65 c -9.93,35.12 -24.41,68.11 -42.42,98.02 l -1.39,2.3 1.39,2.27 c 17.83,29.31 35.13,57.73 52.02,85.49 l 0.69,-5.25 c -41.84,40.57 -81.34,78.86 -118.94,115.3 l 4.84,-0.45 c -29.48,-19.22 -57.15,-37.26 -83.83,-54.66 l -1.87,-1.21 -1.92,1.07 c -33.36,18.67 -66.81,31.29 -99.52,39.48 l -1.98,0.5 -0.47,1.96 c -8.54,35.36 -16.24,67.22 -23.52,97.32 l 2.99,-2.3 c -64.17,-0.83 -118.84,-1.55 -165.64,-2.17 l 2.19,1.82 c -8.4,-39.11 -15.29,-71.18 -21.03,-97.9 l -0.21,-0.98 -0.95,-0.27 c -35.05,-9.78 -59.71,-21.22 -75.74,-29.13 -7.66,-4 -13.52,-7.06 -17.81,-9.31 -4.04,-2.21 -5.95,-3.16 -5.95,-3.02 0.01,0.13 1.9,1.43 5.53,3.76 3.79,2.33 9.52,5.83 17.46,10.06 15.85,8.43 40.42,20.44 75.61,30.8 l -1.15,-1.24 c 5.4,26.78 11.87,58.95 19.77,98.16 l 0.35,1.78 1.84,0.04 c 46.8,1.02 101.46,2.22 165.62,3.63 l 2.39,0.05 0.59,-2.34 c 7.47,-30.05 15.38,-61.86 24.16,-97.16 l -2.44,2.45 c 33.3,-8.13 67.41,-20.78 101.47,-39.6 l -3.78,-0.14 c 26.6,17.54 54.18,35.7 83.57,55.08 l 2.59,1.71 2.26,-2.18 c 37.74,-36.29 77.4,-74.42 119.4,-114.81 l 2.44,-2.34 -1.76,-2.91 c -16.79,-27.81 -34,-56.28 -51.74,-85.65 l 0.01,4.56 c 18.51,-30.53 33.41,-64.21 43.65,-100.1 l -3.45,3.23 c 32.1,-6.64 64.78,-13.4 98.04,-20.28 l 3.67,-0.76 0.07,-3.76 c 1,-53.85 2.02,-109.07 3.07,-165.61 l 0.08,-3.87 -3.77,-0.93 c -31.98,-7.87 -64.35,-15.83 -97.23,-23.91 l 3.61,3.6 c -8.61,-35.05 -21.96,-69.42 -39.96,-101.74 l -0.18,5.17 c 18.11,-27.62 36.41,-55.51 54.89,-83.68 l 2.22,-3.37 -2.8,-2.9 c -37.8,-39.18 -76.16,-78.93 -115.03,-119.21 l -2.82,-2.93 -3.47,2.12 c -28.3,17.15 -56.85,34.46 -85.58,51.87 h 5.27 l -0.1,-0.05 c -32.11,-19.46 -66.76,-34.07 -100.2,-43.52 l 3.58,3.86 c -7,-33.66 -13.97,-67.07 -20.41,-98.03 l -0.83,-3.96 -4.04,-0.07 c -56.98,-0.97 -113.19,-1.93 -165.63,-2.83 l -3.99,-0.08 -0.95,3.88 c -8.2,33.57 -16.32,66.8 -23.78,97.26 l 3.61,-3.61 c -36.82,9.06 -71.78,23.36 -101.66,40.1 l 5.01,0.18 c -29.03,-18.99 -57.68,-37.73 -83.77,-54.79 l -3.18,-2.08 -2.71,2.63 c -41.33,40 -81.65,79.02 -119.04,115.21 l -2.61,2.52 1.88,3.1 c 18.11,29.77 35.89,58.99 52.02,85.49 l -0.01,-4.54 c -19.75,32.72 -34.16,67.5 -43.33,100.17 l 3.19,-2.96 c -34.24,7.19 -67.65,14.21 -97.98,20.59 l -3.14,0.66 -0.06,3.2 c -0.89,58.12 -1.73,113.47 -2.53,165.63 l -0.04,2.91 2.81,0.68 c 34.16,8.27 66.99,16.22 97.32,23.57 l -2.45,-2.45 c 9.34,37.38 23.45,71.36 40.17,101.14 l 0.11,-3.1 c -19.64,30.25 -38,58.5 -54.53,83.94 l -1.13,1.74 1.43,1.47 c 47.14,48.26 86.11,88.16 115.75,118.51 l 0.92,0.94 1.09,-0.68 c 27.35,-17.02 48.42,-30.13 63.05,-39.23 6.9,-4.38 12.23,-7.77 16.21,-10.29 3.64,-2.35 5.49,-3.62 5.48,-3.76"
         style="fill:#dadbd8;fill-opacity:1;fill-rule:nonzero;stroke:none"
         id="path38" />
      <path
         d="m 2381.99,3751.6 c -51.2,-53.03 -49.71,-137.52 3.32,-188.71 53.02,-51.2 137.51,-49.71 188.7,3.32 51.2,53.02 49.72,137.52 -3.31,188.71 -53.03,51.19 -137.52,49.71 -188.71,-3.32 z m -66.31,165.7 c 23.52,14.22 48.56,24.99 74.38,32.33 l 15.32,73.62 124.39,2.18 17.91,-73.03 c 26.06,-6.42 51.47,-16.31 75.47,-29.69 l 62.87,41.21 89.49,-86.42 -38.96,-64.26 c 14.22,-23.53 24.99,-48.58 32.32,-74.4 l 73.62,-15.32 2.18,-124.38 -73.03,-17.91 c -6.42,-26.06 -16.31,-51.46 -29.69,-75.47 l 41.2,-62.87 -86.4,-89.5 -64.27,38.97 c -23.53,-14.22 -48.57,-24.99 -74.4,-32.32 l -15.32,-73.63 -124.39,-2.18 -17.9,73.04 c -26.07,6.42 -51.46,16.32 -75.47,29.69 l -62.87,-41.21 -89.5,86.41 38.97,64.27 c -14.22,23.53 -24.99,48.57 -32.33,74.39 l -73.62,15.32 -2.18,124.39 73.04,17.91 c 6.42,26.06 16.32,51.46 29.69,75.47 l -41.2,62.86 86.4,89.5 64.28,-38.97"
         style="fill:#e7e8e5;fill-opacity:1;fill-rule:nonzero;stroke:none"
         id="path40" />
      <path
         d="m 890.215,579.48 c -0.242,0.258 2.445,3.282 7.515,8.54 5.907,5.929 13.192,13.25 21.801,21.902 18.567,18.34 44.446,43.418 73.246,70.887 l 0.657,0.621 0.023,-3.7 c -29.023,26.95 -55.066,51.532 -73.746,69.5 -8.656,8.469 -15.981,15.641 -21.926,21.461 -5.097,5.149 -7.808,8.118 -7.57,8.368 0.234,0.261 3.394,-2.219 8.902,-6.918 6.238,-5.5 13.93,-12.282 23.024,-20.289 19.289,-17.282 45.726,-41.442 74.75,-68.391 l 1.98,-1.84 -1.957,-1.883 -0.652,-0.617 c -28.801,-27.461 -55.074,-52.133 -74.266,-69.801 -9.047,-8.191 -16.699,-15.121 -22.91,-20.742 -5.481,-4.808 -8.633,-7.348 -8.871,-7.098"
         style="fill:#dadbd8;fill-opacity:1;fill-rule:nonzero;stroke:none"
         id="path42" />
      <path
         d="m 666.234,777.059 c 0.243,-0.25 -2.449,-3.27 -7.519,-8.528 -5.906,-5.929 -13.192,-13.261 -21.801,-21.91 -18.559,-18.34 -44.441,-43.422 -73.242,-70.883 l -0.652,-0.617 -0.028,3.699 c 29.02,-26.949 55.071,-51.531 73.742,-69.5 8.657,-8.48 15.985,-15.648 21.926,-21.468 5.106,-5.141 7.817,-8.114 7.574,-8.372 -0.234,-0.261 -3.39,2.219 -8.898,6.93 -6.242,5.488 -13.934,12.27 -23.023,20.281 -19.293,17.297 -45.727,41.457 -74.75,68.399 l -1.985,1.84 1.957,1.871 0.656,0.617 c 28.797,27.48 55.067,52.133 74.258,69.812 9.047,8.18 16.703,15.122 22.91,20.731 5.489,4.82 8.637,7.359 8.875,7.098"
         style="fill:#dadbd8;fill-opacity:1;fill-rule:nonzero;stroke:none"
         id="path44" />
      <path
         d="m 723.727,532.941 c -1.309,0.489 22.203,66.571 52.503,147.59 30.309,81.028 55.934,146.309 57.243,145.809 1.308,-0.488 -22.192,-66.559 -52.512,-147.602 -30.297,-81 -55.926,-146.297 -57.234,-145.797"
         style="fill:#dadbd8;fill-opacity:1;fill-rule:nonzero;stroke:none"
         id="path46" />
      <path
         d="m 1144.74,391.539 c 0,0 -0.15,3.832 -0.23,11.051 -0.06,7.359 -0.14,17.98 -0.24,31.801 -0.13,27.91 -0.31,68.57 -0.54,120.398 -0.27,103.652 -0.64,251.781 -1.1,430.402 l 2.11,-2.121 c -208.408,-0.121 -459.021,-0.269 -728.506,-0.422 h -0.062 l 2.531,2.543 c -0.098,-214.613 -0.191,-417.269 -0.269,-593.652 l -2.262,2.27 c 216.308,-0.469 398.148,-0.86 526.09,-1.137 63.978,-0.262 114.438,-0.461 149.118,-0.602 17.19,-0.121 30.44,-0.199 39.58,-0.269 4.4,-0.051 7.78,-0.102 10.23,-0.129 2.31,-0.051 3.55,-0.133 3.55,-0.133 0,0 -1.06,-0.078 -3.29,-0.129 -2.39,-0.031 -5.69,-0.07 -9.98,-0.129 -9.04,-0.07 -22.13,-0.16 -39.14,-0.269 -34.56,-0.141 -84.85,-0.352 -148.607,-0.602 -128.293,-0.281 -310.641,-0.672 -527.551,-1.14 h -2.262 v 2.269 c -0.078,176.383 -0.168,379.039 -0.273,593.652 v 2.539 h 2.535 0.062 c 269.485,-0.16 520.098,-0.308 728.506,-0.421 h 2.12 l -0.01,-2.118 c -0.45,-179.16 -0.83,-327.761 -1.09,-431.742 -0.24,-51.609 -0.42,-92.121 -0.54,-119.918 -0.11,-13.652 -0.19,-24.133 -0.24,-31.39 -0.09,-7.071 -0.24,-10.602 -0.24,-10.602"
         style="fill:#dadbd8;fill-opacity:1;fill-rule:nonzero;stroke:none"
         id="path48" />
      <path
         d="m 1150.45,897.102 c 0,-1.403 -164.458,-2.543 -367.282,-2.543 -202.895,0 -367.316,1.14 -367.316,2.543 0,1.41 164.421,2.539 367.316,2.539 202.824,0 367.282,-1.129 367.282,-2.539"
         style="fill:#dadbd8;fill-opacity:1;fill-rule:nonzero;stroke:none"
         id="path50" />
      <path
         d="m 475.629,940.422 c 0,-5.442 -4.387,-9.844 -9.809,-9.844 -5.414,0 -9.808,4.402 -9.808,9.844 0,5.437 4.394,9.848 9.808,9.848 5.422,0 9.809,-4.411 9.809,-9.848"
         style="fill:#dadbd8;fill-opacity:1;fill-rule:nonzero;stroke:none"
         id="path52" />
      <path
         d="m 511.387,940.422 c 0,-5.442 -4.395,-9.844 -9.809,-9.844 -5.422,0 -9.808,4.402 -9.808,9.844 0,5.437 4.386,9.848 9.808,9.848 5.414,0 9.809,-4.411 9.809,-9.848"
         style="fill:#dadbd8;fill-opacity:1;fill-rule:nonzero;stroke:none"
         id="path54" />
      <path
         d="m 547.145,940.422 c 0,-5.442 -4.395,-9.844 -9.809,-9.844 -5.422,0 -9.813,4.402 -9.813,9.844 0,5.437 4.391,9.848 9.813,9.848 5.414,0 9.809,-4.411 9.809,-9.848"
         style="fill:#dadbd8;fill-opacity:1;fill-rule:nonzero;stroke:none"
         id="path56" />
      <path
         d="M 6939.97,2.60156 C 6939.97,1.16016 5415.1,0 3534.53,0 1653.3,0 128.77,1.16016 128.77,2.60156 c 0,1.4375 1524.53,2.60938 3405.76,2.60938 1880.57,0 3405.44,-1.17188 3405.44,-2.60938"
         style="fill:#17282f;fill-opacity:1;fill-rule:nonzero;stroke:none"
         id="path58" />
      <path
         d="m 5887.15,19.8516 h 789.54 V 2438.44 H 5887.15 V 19.8516"
         style="fill:#e7e8e5;fill-opacity:1;fill-rule:nonzero;stroke:none"
         id="path60" />
      <path
         d="m 5264.28,19.8516 h 622.87 l 1.13,2418.5884 h -624 V 19.8516"
         style="fill:#dadbd8;fill-opacity:1;fill-rule:nonzero;stroke:none"
         id="path62" />
      <path
         d="m 5963.23,2051.36 h 669.75 V 1862.8 h -669.75 v 188.56"
         style="fill:#17282f;fill-opacity:1;fill-rule:nonzero;stroke:none"
         id="path64" />
      <path
         d="m 6576.78,1883.35 h 37.51 v 144.3 h -37.51 v -144.3"
         style="fill:#33535f;fill-opacity:1;fill-rule:nonzero;stroke:none"
         id="path66" />
      <path
         d="m 6532.6,1997.3 c 0,-6.59 5.34,-11.92 11.92,-11.92 6.59,0 11.92,5.33 11.92,11.92 0,6.58 -5.33,11.92 -11.92,11.92 -6.58,0 -11.92,-5.34 -11.92,-11.92"
         style="fill:#ffffff;fill-opacity:1;fill-rule:nonzero;stroke:none"
         id="path68" />
      <path
         d="m 6532.6,1946.31 c 0,-6.58 5.34,-11.92 11.92,-11.92 6.59,0 11.92,5.34 11.92,11.92 0,6.58 -5.33,11.92 -11.92,11.92 -6.58,0 -11.92,-5.34 -11.92,-11.92"
         style="fill:#ffffff;fill-opacity:1;fill-rule:nonzero;stroke:none"
         id="path70" />
      <path
         d="m 6448.1,1898.37 h 36.86 v 110.85 h -36.86 v -110.85"
         style="fill:#33535f;fill-opacity:1;fill-rule:nonzero;stroke:none"
         id="path72" />
      <path
         d="m 6394.87,1898.37 h 36.85 v 110.85 h -36.85 v -110.85"
         style="fill:#33535f;fill-opacity:1;fill-rule:nonzero;stroke:none"
         id="path74" />
      <path
         d="m 6341.64,1898.37 h 36.85 v 110.85 h -36.85 v -110.85"
         style="fill:#33535f;fill-opacity:1;fill-rule:nonzero;stroke:none"
         id="path76" />
      <path
         d="m 6288.4,1898.37 h 36.86 v 110.85 h -36.86 v -110.85"
         style="fill:#33535f;fill-opacity:1;fill-rule:nonzero;stroke:none"
         id="path78" />
      <path
         d="m 6235.17,1898.37 h 36.86 v 110.85 h -36.86 v -110.85"
         style="fill:#33535f;fill-opacity:1;fill-rule:nonzero;stroke:none"
         id="path80" />
      <path
         d="m 6181.94,1898.37 h 36.85 v 110.85 h -36.85 v -110.85"
         style="fill:#33535f;fill-opacity:1;fill-rule:nonzero;stroke:none"
         id="path82" />
      <path
         d="m 6128.71,1898.37 h 36.85 v 110.85 h -36.85 v -110.85"
         style="fill:#33535f;fill-opacity:1;fill-rule:nonzero;stroke:none"
         id="path84" />
      <path
         d="m 6075.47,1898.37 h 36.86 v 110.85 h -36.86 v -110.85"
         style="fill:#33535f;fill-opacity:1;fill-rule:nonzero;stroke:none"
         id="path86" />
      <path
         d="m 6022.24,1898.37 h 36.86 v 110.85 h -36.86 v -110.85"
         style="fill:#33535f;fill-opacity:1;fill-rule:nonzero;stroke:none"
         id="path88" />
      <path
         d="m 5969.01,1898.37 h 36.85 v 110.85 h -36.85 v -110.85"
         style="fill:#33535f;fill-opacity:1;fill-rule:nonzero;stroke:none"
         id="path90" />
      <path
         d="m 5963.23,1780.48 h 669.75 v -188.56 h -669.75 v 188.56"
         style="fill:#17282f;fill-opacity:1;fill-rule:nonzero;stroke:none"
         id="path92" />
      <path
         d="m 6576.78,1612.47 h 37.51 v 144.31 h -37.51 v -144.31"
         style="fill:#33535f;fill-opacity:1;fill-rule:nonzero;stroke:none"
         id="path94" />
      <path
         d="m 6532.6,1726.42 c 0,-6.59 5.34,-11.92 11.92,-11.92 6.59,0 11.92,5.33 11.92,11.92 0,6.59 -5.33,11.92 -11.92,11.92 -6.58,0 -11.92,-5.33 -11.92,-11.92"
         style="fill:#ffffff;fill-opacity:1;fill-rule:nonzero;stroke:none"
         id="path96" />
      <path
         d="m 6532.6,1675.43 c 0,-6.58 5.34,-11.91 11.92,-11.91 6.59,0 11.92,5.33 11.92,11.91 0,6.58 -5.33,11.92 -11.92,11.92 -6.58,0 -11.92,-5.34 -11.92,-11.92"
         style="fill:#ffffff;fill-opacity:1;fill-rule:nonzero;stroke:none"
         id="path98" />
      <path
         d="m 6448.1,1627.49 h 36.86 v 110.85 h -36.86 v -110.85"
         style="fill:#33535f;fill-opacity:1;fill-rule:nonzero;stroke:none"
         id="path100" />
      <path
         d="m 6394.87,1627.49 h 36.85 v 110.85 h -36.85 v -110.85"
         style="fill:#33535f;fill-opacity:1;fill-rule:nonzero;stroke:none"
         id="path102" />
      <path
         d="m 6341.64,1627.49 h 36.85 v 110.85 h -36.85 v -110.85"
         style="fill:#33535f;fill-opacity:1;fill-rule:nonzero;stroke:none"
         id="path104" />
      <path
         d="m 6288.4,1627.49 h 36.86 v 110.85 h -36.86 v -110.85"
         style="fill:#33535f;fill-opacity:1;fill-rule:nonzero;stroke:none"
         id="path106" />
      <path
         d="m 6235.17,1627.49 h 36.86 v 110.85 h -36.86 v -110.85"
         style="fill:#33535f;fill-opacity:1;fill-rule:nonzero;stroke:none"
         id="path108" />
      <path
         d="m 6181.94,1627.49 h 36.85 v 110.85 h -36.85 v -110.85"
         style="fill:#33535f;fill-opacity:1;fill-rule:nonzero;stroke:none"
         id="path110" />
      <path
         d="m 6128.71,1627.49 h 36.85 v 110.85 h -36.85 v -110.85"
         style="fill:#33535f;fill-opacity:1;fill-rule:nonzero;stroke:none"
         id="path112" />
      <path
         d="m 6075.47,1627.49 h 36.86 v 110.85 h -36.86 v -110.85"
         style="fill:#33535f;fill-opacity:1;fill-rule:nonzero;stroke:none"
         id="path114" />
      <path
         d="m 6022.24,1627.49 h 36.86 v 110.85 h -36.86 v -110.85"
         style="fill:#33535f;fill-opacity:1;fill-rule:nonzero;stroke:none"
         id="path116" />
      <path
         d="m 5969.01,1627.49 h 36.85 v 110.85 h -36.85 v -110.85"
         style="fill:#33535f;fill-opacity:1;fill-rule:nonzero;stroke:none"
         id="path118" />
      <path
         d="m 5963.23,1507.43 h 669.75 v -188.55 h -669.75 v 188.55"
         style="fill:#17282f;fill-opacity:1;fill-rule:nonzero;stroke:none"
         id="path120" />
      <path
         d="m 6576.78,1339.42 h 37.51 v 144.31 h -37.51 v -144.31"
         style="fill:#33535f;fill-opacity:1;fill-rule:nonzero;stroke:none"
         id="path122" />
      <path
         d="m 6532.6,1453.38 c 0,-6.59 5.34,-11.92 11.92,-11.92 6.59,0 11.92,5.33 11.92,11.92 0,6.58 -5.33,11.91 -11.92,11.91 -6.58,0 -11.92,-5.33 -11.92,-11.91"
         style="fill:#ffffff;fill-opacity:1;fill-rule:nonzero;stroke:none"
         id="path124" />
      <path
         d="m 6532.6,1402.38 c 0,-6.58 5.34,-11.91 11.92,-11.91 6.59,0 11.92,5.33 11.92,11.91 0,6.59 -5.33,11.93 -11.92,11.93 -6.58,0 -11.92,-5.34 -11.92,-11.93"
         style="fill:#ffffff;fill-opacity:1;fill-rule:nonzero;stroke:none"
         id="path126" />
      <path
         d="m 6448.1,1354.44 h 36.86 v 110.85 h -36.86 v -110.85"
         style="fill:#33535f;fill-opacity:1;fill-rule:nonzero;stroke:none"
         id="path128" />
      <path
         d="m 6394.87,1354.44 h 36.85 v 110.85 h -36.85 v -110.85"
         style="fill:#33535f;fill-opacity:1;fill-rule:nonzero;stroke:none"
         id="path130" />
      <path
         d="m 6341.64,1354.44 h 36.85 v 110.85 h -36.85 v -110.85"
         style="fill:#33535f;fill-opacity:1;fill-rule:nonzero;stroke:none"
         id="path132" />
      <path
         d="m 6288.4,1354.44 h 36.86 v 110.85 h -36.86 v -110.85"
         style="fill:#33535f;fill-opacity:1;fill-rule:nonzero;stroke:none"
         id="path134" />
      <path
         d="m 6235.17,1354.44 h 36.86 v 110.85 h -36.86 v -110.85"
         style="fill:#33535f;fill-opacity:1;fill-rule:nonzero;stroke:none"
         id="path136" />
      <path
         d="m 6181.94,1354.44 h 36.85 v 110.85 h -36.85 v -110.85"
         style="fill:#33535f;fill-opacity:1;fill-rule:nonzero;stroke:none"
         id="path138" />
      <path
         d="m 6128.71,1354.44 h 36.85 v 110.85 h -36.85 v -110.85"
         style="fill:#33535f;fill-opacity:1;fill-rule:nonzero;stroke:none"
         id="path140" />
      <path
         d="m 6075.47,1354.44 h 36.86 v 110.85 h -36.86 v -110.85"
         style="fill:#33535f;fill-opacity:1;fill-rule:nonzero;stroke:none"
         id="path142" />
      <path
         d="m 6022.24,1354.44 h 36.86 v 110.85 h -36.86 v -110.85"
         style="fill:#33535f;fill-opacity:1;fill-rule:nonzero;stroke:none"
         id="path144" />
      <path
         d="m 5969.01,1354.44 h 36.85 v 110.85 h -36.85 v -110.85"
         style="fill:#33535f;fill-opacity:1;fill-rule:nonzero;stroke:none"
         id="path146" />
      <path
         d="m 5963.23,1212.48 h 669.75 v -188.55 h -669.75 v 188.55"
         style="fill:#17282f;fill-opacity:1;fill-rule:nonzero;stroke:none"
         id="path148" />
      <path
         d="m 6576.78,1044.46 h 37.51 v 144.31 h -37.51 v -144.31"
         style="fill:#33535f;fill-opacity:1;fill-rule:nonzero;stroke:none"
         id="path150" />
      <path
         d="m 6532.6,1158.42 c 0,-6.58 5.34,-11.93 11.92,-11.93 6.59,0 11.92,5.35 11.92,11.93 0,6.58 -5.33,11.92 -11.92,11.92 -6.58,0 -11.92,-5.34 -11.92,-11.92"
         style="fill:#ffffff;fill-opacity:1;fill-rule:nonzero;stroke:none"
         id="path152" />
      <path
         d="m 6532.6,1107.43 c 0,-6.58 5.34,-11.92 11.92,-11.92 6.59,0 11.92,5.34 11.92,11.92 0,6.58 -5.33,11.92 -11.92,11.92 -6.58,0 -11.92,-5.34 -11.92,-11.92"
         style="fill:#ffffff;fill-opacity:1;fill-rule:nonzero;stroke:none"
         id="path154" />
      <path
         d="m 6448.1,1059.49 h 36.86 v 110.85 h -36.86 v -110.85"
         style="fill:#33535f;fill-opacity:1;fill-rule:nonzero;stroke:none"
         id="path156" />
      <path
         d="m 6394.87,1059.49 h 36.85 v 110.85 h -36.85 v -110.85"
         style="fill:#33535f;fill-opacity:1;fill-rule:nonzero;stroke:none"
         id="path158" />
      <path
         d="m 6341.64,1059.49 h 36.85 v 110.85 h -36.85 v -110.85"
         style="fill:#33535f;fill-opacity:1;fill-rule:nonzero;stroke:none"
         id="path160" />
      <path
         d="m 6288.4,1059.49 h 36.86 v 110.85 h -36.86 v -110.85"
         style="fill:#33535f;fill-opacity:1;fill-rule:nonzero;stroke:none"
         id="path162" />
      <path
         d="m 6235.17,1059.49 h 36.86 v 110.85 h -36.86 v -110.85"
         style="fill:#33535f;fill-opacity:1;fill-rule:nonzero;stroke:none"
         id="path164" />
      <path
         d="m 6181.94,1059.49 h 36.85 v 110.85 h -36.85 v -110.85"
         style="fill:#33535f;fill-opacity:1;fill-rule:nonzero;stroke:none"
         id="path166" />
      <path
         d="m 6128.71,1059.49 h 36.85 v 110.85 h -36.85 v -110.85"
         style="fill:#33535f;fill-opacity:1;fill-rule:nonzero;stroke:none"
         id="path168" />
      <path
         d="m 6075.47,1059.49 h 36.86 v 110.85 h -36.86 v -110.85"
         style="fill:#33535f;fill-opacity:1;fill-rule:nonzero;stroke:none"
         id="path170" />
      <path
         d="m 6022.24,1059.49 h 36.86 v 110.85 h -36.86 v -110.85"
         style="fill:#33535f;fill-opacity:1;fill-rule:nonzero;stroke:none"
         id="path172" />
      <path
         d="m 5969.01,1059.49 h 36.85 v 110.85 h -36.85 v -110.85"
         style="fill:#33535f;fill-opacity:1;fill-rule:nonzero;stroke:none"
         id="path174" />
      <path
         d="m 5963.23,914.609 h 669.75 v -188.55 h -669.75 v 188.55"
         style="fill:#17282f;fill-opacity:1;fill-rule:nonzero;stroke:none"
         id="path176" />
      <path
         d="m 6576.78,746.59 h 37.51 v 144.308 h -37.51 V 746.59"
         style="fill:#33535f;fill-opacity:1;fill-rule:nonzero;stroke:none"
         id="path178" />
      <path
         d="m 6532.6,860.551 c 0,-6.582 5.34,-11.93 11.92,-11.93 6.59,0 11.92,5.348 11.92,11.93 0,6.578 -5.33,11.91 -11.92,11.91 -6.58,0 -11.92,-5.332 -11.92,-11.91"
         style="fill:#ffffff;fill-opacity:1;fill-rule:nonzero;stroke:none"
         id="path180" />
      <path
         d="m 6532.6,809.559 c 0,-6.59 5.34,-11.918 11.92,-11.918 6.59,0 11.92,5.328 11.92,11.918 0,6.582 -5.33,11.921 -11.92,11.921 -6.58,0 -11.92,-5.339 -11.92,-11.921"
         style="fill:#ffffff;fill-opacity:1;fill-rule:nonzero;stroke:none"
         id="path182" />
      <path
         d="m 6448.1,761.609 h 36.86 V 872.461 H 6448.1 V 761.609"
         style="fill:#33535f;fill-opacity:1;fill-rule:nonzero;stroke:none"
         id="path184" />
      <path
         d="m 6394.87,761.609 h 36.85 v 110.852 h -36.85 V 761.609"
         style="fill:#33535f;fill-opacity:1;fill-rule:nonzero;stroke:none"
         id="path186" />
      <path
         d="m 6341.64,761.609 h 36.85 v 110.852 h -36.85 V 761.609"
         style="fill:#33535f;fill-opacity:1;fill-rule:nonzero;stroke:none"
         id="path188" />
      <path
         d="m 6288.4,761.609 h 36.86 V 872.461 H 6288.4 V 761.609"
         style="fill:#33535f;fill-opacity:1;fill-rule:nonzero;stroke:none"
         id="path190" />
      <path
         d="m 6235.17,761.609 h 36.86 v 110.852 h -36.86 V 761.609"
         style="fill:#33535f;fill-opacity:1;fill-rule:nonzero;stroke:none"
         id="path192" />
      <path
         d="m 6181.94,761.609 h 36.85 v 110.852 h -36.85 V 761.609"
         style="fill:#33535f;fill-opacity:1;fill-rule:nonzero;stroke:none"
         id="path194" />
      <path
         d="m 6128.71,761.609 h 36.85 v 110.852 h -36.85 V 761.609"
         style="fill:#33535f;fill-opacity:1;fill-rule:nonzero;stroke:none"
         id="path196" />
      <path
         d="m 6075.47,761.609 h 36.86 v 110.852 h -36.86 V 761.609"
         style="fill:#33535f;fill-opacity:1;fill-rule:nonzero;stroke:none"
         id="path198" />
      <path
         d="m 6022.24,761.609 h 36.86 v 110.852 h -36.86 V 761.609"
         style="fill:#33535f;fill-opacity:1;fill-rule:nonzero;stroke:none"
         id="path200" />
      <path
         d="m 5969.01,761.609 h 36.85 v 110.852 h -36.85 V 761.609"
         style="fill:#33535f;fill-opacity:1;fill-rule:nonzero;stroke:none"
         id="path202" />
      <path
         d="m 5963.23,321.781 h 669.75 V 133.219 h -669.75 v 188.562"
         style="fill:#17282f;fill-opacity:1;fill-rule:nonzero;stroke:none"
         id="path204" />
      <path
         d="m 6576.78,153.762 h 37.51 V 298.07 h -37.51 V 153.762"
         style="fill:#33535f;fill-opacity:1;fill-rule:nonzero;stroke:none"
         id="path206" />
      <path
         d="m 6532.6,267.719 c 0,-6.59 5.34,-11.93 11.92,-11.93 6.59,0 11.92,5.34 11.92,11.93 0,6.582 -5.33,11.922 -11.92,11.922 -6.58,0 -11.92,-5.34 -11.92,-11.922"
         style="fill:#ffffff;fill-opacity:1;fill-rule:nonzero;stroke:none"
         id="path208" />
      <path
         d="m 6532.6,216.73 c 0,-6.582 5.34,-11.921 11.92,-11.921 6.59,0 11.92,5.339 11.92,11.921 0,6.579 -5.33,11.911 -11.92,11.911 -6.58,0 -11.92,-5.332 -11.92,-11.911"
         style="fill:#ffffff;fill-opacity:1;fill-rule:nonzero;stroke:none"
         id="path210" />
      <path
         d="m 6448.1,168.789 h 36.86 V 279.641 H 6448.1 V 168.789"
         style="fill:#33535f;fill-opacity:1;fill-rule:nonzero;stroke:none"
         id="path212" />
      <path
         d="m 6394.87,168.789 h 36.85 v 110.852 h -36.85 V 168.789"
         style="fill:#33535f;fill-opacity:1;fill-rule:nonzero;stroke:none"
         id="path214" />
      <path
         d="m 6341.64,168.789 h 36.85 v 110.852 h -36.85 V 168.789"
         style="fill:#33535f;fill-opacity:1;fill-rule:nonzero;stroke:none"
         id="path216" />
      <path
         d="m 6288.4,168.789 h 36.86 V 279.641 H 6288.4 V 168.789"
         style="fill:#33535f;fill-opacity:1;fill-rule:nonzero;stroke:none"
         id="path218" />
      <path
         d="m 6235.17,168.789 h 36.86 v 110.852 h -36.86 V 168.789"
         style="fill:#33535f;fill-opacity:1;fill-rule:nonzero;stroke:none"
         id="path220" />
      <path
         d="m 6181.94,168.789 h 36.85 v 110.852 h -36.85 V 168.789"
         style="fill:#33535f;fill-opacity:1;fill-rule:nonzero;stroke:none"
         id="path222" />
      <path
         d="m 6128.71,168.789 h 36.85 v 110.852 h -36.85 V 168.789"
         style="fill:#33535f;fill-opacity:1;fill-rule:nonzero;stroke:none"
         id="path224" />
      <path
         d="m 6075.47,168.789 h 36.86 v 110.852 h -36.86 V 168.789"
         style="fill:#33535f;fill-opacity:1;fill-rule:nonzero;stroke:none"
         id="path226" />
      <path
         d="m 6022.24,168.789 h 36.86 v 110.852 h -36.86 V 168.789"
         style="fill:#33535f;fill-opacity:1;fill-rule:nonzero;stroke:none"
         id="path228" />
      <path
         d="m 5969.01,168.789 h 36.85 v 110.852 h -36.85 V 168.789"
         style="fill:#33535f;fill-opacity:1;fill-rule:nonzero;stroke:none"
         id="path230" />
      <path
         d="m 5963.23,617.941 h 669.75 v -188.55 h -669.75 v 188.55"
         style="fill:#17282f;fill-opacity:1;fill-rule:nonzero;stroke:none"
         id="path232" />
      <path
         d="m 6576.78,449.922 h 37.51 V 594.23 h -37.51 V 449.922"
         style="fill:#33535f;fill-opacity:1;fill-rule:nonzero;stroke:none"
         id="path234" />
      <path
         d="m 6532.6,563.879 c 0,-6.578 5.34,-11.93 11.92,-11.93 6.59,0 11.92,5.352 11.92,11.93 0,6.582 -5.33,11.91 -11.92,11.91 -6.58,0 -11.92,-5.328 -11.92,-11.91"
         style="fill:#ffffff;fill-opacity:1;fill-rule:nonzero;stroke:none"
         id="path236" />
      <path
         d="m 6532.6,512.891 c 0,-6.59 5.34,-11.922 11.92,-11.922 6.59,0 11.92,5.332 11.92,11.922 0,6.578 -5.33,11.918 -11.92,11.918 -6.58,0 -11.92,-5.34 -11.92,-11.918"
         style="fill:#ffffff;fill-opacity:1;fill-rule:nonzero;stroke:none"
         id="path238" />
      <path
         d="m 6448.1,464.941 h 36.86 V 575.789 H 6448.1 V 464.941"
         style="fill:#33535f;fill-opacity:1;fill-rule:nonzero;stroke:none"
         id="path240" />
      <path
         d="m 6394.87,464.941 h 36.85 v 110.848 h -36.85 V 464.941"
         style="fill:#33535f;fill-opacity:1;fill-rule:nonzero;stroke:none"
         id="path242" />
      <path
         d="m 6341.64,464.941 h 36.85 v 110.848 h -36.85 V 464.941"
         style="fill:#33535f;fill-opacity:1;fill-rule:nonzero;stroke:none"
         id="path244" />
      <path
         d="m 6288.4,464.941 h 36.86 V 575.789 H 6288.4 V 464.941"
         style="fill:#33535f;fill-opacity:1;fill-rule:nonzero;stroke:none"
         id="path246" />
      <path
         d="m 6235.17,464.941 h 36.86 v 110.848 h -36.86 V 464.941"
         style="fill:#33535f;fill-opacity:1;fill-rule:nonzero;stroke:none"
         id="path248" />
      <path
         d="m 6181.94,464.941 h 36.85 v 110.848 h -36.85 V 464.941"
         style="fill:#33535f;fill-opacity:1;fill-rule:nonzero;stroke:none"
         id="path250" />
      <path
         d="m 6128.71,464.941 h 36.85 v 110.848 h -36.85 V 464.941"
         style="fill:#33535f;fill-opacity:1;fill-rule:nonzero;stroke:none"
         id="path252" />
      <path
         d="m 6075.47,464.941 h 36.86 v 110.848 h -36.86 V 464.941"
         style="fill:#33535f;fill-opacity:1;fill-rule:nonzero;stroke:none"
         id="path254" />
      <path
         d="m 6022.24,464.941 h 36.86 v 110.848 h -36.86 V 464.941"
         style="fill:#33535f;fill-opacity:1;fill-rule:nonzero;stroke:none"
         id="path256" />
      <path
         d="m 5969.01,464.941 h 36.85 v 110.848 h -36.85 V 464.941"
         style="fill:#33535f;fill-opacity:1;fill-rule:nonzero;stroke:none"
         id="path258" />
      <path
         d="m 6218.79,2051.36 c 0.14,-0.01 0.4,1.99 0.68,5.82 0.26,3.83 0.48,9.48 0.65,16.75 0.2,7.27 0.32,16.17 0.81,26.46 0.61,10.24 1.28,22.05 4.58,34.41 3.54,12.3 9.12,25.48 17.88,37.71 8.67,12.26 21.05,23.23 36.72,29.53 15.62,6.5 33.54,8.92 52.06,10.58 18.64,1.62 37.92,3.29 57.68,5 79.06,6.85 150.75,11.24 202.71,12.18 25.98,0.55 47.01,0.38 61.55,0.3 6.92,-0.08 12.49,-0.14 16.74,-0.19 3.82,-0.01 5.84,0.06 5.84,0.21 0.01,0.14 -1.99,0.36 -5.82,0.64 -4.24,0.26 -9.8,0.58 -16.72,0.99 -14.54,0.6 -35.6,1.22 -61.62,1.05 -52.08,-0.16 -123.94,-4.08 -203.03,-10.94 -19.77,-1.74 -39.06,-3.44 -57.72,-5.08 -18.61,-1.74 -36.95,-4.25 -53.18,-11.12 -16.33,-6.67 -29.29,-18.35 -38.08,-31.1 -8.93,-12.77 -14.47,-26.29 -17.92,-38.98 -3.22,-12.87 -3.66,-24.76 -4.05,-35.1 -0.26,-10.36 -0.15,-19.26 -0.08,-26.53 0.06,-6.93 0.1,-12.49 0.14,-16.74 0,-3.83 0.03,-5.84 0.18,-5.85"
         style="fill:#17282f;fill-opacity:1;fill-rule:nonzero;stroke:none"
         id="path260" />
      <path
         d="m 6421.97,2051.36 c 0.14,0 0.27,1.89 0.39,5.5 0.04,4.04 0.1,9.27 0.17,15.76 0.05,6.83 0.03,15.2 0.78,24.82 0.9,9.52 2.39,20.68 8.23,31.07 5.84,10.34 17.29,18.04 30.27,23.3 13.08,5.12 28.55,7.17 44.12,4.49 7.76,-1.35 15.59,-3.83 22.79,-7.74 7.12,-3.95 13.81,-9.45 17.7,-16.75 4.08,-7.23 4.2,-16.26 -0.07,-23.66 -4.14,-7.38 -11.63,-13.17 -20.07,-15.11 -8.48,-2.07 -17.41,0.89 -23.53,6.8 -6.18,5.85 -9.94,14.13 -10.55,22.38 -0.81,8.35 2.27,16.23 7.02,22.9 4.67,6.66 10.85,12.09 17.73,15.65 6.8,3.82 14.51,4.44 22.15,5.71 7.55,1.12 14.9,2.11 22.03,2.91 14.25,1.59 27.58,2.51 39.77,3.01 24.39,0.95 44.19,0.56 57.87,0.55 6.49,0.01 11.71,0.01 15.76,0.02 3.6,0.05 5.5,0.15 5.5,0.29 0,0.15 -1.89,0.34 -5.48,0.56 -4.04,0.2 -9.26,0.47 -15.75,0.79 -13.67,0.52 -33.47,1.36 -58,0.8 -12.26,-0.31 -25.69,-1.06 -40.05,-2.52 -7.18,-0.72 -14.58,-1.65 -22.2,-2.71 -3.82,-0.6 -7.61,-1.08 -11.61,-1.82 -4.05,-0.78 -8.03,-2.19 -11.78,-4.1 -7.51,-3.83 -14.17,-9.63 -19.26,-16.8 -5.1,-6.99 -8.77,-16.16 -7.86,-25.56 0.69,-9.28 4.79,-18.45 11.8,-25.13 6.87,-6.75 17.53,-10.32 27.37,-7.88 9.76,2.27 18.08,8.74 22.84,17.2 4.98,8.45 4.77,19.57 0.05,27.68 -4.49,8.31 -11.82,14.17 -19.43,18.35 -7.72,4.14 -15.92,6.68 -24.08,8.05 -16.37,2.69 -32.48,0.41 -46.09,-5.08 -13.4,-5.59 -25.38,-13.81 -31.58,-25.09 -6.04,-11.21 -7.27,-22.7 -7.99,-32.39 -0.52,-9.78 -0.26,-18.17 -0.06,-25.01 0.26,-6.49 0.47,-11.72 0.63,-15.75 0.17,-3.6 0.31,-5.49 0.47,-5.49"
         style="fill:#17282f;fill-opacity:1;fill-rule:nonzero;stroke:none"
         id="path262" />
      <path
         d="m 6164.13,2051.36 c 0.13,-0.02 0.6,2.13 1.34,6.24 0.73,4.11 1.88,10.16 3.53,17.9 3.37,15.44 8.69,37.87 19.72,63.89 10.92,25.81 28.35,55.82 58.29,78.24 14.59,11.4 33.43,17.66 53.43,20.35 20,2.9 41.17,2.76 62.8,3.37 86.55,1.63 165,1.29 221.76,3.5 28.36,0.98 51.3,2.3 67.14,3.42 7.59,0.63 13.66,1.14 18.23,1.52 4.16,0.4 6.33,0.67 6.32,0.82 0,0.15 -2.2,0.16 -6.38,0.03 -4.58,-0.18 -10.65,-0.41 -18.25,-0.71 -15.86,-0.61 -38.79,-1.48 -67.15,-2.07 -56.71,-1.44 -135.1,-0.62 -221.76,-2.25 -21.61,-0.62 -42.87,-0.49 -63.32,-3.5 -20.32,-2.77 -40.11,-9.4 -55.19,-21.35 -14.96,-11.69 -27.51,-24.93 -36.85,-38.97 -9.46,-13.95 -16.43,-28.06 -21.85,-41.24 -10.79,-26.45 -15.68,-49.12 -18.56,-64.72 -1.42,-7.83 -2.3,-13.94 -2.76,-18.1 -0.46,-4.16 -0.64,-6.35 -0.49,-6.37"
         style="fill:#17282f;fill-opacity:1;fill-rule:nonzero;stroke:none"
         id="path264" />
      <path
         d="m 5972.45,2313.81 h 651.32 v 94.55 h -651.32 v -94.55"
         style="fill:#17282f;fill-opacity:1;fill-rule:nonzero;stroke:none"
         id="path266" />
      <path
         d="m 6125.91,2313.81 h 354.61 v 47.28 h -354.61 v -47.28"
         style="fill:#33535f;fill-opacity:1;fill-rule:nonzero;stroke:none"
         id="path268" />
      <path
         d="m 5706.72,447.41 c -0.06,-0.461 7.18,-1.18 19.69,-4.801 12.42,-3.738 30.21,-10.711 49.21,-24.109 9.43,-6.719 19.13,-15.102 27.63,-25.68 4.33,-5.211 8.06,-11.148 11.34,-17.519 2.96,-6.442 5.27,-13.582 7.1,-20.992 7.45,-29.868 5.19,-64.071 3.72,-99.719 -1.49,-35.578 0.85,-71.039 14.92,-99.551 6.7,-14.219 16.11,-26.277 26.57,-35.539 10.53,-9.219 21.82,-15.922 32.63,-20.6992 10.83,-4.8008 21.25,-7.5899 30.5,-9.1328 9.31,-1.2969 17.43,-1.5664 24.01,-1.0196 6.57,0.543 11.64,1.3907 14.97,2.3633 3.35,0.8789 5.09,1.3985 5.05,1.5391 -0.11,0.5195 -7.11,-1.6992 -20.11,-2.25 -6.48,-0.2891 -14.43,0.2305 -23.51,1.7109 -9.04,1.7383 -19.16,4.6797 -29.67,9.5273 -10.49,4.852 -21.41,11.539 -31.52,20.59 -10.03,9.101 -18.96,20.73 -25.39,34.601 -13.42,27.668 -15.68,62.309 -14.21,97.711 1.46,35.469 3.69,70.207 -4.15,100.797 -1.94,7.602 -4.32,14.871 -7.56,21.711 -3.47,6.641 -7.43,12.781 -11.96,18.102 -8.88,10.808 -18.91,19.219 -28.63,25.91 -19.58,13.34 -37.79,19.949 -50.5,23.238 -6.4,1.551 -11.41,2.531 -14.86,2.832 -3.45,0.391 -5.26,0.528 -5.27,0.379"
         style="fill:#17282f;fill-opacity:1;fill-rule:nonzero;stroke:none"
         id="path270" />
      <path
         d="m 5953.47,56.7383 h 53.48 v 65.0427 h -53.48 V 56.7383"
         style="fill:#17282f;fill-opacity:1;fill-rule:nonzero;stroke:none"
         id="path272" />
      <path
         d="m 5406.89,283.148 h 299.83 V 611.672 H 5406.89 V 283.148"
         style="fill:#33535f;fill-opacity:1;fill-rule:nonzero;stroke:none"
         id="path274" />
      <path
         d="m 5458.11,446.121 c 0,-54.512 44.19,-98.691 98.69,-98.691 54.51,0 98.69,44.179 98.69,98.691 0,54.508 -44.18,98.699 -98.69,98.699 -54.5,0 -98.69,-44.191 -98.69,-98.699"
         style="fill:#17282f;fill-opacity:1;fill-rule:nonzero;stroke:none"
         id="path276" />
      <path
         d="m 5507.46,446.121 c 0,-27.25 22.1,-49.34 49.34,-49.34 27.26,0 49.35,22.09 49.35,49.34 0,27.25 -22.09,49.348 -49.35,49.348 -27.24,0 -49.34,-22.098 -49.34,-49.348"
         style="fill:#33535f;fill-opacity:1;fill-rule:nonzero;stroke:none"
         id="path278" />
      <path
         d="m 5657,560.68 c 0,-5.059 4.1,-9.168 9.17,-9.168 5.06,0 9.16,4.109 9.16,9.168 0,5.058 -4.1,9.16 -9.16,9.16 -5.07,0 -9.17,-4.102 -9.17,-9.16"
         style="fill:#17282f;fill-opacity:1;fill-rule:nonzero;stroke:none"
         id="path280" />
      <path
         d="m 5443.58,560.68 c 0,-5.059 4.1,-9.168 9.17,-9.168 5.06,0 9.16,4.109 9.16,9.168 0,5.058 -4.1,9.16 -9.16,9.16 -5.07,0 -9.17,-4.102 -9.17,-9.16"
         style="fill:#17282f;fill-opacity:1;fill-rule:nonzero;stroke:none"
         id="path282" />
      <path
         d="m 5441.63,318.09 c 0,-5.059 4.1,-9.168 9.16,-9.168 5.07,0 9.17,4.109 9.17,9.168 0,5.058 -4.1,9.172 -9.17,9.172 -5.06,0 -9.16,-4.114 -9.16,-9.172"
         style="fill:#17282f;fill-opacity:1;fill-rule:nonzero;stroke:none"
         id="path284" />
      <path
         d="m 5657,314.328 c 0,-5.066 4.1,-9.168 9.17,-9.168 5.06,0 9.16,4.102 9.16,9.168 0,5.063 -4.1,9.16 -9.16,9.16 -5.07,0 -9.17,-4.097 -9.17,-9.16"
         style="fill:#17282f;fill-opacity:1;fill-rule:nonzero;stroke:none"
         id="path286" />
      <path
         d="m 5382.7,283.148 h 24.19 V 611.672 H 5382.7 V 283.148"
         style="fill:#17282f;fill-opacity:1;fill-rule:nonzero;stroke:none"
         id="path288" />
      <path
         d="M 5109.45,41.0508 H 1107.27 c -80.45,0 -145.676,65.2112 -145.676,145.6682 V 2802.8 c 0,42.81 34.707,77.51 77.516,77.51 h 4148.62 c 37.22,0 67.39,-30.18 67.39,-67.4 V 186.719 c 0,-80.457 -65.21,-145.6682 -145.67,-145.6682"
         style="fill:#33535f;fill-opacity:1;fill-rule:nonzero;stroke:none"
         id="path290" />
      <path
         d="M 5296.55,2.60156 H 919.258 C 843.477,2.60156 782.047,64.0313 782.047,139.82 V 251.031 H 5433.75 V 139.82 c 0,-75.7887 -61.42,-137.21844 -137.2,-137.21844"
         style="fill:#33535f;fill-opacity:1;fill-rule:nonzero;stroke:none"
         id="path292" />
      <path
         d="m 1076.84,369.789 h 4051.03 v 2397.71 H 1076.84 Z"
         style="fill:#dadbd8;fill-opacity:1;fill-rule:nonzero;stroke:none"
         id="path294" />
      <path
         d="m 2685.11,251.031 57.72,-91.812 h 812.24 l 53.61,91.812 h -923.57"
         style="fill:#17282f;fill-opacity:1;fill-rule:nonzero;stroke:none"
         id="path296" />
      <path
         d="m 1197.04,369.789 h 3820.41 v 2258.8 H 1197.04 Z"
         style="fill:#17282f;fill-opacity:1;fill-rule:nonzero;stroke:none"
         id="path298" />
      <path
         d="m 1490.16,436.07 c -1.99,0 -3.59,481.09 -3.59,1074.4 0,593.52 1.6,1074.49 3.59,1074.49 1.97,0 3.58,-480.97 3.58,-1074.49 0,-593.31 -1.61,-1074.4 -3.58,-1074.4"
         style="fill:#dadbd8;fill-opacity:1;fill-rule:nonzero;stroke:none"
         id="path300" />
      <path
         d="m 1413.09,2390.18 c 0,-1.98 -27.78,-3.58 -62.05,-3.58 -34.29,0 -62.07,1.6 -62.07,3.58 0,1.98 27.78,3.59 62.07,3.59 34.27,0 62.05,-1.61 62.05,-3.59"
         style="fill:#dadbd8;fill-opacity:1;fill-rule:nonzero;stroke:none"
         id="path302" />
      <path
         d="m 1417.87,2512.11 c 0,-1.98 -27.79,-3.58 -62.05,-3.58 -34.29,0 -62.07,1.6 -62.07,3.58 0,1.98 27.78,3.58 62.07,3.58 34.26,0 62.05,-1.6 62.05,-3.58"
         style="fill:#dadbd8;fill-opacity:1;fill-rule:nonzero;stroke:none"
         id="path304" />
      <path
         d="m 1413.09,2258.75 c 0,-1.98 -27.78,-3.58 -62.05,-3.58 -34.29,0 -62.07,1.6 -62.07,3.58 0,1.98 27.78,3.58 62.07,3.58 34.27,0 62.05,-1.6 62.05,-3.58"
         style="fill:#dadbd8;fill-opacity:1;fill-rule:nonzero;stroke:none"
         id="path306" />
      <path
         d="m 1413.09,2127.32 c 0,-1.98 -27.78,-3.58 -62.05,-3.58 -34.29,0 -62.07,1.6 -62.07,3.58 0,1.98 27.78,3.58 62.07,3.58 34.27,0 62.05,-1.6 62.05,-3.58"
         style="fill:#dadbd8;fill-opacity:1;fill-rule:nonzero;stroke:none"
         id="path308" />
      <path
         d="m 1413.09,1995.89 c 0,-1.98 -27.78,-3.58 -62.05,-3.58 -34.29,0 -62.07,1.6 -62.07,3.58 0,1.98 27.78,3.58 62.07,3.58 34.27,0 62.05,-1.6 62.05,-3.58"
         style="fill:#dadbd8;fill-opacity:1;fill-rule:nonzero;stroke:none"
         id="path310" />
      <path
         d="m 1413.09,1864.46 c 0,-1.98 -27.78,-3.58 -62.05,-3.58 -34.29,0 -62.07,1.6 -62.07,3.58 0,1.98 27.78,3.59 62.07,3.59 34.27,0 62.05,-1.61 62.05,-3.59"
         style="fill:#dadbd8;fill-opacity:1;fill-rule:nonzero;stroke:none"
         id="path312" />
      <path
         d="m 1413.09,1733.03 c 0,-1.98 -27.78,-3.59 -62.05,-3.59 -34.29,0 -62.07,1.61 -62.07,3.59 0,1.98 27.78,3.58 62.07,3.58 34.27,0 62.05,-1.6 62.05,-3.58"
         style="fill:#dadbd8;fill-opacity:1;fill-rule:nonzero;stroke:none"
         id="path314" />
      <path
         d="m 1413.09,1601.6 c 0,-1.98 -27.78,-3.58 -62.05,-3.58 -34.29,0 -62.07,1.6 -62.07,3.58 0,1.97 27.78,3.59 62.07,3.59 34.27,0 62.05,-1.62 62.05,-3.59"
         style="fill:#dadbd8;fill-opacity:1;fill-rule:nonzero;stroke:none"
         id="path316" />
      <path
         d="m 1413.09,1470.17 c 0,-1.98 -27.78,-3.59 -62.05,-3.59 -34.29,0 -62.07,1.61 -62.07,3.59 0,1.98 27.78,3.58 62.07,3.58 34.27,0 62.05,-1.6 62.05,-3.58"
         style="fill:#dadbd8;fill-opacity:1;fill-rule:nonzero;stroke:none"
         id="path318" />
      <path
         d="m 1413.09,1338.74 c 0,-1.98 -27.78,-3.58 -62.05,-3.58 -34.29,0 -62.07,1.6 -62.07,3.58 0,1.97 27.78,3.58 62.07,3.58 34.27,0 62.05,-1.61 62.05,-3.58"
         style="fill:#dadbd8;fill-opacity:1;fill-rule:nonzero;stroke:none"
         id="path320" />
      <path
         d="m 1413.09,1207.31 c 0,-1.98 -27.78,-3.58 -62.05,-3.58 -34.29,0 -62.07,1.6 -62.07,3.58 0,1.98 27.78,3.58 62.07,3.58 34.27,0 62.05,-1.6 62.05,-3.58"
         style="fill:#dadbd8;fill-opacity:1;fill-rule:nonzero;stroke:none"
         id="path322" />
      <path
         d="m 1413.09,1075.88 c 0,-1.98 -27.78,-3.58 -62.05,-3.58 -34.29,0 -62.07,1.6 -62.07,3.58 0,1.98 27.78,3.58 62.07,3.58 34.27,0 62.05,-1.6 62.05,-3.58"
         style="fill:#dadbd8;fill-opacity:1;fill-rule:nonzero;stroke:none"
         id="path324" />
      <path
         d="m 1413.09,944.449 c 0,-1.98 -27.78,-3.578 -62.05,-3.578 -34.29,0 -62.07,1.598 -62.07,3.578 0,1.981 27.78,3.59 62.07,3.59 34.27,0 62.05,-1.609 62.05,-3.59"
         style="fill:#dadbd8;fill-opacity:1;fill-rule:nonzero;stroke:none"
         id="path326" />
      <path
         d="m 1413.09,813.02 c 0,-1.981 -27.78,-3.59 -62.05,-3.59 -34.29,0 -62.07,1.609 -62.07,3.59 0,1.98 27.78,3.582 62.07,3.582 34.27,0 62.05,-1.602 62.05,-3.582"
         style="fill:#dadbd8;fill-opacity:1;fill-rule:nonzero;stroke:none"
         id="path328" />
      <path
         d="m 1413.09,681.59 c 0,-1.981 -27.78,-3.578 -62.05,-3.578 -34.29,0 -62.07,1.597 -62.07,3.578 0,1.98 27.78,3.59 62.07,3.59 34.27,0 62.05,-1.61 62.05,-3.59"
         style="fill:#dadbd8;fill-opacity:1;fill-rule:nonzero;stroke:none"
         id="path330" />
      <path
         d="m 1413.09,550.16 c 0,-1.992 -27.78,-3.59 -62.05,-3.59 -34.29,0 -62.07,1.598 -62.07,3.59 0,1.981 27.78,3.578 62.07,3.578 34.27,0 62.05,-1.597 62.05,-3.578"
         style="fill:#dadbd8;fill-opacity:1;fill-rule:nonzero;stroke:none"
         id="path332" />
      <path
         d="m 1910.57,550.16 c 0,-1.992 -72.11,-3.59 -161.04,-3.59 -88.97,0 -161.07,1.598 -161.07,3.59 0,1.981 72.1,3.578 161.07,3.578 88.93,0 161.04,-1.597 161.04,-3.578"
         style="fill:#f2575d;fill-opacity:1;fill-rule:nonzero;stroke:none"
         id="path334" />
      <path
         d="m 2021.93,2409.86 c 0,-1.98 -72.12,-3.59 -161.05,-3.59 -88.97,0 -161.07,1.61 -161.07,3.59 0,1.98 72.1,3.58 161.07,3.58 88.93,0 161.05,-1.6 161.05,-3.58"
         style="fill:#f2575d;fill-opacity:1;fill-rule:nonzero;stroke:none"
         id="path336" />
      <path
         d="m 2359.15,2127.32 c 0,-1.98 -134.92,-3.58 -301.32,-3.58 -166.45,0 -301.35,1.6 -301.35,3.58 0,1.98 134.9,3.58 301.35,3.58 166.4,0 301.32,-1.6 301.32,-3.58"
         style="fill:#f2575d;fill-opacity:1;fill-rule:nonzero;stroke:none"
         id="path338" />
      <path
         d="m 3056.02,2127.32 c 0,-1.98 -134.92,-3.58 -301.32,-3.58 -166.45,0 -301.35,1.6 -301.35,3.58 0,1.98 134.9,3.58 301.35,3.58 166.4,0 301.32,-1.6 301.32,-3.58"
         style="fill:#dadbd8;fill-opacity:1;fill-rule:nonzero;stroke:none"
         id="path340" />
      <path
         d="m 2789.68,1995.89 c 0,-1.98 -198.84,-3.59 -444.06,-3.59 -245.31,0 -444.11,1.61 -444.11,3.59 0,1.98 198.8,3.58 444.11,3.58 245.22,0 444.06,-1.6 444.06,-3.58"
         style="fill:#dadbd8;fill-opacity:1;fill-rule:nonzero;stroke:none"
         id="path342" />
      <path
         d="m 2789.68,1864.46 c 0,-1.98 -198.84,-3.58 -444.06,-3.58 -245.31,0 -444.11,1.6 -444.11,3.58 0,1.98 198.8,3.59 444.11,3.59 245.22,0 444.06,-1.61 444.06,-3.59"
         style="fill:#dadbd8;fill-opacity:1;fill-rule:nonzero;stroke:none"
         id="path344" />
      <path
         d="m 3401.05,1470.17 c 0,-1.98 -198.84,-3.59 -444.06,-3.59 -245.31,0 -444.11,1.61 -444.11,3.59 0,1.98 198.8,3.58 444.11,3.58 245.22,0 444.06,-1.6 444.06,-3.58"
         style="fill:#dadbd8;fill-opacity:1;fill-rule:nonzero;stroke:none"
         id="path346" />
      <path
         d="m 3137.23,1733.03 c 0,-1.98 -198.84,-3.59 -444.06,-3.59 -245.31,0 -444.11,1.61 -444.11,3.59 0,1.98 198.8,3.58 444.11,3.58 245.22,0 444.06,-1.6 444.06,-3.58"
         style="fill:#dadbd8;fill-opacity:1;fill-rule:nonzero;stroke:none"
         id="path348" />
      <path
         d="m 4222.59,1733.03 c 0,-1.98 -198.84,-3.59 -444.06,-3.59 -245.31,0 -444.11,1.61 -444.11,3.59 0,1.98 198.8,3.58 444.11,3.58 245.22,0 444.06,-1.6 444.06,-3.58"
         style="fill:#dadbd8;fill-opacity:1;fill-rule:nonzero;stroke:none"
         id="path350" />
      <path
         d="m 3845.13,1995.89 c 0,-1.98 -198.84,-3.59 -444.06,-3.59 -245.31,0 -444.11,1.61 -444.11,3.59 0,1.98 198.8,3.58 444.11,3.58 245.22,0 444.06,-1.6 444.06,-3.58"
         style="fill:#fafaf9;fill-opacity:1;fill-rule:nonzero;stroke:none"
         id="path352" />
      <path
         d="m 4458.65,1470.17 c 0,-1.98 -198.84,-3.59 -444.06,-3.59 -245.32,0 -444.12,1.61 -444.12,3.59 0,1.98 198.8,3.58 444.12,3.58 245.22,0 444.06,-1.6 444.06,-3.58"
         style="fill:#fafaf9;fill-opacity:1;fill-rule:nonzero;stroke:none"
         id="path354" />
      <path
         d="m 4336.13,1864.46 c 0,-1.98 -308.76,-3.58 -689.55,-3.58 -380.92,0 -689.62,1.6 -689.62,3.58 0,1.98 308.7,3.59 689.62,3.59 380.79,0 689.55,-1.61 689.55,-3.59"
         style="fill:#33535f;fill-opacity:1;fill-rule:nonzero;stroke:none"
         id="path356" />
      <path
         d="m 1910.57,681.59 c 0,-1.981 -72.11,-3.578 -161.04,-3.578 -88.97,0 -161.07,1.597 -161.07,3.578 0,1.98 72.1,3.59 161.07,3.59 88.93,0 161.04,-1.61 161.04,-3.59"
         style="fill:#fafaf9;fill-opacity:1;fill-rule:nonzero;stroke:none"
         id="path358" />
      <path
         d="m 2070.15,1733.03 c 0,-1.98 -72.12,-3.59 -161.05,-3.59 -88.97,0 -161.07,1.61 -161.07,3.59 0,1.98 72.1,3.58 161.07,3.58 88.93,0 161.05,-1.6 161.05,-3.58"
         style="fill:#fafaf9;fill-opacity:1;fill-rule:nonzero;stroke:none"
         id="path360" />
      <path
         d="m 4651.72,1733.03 c 0,-1.98 -72.12,-3.59 -161.04,-3.59 -88.97,0 -161.07,1.61 -161.07,3.59 0,1.98 72.1,3.58 161.07,3.58 88.92,0 161.04,-1.6 161.04,-3.58"
         style="fill:#f2575d;fill-opacity:1;fill-rule:nonzero;stroke:none"
         id="path362" />
      <path
         d="m 2359.15,1208.09 c 0,-1.99 -134.92,-3.59 -301.32,-3.59 -166.45,0 -301.35,1.6 -301.35,3.59 0,1.97 134.9,3.58 301.35,3.58 166.4,0 301.32,-1.61 301.32,-3.58"
         style="fill:#f2575d;fill-opacity:1;fill-rule:nonzero;stroke:none"
         id="path364" />
      <path
         d="m 3056.02,1208.09 c 0,-1.99 -134.92,-3.59 -301.32,-3.59 -166.45,0 -301.35,1.6 -301.35,3.59 0,1.97 134.9,3.58 301.35,3.58 166.4,0 301.32,-1.61 301.32,-3.58"
         style="fill:#dadbd8;fill-opacity:1;fill-rule:nonzero;stroke:none"
         id="path366" />
      <path
         d="m 2789.68,1076.65 c 0,-1.98 -198.83,-3.58 -444.06,-3.58 -245.31,0 -444.11,1.6 -444.11,3.58 0,1.98 198.8,3.59 444.11,3.59 245.23,0 444.06,-1.61 444.06,-3.59"
         style="fill:#dadbd8;fill-opacity:1;fill-rule:nonzero;stroke:none"
         id="path368" />
      <path
         d="m 2789.68,945.23 c 0,-1.992 -198.83,-3.589 -444.06,-3.589 -245.31,0 -444.11,1.597 -444.11,3.589 0,1.969 198.8,3.579 444.11,3.579 245.23,0 444.06,-1.61 444.06,-3.579"
         style="fill:#dadbd8;fill-opacity:1;fill-rule:nonzero;stroke:none"
         id="path370" />
      <path
         d="m 3137.23,813.789 c 0,-1.969 -198.84,-3.578 -444.06,-3.578 -245.31,0 -444.11,1.609 -444.11,3.578 0,1.981 198.8,3.582 444.11,3.582 245.22,0 444.06,-1.601 444.06,-3.582"
         style="fill:#dadbd8;fill-opacity:1;fill-rule:nonzero;stroke:none"
         id="path372" />
      <path
         d="m 4222.59,813.789 c 0,-1.969 -198.83,-3.578 -444.06,-3.578 -245.31,0 -444.11,1.609 -444.11,3.578 0,1.981 198.8,3.582 444.11,3.582 245.23,0 444.06,-1.601 444.06,-3.582"
         style="fill:#dadbd8;fill-opacity:1;fill-rule:nonzero;stroke:none"
         id="path374" />
      <path
         d="m 2949.19,684.91 c 0,-1.98 -198.84,-3.582 -444.06,-3.582 -245.31,0 -444.1,1.602 -444.1,3.582 0,1.981 198.79,3.59 444.1,3.59 245.22,0 444.06,-1.609 444.06,-3.59"
         style="fill:#dadbd8;fill-opacity:1;fill-rule:nonzero;stroke:none"
         id="path376" />
      <path
         d="m 2641.83,2293.04 c 0,-1.98 -198.84,-3.59 -444.06,-3.59 -245.31,0 -444.11,1.61 -444.11,3.59 0,1.98 198.8,3.58 444.11,3.58 245.22,0 444.06,-1.6 444.06,-3.58"
         style="fill:#dadbd8;fill-opacity:1;fill-rule:nonzero;stroke:none"
         id="path378" />
      <path
         d="m 3845.13,1076.65 c 0,-1.98 -198.84,-3.58 -444.06,-3.58 -245.31,0 -444.11,1.6 -444.11,3.58 0,1.98 198.8,3.59 444.11,3.59 245.22,0 444.06,-1.61 444.06,-3.59"
         style="fill:#fafaf9;fill-opacity:1;fill-rule:nonzero;stroke:none"
         id="path380" />
      <path
         d="m 4336.13,945.23 c 0,-1.992 -308.76,-3.589 -689.55,-3.589 -380.92,0 -689.62,1.597 -689.62,3.589 0,1.969 308.7,3.579 689.62,3.579 380.79,0 689.55,-1.61 689.55,-3.579"
         style="fill:#33535f;fill-opacity:1;fill-rule:nonzero;stroke:none"
         id="path382" />
      <path
         d="m 2070.15,813.789 c 0,-1.969 -72.12,-3.578 -161.05,-3.578 -88.97,0 -161.07,1.609 -161.07,3.578 0,1.981 72.1,3.582 161.07,3.582 88.93,0 161.05,-1.601 161.05,-3.582"
         style="fill:#fafaf9;fill-opacity:1;fill-rule:nonzero;stroke:none"
         id="path384" />
      <path
         d="m 4651.72,813.789 c 0,-1.969 -72.12,-3.578 -161.04,-3.578 -88.97,0 -161.07,1.609 -161.07,3.578 0,1.981 72.1,3.582 161.07,3.582 88.92,0 161.04,-1.601 161.04,-3.582"
         style="fill:#f2575d;fill-opacity:1;fill-rule:nonzero;stroke:none"
         id="path386" />
      <path
         d="m 3429.28,3258.09 c 0,0 -0.17,3.28 -0.26,9.68 -0.06,6.53 -0.15,16.01 -0.26,28.4 -0.06,12.53 -0.15,27.97 -0.25,46.19 -0.2,9.12 0.85,19.28 4.95,29.16 4.23,9.73 10.91,19.41 20.58,26.65 9.48,7.37 21.79,12.44 35.15,13.31 13.31,0.47 27.01,0.19 41.47,0.33 28.86,0.06 60.2,0.14 93.89,0.21 67.38,0.11 144.08,0.24 228.85,0.39 339.28,0.19 807.78,0.46 1325.21,0.76 258.83,-0.07 505.38,-0.14 729.65,-0.21 56.06,-0.03 110.73,-0.07 163.85,-0.11 6.64,0 13.25,-0.01 19.84,-0.01 6.48,-0.06 13.37,0.2 20.05,-1.18 13.35,-2.45 25.65,-9.16 35.06,-18.61 9.31,-9.52 15.72,-21.72 18.05,-34.64 1.3,-6.45 1.11,-13.08 1.14,-19.27 0,-6.28 -0.01,-12.54 -0.01,-18.77 -0.12,-99.71 -0.23,-192.58 -0.33,-277.39 -0.35,-169.51 -0.63,-306.69 -0.83,-401.65 -0.21,-47.33 -0.37,-84.11 -0.48,-109.2 -0.11,-12.39 -0.2,-21.88 -0.26,-28.4 -0.09,-6.4 -0.27,-9.68 -0.27,-9.68 0,0 -0.18,3.28 -0.27,9.68 -0.05,6.52 -0.14,16.01 -0.25,28.4 -0.12,25.09 -0.28,61.87 -0.49,109.2 -0.19,94.96 -0.48,232.14 -0.83,401.65 -0.1,84.81 -0.2,177.68 -0.32,277.39 0,6.23 -0.01,12.49 -0.01,18.77 -0.05,6.37 0.13,12.46 -1.1,18.48 -2.2,12.05 -8.2,23.42 -16.92,32.3 -8.79,8.8 -20.27,15.03 -32.71,17.3 -6.19,1.27 -12.55,1.02 -19.22,1.07 -6.59,0 -13.2,-0.01 -19.84,-0.01 -53.12,-0.04 -107.79,-0.08 -163.85,-0.12 -224.27,-0.06 -470.82,-0.13 -729.65,-0.2 -517.43,0.3 -985.93,0.57 -1325.21,0.76 -84.77,0.15 -161.47,0.28 -228.85,0.39 -33.69,0.07 -65.03,0.15 -93.89,0.21 -14.4,-0.06 -28.31,0.29 -41.31,-0.1 -12.92,-0.76 -24.84,-5.58 -34.08,-12.66 -9.42,-6.95 -15.97,-16.31 -20.16,-25.74 -4.06,-9.61 -5.16,-19.37 -5.05,-28.46 -0.09,-18.22 -0.18,-33.66 -0.25,-46.19 -0.11,-12.39 -0.2,-21.87 -0.25,-28.4 -0.09,-6.4 -0.28,-9.68 -0.28,-9.68"
         style="fill:#17282f;fill-opacity:1;fill-rule:nonzero;stroke:none"
         id="path388" />
      <path
         d="m 6189.75,2494.05 c 0,-14.18 -11.49,-25.68 -25.68,-25.68 -14.18,0 -25.68,11.5 -25.68,25.68 0,14.19 11.5,25.68 25.68,25.68 14.19,0 25.68,-11.49 25.68,-25.68"
         style="fill:#17282f;fill-opacity:1;fill-rule:nonzero;stroke:none"
         id="path390" />
      <path
         d="m 3454.97,3258.09 c 0,-14.18 -11.5,-25.68 -25.69,-25.68 -14.18,0 -25.67,11.5 -25.67,25.68 0,14.19 11.49,25.68 25.67,25.68 14.19,0 25.69,-11.49 25.69,-25.68"
         style="fill:#17282f;fill-opacity:1;fill-rule:nonzero;stroke:none"
         id="path392" />
      <path
         d="M 2105.11,3149.08 V 951.148 H 5746.18 V 3149.08 H 2105.11"
         style="fill:#fafaf9;fill-opacity:1;fill-rule:nonzero;stroke:none"
         id="path394" />
      <path
         d="M 5746.18,2986.63 H 2105.11 v 162.45 h 3641.07 v -162.45"
         style="fill:#dadbd8;fill-opacity:1;fill-rule:nonzero;stroke:none"
         id="path396" />
      <path
         d="m 2219.59,3064.98 c 0,-11.66 -9.45,-21.11 -21.11,-21.11 -11.66,0 -21.11,9.45 -21.11,21.11 0,11.65 9.45,21.1 21.11,21.1 11.66,0 21.11,-9.45 21.11,-21.1"
         style="fill:#17282f;fill-opacity:1;fill-rule:nonzero;stroke:none"
         id="path398" />
      <path
         d="m 2298.1,3064.98 c 0,-11.66 -9.45,-21.11 -21.1,-21.11 -11.66,0 -21.11,9.45 -21.11,21.11 0,11.65 9.45,21.1 21.11,21.1 11.65,0 21.1,-9.45 21.1,-21.1"
         style="fill:#17282f;fill-opacity:1;fill-rule:nonzero;stroke:none"
         id="path400" />
      <path
         d="m 2376.62,3064.98 c 0,-11.66 -9.45,-21.11 -21.11,-21.11 -11.65,0 -21.1,9.45 -21.1,21.11 0,11.65 9.45,21.1 21.1,21.1 11.66,0 21.11,-9.45 21.11,-21.1"
         style="fill:#17282f;fill-opacity:1;fill-rule:nonzero;stroke:none"
         id="path402" />
      <path
         d="m 3870,2799.33 c 0,-1.22 -74.3,-2.21 -165.94,-2.21 -91.67,0 -165.96,0.99 -165.96,2.21 0,1.21 74.29,2.19 165.96,2.19 91.64,0 165.94,-0.98 165.94,-2.19"
         style="fill:#17282f;fill-opacity:1;fill-rule:nonzero;stroke:none"
         id="path404" />
      <path
         d="m 4311.46,2799.33 c 0,-1.22 -74.31,-2.21 -165.94,-2.21 -91.67,0 -165.95,0.99 -165.95,2.21 0,1.21 74.28,2.19 165.95,2.19 91.63,0 165.94,-0.98 165.94,-2.19"
         style="fill:#f2575d;fill-opacity:1;fill-rule:nonzero;stroke:none"
         id="path406" />
      <path
         d="m 4752.93,2799.33 c 0,-1.22 -74.31,-2.21 -165.94,-2.21 -91.67,0 -165.96,0.99 -165.96,2.21 0,1.21 74.29,2.19 165.96,2.19 91.63,0 165.94,-0.98 165.94,-2.19"
         style="fill:#17282f;fill-opacity:1;fill-rule:nonzero;stroke:none"
         id="path408" />
      <path
         d="m 5198.3,2799.33 c 0,-1.22 -74.3,-2.21 -165.94,-2.21 -91.67,0 -165.96,0.99 -165.96,2.21 0,1.21 74.29,2.19 165.96,2.19 91.64,0 165.94,-0.98 165.94,-2.19"
         style="fill:#17282f;fill-opacity:1;fill-rule:nonzero;stroke:none"
         id="path410" />
      <path
         d="m 5585.18,2746.56 c -0.01,0.26 2.82,0.14 7.92,1.33 4.99,1.27 12.58,4.21 19.09,11.71 3.2,3.71 6.11,8.5 7.59,14.28 1.7,5.71 1.18,12.31 1.17,19.51 -0.9,13.91 3.3,32 -9.29,45.21 -5.73,6.43 -14.24,10.98 -23.63,11.64 -9.54,0.25 -19.96,0 -30.48,0.02 -21.17,-0.06 -43.77,-0.13 -67.55,-0.2 -47.62,-0.05 -99.91,-0.11 -154.8,-0.17 -13.02,0.1 -25.36,-7.7 -31.01,-19 -2.94,-5.66 -4.04,-11.77 -3.84,-18.26 0,-6.58 -0.01,-13.12 -0.02,-19.59 0.08,-6.57 -0.46,-12.88 1.22,-18.57 1.46,-5.82 4.66,-11.05 8.69,-15.3 4.11,-4.2 9.25,-7.29 14.72,-9.02 5.5,-1.76 11.25,-1.55 17.3,-1.56 47.51,-0.18 90.32,-0.34 126.44,-0.47 35.7,-0.3 64.72,-0.54 85.23,-0.7 9.78,-0.18 17.51,-0.31 23.18,-0.41 2.43,-0.09 4.4,-0.16 6.02,-0.22 1.36,-0.08 2.05,-0.15 2.05,-0.23 0,-0.07 -0.69,-0.15 -2.05,-0.22 -1.62,-0.06 -3.59,-0.13 -6.02,-0.22 -5.67,-0.1 -13.4,-0.24 -23.18,-0.41 -20.51,-0.17 -49.53,-0.41 -85.23,-0.7 -36.12,-0.14 -78.93,-0.3 -126.44,-0.47 -5.79,-0.02 -12.29,-0.3 -18.5,1.66 -6.15,1.91 -11.9,5.35 -16.52,10.03 -4.54,4.74 -8.12,10.6 -9.8,17.13 -0.98,3.23 -1.26,6.62 -1.39,10 -0.01,3.21 -0.02,6.44 -0.03,9.68 0,6.47 -0.01,13.01 -0.02,19.59 -0.24,6.67 0.99,14.01 4.3,20.26 6.33,12.71 20.24,21.51 34.9,21.4 54.89,-0.07 107.18,-0.12 154.8,-0.18 23.78,-0.07 46.38,-0.13 67.55,-0.2 10.65,-0.11 20.67,0.07 30.76,-0.28 10.28,-0.83 19.54,-5.91 25.67,-12.97 6.17,-7.04 9.45,-15.92 9.54,-24.33 -0.04,-8.11 -0.07,-15.76 -0.11,-22.94 -0.11,-7.05 0.32,-13.96 -1.62,-20.08 -1.69,-6.08 -4.88,-11.05 -8.32,-14.85 -7.02,-7.67 -15.01,-10.42 -20.17,-11.44 -5.3,-0.93 -8.12,-0.46 -8.12,-0.46"
         style="fill:#17282f;fill-opacity:1;fill-rule:nonzero;stroke:none"
         id="path412" />
      <path
         d="m 2854.76,2720.34 h -387.71 c -38.09,0 -68.98,30.89 -68.98,68.98 0,38.1 30.89,68.99 68.98,68.99 h 387.71 c 38.1,0 68.98,-30.89 68.98,-68.99 0,-38.09 -30.88,-68.98 -68.98,-68.98"
         style="fill:#dadbd8;fill-opacity:1;fill-rule:nonzero;stroke:none"
         id="path414" />
      <path
         d="m 2414.03,1651.43 h 774.418 v 749.238 H 2414.03 Z"
         style="fill:#f2575d;fill-opacity:1;fill-rule:nonzero;stroke:none"
         id="path416" />
      <path
         d="m 3128.26,1715.56 h -326.84 c -92.75,0.32 -202.13,0.7 -324.13,1.12 0,1.56 0,3.12 0.01,4.68 l 211,379.74 175.23,-246.42 106.46,130.86 158.26,-269.72 c 0,-0.09 0.01,-0.18 0.01,-0.26"
         style="fill:#cc4341;fill-opacity:1;fill-rule:nonzero;stroke:none"
         id="path418" />
      <path
         d="m 2882.44,2120.36 c -30.79,0 -55.73,24.95 -55.73,55.74 0,30.77 24.94,55.72 55.73,55.72 30.78,0 55.73,-24.95 55.73,-55.72 0,-30.79 -24.95,-55.74 -55.73,-55.74"
         style="fill:#cc4341;fill-opacity:1;fill-rule:nonzero;stroke:none"
         id="path420" />
      <path
         d="m 2470.86,1710.24 v 3.24 c -0.11,91.26 -0.23,190.47 -0.35,295.39 -0.03,52.48 -0.07,106.39 -0.1,161.45 0,27.53 -0.01,55.35 -0.01,83.42 -0.01,14.04 -0.01,28.14 -0.01,42.3 v 21.28 l -0.01,10.67 v 5.35 2.67 1.34 0.67 0.33 0.17 c -0.57,-0.56 -0.81,-0.79 -0.82,-0.79 -0.02,0 1.12,1.16 2.27,2.33 1.15,1.16 2.32,2.32 2.35,2.32 0.01,0 -0.01,-0.02 -0.04,-0.06 240.11,-0.2 464.76,-0.38 654.26,-0.52 l 3.18,-0.01 -0.01,-3.17 c -0.67,-187.94 -1.23,-344.47 -1.62,-454.4 -0.35,-54.25 -0.63,-96.98 -0.82,-126.52 -0.16,-14.24 -0.28,-25.29 -0.36,-33.12 -0.08,-3.49 -0.14,-6.23 -0.19,-8.39 -0.05,-1.81 -0.1,-2.73 -0.17,-2.73 0,0 0,0.01 -0.01,0.01 0.07,-0.06 -0.9,-0.12 -2.86,-0.18 -2.25,-0.05 -5.13,-0.11 -8.82,-0.18 -8.21,-0.09 -19.81,-0.22 -34.78,-0.37 -30.99,-0.2 -75.84,-0.48 -132.71,-0.85 -115.18,-0.39 -279.01,-0.96 -475.16,-1.63 l -3.21,-0.02 m 330.56,5.32 c 54.62,-0.19 103.48,-0.36 145.75,-0.51 57.19,-0.36 102.27,-0.64 133.44,-0.84 15.23,-0.16 27.04,-0.28 35.4,-0.37 3.83,-0.08 6.83,-0.14 9.17,-0.19 2.08,-0.06 3.17,-0.11 3.22,-0.18 -0.04,0.05 -0.09,0.75 -0.14,2.09 h 0.14 l -0.15,0.26 c -0.01,0.23 -0.02,0.47 -0.03,0.72 -0.03,2.25 -0.1,5.1 -0.17,8.73 -0.09,7.98 -0.21,19.23 -0.37,33.72 -0.19,29.71 -0.47,72.69 -0.82,127.25 -0.39,108.81 -0.95,263.52 -1.61,449.22 -187.89,-0.16 -410.06,-0.33 -647.49,-0.52 v -1.6 -5.35 -10.67 -21.28 c 0,-14.16 -0.01,-28.26 -0.01,-42.3 -0.01,-28.07 -0.01,-55.89 -0.02,-83.42 -0.03,-55.06 -0.06,-108.97 -0.09,-161.45 -0.12,-101.93 -0.24,-198.43 -0.34,-287.51 l -3.23,-5.8 h 327.35"
         style="fill:#cc4341;fill-opacity:1;fill-rule:nonzero;stroke:none"
         id="path422" />
      <path
         d="m 3128.4,1715.56 h -0.14 c 0,0.08 -0.01,0.17 -0.01,0.26 l 0.15,-0.26 m -326.98,0 h -327.35 l 3.23,5.8 c -0.01,-1.56 -0.01,-3.12 -0.01,-4.68 122,-0.42 231.38,-0.8 324.13,-1.12"
         style="fill:#862b2c;fill-opacity:1;fill-rule:nonzero;stroke:none"
         id="path424" />
      <path
         d="m 3091.37,1536.38 c 0,-1.44 -130.2,-2.61 -290.78,-2.61 -160.63,0 -290.81,1.17 -290.81,2.61 0,1.43 130.18,2.61 290.81,2.61 160.58,0 290.78,-1.18 290.78,-2.61"
         style="fill:#17282f;fill-opacity:1;fill-rule:nonzero;stroke:none"
         id="path426" />
      <path
         d="m 3207.84,1449.58 c 0,-1.43 -177.63,-2.6 -396.71,-2.6 -219.15,0 -396.75,1.17 -396.75,2.6 0,1.45 177.6,2.61 396.75,2.61 219.08,0 396.71,-1.16 396.71,-2.61"
         style="fill:#17282f;fill-opacity:1;fill-rule:nonzero;stroke:none"
         id="path428" />
      <path
         d="m 3207.84,1365.58 c 0,-1.44 -177.63,-2.61 -396.71,-2.61 -219.15,0 -396.75,1.17 -396.75,2.61 0,1.43 177.6,2.59 396.75,2.59 219.08,0 396.71,-1.16 396.71,-2.59"
         style="fill:#17282f;fill-opacity:1;fill-rule:nonzero;stroke:none"
         id="path430" />
      <path
         d="m 3207.84,1281.56 c 0,-1.43 -177.63,-2.59 -396.71,-2.59 -219.15,0 -396.75,1.16 -396.75,2.59 0,1.44 177.6,2.61 396.75,2.61 219.08,0 396.71,-1.17 396.71,-2.61"
         style="fill:#17282f;fill-opacity:1;fill-rule:nonzero;stroke:none"
         id="path432" />
      <path
         d="m 2741.83,1197.56 c 0,-1.45 -73.31,-2.61 -163.72,-2.61 -90.44,0 -163.73,1.16 -163.73,2.61 0,1.43 73.29,2.6 163.73,2.6 90.41,0 163.72,-1.17 163.72,-2.6"
         style="fill:#17282f;fill-opacity:1;fill-rule:nonzero;stroke:none"
         id="path434" />
      <path
         d="m 3540.73,1651.43 h 774.41 v 749.238 h -774.41 z"
         style="fill:#f2575d;fill-opacity:1;fill-rule:nonzero;stroke:none"
         id="path436" />
      <path
         d="m 4254.96,1715.56 h -326.85 c -92.75,0.32 -202.12,0.7 -324.12,1.12 0,1.56 0,3.12 0,4.69 l 211.01,379.73 175.22,-246.42 106.47,130.86 158.26,-269.72 c 0,-0.09 0.01,-0.18 0.01,-0.26"
         style="fill:#cc4341;fill-opacity:1;fill-rule:nonzero;stroke:none"
         id="path438" />
      <path
         d="m 4009.14,2120.36 c -30.79,0 -55.74,24.95 -55.74,55.74 0,30.77 24.95,55.72 55.74,55.72 30.78,0 55.73,-24.95 55.73,-55.72 0,-30.79 -24.95,-55.74 -55.73,-55.74"
         style="fill:#cc4341;fill-opacity:1;fill-rule:nonzero;stroke:none"
         id="path440" />
      <path
         d="m 3597.55,1710.24 v 3.24 c -0.1,91.26 -0.22,190.47 -0.35,295.39 -0.03,52.48 -0.06,106.39 -0.09,161.45 -0.01,27.53 -0.01,55.35 -0.01,83.42 -0.02,14.04 -0.02,28.14 -0.02,42.3 v 21.28 l -0.01,10.67 v 5.35 2.67 1.34 0.67 0.33 0.17 c -0.56,-0.56 -0.8,-0.79 -0.81,-0.79 -0.02,0 1.12,1.16 2.27,2.33 1.16,1.16 2.32,2.32 2.35,2.32 0.01,0 -0.01,-0.02 -0.04,-0.06 240.11,-0.2 464.75,-0.38 654.26,-0.52 l 3.19,-0.01 -0.02,-3.17 c -0.67,-187.94 -1.23,-344.47 -1.62,-454.4 -0.35,-54.25 -0.63,-96.98 -0.83,-126.52 -0.15,-14.24 -0.28,-25.29 -0.36,-33.12 -0.07,-3.49 -0.13,-6.23 -0.18,-8.39 -0.06,-1.81 -0.11,-2.73 -0.17,-2.73 l -0.01,0.01 c 0.07,-0.06 -0.9,-0.12 -2.86,-0.18 -2.25,-0.05 -5.13,-0.11 -8.83,-0.18 -8.2,-0.09 -19.8,-0.22 -34.77,-0.37 -31,-0.2 -75.84,-0.48 -132.71,-0.85 -115.18,-0.39 -279.01,-0.96 -475.16,-1.63 l -3.22,-0.02 m 330.56,5.32 c 54.63,-0.19 103.49,-0.36 145.76,-0.51 57.18,-0.36 102.28,-0.64 133.44,-0.84 15.22,-0.16 27.04,-0.28 35.4,-0.37 3.83,-0.08 6.83,-0.14 9.17,-0.19 2.08,-0.06 3.16,-0.11 3.22,-0.18 -0.04,0.05 -0.09,0.75 -0.14,2.09 h 0.14 l -0.15,0.26 c -0.01,0.22 -0.02,0.47 -0.02,0.72 -0.04,2.25 -0.11,5.1 -0.18,8.73 -0.09,7.98 -0.21,19.23 -0.37,33.72 -0.2,29.71 -0.47,72.69 -0.82,127.25 -0.39,108.81 -0.95,263.52 -1.61,449.22 -187.89,-0.16 -410.07,-0.33 -647.49,-0.52 v -1.6 -5.35 -10.67 -21.28 c 0,-14.16 -0.01,-28.26 -0.01,-42.3 0,-28.07 -0.01,-55.89 -0.02,-83.42 -0.04,-55.06 -0.07,-108.97 -0.1,-161.45 -0.11,-101.92 -0.23,-198.42 -0.34,-287.5 l -3.22,-5.81 h 327.34"
         style="fill:#cc4341;fill-opacity:1;fill-rule:nonzero;stroke:none"
         id="path442" />
      <path
         d="m 4255.1,1715.56 h -0.14 c 0,0.08 -0.01,0.17 -0.01,0.26 l 0.15,-0.26 m -326.99,0 h -327.34 l 3.22,5.81 c 0,-1.57 0,-3.13 0,-4.69 122,-0.42 231.37,-0.8 324.12,-1.12"
         style="fill:#862b2c;fill-opacity:1;fill-rule:nonzero;stroke:none"
         id="path444" />
      <path
         d="m 4218.07,1536.38 c 0,-1.44 -130.2,-2.61 -290.78,-2.61 -160.63,0 -290.81,1.17 -290.81,2.61 0,1.43 130.18,2.61 290.81,2.61 160.58,0 290.78,-1.18 290.78,-2.61"
         style="fill:#17282f;fill-opacity:1;fill-rule:nonzero;stroke:none"
         id="path446" />
      <path
         d="m 4334.54,1449.58 c 0,-1.43 -177.64,-2.6 -396.71,-2.6 -219.15,0 -396.75,1.17 -396.75,2.6 0,1.45 177.6,2.61 396.75,2.61 219.07,0 396.71,-1.16 396.71,-2.61"
         style="fill:#17282f;fill-opacity:1;fill-rule:nonzero;stroke:none"
         id="path448" />
      <path
         d="m 4334.54,1365.58 c 0,-1.44 -177.64,-2.61 -396.71,-2.61 -219.15,0 -396.75,1.17 -396.75,2.61 0,1.43 177.6,2.59 396.75,2.59 219.07,0 396.71,-1.16 396.71,-2.59"
         style="fill:#17282f;fill-opacity:1;fill-rule:nonzero;stroke:none"
         id="path450" />
      <path
         d="m 4334.54,1281.56 c 0,-1.43 -177.64,-2.59 -396.71,-2.59 -219.15,0 -396.75,1.16 -396.75,2.59 0,1.44 177.6,2.61 396.75,2.61 219.07,0 396.71,-1.17 396.71,-2.61"
         style="fill:#17282f;fill-opacity:1;fill-rule:nonzero;stroke:none"
         id="path452" />
      <path
         d="m 3868.53,1197.56 c 0,-1.45 -73.31,-2.61 -163.72,-2.61 -90.44,0 -163.73,1.16 -163.73,2.61 0,1.43 73.29,2.6 163.73,2.6 90.41,0 163.72,-1.17 163.72,-2.6"
         style="fill:#17282f;fill-opacity:1;fill-rule:nonzero;stroke:none"
         id="path454" />
      <path
         d="m 4646.49,1651.43 h 774.414 v 749.238 H 4646.49 Z"
         style="fill:#f2575d;fill-opacity:1;fill-rule:nonzero;stroke:none"
         id="path456" />
      <path
         d="m 5360.71,1715.56 h -326.84 c -92.74,0.32 -202.12,0.7 -324.12,1.12 0,1.56 0.01,3.12 0.01,4.69 l 211,379.73 175.22,-246.42 106.48,130.86 158.24,-269.71 c 0.01,-0.09 0.01,-0.18 0.01,-0.27"
         style="fill:#cc4341;fill-opacity:1;fill-rule:nonzero;stroke:none"
         id="path458" />
      <path
         d="m 5114.9,2120.36 c -30.78,0 -55.73,24.95 -55.73,55.74 0,30.77 24.95,55.72 55.73,55.72 30.77,0 55.72,-24.95 55.72,-55.72 0,-30.79 -24.95,-55.74 -55.72,-55.74"
         style="fill:#cc4341;fill-opacity:1;fill-rule:nonzero;stroke:none"
         id="path460" />
      <path
         d="m 4703.32,1710.24 v 3.24 c -0.11,91.26 -0.23,190.47 -0.36,295.39 -0.03,52.48 -0.05,106.39 -0.09,161.45 0,27.53 -0.01,55.35 -0.01,83.42 -0.01,14.04 -0.01,28.14 -0.01,42.3 v 21.28 l -0.01,10.67 v 5.35 2.67 1.34 0.67 0.33 0.17 c -0.57,-0.56 -0.81,-0.79 -0.82,-0.79 -0.02,0 1.12,1.16 2.27,2.33 1.16,1.16 2.32,2.32 2.35,2.32 0.01,0 -0.01,-0.02 -0.04,-0.06 240.1,-0.2 464.75,-0.38 654.26,-0.52 l 3.18,-0.01 -0.01,-3.17 c -0.68,-187.94 -1.23,-344.47 -1.62,-454.4 -0.35,-54.25 -0.64,-96.98 -0.82,-126.52 -0.17,-14.24 -0.29,-25.29 -0.37,-33.12 -0.07,-3.49 -0.13,-6.23 -0.18,-8.39 -0.06,-1.81 -0.11,-2.73 -0.17,-2.73 0,0 0,0.01 -0.01,0.01 0.06,-0.06 -0.9,-0.12 -2.86,-0.18 -2.26,-0.05 -5.13,-0.11 -8.82,-0.18 -8.22,-0.09 -19.82,-0.22 -34.78,-0.37 -31,-0.2 -75.84,-0.48 -132.71,-0.85 -115.18,-0.39 -279.02,-0.96 -475.16,-1.63 l -3.21,-0.02 m 330.55,5.32 c 54.63,-0.19 103.48,-0.36 145.75,-0.51 57.19,-0.36 102.28,-0.64 133.44,-0.84 15.24,-0.16 27.05,-0.28 35.4,-0.37 3.84,-0.08 6.84,-0.14 9.17,-0.19 2.09,-0.06 3.18,-0.11 3.23,-0.18 -0.04,0.05 -0.09,0.75 -0.15,2.09 h 0.15 l -0.16,0.27 c 0,0.22 -0.01,0.46 -0.02,0.71 -0.03,2.25 -0.1,5.1 -0.17,8.73 -0.08,7.98 -0.21,19.23 -0.37,33.72 -0.19,29.71 -0.47,72.69 -0.82,127.25 -0.4,108.81 -0.94,263.52 -1.61,449.22 -187.9,-0.16 -410.07,-0.33 -647.49,-0.52 v -1.6 -5.35 -10.67 -21.28 c 0,-14.16 -0.01,-28.26 -0.01,-42.3 -0.01,-28.07 -0.01,-55.89 -0.03,-83.42 -0.03,-55.06 -0.06,-108.97 -0.09,-161.45 -0.11,-101.92 -0.24,-198.42 -0.33,-287.5 l -3.23,-5.81 h 327.34"
         style="fill:#cc4341;fill-opacity:1;fill-rule:nonzero;stroke:none"
         id="path462" />
      <path
         d="m 5360.86,1715.56 h -0.15 c 0,0.09 0,0.18 -0.01,0.27 l 0.16,-0.27 m -326.99,0 h -327.34 l 3.23,5.81 c 0,-1.57 -0.01,-3.13 -0.01,-4.69 122,-0.42 231.38,-0.8 324.12,-1.12"
         style="fill:#862b2c;fill-opacity:1;fill-rule:nonzero;stroke:none"
         id="path464" />
      <path
         d="m 5323.82,1536.38 c 0,-1.44 -130.19,-2.61 -290.78,-2.61 -160.62,0 -290.81,1.17 -290.81,2.61 0,1.43 130.19,2.61 290.81,2.61 160.59,0 290.78,-1.18 290.78,-2.61"
         style="fill:#17282f;fill-opacity:1;fill-rule:nonzero;stroke:none"
         id="path466" />
      <path
         d="m 5440.3,1449.58 c 0,-1.43 -177.64,-2.6 -396.71,-2.6 -219.16,0 -396.76,1.17 -396.76,2.6 0,1.45 177.6,2.61 396.76,2.61 219.07,0 396.71,-1.16 396.71,-2.61"
         style="fill:#17282f;fill-opacity:1;fill-rule:nonzero;stroke:none"
         id="path468" />
      <path
         d="m 5440.3,1365.58 c 0,-1.44 -177.64,-2.61 -396.71,-2.61 -219.16,0 -396.76,1.17 -396.76,2.61 0,1.43 177.6,2.59 396.76,2.59 219.07,0 396.71,-1.16 396.71,-2.59"
         style="fill:#17282f;fill-opacity:1;fill-rule:nonzero;stroke:none"
         id="path470" />
      <path
         d="m 5440.3,1281.56 c 0,-1.43 -177.64,-2.59 -396.71,-2.59 -219.16,0 -396.76,1.16 -396.76,2.59 0,1.44 177.6,2.61 396.76,2.61 219.07,0 396.71,-1.17 396.71,-2.61"
         style="fill:#17282f;fill-opacity:1;fill-rule:nonzero;stroke:none"
         id="path472" />
      <path
         d="m 4974.29,1197.56 c 0,-1.45 -73.31,-2.61 -163.72,-2.61 -90.44,0 -163.74,1.16 -163.74,2.61 0,1.43 73.3,2.6 163.74,2.6 90.41,0 163.72,-1.17 163.72,-2.6"
         style="fill:#17282f;fill-opacity:1;fill-rule:nonzero;stroke:none"
         id="path474" />
      <path
         d="m 5746.18,2626.33 c 0,-1.44 -814.47,-2.61 -1818.93,-2.61 -1004.81,0 -1819.11,1.17 -1819.11,2.61 0,1.43 814.3,2.6 1819.11,2.6 1004.46,0 1818.93,-1.17 1818.93,-2.6"
         style="fill:#dadbd8;fill-opacity:1;fill-rule:nonzero;stroke:none"
         id="path476" />
      <path
         d="m 2105.11,3149.08 c 21.81,0.01 1504.77,0.99 3641.07,2.41 l 2.41,0.01 v -2.42 c 0.06,-676.15 0.13,-1419.12 0.19,-2197.639 v -0.293 -2.589 h -2.6 c -1385,0.211 -2657.22,0.421 -3641.07,0.562 h -2.03 v 2.027 c 1.24,1346.522 2.01,2181.522 2.03,2197.932 0.01,-16.4 0.78,-851.41 2.02,-2197.932 l -2.02,2.032 c 983.85,0.16 2256.07,0.371 3641.07,0.582 l -2.6,-2.614 v 0.293 c 0.07,778.519 0.13,1521.489 0.19,2197.639 l 2.41,-2.42 c -2136.3,1.42 -3619.27,2.4 -3641.07,2.42"
         style="fill:#17282f;fill-opacity:1;fill-rule:nonzero;stroke:none"
         id="path478" />
      <path
         d="M 520.715,2023.73 H 57.9063 C 25.9297,2023.73 0,2049.65 0,2081.64 v 640.58 c 0,31.98 25.9297,57.9 57.9063,57.9 H 351.418 l 227.199,-234.17 v -464.31 c 0,-31.99 -25.926,-57.91 -57.902,-57.91"
         style="fill:#f2575d;fill-opacity:1;fill-rule:nonzero;stroke:none"
         id="path480" />
      <path
         d="M 488.422,2023.73 H 91.5273 C 40.9766,2023.73 0,2064.71 0,2115.26 v 137.97 h 578.617 v -139.3 c 0,-49.82 -40.379,-90.2 -90.195,-90.2"
         style="fill:#ee4947;fill-opacity:1;fill-rule:nonzero;stroke:none"
         id="path482" />
      <path
         d="m 578.617,2545.95 -173.347,0.03 c -0.168,0 -0.34,0 -0.508,0 -2.629,0.16 -15.028,1.25 -27.094,7.6 -11.293,6.76 -19.906,17.54 -23.863,30.36 -0.008,0.02 -0.012,0.05 -0.02,0.08 0,0 0,-0.01 0,-0.02 -1.539,5.01 -2.367,10.33 -2.367,15.84 v 180.28 l 227.199,-234.17"
         style="fill:#f46f77;fill-opacity:1;fill-rule:nonzero;stroke:none"
         id="path484" />
      <path
         d="m 577.051,2497.2 c -15.977,0 -148.805,23.63 -170.071,27.44 -1.917,0.34 -3.832,0.74 -5.699,1.28 -49.172,14.2 -47.543,57.04 -47.496,58.08 0.004,-0.02 0.012,-0.04 0.02,-0.06 3.55,-15.72 13.586,-24.95 23.863,-30.36 7.937,-4.74 17.195,-7.51 27.094,-7.6 0.332,-0.02 0.508,-0.03 0.508,-0.03 h 173.347 v -48.45 c 0,-0.2 -0.539,-0.3 -1.566,-0.3"
         style="fill:#ee4947;fill-opacity:1;fill-rule:nonzero;stroke:none"
         id="path486" />
      <path
         d="m 404.762,2545.98 c -9.899,0.09 -19.157,2.86 -27.094,7.6 12.066,-6.35 24.465,-7.44 27.094,-7.6 m -50.957,37.96 c -0.008,0.02 -0.016,0.04 -0.02,0.06 0,0.01 0,0.02 0,0.02 0.008,-0.03 0.012,-0.06 0.02,-0.08"
         style="fill:#e85e5e;fill-opacity:1;fill-rule:nonzero;stroke:none"
         id="path488" />

      <path
         d="m 882.297,1875.39 c 0,-0.21 -3.445,-0.42 -9.949,-0.61 -7.063,-0.15 -16.508,-0.34 -28.305,-0.58 -25.082,-0.21 -60.098,-0.53 -102.469,-0.9 l -2.097,-0.02 -0.004,2.11 c -0.141,56.74 -0.317,127.28 -0.508,203.64 0.074,47.54 0.14,92.8 0.207,134.07 0.086,20.58 0.164,40.15 0.238,58.5 0.61,8.88 -2.754,16.92 -8.808,22.17 -6.055,5.47 -13.672,6.9 -21.469,6.52 -30.711,0.35 -55.774,0.63 -73.805,0.83 -8.293,0.2 -14.953,0.36 -20.062,0.49 -4.586,0.17 -7,0.34 -7,0.52 0,0.18 2.414,0.36 7,0.53 5.109,0.12 11.769,0.28 20.062,0.49 18.031,0.2 43.09,0.48 73.805,0.83 7.59,0.58 17.316,-0.95 24.105,-7.18 7.051,-5.77 11.114,-15.7 10.492,-25.2 0.075,-18.35 0.157,-37.92 0.239,-58.5 0.066,-41.27 0.133,-86.53 0.207,-134.07 -0.192,-76.36 -0.367,-146.9 -0.508,-203.64 l -2.094,2.1 c 42.371,-0.37 77.387,-0.68 102.469,-0.91 11.797,-0.23 21.246,-0.42 28.305,-0.56 6.504,-0.2 9.949,-0.41 9.949,-0.63"
         style="fill:#17282f;fill-opacity:1;fill-rule:nonzero;stroke:none"
         id="path500" />
      <path
         d="m 600.602,1454.93 c 0,0.18 1.921,0.35 5.589,0.53 4.25,0.13 9.551,0.29 16.036,0.49 14.664,0.2 34.628,0.49 58.98,0.83 12.379,0.76 26.707,-2.12 38.777,5.15 12.266,6.79 20.442,21.3 18.942,37.44 -0.063,32.99 -0.133,69.14 -0.203,107.1 0.297,75.67 0.562,144.15 0.761,194.6 0.34,24.35 0.625,44.32 0.829,58.98 0.195,6.48 0.363,11.79 0.488,16.02 0.172,3.68 0.347,5.6 0.527,5.6 0.176,0 0.352,-1.92 0.524,-5.6 0.125,-4.23 0.293,-9.54 0.488,-16.02 0.203,-14.66 0.488,-34.63 0.828,-58.98 0.195,-50.45 0.465,-118.93 0.762,-194.6 -0.071,-37.96 -0.141,-74.11 -0.203,-107.1 -0.032,-4.01 0.043,-8.41 -0.821,-12.58 -0.875,-4.16 -2.246,-8.16 -4.207,-11.79 -3.933,-7.27 -9.84,-13.08 -16.594,-16.83 -6.742,-3.73 -14.316,-5.42 -21.359,-5.25 -6.777,0.06 -13.301,0.12 -19.539,0.17 -24.352,0.34 -44.32,0.62 -58.98,0.83 -6.485,0.19 -11.786,0.36 -16.036,0.48 -3.668,0.18 -5.589,0.36 -5.589,0.53"
         style="fill:#17282f;fill-opacity:1;fill-rule:nonzero;stroke:none"
         id="path502" />
      <path
         d="m 923.086,1875.39 c 0,-11.11 -9.008,-20.13 -20.125,-20.13 -11.113,0 -20.129,9.02 -20.129,20.13 0,11.12 9.016,20.13 20.129,20.13 11.117,0 20.125,-9.01 20.125,-20.13"
         style="fill:#17282f;fill-opacity:1;fill-rule:nonzero;stroke:none"
         id="path504" />
      <path
         d="M 519.152,1088.65 H 70.9336 c -30.9727,0 -56.0781,25.11 -56.0781,56.09 v 620.39 c 0,30.97 25.1054,56.08 56.0781,56.08 H 355.195 l 220.039,-226.79 v -449.68 c 0,-30.98 -25.105,-56.09 -56.082,-56.09"
         style="fill:#f2575d;fill-opacity:1;fill-rule:nonzero;stroke:none"
         id="path506" />
      <path
         d="M 493.102,1088.65 H 95.7422 c -44.6797,0 -80.8867,36.21 -80.8867,80.89 v 141.39 H 575.234 v -140.14 c 0,-45.36 -36.773,-82.14 -82.132,-82.14"
         style="fill:#ee4947;fill-opacity:1;fill-rule:nonzero;stroke:none"
         id="path508" />

      <path
         d="m 575.234,1594.42 -167.886,0.02 c -0.192,0 -0.379,0 -0.571,0.01 -2.707,0.17 -14.539,1.26 -26.082,7.32 -10.988,6.55 -19.367,17.02 -23.203,29.48 0,0.01 -0.004,0.03 -0.008,0.04 0,0 0,0 0,-0.01 -1.488,4.85 -2.289,10 -2.289,15.33 v 174.6 l 220.039,-226.79"
         style="fill:#f57e87;fill-opacity:1;fill-rule:nonzero;stroke:none"
         id="path518" />
      <path
         d="m 573.711,1547.2 c -15.484,0.01 -144.109,22.89 -164.707,26.57 -1.852,0.33 -3.703,0.72 -5.516,1.25 -47.808,13.8 -46.035,55.57 -46.004,56.26 0.004,-0.01 0.008,-0.02 0.008,-0.03 3.442,-15.29 13.215,-24.24 23.203,-29.48 7.649,-4.56 16.559,-7.22 26.082,-7.32 0.371,-0.03 0.571,-0.03 0.571,-0.03 h 167.886 v -46.92 c 0,-0.2 -0.527,-0.3 -1.523,-0.3"
         style="fill:#ee4947;fill-opacity:1;fill-rule:nonzero;stroke:none"
         id="path520" />
      <path
         d="m 406.777,1594.45 c -9.523,0.1 -18.433,2.76 -26.082,7.32 11.543,-6.06 23.375,-7.15 26.082,-7.32 m -49.285,36.8 c 0,0.01 -0.004,0.02 -0.008,0.03 0,0.01 0,0.01 0,0.01 0.004,-0.01 0.008,-0.03 0.008,-0.04"
         style="fill:#e46969;fill-opacity:1;fill-rule:nonzero;stroke:none"
         id="path522" />
    </g>
  </g>
</svg>
