<?xml version="1.0" encoding="UTF-8" standalone="no"?>
<!-- Created with Inkscape (http://www.inkscape.org/) -->

<svg
   version="1.1"
   id="svg2"
   width="666.66669"
   height="496.81332"
   viewBox="0 0 666.66669 496.81332"
   sodipodi:docname="3071352.eps"
   xmlns:inkscape="http://www.inkscape.org/namespaces/inkscape"
   xmlns:sodipodi="http://sodipodi.sourceforge.net/DTD/sodipodi-0.dtd"
   xmlns="http://www.w3.org/2000/svg"
   xmlns:svg="http://www.w3.org/2000/svg">
  <defs
     id="defs6" />
  <sodipodi:namedview
     id="namedview4"
     pagecolor="#ffffff"
     bordercolor="#000000"
     borderopacity="0.25"
     inkscape:showpageshadow="2"
     inkscape:pageopacity="0.0"
     inkscape:pagecheckerboard="0"
     inkscape:deskcolor="#d1d1d1" />
  <g
     id="g8"
     inkscape:groupmode="layer"
     inkscape:label="ink_ext_XXXXXX"
     transform="matrix(1.3333333,0,0,-1.3333333,0,496.81333)">
    <g
       id="g10"
       transform="scale(0.1)">
      <path
         d="m 0,449.129 h 5000 v 2.5 H 0 Z"
         style="fill:#e7e8e5;fill-opacity:1;fill-rule:nonzero;stroke:none"
         id="path12" />
      <path
         d="m 3590,353.898 h 909.01 v 2.5 H 3590 v -2.5"
         style="fill:#e7e8e5;fill-opacity:1;fill-rule:nonzero;stroke:none"
         id="path14" />
      <path
         d="m 3063.33,381.031 h 248.87 v 2.5 h -248.87 v -2.5"
         style="fill:#e7e8e5;fill-opacity:1;fill-rule:nonzero;stroke:none"
         id="path16" />
      <path
         d="m 3881.11,261.039 h -385.87 v 2.5 h 385.87 v -2.5"
         style="fill:#e7e8e5;fill-opacity:1;fill-rule:nonzero;stroke:none"
         id="path18" />
      <path
         d="m 524.59,277.84 h 226.379 v 2.5 H 524.59 v -2.5"
         style="fill:#e7e8e5;fill-opacity:1;fill-rule:nonzero;stroke:none"
         id="path20" />
      <path
         d="m 840,277.84 h 268.89 v 2.5 H 840 v -2.5"
         style="fill:#e7e8e5;fill-opacity:1;fill-rule:nonzero;stroke:none"
         id="path22" />
      <path
         d="m 1783.09,320.059 h 468.38 v 2.5 h -468.38 v -2.5"
         style="fill:#e7e8e5;fill-opacity:1;fill-rule:nonzero;stroke:none"
         id="path24" />
      <path
         d="m 439.152,3723.59 c -30.101,0 -54.582,-24.48 -54.582,-54.57 V 954.699 c 0,-30.097 24.481,-54.578 54.582,-54.578 H 2370.14 c 30.09,0 54.57,24.481 54.57,54.578 V 3669.02 c 0,30.09 -24.48,54.57 -54.57,54.57 H 439.152 M 2370.14,897.621 H 439.152 c -31.476,0 -57.082,25.598 -57.082,57.078 V 3669.02 c 0,31.46 25.606,57.07 57.082,57.07 H 2370.14 c 31.46,0 57.07,-25.61 57.07,-57.07 V 954.699 c 0,-31.48 -25.61,-57.078 -57.07,-57.078"
         style="fill:#e7e8e5;fill-opacity:1;fill-rule:nonzero;stroke:none"
         id="path26" />
      <path
         d="m 2602.12,3723.59 c -30.09,0 -54.57,-24.48 -54.57,-54.57 V 954.699 c 0,-30.097 24.48,-54.578 54.57,-54.578 H 4533.1 c 30.1,0 54.59,24.481 54.59,54.578 V 3669.02 c 0,30.09 -24.49,54.57 -54.59,54.57 H 2602.12 M 4533.1,897.621 H 2602.12 c -31.47,0 -57.07,25.598 -57.07,57.078 V 3669.02 c 0,31.46 25.6,57.07 57.07,57.07 H 4533.1 c 31.48,0 57.09,-25.61 57.09,-57.07 V 954.699 c 0,-31.48 -25.61,-57.078 -57.09,-57.078"
         style="fill:#e7e8e5;fill-opacity:1;fill-rule:nonzero;stroke:none"
         id="path28" />
      <path
         d="M 3164.92,2311.85 H 4214.18 V 3477.64 H 3164.92 Z"
         style="fill:#e2e2e0;fill-opacity:1;fill-rule:nonzero;stroke:none"
         id="path30" />
      <path
         d="M 2940.4,2311.85 H 4165.78 V 3477.64 H 2940.4 Z"
         style="fill:#f3f2f1;fill-opacity:1;fill-rule:nonzero;stroke:none"
         id="path32" />
      <path
         d="m 3060.81,2386.76 h 984.563 V 3402.74 H 3060.81 Z"
         style="fill:#ffffff;fill-opacity:1;fill-rule:nonzero;stroke:none"
         id="path34" />
      <path
         d="m 3559.47,2373.75 v 1042 h -12.76 v -1042 h 12.76"
         style="fill:#f3f2f1;fill-opacity:1;fill-rule:nonzero;stroke:none"
         id="path36" />
      <path
         d="m 811.129,707.77 h 1340.4 v 2704.01 h -1340.4 z"
         style="fill:#e2e2e0;fill-opacity:1;fill-rule:nonzero;stroke:none"
         id="path38" />
      <path
         d="m 718.008,707.77 h 1408.77 V 3411.78 H 718.008 Z"
         style="fill:#ededeb;fill-opacity:1;fill-rule:nonzero;stroke:none"
         id="path40" />
      <path
         d="m 836.031,825.789 h 1172.73 v 2467.97 H 836.031 Z"
         style="fill:#ffffff;fill-opacity:1;fill-rule:nonzero;stroke:none"
         id="path42" />
      <path
         d="M 1278.36,825.789 1509.73,3293.76 H 1242.68 L 1011.31,825.789 h 267.05"
         style="fill:#fafaf9;fill-opacity:1;fill-rule:nonzero;stroke:none"
         id="path44" />
      <path
         d="M 1485.29,825.789 1716.66,3293.76 H 1583.14 L 1351.76,825.789 h 133.53"
         style="fill:#fafaf9;fill-opacity:1;fill-rule:nonzero;stroke:none"
         id="path46" />
      <path
         d="m 2658.57,451.621 h 250.51 V 1510.55 H 2658.57 V 451.621"
         style="fill:#e2e2e0;fill-opacity:1;fill-rule:nonzero;stroke:none"
         id="path48" />
      <path
         d="m 2804.31,451.621 h -145.74 v 146.18 h 298.54 l -152.8,-146.18"
         style="fill:#fafaf9;fill-opacity:1;fill-rule:nonzero;stroke:none"
         id="path50" />
      <path
         d="m 4146.67,451.621 h 250.5 V 1510.55 h -250.5 V 451.621"
         style="fill:#e2e2e0;fill-opacity:1;fill-rule:nonzero;stroke:none"
         id="path52" />
      <path
         d="m 2658.57,501.941 h 1615.29 v 1008.61 H 2658.57 Z"
         style="fill:#fafaf9;fill-opacity:1;fill-rule:nonzero;stroke:none"
         id="path54" />
      <path
         d="m 4128.12,451.621 h 145.74 v 146.18 h -298.55 l 152.81,-146.18"
         style="fill:#fafaf9;fill-opacity:1;fill-rule:nonzero;stroke:none"
         id="path56" />
      <path
         d="M 2771.63,882.301 H 4160.8 v 252.41 H 2771.63 Z"
         style="fill:#ededeb;fill-opacity:1;fill-rule:nonzero;stroke:none"
         id="path58" />
      <path
         d="M 2771.63,575.941 H 4160.8 V 828.352 H 2771.63 V 575.941"
         style="fill:#ededeb;fill-opacity:1;fill-rule:nonzero;stroke:none"
         id="path60" />
      <path
         d="m 3035.67,1107.72 h 861.08 c 25.28,0 45.77,20.49 45.77,45.76 v 3.09 h -952.61 v -3.09 c 0,-25.27 20.49,-45.76 45.76,-45.76"
         style="fill:#fafaf9;fill-opacity:1;fill-rule:nonzero;stroke:none"
         id="path62" />
      <path
         d="M 2771.63,1188.66 H 4160.8 v 252.41 H 2771.63 Z"
         style="fill:#ededeb;fill-opacity:1;fill-rule:nonzero;stroke:none"
         id="path64" />
      <path
         d="m 3035.67,1414.08 h 861.09 c 25.27,0 45.76,20.49 45.76,45.76 v 3.09 h -952.61 v -3.09 c 0,-25.27 20.49,-45.76 45.76,-45.76"
         style="fill:#fafaf9;fill-opacity:1;fill-rule:nonzero;stroke:none"
         id="path66" />
      <path
         d="m 3035.67,801.359 h 861.08 c 25.28,0 45.77,20.493 45.77,45.77 v 3.082 h -952.61 v -3.082 c 0,-25.277 20.49,-45.77 45.76,-45.77"
         style="fill:#fafaf9;fill-opacity:1;fill-rule:nonzero;stroke:none"
         id="path68" />
      <path
         d="m 2923.31,1528.18 h 49.38 v 458.23 h -49.38 v -458.23"
         style="fill:#f3f2f1;fill-opacity:1;fill-rule:nonzero;stroke:none"
         id="path70" />
      <path
         d="m 2929.67,1528.57 h 13.94 v 458.23 h -13.94 v -458.23"
         style="fill:#fafaf9;fill-opacity:1;fill-rule:nonzero;stroke:none"
         id="path72" />
      <path
         d="m 2839.15,1510.55 h 217.69 c 0,15.14 -12.28,27.42 -27.42,27.42 h -162.85 c -15.14,0 -27.42,-12.28 -27.42,-27.42"
         style="fill:#ededeb;fill-opacity:1;fill-rule:nonzero;stroke:none"
         id="path74" />
      <path
         d="m 2853.35,1661.22 v 0 c 7.81,0 14.2,6.4 14.2,14.21 v 252.8 c 0,7.81 -6.39,14.2 -14.2,14.2 -7.81,0 -14.2,-6.39 -14.2,-14.2 v -252.8 c 0,-7.81 6.39,-14.21 14.2,-14.21"
         style="fill:#ededeb;fill-opacity:1;fill-rule:nonzero;stroke:none"
         id="path76" />
      <path
         d="m 2726.97,1865.09 h 442.05 l -15.77,43.59 c -21.05,58.18 -76.3,96.94 -138.17,96.94 h -134.17 c -61.87,0 -117.12,-38.76 -138.17,-96.94 l -15.77,-43.59"
         style="fill:#dadbd8;fill-opacity:1;fill-rule:nonzero;stroke:none"
         id="path78" />
      <path
         d="m 4053.97,1528.18 h 49.38 v 458.23 h -49.38 v -458.23"
         style="fill:#f3f2f1;fill-opacity:1;fill-rule:nonzero;stroke:none"
         id="path80" />
      <path
         d="m 4060.33,1528.57 h 13.94 v 458.23 h -13.94 v -458.23"
         style="fill:#fafaf9;fill-opacity:1;fill-rule:nonzero;stroke:none"
         id="path82" />
      <path
         d="m 3969.81,1510.55 h 217.69 c 0,15.14 -12.28,27.42 -27.42,27.42 h -162.85 c -15.14,0 -27.42,-12.28 -27.42,-27.42"
         style="fill:#ededeb;fill-opacity:1;fill-rule:nonzero;stroke:none"
         id="path84" />
      <path
         d="m 3984.01,1661.22 v 0 c 7.81,0 14.2,6.4 14.2,14.21 v 252.8 c 0,7.81 -6.39,14.2 -14.2,14.2 -7.81,0 -14.2,-6.39 -14.2,-14.2 v -252.8 c 0,-7.81 6.39,-14.21 14.2,-14.21"
         style="fill:#ededeb;fill-opacity:1;fill-rule:nonzero;stroke:none"
         id="path86" />
      <path
         d="m 3857.63,1865.09 h 442.05 l -15.77,43.59 c -21.05,58.18 -76.3,96.94 -138.17,96.94 h -134.17 c -61.87,0 -117.12,-38.76 -138.17,-96.94 l -15.77,-43.59"
         style="fill:#dadbd8;fill-opacity:1;fill-rule:nonzero;stroke:none"
         id="path88" />
      <path
         d="M 4438.89,113.238 C 4438.89,50.6992 3570.82,0 2500,0 1429.18,0 561.109,50.6992 561.109,113.238 c 0,62.532 868.071,113.231 1938.891,113.231 1070.82,0 1938.89,-50.699 1938.89,-113.231"
         style="fill:#f3f2f1;fill-opacity:1;fill-rule:nonzero;stroke:none"
         id="path90" />
      <path
         d="m 1665.27,3136.22 -6.28,7.79 c 44.04,35.51 90.15,69 137.05,99.52 l 5.46,-8.39 c -46.62,-30.33 -92.45,-63.61 -136.23,-98.92"
         style="fill:#17282f;fill-opacity:1;fill-rule:nonzero;stroke:none"
         id="path92" />
      <path
         d="m 1591.46,3073.09 -6.72,7.41 c 13.39,12.13 27.14,24.21 40.88,35.88 l 6.48,-7.62 c -13.66,-11.61 -27.34,-23.61 -40.64,-35.67"
         style="fill:#17282f;fill-opacity:1;fill-rule:nonzero;stroke:none"
         id="path94" />
      <path
         d="m 3148.8,2543.29 c -143.93,-536.4 -701.48,-1006.93 -1245.33,-1050.96 -543.85,-44.03 -868.04,355.12 -724.12,891.52 143.93,536.4 701.48,1006.94 1245.33,1050.96 543.85,44.03 868.04,-355.12 724.12,-891.52"
         style="fill:#17282f;fill-opacity:1;fill-rule:nonzero;stroke:none"
         id="path96" />
      <path
         d="m 3018.28,2532.72 c -124.85,-465.3 -608.5,-873.47 -1080.27,-911.66 -471.76,-38.19 -752.99,308.05 -628.14,773.36 124.85,465.31 608.5,873.47 1080.27,911.66 471.76,38.2 752.99,-308.05 628.14,-773.36"
         style="fill:#ffffff;fill-opacity:1;fill-rule:nonzero;stroke:none"
         id="path98" />
      <path
         d="M 2371.52,3236.69 C 1938.61,3201.64 1494.8,2827.1 1380.23,2400.12 l 1567.69,126.91 c 114.57,426.98 -143.5,744.7 -576.4,709.66"
         style="fill:#406fbf;fill-opacity:1;fill-rule:nonzero;stroke:none"
         id="path100" />
      <path
         d="m 1380.23,2400.12 v 0 l 783.85,63.45 v 0 l -783.85,-63.45 m 0,0 c 16.39,61.08 39.52,121.1 68.39,179.19 -28.87,-58.09 -52,-118.11 -68.39,-179.19"
         style="fill:#ffffff;fill-opacity:1;fill-rule:nonzero;stroke:none"
         id="path102" />
      <path
         d="m 1380.23,2400.12 v 0 c 16.39,61.08 39.52,121.1 68.39,179.19 72.04,144.96 179.82,277.99 307.88,386.07 v 0 0 l 407.58,-501.81 -783.85,-63.45"
         style="fill:#b8d2ef;fill-opacity:1;fill-rule:nonzero;stroke:none"
         id="path104" />
      <path
         d="m 2164.08,2463.57 -407.58,501.81 c 179.39,151.39 398.57,253.78 615.02,271.31 v 0 l -207.44,-773.12 v 0"
         style="fill:#7da6dd;fill-opacity:1;fill-rule:nonzero;stroke:none"
         id="path106" />
      <path
         d="m 2164.08,2463.57 v 0 0 0 m 700.93,591.54 c -93.75,115.43 -242.84,184.22 -429.2,184.22 -3.5,0 -6.98,-0.03 -10.5,-0.07 3.52,0.04 7.01,0.07 10.5,0.07 186.39,0 335.46,-68.78 429.21,-184.21 v 0"
         style="fill:#ffffff;fill-opacity:1;fill-rule:nonzero;stroke:none"
         id="path108" />
      <path
         d="m 2164.08,2463.57 207.44,773.12 c 18.25,1.47 36.18,2.33 53.79,2.57 3.52,0.04 7,0.07 10.5,0.07 186.36,0 335.45,-68.79 429.2,-184.22 l -700.93,-591.54 v 0"
         style="fill:#4d79c6;fill-opacity:1;fill-rule:nonzero;stroke:none"
         id="path110" />
      <path
         d="m 2512.57,2491.78 c -50.93,-189.83 -248.25,-356.35 -440.72,-371.94 -192.47,-15.58 -307.21,125.68 -256.27,315.52 50.93,189.83 248.25,356.36 440.72,371.94 192.48,15.58 307.21,-125.68 256.27,-315.52"
         style="fill:#ffffff;fill-opacity:1;fill-rule:nonzero;stroke:none"
         id="path112" />
      <path
         d="m 2246.72,2315.53 c -106.85,-75.31 -230.47,-70.08 -276.11,11.68 -45.65,81.76 3.97,209.09 110.82,284.4 106.85,75.31 230.47,70.08 276.12,-11.68 45.64,-81.76 -3.97,-209.09 -110.83,-284.4"
         style="fill:#17282f;fill-opacity:1;fill-rule:nonzero;stroke:none"
         id="path114" />
      <path
         d="m 2750.76,2877.07 c 0,0 -255.98,-88.42 -526.28,-278.93 l 73.71,-132.04 c 270.3,190.51 452.57,410.97 452.57,410.97"
         style="fill:#17282f;fill-opacity:1;fill-rule:nonzero;stroke:none"
         id="path116" />
      <path
         d="m 1470.36,2105.04 c -10.31,0 -17.14,7.93 -15.44,18.39 1.79,11.01 12.33,20.66 23.56,21.55 l 861.17,68.37 c 11.27,0.86 18.88,-7.31 17.1,-18.32 -1.79,-11.02 -12.33,-20.66 -23.56,-21.55 l -861.18,-68.37 -1.65,-0.07"
         style="fill:#406fbf;fill-opacity:1;fill-rule:nonzero;stroke:none"
         id="path118" />
      <path
         d="m 2215.45,2023.03 c -10.31,0 -17.14,7.92 -15.44,18.38 1.78,11.01 12.33,20.66 23.56,21.55 l 280.33,22.26 c 11.26,0.9 18.88,-7.31 17.1,-18.32 -1.79,-11.02 -12.33,-20.66 -23.56,-21.55 l -280.34,-22.26 -1.65,-0.06"
         style="fill:#406fbf;fill-opacity:1;fill-rule:nonzero;stroke:none"
         id="path120" />
      <path
         d="m 791.477,1664.82 c -10.317,0 -17.137,7.92 -15.442,18.38 1.785,11.01 12.332,20.66 23.559,21.55 l 280.336,22.26 c 11.21,0.91 18.88,-7.31 17.1,-18.32 -1.79,-11.01 -12.34,-20.66 -23.56,-21.55 l -280.341,-22.26 -1.652,-0.06"
         style="fill:#406fbf;fill-opacity:1;fill-rule:nonzero;stroke:none"
         id="path122" />
      <path
         d="m 1040.91,1828.51 c -10.31,0 -17.14,7.93 -15.44,18.39 1.78,11.01 12.33,20.66 23.56,21.55 l 839.93,66.68 c 11.23,0.9 18.88,-7.31 17.09,-18.32 -1.78,-11.01 -12.33,-20.65 -23.56,-21.55 l -839.93,-66.68 -1.65,-0.07"
         style="fill:#406fbf;fill-opacity:1;fill-rule:nonzero;stroke:none"
         id="path124" />
      <path
         d="m 2843.91,930.52 35.6,-71.938 176.08,63.289 -35.6,71.938 -176.08,-63.289"
         style="fill:#f46b74;fill-opacity:1;fill-rule:nonzero;stroke:none"
         id="path126" />
      <path
         d="m 1987.66,339.23 53.54,-59.871 136.02,154.461 -65.9,45.821 -123.66,-140.411"
         style="fill:#f46b74;fill-opacity:1;fill-rule:nonzero;stroke:none"
         id="path128" />
      <path
         d="M 2053.39,285.34 2017,376.18 c -1.22,3.05 -4.35,4.75 -7.54,4.101 l -71.04,-14.531 c -7.37,-1.5 -11.6,-9.77 -8.67,-16.758 12.2,-29 22.43,-49.57 37.18,-86.39 9.07,-22.641 34.11,-91.981 46.64,-123.262 12.25,-30.59 44.58,-21.699 42.2,-7.66 -10.64,62.949 -10.93,113.859 -2.04,139.539 1.6,4.633 1.44,9.66 -0.34,14.121"
         style="fill:#17282f;fill-opacity:1;fill-rule:nonzero;stroke:none"
         id="path130" />
      <path
         d="m 2887.59,863.211 -38.87,78.559 c -1.46,2.949 -4.76,4.48 -7.95,3.699 l -70.98,-17.43 c -7.35,-1.809 -11.15,-9.949 -7.67,-16.68 14.5,-28.109 36.43,-68.238 54.05,-103.859 20.61,-41.648 23.42,-42.949 47.59,-91.789 14.62,-29.539 48.53,-22.961 45.12,-9.262 -15.54,62.371 -24.24,73.18 -18.32,136.653 0.65,6.898 0.1,13.898 -2.97,20.109"
         style="fill:#17282f;fill-opacity:1;fill-rule:nonzero;stroke:none"
         id="path132" />
      <path
         d="m 3579.69,2223.24 c -3.68,-25.99 -7.69,-54.01 -10.8,-81.16 -3.06,-27.38 -6.14,-54.69 -8.44,-81.98 -4.63,-54.39 -7.71,-109.05 -4.83,-160.61 0.26,-6.49 0.57,-12.95 1.34,-19.08 l 1.79,-17.8 c 0.65,-6.39 1.74,-9.54 3.53,-12.91 1.87,-3.31 6.12,-7.38 13.64,-10.97 7.39,-3.66 17.38,-6.73 28.43,-8.61 22.26,-3.95 48.2,-4.17 74.41,-2.76 13.13,0.88 26.51,1.88 39.9,3.45 13.22,1.55 27.21,3.72 39.64,5.61 l 19.35,-57.07 c -14.55,-6.93 -27.98,-12.22 -42.36,-17.38 -14.2,-5.1 -28.64,-9.84 -43.53,-13.58 -14.86,-3.88 -30.1,-7.11 -45.89,-9.29 -15.78,-2.25 -32.14,-3.69 -49.36,-3.21 -17.21,0.5 -35.43,2.36 -54.79,8.35 -19.11,6 -40.09,16.71 -57.38,34.49 -17.51,17.57 -28.58,41.26 -33.19,62.72 -0.75,3.04 -1.01,4.78 -1.36,6.72 l -1.04,5.86 -2.06,11.74 c -1.52,7.89 -2.47,15.58 -3.35,23.24 -7.54,61.61 -6.82,120.88 -3.86,179.72 1.93,29.34 4.02,58.58 7.62,87.6 3.57,29.24 7.09,57.52 12.68,87.56 l 119.91,-20.65"
         style="fill:#f46b74;fill-opacity:1;fill-rule:nonzero;stroke:none"
         id="path134" />
      <path
         d="m 3451.9,2296.08 c -52.59,-55.88 -31.4,-196.98 -31.4,-196.98 l 147.77,-23.9 c 0,0 34.34,80.48 21.43,162.51 -15.82,100.56 -80.31,119.44 -137.8,58.37"
         style="fill:#406fbf;fill-opacity:1;fill-rule:nonzero;stroke:none"
         id="path136" />
      <path
         d="m 3441.34,2095.73 -20.84,3.37 v 0 0 l 20.84,-3.37 v 0"
         style="fill:#c3c5c2;fill-opacity:1;fill-rule:nonzero;stroke:none"
         id="path138" />
      <path
         d="m 3525.17,2082.16 -83.83,13.57 v 0 l 83.83,-13.56 v -0.01"
         style="fill:#ea5b5b;fill-opacity:1;fill-rule:nonzero;stroke:none"
         id="path140" />
      <path
         d="m 3420.5,2099.11 v 0.01 -0.01 m 0,0.01 c 0,0.01 -0.01,0.03 -0.01,0.04 0,-0.01 0.01,-0.03 0.01,-0.04 m -0.01,0.07 c 0,0.01 -0.01,0.02 -0.01,0.03 0,-0.01 0.01,-0.02 0.01,-0.03 m -0.01,0.05 v 0 0"
         style="fill:#c3c5c2;fill-opacity:1;fill-rule:nonzero;stroke:none"
         id="path142" />
      <path
         d="m 3525.17,2082.17 -83.83,13.56 -20.84,3.37 v 0 c 0,0 0,0 0,0.01 v 0.01 0 c 0,0.01 -0.01,0.03 -0.01,0.04 0,0.01 0,0.02 0,0.03 0,0.01 -0.01,0.02 -0.01,0.03 0,0.01 0,0.01 0,0.02 v 0 c -0.64,4.39 -15.92,111.79 16.11,174.53 1.23,0.24 2.57,0.36 3.99,0.36 14.18,0 37.45,-11.84 59.66,-40.4 38.3,-49.14 36.75,-119.19 24.93,-151.56"
         style="fill:#3563b7;fill-opacity:1;fill-rule:nonzero;stroke:none"
         id="path144" />
      <path
         d="m 3739.45,1827.74 85.6,56.21 19.08,-87.07 c 0,0 -53.32,-53.92 -97.72,-15.91 l -6.96,46.77"
         style="fill:#f46b74;fill-opacity:1;fill-rule:nonzero;stroke:none"
         id="path146" />
      <path
         d="m 3877.8,1902.72 9.92,-75.24 -43.59,-30.6 -19.08,87.07 52.75,18.77"
         style="fill:#f46b74;fill-opacity:1;fill-rule:nonzero;stroke:none"
         id="path148" />
      <path
         d="m 2929.18,961.172 -0.01,0.039 17.61,6.328 0.01,-0.039 -17.61,-6.328"
         style="fill:#b6b8b6;fill-opacity:1;fill-rule:nonzero;stroke:none"
         id="path150" />
      <path
         d="m 2964.78,889.23 -35.6,71.942 17.61,6.328 35.56,-71.949 -17.57,-6.321"
         style="fill:#ea5b5b;fill-opacity:1;fill-rule:nonzero;stroke:none"
         id="path152" />
      <path
         d="m 2047.55,407.23 -0.05,0.032 36.9,41.867 h 0.05 l -36.9,-41.899 m 106.61,0.399 23.03,26.152 h 0.01 l -23.04,-26.152 m -67.51,44 h -0.04 l 24.66,27.992 0.02,-0.012 -24.64,-27.98"
         style="fill:#c3c5c2;fill-opacity:1;fill-rule:nonzero;stroke:none"
         id="path154" />
      <path
         d="m 2084.45,449.129 h -0.05 l 2.21,2.5 h 0.04 l -2.2,-2.5"
         style="fill:#b1b3b1;fill-opacity:1;fill-rule:nonzero;stroke:none"
         id="path156" />
      <path
         d="m 2113.43,361.422 -65.88,45.808 36.9,41.899 2.2,2.5 24.64,27.98 65.9,-45.828 -23.03,-26.152 -40.73,-46.207"
         style="fill:#ea5b5b;fill-opacity:1;fill-rule:nonzero;stroke:none"
         id="path158" />
      <path
         d="m 3147.38,2488.48 c -60.76,-311.04 -222.67,-591.8 -245.32,-653.74 58.06,-24.32 276.94,-115.54 396.27,-165.25 222.47,331.16 256.56,570.75 261.69,628.73 0.74,8.41 -2.91,16.5 -9.72,21.48 -9.48,6.95 -24.71,17.75 -43.18,29.63 -9.93,6.38 -20.74,13.05 -32.19,19.63 -6.3,3.69 -12.79,7.24 -19.42,10.77 -42.84,22.61 -116.87,51.52 -168.49,70.22 -10.81,3.89 -21.95,7.62 -32.8,11.06 -10.1,3.13 -20.08,6.07 -29.55,8.71 -42.91,11.99 -77.29,18.76 -77.29,18.76"
         style="fill:#406fbf;fill-opacity:1;fill-rule:nonzero;stroke:none"
         id="path160" />
      <path
         d="m 3300.13,2122.45 c -5.26,-10.21 -7.37,-18.17 -6.33,-23.88 1.04,-5.71 4.16,-9.23 9.37,-10.54 3.9,-0.99 8.14,-0.78 12.72,0.6 3.43,0.96 7.3,2.84 11.62,5.66 6.15,3.98 12.97,10.35 20.45,19.09 7.48,8.74 13.31,17.17 17.5,25.29 4.68,9.08 6.47,16.51 5.39,22.28 -1.09,5.77 -4.37,9.35 -9.85,10.73 -5.89,1.49 -12.7,0.19 -20.46,-3.9 -7.75,-4.08 -15.44,-10.75 -23.06,-20 -7.63,-9.25 -13.41,-17.69 -17.35,-25.33 z m 85.46,-77.57 21.87,-5.52 c -15.26,-14.6 -32.35,-24.73 -51.28,-30.39 -21.69,-6.52 -44.21,-6.83 -67.55,-0.94 -22.59,5.7 -39.78,15.11 -51.59,28.22 -11.81,13.11 -17.22,29.41 -16.22,48.92 1,19.51 6.81,39.55 17.41,60.13 11.64,22.59 27.03,42.49 46.18,59.68 19.15,17.2 39.14,28.69 59.99,34.46 20.84,5.78 41.43,6.1 61.76,0.97 17.25,-4.35 30.55,-12.16 39.91,-23.43 9.35,-11.26 13.83,-25.04 13.44,-41.34 -0.39,-16.3 -5.02,-33.05 -13.88,-50.26 -10.56,-20.5 -25.48,-37.67 -44.76,-51.52 -24.26,-17.5 -46.92,-23.59 -68.01,-18.26 -5.68,1.43 -9.35,3.68 -11.03,6.73 -1.67,3.06 -1.83,6.96 -0.47,11.7 -12.79,-7.12 -24.46,-9.35 -35.01,-6.7 -11.36,2.87 -18.42,9.86 -21.17,20.95 -2.75,11.1 -0.19,24.29 7.68,39.56 9.73,18.89 23.13,35 40.2,48.31 20.73,16.21 39.65,22.15 56.76,17.84 12.19,-3.08 18.37,-10.82 18.56,-23.22 l 9.46,12.74 27.1,-6.85 -60.05,-82.54 c -3.77,-5.23 -6.07,-8.65 -6.9,-10.25 -1.04,-2.01 -1.42,-3.62 -1.15,-4.82 0.27,-1.21 0.95,-1.95 2.05,-2.22 3.28,-0.83 8.73,0.43 16.33,3.78 10.13,4.34 20,11.12 29.62,20.32 9.61,9.2 17.25,19.31 22.93,30.32 10.19,19.78 12.62,37.86 7.29,54.24 -5.33,16.38 -18.91,27.33 -40.74,32.84 -18.55,4.68 -36.57,4.21 -54.05,-1.42 -17.48,-5.62 -33.64,-15.67 -48.48,-30.14 -14.84,-14.47 -26.76,-30.43 -35.74,-47.87 -8.74,-16.97 -13.05,-33.32 -12.93,-49.07 0.13,-15.75 5.13,-28.48 15.01,-38.2 9.89,-9.71 23.32,-16.71 40.29,-21 16.36,-4.13 31.8,-5.01 46.33,-2.63 14.53,2.37 28.14,8 40.84,16.88"
         style="fill:#ffffff;fill-opacity:1;fill-rule:nonzero;stroke:none"
         id="path162" />
      <path
         d="m 3382.94,2631.12 c -11.97,-58.63 -42.76,-162.36 -95.76,-182.72 17.26,-41.56 41.66,-91.45 105.08,-120.54 63.42,-29.09 70.62,19.86 63.37,50.31 -54.42,39.63 -34.17,83.82 -6.09,121.55 l -66.6,131.4"
         style="fill:#f46b74;fill-opacity:1;fill-rule:nonzero;stroke:none"
         id="path164" />
      <path
         d="m 3431.86,2472.05 c -0.01,0 -0.01,0.01 -0.02,0.01 0.38,0.73 0.76,1.46 1.15,2.19 -0.39,-0.74 -0.76,-1.47 -1.13,-2.2 m 17.65,27.73 -5,9.86 5.01,-9.86 h -0.01"
         style="fill:#c3c5c2;fill-opacity:1;fill-rule:nonzero;stroke:none"
         id="path166" />
      <path
         d="m 3431.84,2472.06 c -21.69,12.97 -42.83,51.53 -35.21,76.72 3.81,12.57 9.15,23.94 13.45,28.74 l 34.43,-67.88 5,-9.86 c -6.16,-8.23 -11.9,-16.77 -16.52,-25.53 -0.39,-0.73 -0.77,-1.46 -1.15,-2.19"
         style="fill:#ea5b5b;fill-opacity:1;fill-rule:nonzero;stroke:none"
         id="path168" />
      <path
         d="m 3542.8,2628.92 c 62.72,-4.58 118.18,151.79 26.74,170.02 -61.72,12.29 -61.11,-24.67 -67.67,-64.99 -6.56,-40.31 1.18,-102.14 40.93,-105.03"
         style="fill:#17282f;fill-opacity:1;fill-rule:nonzero;stroke:none"
         id="path170" />
      <path
         d="m 3390.13,2708.12 c -16.15,-78.01 -29.57,-122.85 -1.53,-172.77 42.17,-75.09 146.44,-65.71 185.58,5.9 35.22,64.45 55.73,181.19 -11.07,232.15 -65.81,50.21 -156.82,12.73 -172.98,-65.28"
         style="fill:#f46b74;fill-opacity:1;fill-rule:nonzero;stroke:none"
         id="path172" />
      <path
         d="m 3376.66,2652.32 c 62.71,-4.58 104.7,138.45 13.26,156.66 -61.72,12.3 -66.92,-23.76 -65.96,-62.37 1.01,-40.83 12.95,-91.4 52.7,-94.29"
         style="fill:#17282f;fill-opacity:1;fill-rule:nonzero;stroke:none"
         id="path174" />
      <path
         d="m 3427.34,2761.73 c 42.23,-20.56 246.11,-64.45 234.45,23.33 -11.67,87.78 -120.56,128.33 -120.56,128.33 0,0 63.34,-69.44 11.11,-52.77 -52.22,16.67 -67.34,28.88 -130.06,40 0,0 61.65,-51.12 -9.94,-36.67 -71.59,14.44 -121.66,-19.45 -121.66,-19.45 0,0 57.77,-33.07 52.77,-112.68 -4.84,-77.08 83.89,29.91 83.89,29.91"
         style="fill:#17282f;fill-opacity:1;fill-rule:nonzero;stroke:none"
         id="path176" />
      <path
         d="m 3340.35,2648.67 c 2.93,-19.75 14.3,-36.16 27.11,-45.54 19.26,-14.1 36.78,2.12 38.03,25.53 1.13,21.08 -7.54,53.81 -30.05,58.59 -22.19,4.71 -38.45,-16 -35.09,-38.58"
         style="fill:#f46b74;fill-opacity:1;fill-rule:nonzero;stroke:none"
         id="path178" />
      <path
         d="m 3039.16,1777.5 -83.39,-268.55 429.31,-270 C 3310.97,1115.34 2934.52,992.34 2934.52,992.34 l 60.22,-121.852 c 0,0 524.25,40.321 630.58,271.792 102.29,222.6 -327,527.21 -327,527.21 l -259.16,108.01"
         style="fill:#17282f;fill-opacity:1;fill-rule:nonzero;stroke:none"
         id="path180" />
      <path
         d="m 3028.95,1462.93 h -0.07 l -8.58,5.39 0.02,0.03 8.63,-5.42"
         style="fill:#939595;fill-opacity:1;fill-rule:nonzero;stroke:none"
         id="path182" />
      <path
         d="m 3094.9,1421.42 -66.02,41.51 h 0.07 l 65.96,-41.49 c 0,0 -0.01,-0.01 -0.01,-0.02"
         style="fill:#939595;fill-opacity:1;fill-rule:nonzero;stroke:none"
         id="path184" />
      <path
         d="m 3094.91,1421.44 -65.96,41.49 -8.63,5.42 92.18,133.97 v 0 c 0,-0.04 0.08,-3.81 0.08,-10.4 0,-28.68 -1.51,-110.76 -17.67,-170.48"
         style="fill:#0c161a;fill-opacity:1;fill-rule:nonzero;stroke:none"
         id="path186" />
      <path
         d="m 3205.3,1708.25 c 0,0 -346.15,-575.8 -489.07,-762.578 -156.5,-204.551 -561.74,-590.211 -561.74,-590.211 l -120.7,83.937 c 0,0 349.71,385.793 481.89,599.302 150.57,243.21 386.38,796.04 386.38,796.04 l 303.24,-126.49"
         style="fill:#17282f;fill-opacity:1;fill-rule:nonzero;stroke:none"
         id="path188" />
      <path
         d="m 2167.13,342.809 -142.13,98.832 29.52,42.461 160.8,-107.723 -48.19,-33.57"
         style="fill:#406fbf;fill-opacity:1;fill-rule:nonzero;stroke:none"
         id="path190" />
      <path
         d="m 2999.47,853.789 -71.83,145.172 46.91,23.209 82.76,-161.061 -57.84,-7.32"
         style="fill:#406fbf;fill-opacity:1;fill-rule:nonzero;stroke:none"
         id="path192" />
      <path
         d="m 3500.68,2655.02 c -1.7,-6.25 0.23,-12.21 4.32,-13.32 4.08,-1.12 8.77,3.05 10.47,9.29 1.7,6.25 -0.24,12.22 -4.32,13.33 -4.08,1.11 -8.77,-3.05 -10.47,-9.3"
         style="fill:#17282f;fill-opacity:1;fill-rule:nonzero;stroke:none"
         id="path194" />
      <path
         d="m 3571.29,2635.81 c -1.7,-6.25 0.24,-12.21 4.32,-13.32 4.08,-1.11 8.77,3.05 10.47,9.3 1.7,6.25 -0.23,12.21 -4.32,13.32 -4.08,1.11 -8.77,-3.05 -10.47,-9.3"
         style="fill:#17282f;fill-opacity:1;fill-rule:nonzero;stroke:none"
         id="path196" />
      <path
         d="m 3548,2638.81 c 0,0 4.4,-39.91 15.31,-61.55 -13.86,-7.31 -31.37,2.52 -31.37,2.52 l 16.06,59.03"
         style="fill:#f14358;fill-opacity:1;fill-rule:nonzero;stroke:none"
         id="path198" />
      <path
         d="m 3501.06,2570.23 c -22.89,9.66 -29.43,29.16 -29.72,30.07 -0.32,1 0.23,2.07 1.22,2.39 1,0.32 2.07,-0.22 2.4,-1.22 0.07,-0.23 7.75,-22.89 35.09,-30.32 1.01,-0.28 1.61,-1.32 1.33,-2.34 -0.27,-1.01 -1.32,-1.61 -2.33,-1.33 -2.86,0.78 -5.52,1.7 -7.99,2.75"
         style="fill:#17282f;fill-opacity:1;fill-rule:nonzero;stroke:none"
         id="path200" />
      <path
         d="m 3485.11,2683.75 -1.53,1.17 c -1.28,1.67 -0.98,4.05 0.69,5.34 16.64,12.85 33.29,7.26 33.99,7.02 1.98,-0.69 3.02,-2.87 2.33,-4.85 -0.69,-1.97 -2.84,-3.02 -4.82,-2.34 -0.55,0.18 -13.57,4.41 -26.86,-5.85 -1.12,-0.87 -2.58,-1.01 -3.8,-0.49"
         style="fill:#17282f;fill-opacity:1;fill-rule:nonzero;stroke:none"
         id="path202" />
      <path
         d="m 3608.32,2651.82 c -1.13,0.48 -2.01,1.5 -2.26,2.8 -3.11,16.5 -15.65,21.99 -16.18,22.22 -1.93,0.81 -2.84,3.04 -2.03,4.97 0.8,1.93 3.01,2.85 4.94,2.05 0.7,-0.3 16.84,-7.16 20.75,-27.83 0.39,-2.06 -0.97,-4.05 -3.03,-4.44 l -2.19,0.23"
         style="fill:#17282f;fill-opacity:1;fill-rule:nonzero;stroke:none"
         id="path204" />
      <path
         d="m 2049.77,271.602 c 2.57,-13.77 6.92,-23.293 11.92,-25.864 2.19,-1.117 4.57,-0.976 7.26,0.434 1.31,0.687 1.54,1.449 1.59,2.027 0.45,5.25 -11.3,16.133 -20.77,23.403 z m 0.69,-16.661 c -2.76,6.899 -4.34,14.957 -5.18,20.688 l 0.88,1.961 2.07,-0.031 c 2.76,-1.957 26.91,-19.477 26.04,-29.59 -0.13,-1.559 -0.88,-3.75 -3.7,-5.227 -3.78,-1.992 -7.36,-2.14 -10.63,-0.461 -4.14,2.117 -7.21,6.989 -9.48,12.66"
         style="fill:#406fbf;fill-opacity:1;fill-rule:nonzero;stroke:none"
         id="path206" />
      <path
         d="m 2081.13,273.488 c -0.58,1.453 -1.62,2.563 -3.15,3.371 -6.68,3.551 -19.96,0.391 -26.48,-1.507 8.79,-5.102 24.72,-9.153 29.18,-6.051 0.41,0.289 1.36,0.949 0.72,3.371 z m -35.73,1.703 -0.11,1.09 1.27,1.508 c 0.93,0.332 22.79,8.043 33.21,2.512 2.72,-1.442 4.48,-3.629 5.25,-6.52 v 0 c 1.18,-4.449 -0.94,-6.699 -2.3,-7.66 -7.54,-5.242 -29.57,2.461 -36.78,8.32 l -0.54,0.75"
         style="fill:#406fbf;fill-opacity:1;fill-rule:nonzero;stroke:none"
         id="path208" />
      <path
         d="m 2912.07,818.672 c -0.81,6.359 -14.55,19.078 -25.63,27.797 5.22,-17.188 11.77,-28.688 17.88,-31.18 2.15,-0.879 4.27,-0.66 6.5,0.652 l 1.28,1.981 z m -30.92,32.539 0.82,1.809 2.2,-0.04 c 3.3,-2.429 32.27,-24.101 31.73,-35.25 -0.11,-2.148 -1.19,-3.902 -3.14,-5.05 l -0.01,-0.008 c -3.26,-1.934 -6.58,-2.242 -9.86,-0.902 -10.89,4.429 -18.26,26.449 -21.69,39.179 l -0.05,0.262"
         style="fill:#406fbf;fill-opacity:1;fill-rule:nonzero;stroke:none"
         id="path210" />
      <path
         d="m 2921.42,847.102 v -0.051 z m -1.27,-2.59 -0.51,1.918 v 0 c -1.02,2.711 -2.85,4.629 -5.6,5.871 -7.92,3.57 -20.77,0.398 -26.88,-1.481 9.7,-6.218 27.72,-11.871 32.21,-8.672 0.28,0.204 0.99,0.711 0.78,2.364 z m -39,6.699 0.01,0.539 1.2,1.469 c 0.86,0.332 21.2,7.98 33.24,2.551 3.67,-1.661 6.23,-4.348 7.6,-8.008 1.84,-4.922 0.13,-7.453 -1.62,-8.703 -7.49,-5.34 -31.56,4.16 -39.75,10.921 l -0.68,1.231"
         style="fill:#406fbf;fill-opacity:1;fill-rule:nonzero;stroke:none"
         id="path212" />
      <path
         d="m 3150.47,2352.38 -31.53,21.1 c -10.89,7.15 -22,14.07 -33.15,20.9 -22.26,13.76 -44.92,26.76 -67.69,39.19 -22.84,12.32 -45.87,23.98 -69.16,34.1 -11.65,5.3 -23.34,9.67 -35,14.5 l -17.56,6.2 -4.39,1.55 -2.2,0.78 -0.29,0.15 c 0.1,0.18 -0.71,0.38 -1.65,0.64 -4.56,0.86 -14.61,0.39 -25.05,-1.43 -10.66,-1.9 -22.22,-4.87 -33.97,-8.58 -23.63,-7.23 -48.01,-16.81 -72.32,-27.13 -48.47,-20.93 -97.93,-44.74 -145.87,-69.05 l -33.97,49.78 c 43.77,36.88 88.92,70.07 138.37,99.85 24.73,14.84 50.31,28.81 78.28,41.05 14.03,6.03 28.73,11.6 44.86,16.26 16.32,4.49 33.79,8.58 56.82,7.86 5.92,-0.33 11.99,-0.86 18.79,-2.3 l 4.74,-1.05 2.75,-0.7 5.51,-1.4 22.05,-5.71 c 14.33,-4.35 28.83,-8.61 42.65,-13.91 28.03,-10.02 55.12,-21.51 81.3,-34.4 26.32,-12.65 51.82,-26.57 76.69,-41.43 12.34,-7.6 24.61,-15.29 36.74,-23.3 12.38,-8.06 23.67,-15.95 36.63,-25.72 l -72.38,-97.8"
         style="fill:#f46b74;fill-opacity:1;fill-rule:nonzero;stroke:none"
         id="path214" />
      <path
         d="m 3269.77,2437.28 c -17.7,43.83 -185,103.75 -185,103.75 l -54.04,-141.24 c 0,0 58.48,-38.63 106.98,-67.69 92.68,-55.52 166.87,18.98 132.06,105.18"
         style="fill:#406fbf;fill-opacity:1;fill-rule:nonzero;stroke:none"
         id="path216" />
      <path
         d="m 2627.05,2406.32 -33.92,-73.54 -51.7,66.99 c 0,0 38.92,65.68 66.8,40.02 l 18.82,-33.47"
         style="fill:#f46b74;fill-opacity:1;fill-rule:nonzero;stroke:none"
         id="path218" />
      <path
         d="m 2521.55,2309.74 -26.17,58.77 46.05,31.26 51.7,-66.99 -71.58,-23.04"
         style="fill:#f46b74;fill-opacity:1;fill-rule:nonzero;stroke:none"
         id="path220" />
    </g>
  </g>
</svg>
