<?xml version="1.0" encoding="UTF-8" standalone="no"?>
<!-- Created with Inkscape (http://www.inkscape.org/) -->

<svg
   version="1.1"
   id="svg2"
   width="924.38666"
   height="582.05334"
   viewBox="0 0 924.38666 582.05334"
   sodipodi:docname="6463430.eps"
   xmlns:inkscape="http://www.inkscape.org/namespaces/inkscape"
   xmlns:sodipodi="http://sodipodi.sourceforge.net/DTD/sodipodi-0.dtd"
   xmlns="http://www.w3.org/2000/svg"
   xmlns:svg="http://www.w3.org/2000/svg">
  <defs
     id="defs6" />
  <sodipodi:namedview
     id="namedview4"
     pagecolor="#ffffff"
     bordercolor="#000000"
     borderopacity="0.25"
     inkscape:showpageshadow="2"
     inkscape:pageopacity="0.0"
     inkscape:pagecheckerboard="0"
     inkscape:deskcolor="#d1d1d1" />
  <g
     id="g8"
     inkscape:groupmode="layer"
     inkscape:label="ink_ext_XXXXXX"
     transform="matrix(1.3333333,0,0,-1.3333333,0,582.05333)">
    <g
       id="g10"
       transform="scale(0.1)">
      <path
         d="m 282.289,2580.54 c -37.871,-39.22 -36.773,-101.72 2.457,-139.6 39.223,-37.87 101.727,-36.77 139.594,2.46 37.871,39.23 36.773,101.73 -2.453,139.6 -39.227,37.87 -101.723,36.77 -139.598,-2.46 z m -49.051,122.58 c 17.399,10.52 35.922,18.49 55.024,23.92 l 11.332,54.46 92.015,1.61 13.246,-54.02 c 19.282,-4.75 38.075,-12.07 55.833,-21.97 l 46.503,30.49 66.207,-63.93 -28.824,-47.54 c 10.52,-17.4 18.489,-35.93 23.91,-55.03 l 54.457,-11.34 1.618,-92.01 -54.028,-13.25 c -4.75,-19.28 -12.066,-38.06 -21.961,-55.82 l 30.477,-46.51 -63.914,-66.21 -47.547,28.83 c -17.402,-10.52 -35.926,-18.49 -55.031,-23.91 l -11.336,-54.47 -92.016,-1.61 -13.242,54.03 c -19.281,4.75 -38.07,12.07 -55.828,21.96 l -46.504,-30.48 -66.211,63.92 28.828,47.55 c -10.516,17.4 -18.492,35.92 -23.914,55.03 l -54.4609,11.33 -1.6133,92.01 54.0272,13.25 c 4.75,19.28 12.074,38.07 21.965,55.83 l -30.48,46.5 63.918,66.21 47.55,-28.83"
         style="fill:#e7e8e5;fill-opacity:1;fill-rule:nonzero;stroke:none"
         id="path12" />
      <path
         d="m 417.805,3912.27 c -37.875,-39.23 -36.778,-101.73 2.453,-139.61 39.222,-37.87 101.726,-36.77 139.594,2.46 37.871,39.23 36.777,101.73 -2.454,139.6 -39.226,37.87 -101.722,36.77 -139.593,-2.45 z m -49.055,122.57 c 17.398,10.52 35.922,18.49 55.023,23.92 l 11.332,54.46 92.016,1.61 13.246,-54.02 c 19.281,-4.75 38.074,-12.07 55.832,-21.97 l 46.504,30.49 66.207,-63.93 -28.824,-47.54 c 10.519,-17.4 18.488,-35.93 23.914,-55.03 l 54.453,-11.34 1.617,-92.01 -54.023,-13.25 c -4.754,-19.28 -12.07,-38.06 -21.965,-55.82 l 30.477,-46.51 -63.914,-66.21 -47.547,28.83 c -17.403,-10.52 -35.926,-18.48 -55.032,-23.91 l -11.336,-54.47 -92.011,-1.61 -13.246,54.03 c -19.282,4.75 -38.067,12.07 -55.828,21.96 l -46.504,-30.48 -66.211,63.92 28.828,47.55 c -10.516,17.4 -18.488,35.92 -23.914,55.03 l -54.461,11.33 -1.613,92.02 54.027,13.24 c 4.754,19.28 12.074,38.07 21.965,55.83 l -30.481,46.5 63.918,66.21 47.551,-28.83"
         style="fill:#e7e8e5;fill-opacity:1;fill-rule:nonzero;stroke:none"
         id="path14" />
      <path
         d="m 2435.84,3370.41 c -45.73,-47.37 -44.4,-122.82 2.96,-168.55 47.36,-45.72 122.82,-44.39 168.54,2.97 45.72,47.36 44.4,122.82 -2.96,168.54 -47.36,45.72 -122.82,44.39 -168.54,-2.96 z m -59.22,147.99 c 21,12.69 43.37,22.32 66.43,28.87 l 13.68,65.76 111.1,1.94 15.99,-65.22 c 23.28,-5.74 45.96,-14.57 67.4,-26.52 l 56.15,36.81 79.94,-77.19 -34.81,-57.39 c 12.7,-21.01 22.33,-43.38 28.87,-66.45 l 65.75,-13.68 1.95,-111.09 -65.23,-16 c -5.73,-23.27 -14.56,-45.96 -26.51,-67.4 l 36.79,-56.15 -77.16,-79.94 -57.41,34.81 c -21.01,-12.7 -43.37,-22.32 -66.44,-28.87 l -13.68,-65.75 -111.1,-1.95 -15.99,65.23 c -23.27,5.74 -45.96,14.57 -67.4,26.52 l -56.15,-36.81 -79.93,77.18 34.8,57.4 c -12.7,21.01 -22.32,43.37 -28.87,66.44 l -65.75,13.69 -1.95,111.09 65.23,15.99 c 5.73,23.28 14.57,45.96 26.52,67.41 l -36.8,56.14 77.17,79.94 57.41,-34.81"
         style="fill:#e7e8e5;fill-opacity:1;fill-rule:nonzero;stroke:none"
         id="path16" />
      <path
         d="m 888.438,4178.74 c -19.145,-19.83 -18.59,-51.42 1.242,-70.57 19.828,-19.14 51.422,-18.58 70.562,1.24 19.145,19.83 18.59,51.43 -1.238,70.57 -19.828,19.14 -51.422,18.59 -70.566,-1.24 z m -24.793,61.96 c 8.793,5.32 18.156,9.35 27.812,12.09 l 5.727,27.53 46.515,0.82 6.696,-27.31 c 9.746,-2.4 19.246,-6.1 28.222,-11.11 l 23.503,15.41 33.47,-32.31 -14.57,-24.03 c 5.32,-8.8 9.35,-18.16 12.09,-27.82 l 27.52,-5.73 0.82,-46.51 -27.31,-6.7 c -2.4,-9.74 -6.1,-19.24 -11.1,-28.22 l 15.41,-23.51 -32.31,-33.46 -24.035,14.57 c -8.796,-5.32 -18.164,-9.35 -27.82,-12.09 l -5.73,-27.53 -46.512,-0.82 -6.695,27.32 c -9.746,2.4 -19.243,6.1 -28.219,11.1 l -23.508,-15.41 -33.469,32.31 14.571,24.03 c -5.317,8.8 -9.344,18.16 -12.086,27.82 l -27.532,5.73 -0.816,46.51 27.313,6.7 c 2.402,9.74 6.101,19.24 11.101,28.22 l -15.406,23.51 32.308,33.46 24.04,-14.57"
         style="fill:#e7e8e5;fill-opacity:1;fill-rule:nonzero;stroke:none"
         id="path18" />
      <path
         d="m 5782.37,3908.7 c 0,-9.61 -7.79,-17.4 -17.4,-17.4 -9.61,0 -17.39,7.79 -17.39,17.4 0,9.6 7.78,17.4 17.39,17.4 9.61,0 17.4,-7.8 17.4,-17.4"
         style="fill:#dadbd8;fill-opacity:1;fill-rule:evenodd;stroke:none"
         id="path20" />
      <path
         d="m 6232.55,4196.7 c 0,-9.61 -7.79,-17.4 -17.4,-17.4 -9.61,0 -17.4,7.79 -17.4,17.4 0,9.61 7.79,17.4 17.4,17.4 9.61,0 17.4,-7.79 17.4,-17.4"
         style="fill:#dadbd8;fill-opacity:1;fill-rule:evenodd;stroke:none"
         id="path22" />
      <path
         d="m 5695.92,681.059 c 0,0 -0.17,4.761 -0.25,14.062 -0.06,9.379 -0.14,23.188 -0.25,41.301 -0.11,36.398 -0.27,89.98 -0.47,159.058 -0.2,138.36 -0.47,338.73 -0.81,587.19 -0.21,497.09 -0.5,1186.49 -0.81,1956.17 v 0.62 l 0.27,0.55 c 22.55,44.76 46.76,92.83 71.13,141.2 l -0.28,-1.17 c 0,3.09 0,6.44 0,9.8 0.01,108.28 0.01,215.18 0.02,318.86 l 2.59,-2.59 c -1005.31,0.62 -1855.55,1.15 -2282.69,1.41 l 1.17,1.18 c -0.24,-105.63 -0.43,-186.71 -0.56,-241.48 -0.13,-27.29 -0.23,-48 -0.3,-61.98 -0.1,-13.9 -0.31,-20.97 -0.31,-20.97 0,0 -0.21,7.07 -0.31,20.97 -0.07,13.98 -0.17,34.69 -0.3,61.98 -0.13,54.77 -0.32,135.85 -0.57,241.48 v 1.17 h 1.18 c 427.13,0.27 1277.38,0.79 2282.69,1.42 h 2.59 v -2.59 c 0,-103.68 0.01,-210.58 0.01,-318.86 0,-3.36 0,-6.71 0,-9.8 v -0.62 l -0.28,-0.55 c -24.37,-48.37 -48.58,-96.44 -71.13,-141.2 l 0.27,1.17 c -0.31,-769.68 -0.6,-1459.08 -0.81,-1956.17 -0.34,-248.46 -0.61,-448.83 -0.81,-587.19 -0.2,-69.078 -0.36,-122.66 -0.47,-159.058 -0.11,-18.113 -0.19,-31.922 -0.25,-41.301 -0.08,-9.301 -0.26,-14.062 -0.26,-14.062"
         style="fill:#dadbd8;fill-opacity:1;fill-rule:nonzero;stroke:none"
         id="path24" />
      <path
         d="m 6144.23,2658.08 c 0,0 -0.27,5.07 -0.52,14.95 -0.21,9.99 -0.52,24.64 -0.92,43.77 -0.69,38.54 -1.69,95.07 -2.97,167.5 -2.31,145.14 -5.62,353.94 -9.67,609.15 l -0.01,0.39 0.14,0.36 c 25.42,67.65 52.17,138.85 80.1,213.17 l -0.14,-0.78 c -0.08,149.25 -0.17,314.56 -0.27,489.23 l 2.49,-2.49 c -199.47,-0.03 -415.9,-0.07 -640.19,-0.11 -384.71,0.12 -746.25,0.23 -1059.57,0.32 h -1.44 l -0.62,1.31 c -21.6,45.68 -42.55,89.99 -62.94,133.1 l 1.97,-1.24 c -297.25,0.38 -543.72,0.7 -716.01,0.92 -86.01,0.26 -153.49,0.46 -199.58,0.6 -22.92,0.14 -40.5,0.25 -52.48,0.32 -11.86,0.11 -17.98,0.34 -17.98,0.34 0,0 6.12,0.22 17.98,0.33 11.98,0.07 29.56,0.18 52.48,0.32 46.09,0.14 113.57,0.34 199.58,0.6 172.29,0.22 418.76,0.54 716.01,0.92 h 1.37 l 0.59,-1.24 c 20.45,-43.09 41.47,-87.37 63.13,-133.02 l -2.06,1.3 c 313.32,0.1 674.86,0.21 1059.57,0.33 224.29,-0.04 440.72,-0.08 640.19,-0.12 h 2.49 v -2.49 c -0.09,-174.67 -0.18,-339.98 -0.26,-489.23 v -0.41 l -0.14,-0.38 c -28.05,-74.27 -54.92,-145.43 -80.45,-213.04 l 0.13,0.75 c 3.31,-255.22 6.01,-464.03 7.89,-609.17 0.81,-72.45 1.44,-128.97 1.87,-167.52 0.14,-19.14 0.26,-33.79 0.33,-43.78 0.05,-9.88 -0.09,-14.96 -0.09,-14.96"
         style="fill:#dadbd8;fill-opacity:1;fill-rule:nonzero;stroke:none"
         id="path26" />
      <path
         d="m 6019.5,2546.25 c 0,0 -0.32,5.62 -0.65,16.57 -0.3,11.04 -0.74,27.3 -1.32,48.56 -1.04,42.74 -2.57,105.54 -4.53,186.17 -3.67,161.48 -8.96,394.3 -15.46,680.12 l -0.01,0.43 0.17,0.39 c 29.74,69.65 61.22,143.38 94.05,220.26 l -0.18,-0.79 c 2.94,120.36 6.11,250.54 9.43,386.94 l 2.37,-2.43 c -334.8,-0.07 -711.01,-0.15 -1107.42,-0.23 -695.98,0.26 -1329.57,0.51 -1798.11,0.69 l 1.36,0.55 c -51.94,-51.83 -100.6,-100.39 -146.2,-145.89 l -0.51,-0.51 -0.71,0.01 c -207.52,1.79 -372.79,3.23 -486.3,4.21 -56.64,0.59 -100.34,1.06 -129.99,1.37 -14.72,0.21 -25.92,0.37 -33.55,0.47 -7.54,0.13 -11.39,0.32 -11.39,0.32 0,0 3.85,0.14 11.39,0.17 7.63,0 18.84,0 33.56,0 29.64,-0.11 73.35,-0.27 130,-0.48 113.5,-0.61 278.78,-1.52 486.3,-2.65 l -1.22,-0.5 c 45.51,45.6 94.07,94.26 145.9,146.2 l 0.57,0.56 h 0.79 c 468.54,0.18 1102.13,0.42 1798.11,0.69 396.41,-0.09 772.62,-0.17 1107.42,-0.24 h 2.43 l -0.06,-2.43 c -3.48,-136.39 -6.79,-266.57 -9.86,-386.93 l -0.01,-0.41 -0.16,-0.39 c -32.94,-76.82 -64.54,-150.51 -94.38,-220.11 l 0.16,0.82 c 5.77,-285.84 10.46,-518.68 13.72,-680.16 1.5,-80.64 2.67,-143.45 3.46,-186.2 0.34,-21.26 0.59,-37.52 0.76,-48.57 0.14,-10.95 0.07,-16.58 0.07,-16.58"
         style="fill:#dadbd8;fill-opacity:1;fill-rule:nonzero;stroke:none"
         id="path28" />
      <path
         d="m 2420.35,3945.17 c 0,-9.61 -7.79,-17.4 -17.4,-17.4 -9.61,0 -17.4,7.79 -17.4,17.4 0,9.61 7.79,17.4 17.4,17.4 9.61,0 17.4,-7.79 17.4,-17.4"
         style="fill:#dadbd8;fill-opacity:1;fill-rule:evenodd;stroke:none"
         id="path30" />
      <path
         d="m 3463.62,4328.89 c 0,-9.61 -7.79,-17.4 -17.39,-17.4 -9.61,0 -17.4,7.79 -17.4,17.4 0,9.6 7.79,17.4 17.4,17.4 9.6,0 17.39,-7.8 17.39,-17.4"
         style="fill:#dadbd8;fill-opacity:1;fill-rule:evenodd;stroke:none"
         id="path32" />
      <path
         d="m 6351.59,713.66 h -363.51 c 106.45,361.83 130.66,1040.47 112.8,1489.34 h 133.71 c -7.01,-447.74 25.33,-1122.47 117,-1489.34"
         style="fill:#e7e8e5;fill-opacity:1;fill-rule:nonzero;stroke:none"
         id="path34" />
      <path
         d="m 6851.32,273.699 c -63.5,70.082 -158.41,105.91 -248.9,93.953 8.66,80.2 16.67,165.137 -14.87,238.45 -31.55,73.308 -118.34,125.628 -184.39,86.757 24.45,110.903 -18.36,235.403 -104.12,302.813 -85.76,67.418 -209.46,73.808 -300.88,15.558 C 5906.74,952.98 5852.94,833.48 5867.3,720.57 5775.79,728.398 5681.83,681.82 5628.18,602.012 5574.52,522.211 5563.06,411.98 5598.99,321.48 5462.87,328.738 5333.12,150.699 5335.8,4.73047 L 6929.49,6.69141 C 6943.33,103.219 6914.82,203.621 6851.32,273.699"
         style="fill:#e7e8e5;fill-opacity:1;fill-rule:nonzero;stroke:none"
         id="path36" />
      <path
         d="m 6049.06,2869.62 306.83,-105.74 c 67.73,-69.55 22.26,-167.62 -34.98,-205.36 41.35,-19.99 67.08,-68.19 60.67,-113.68 -6.41,-45.48 -44.46,-84.69 -89.72,-92.47 30.63,-45.56 12.61,-116.09 -36.13,-141.38 -48.73,-25.28 -116.77,0.6 -136.38,51.88 -12.94,33.84 -6.81,73.84 -25.08,105.14 -17.13,29.35 -51.06,43.45 -78.72,63.2 -68.67,49.07 -100.58,140.02 -89.86,223.73 10.73,83.72 59.56,159.43 123.37,214.68"
         style="fill:#e7e8e5;fill-opacity:1;fill-rule:nonzero;stroke:none"
         id="path38" />
      <path
         d="m 6243.9,2800.17 c 11.82,-30.17 17.41,-62.72 16.64,-95.11 -0.51,-21.17 -27.94,-29.27 -40.09,-11.93 l -0.32,0.46 c 1.3,-39.72 -0.01,-79.53 -3.91,-119.08 -2.49,-25.27 -35.07,-33.73 -49.42,-12.78 -56.19,82.08 -82.13,184.95 -69.59,283.77 l 146.69,-45.33"
         style="fill:#dadbd8;fill-opacity:1;fill-rule:nonzero;stroke:none"
         id="path40" />
      <path
         d="m 5939.59,3170.08 -1.66,-1.32 c -96.61,-77.59 -152.61,-194.98 -152.55,-318.9 l 0.03,-77.72 154.31,107.3 -0.13,290.64"
         style="fill:#dadbd8;fill-opacity:1;fill-rule:nonzero;stroke:none"
         id="path42" />
      <path
         d="m 6380.42,3170.28 1.65,-1.3 c 95.36,-76.45 150.7,-192.2 150.75,-314.42 l 0.04,-76.67 -152.31,105.71 -0.13,286.68"
         style="fill:#dadbd8;fill-opacity:1;fill-rule:nonzero;stroke:none"
         id="path44" />
      <path
         d="m 6159.67,3931.21 c 34.89,0.01 99.08,-90.17 158.75,-240.82 58.75,-148.35 61.9,-277.93 61.9,-277.93 l 0.29,-648.57 -170.9,-0.08 -99.04,-0.04 -170.89,-0.08 -0.27,588.54 c -0.02,57.51 5.19,114.92 16.1,171.39 9.37,48.55 23.78,107.75 45.52,166.62 55.91,151.41 123.65,240.96 158.54,240.97"
         style="fill:#f3f2f1;fill-opacity:1;fill-rule:nonzero;stroke:none"
         id="path46" />
      <path
         d="m 6380.58,2866.66 -436.39,2.36"
         style="fill:#f3f2f1;fill-opacity:1;fill-rule:nonzero;stroke:none"
         id="path48" />
      <path
         d="m 5944.19,2869.02 c -0.01,-0.64 97.69,-1.68 218.18,-2.34 120.53,-0.65 218.21,-0.66 218.21,-0.02 0,0.64 -97.67,1.68 -218.2,2.34 -120.49,0.65 -218.19,0.66 -218.19,0.02"
         style="fill:#dadbd8;fill-opacity:1;fill-rule:nonzero;stroke:none"
         id="path50" />
      <path
         d="m 6382.54,2847 -436.4,2.36"
         style="fill:#f3f2f1;fill-opacity:1;fill-rule:nonzero;stroke:none"
         id="path52" />
      <path
         d="m 5946.14,2849.36 c 0,-0.64 97.7,-1.68 218.18,-2.33 120.54,-0.66 218.22,-0.67 218.22,-0.03 0,0.64 -97.67,1.68 -218.2,2.34 -120.49,0.65 -218.19,0.66 -218.2,0.02"
         style="fill:#dadbd8;fill-opacity:1;fill-rule:nonzero;stroke:none"
         id="path54" />
      <path
         d="m 6382.2,2826.26 -436.39,2.36"
         style="fill:#f3f2f1;fill-opacity:1;fill-rule:nonzero;stroke:none"
         id="path56" />
      <path
         d="m 5945.81,2828.62 c -0.01,-0.64 97.69,-1.69 218.18,-2.34 120.53,-0.65 218.21,-0.66 218.21,-0.02 0.01,0.64 -97.67,1.68 -218.2,2.33 -120.49,0.65 -218.19,0.66 -218.19,0.03"
         style="fill:#dadbd8;fill-opacity:1;fill-rule:nonzero;stroke:none"
         id="path58" />
      <path
         d="m 6381.87,2805.51 -436.4,2.36"
         style="fill:#f3f2f1;fill-opacity:1;fill-rule:nonzero;stroke:none"
         id="path60" />
      <path
         d="m 5945.47,2807.87 c 0,-0.64 97.69,-1.68 218.18,-2.33 120.53,-0.65 218.21,-0.66 218.22,-0.03 0,0.64 -97.67,1.69 -218.2,2.34 -120.49,0.65 -218.19,0.66 -218.2,0.02"
         style="fill:#dadbd8;fill-opacity:1;fill-rule:nonzero;stroke:none"
         id="path62" />
      <path
         d="m 6381.53,2784.77 -436.39,2.36"
         style="fill:#f3f2f1;fill-opacity:1;fill-rule:nonzero;stroke:none"
         id="path64" />
      <path
         d="m 5945.14,2787.13 c -0.01,-0.64 97.69,-1.69 218.18,-2.34 120.53,-0.65 218.21,-0.66 218.21,-0.02 0,0.64 -97.67,1.68 -218.2,2.33 -120.49,0.66 -218.19,0.67 -218.19,0.03"
         style="fill:#dadbd8;fill-opacity:1;fill-rule:nonzero;stroke:none"
         id="path66" />
      <path
         d="m 6159.15,3169.69 c -0.08,0.03 -0.24,-1 -0.49,-3.02 -0.32,-2.03 -0.31,-4.97 -0.52,-8.8 -0.29,-7.63 -0.47,-18.67 -0.57,-32.32 -0.19,-27.29 -0.04,-64.99 0.38,-106.62 0.43,-41.65 1.04,-79.34 1.61,-106.62 0.34,-13.44 0.61,-24.41 0.81,-32.31 0.14,-3.62 0.25,-6.54 0.34,-8.78 0.11,-2.01 0.2,-3.06 0.28,-3.06 0.08,0 0.14,1.06 0.19,3.07 0.02,2.24 0.05,5.16 0.09,8.78 -0.02,7.91 -0.05,18.88 -0.08,32.32 -0.24,27.52 -0.56,65.1 -0.93,106.62 -0.41,41.51 -0.78,79.08 -1.05,106.6 -0.07,13.44 -0.13,24.4 -0.17,32.3 0.06,3.8 -0.08,6.8 0.09,8.76 0.08,1.99 0.09,3.06 0.02,3.08"
         style="fill:#dadbd8;fill-opacity:1;fill-rule:nonzero;stroke:none"
         id="path68" />
      <path
         d="m 5939.59,3170.08 c 0,-0.64 97.86,-1.19 218.54,-1.22 120.72,-0.04 218.55,0.45 218.55,1.08 0,0.64 -97.83,1.19 -218.55,1.23 -120.68,0.03 -218.54,-0.45 -218.54,-1.09"
         style="fill:#dadbd8;fill-opacity:1;fill-rule:nonzero;stroke:none"
         id="path70" />
      <path
         d="m 6123.91,2955.79 c 0.08,0.09 -0.72,1.01 -2.69,1.92 -1.94,0.89 -5.19,1.6 -9.03,0.66 -3.74,-0.83 -8.31,-3.9 -9.75,-9.18 -1.49,-5.02 -0.22,-11.66 4.75,-15.65 5.07,-3.85 11.82,-3.47 16.34,-0.8 4.77,2.68 6.63,7.85 6.53,11.69 -0.02,3.95 -1.5,6.93 -2.84,8.59 -1.36,1.69 -2.45,2.24 -2.51,2.15 -0.14,-0.15 0.73,-0.93 1.77,-2.66 1.03,-1.69 2.13,-4.51 1.95,-8.04 -0.13,-3.47 -1.89,-7.72 -5.96,-9.88 -3.89,-2.21 -9.74,-2.4 -13.86,0.77 -4.07,3.23 -5.31,8.95 -4.12,13.26 1.11,4.47 4.81,7.21 8.14,8.18 3.38,1.03 6.38,0.65 8.27,0.06 1.93,-0.58 2.9,-1.24 3.01,-1.07"
         style="fill:#dadbd8;fill-opacity:1;fill-rule:nonzero;stroke:none"
         id="path72" />
      <path
         d="m 6121.53,3081.14 c 0.08,0.09 -0.72,1.01 -2.69,1.92 -1.94,0.89 -5.19,1.6 -9.03,0.66 -3.74,-0.83 -8.31,-3.9 -9.75,-9.18 -1.49,-5.03 -0.22,-11.66 4.75,-15.65 5.08,-3.85 11.82,-3.47 16.34,-0.8 4.77,2.68 6.63,7.85 6.53,11.69 -0.02,3.95 -1.5,6.93 -2.84,8.59 -1.36,1.69 -2.45,2.24 -2.51,2.15 -0.14,-0.15 0.73,-0.93 1.77,-2.66 1.03,-1.69 2.13,-4.51 1.95,-8.04 -0.13,-3.47 -1.89,-7.72 -5.96,-9.89 -3.89,-2.2 -9.74,-2.39 -13.86,0.78 -4.07,3.22 -5.31,8.94 -4.12,13.25 1.11,4.48 4.81,7.21 8.14,8.19 3.38,1.03 6.38,0.65 8.28,0.06 1.92,-0.58 2.89,-1.24 3,-1.07"
         style="fill:#dadbd8;fill-opacity:1;fill-rule:nonzero;stroke:none"
         id="path74" />
      <path
         d="m 6147.9,2498.9 c 10.29,-6.56 13.8,-21.79 7.43,-32.19 -6.38,-10.41 -21.53,-14.2 -32.06,-8.02 -10.51,6.18 -14.58,21.27 -8.6,31.9 5.99,10.63 20.99,14.98 31.73,9.19"
         style="fill:#dadbd8;fill-opacity:1;fill-rule:nonzero;stroke:none"
         id="path76" />
      <path
         d="m 6059.89,3556.45 c -36.36,-54.76 -21.45,-128.63 33.31,-164.99 54.76,-36.36 128.62,-21.45 164.99,33.31 36.36,54.76 21.44,128.62 -33.32,164.99 -54.75,36.36 -128.62,21.45 -164.98,-33.31"
         style="fill:#ffffff;fill-opacity:1;fill-rule:nonzero;stroke:none"
         id="path78" />
      <path
         d="m 6059.89,3556.45 c 0.57,-0.46 5.89,8.82 19.85,21.4 13.72,12.32 38.18,27.55 71.76,29.58 16.56,0.89 35.15,-1.38 53.07,-9.25 17.75,-7.91 35.39,-20.39 48.16,-38.29 6.62,-8.73 11.91,-18.78 15.74,-29.57 4,-10.73 6.38,-22.35 6.8,-34.25 1.38,-23.81 -5.45,-48.69 -19.23,-69.86 -14.16,-20.92 -34.44,-36.87 -56.93,-44.85 -11.13,-4.23 -22.76,-6.54 -34.21,-7.03 -11.43,-0.65 -22.75,0.33 -33.36,3.04 -21.46,4.83 -39.81,16.24 -53.99,29.54 -14.21,13.47 -23.51,29.72 -29.11,45.32 -11.16,31.74 -6.6,60.2 -0.58,77.62 6.18,17.74 12.67,26.24 12.03,26.6 -0.15,0.1 -1.63,-2.06 -4.33,-6.27 -1.41,-2.08 -3.02,-4.73 -4.53,-8.07 -1.62,-3.29 -3.59,-7.05 -5.07,-11.59 -6.7,-17.5 -12.02,-46.59 -0.98,-79.48 5.56,-16.17 14.99,-33.1 29.59,-47.21 14.55,-13.92 33.53,-25.92 55.84,-31.09 11.04,-2.88 22.83,-3.97 34.74,-3.34 11.93,0.46 24.07,2.83 35.7,7.21 23.48,8.25 44.73,24.9 59.5,46.75 14.39,22.09 21.49,48.12 19.98,72.96 -0.48,12.41 -3.01,24.51 -7.21,35.68 -4.05,11.23 -9.62,21.67 -16.56,30.72 -13.42,18.56 -31.84,31.39 -50.31,39.41 -18.67,7.98 -37.93,10.1 -54.99,8.95 -34.59,-2.58 -59.34,-18.77 -72.87,-31.74 -3.62,-3.13 -6.33,-6.39 -8.73,-9.16 -2.49,-2.7 -4.3,-5.21 -5.67,-7.31 -2.84,-4.12 -4.25,-6.33 -4.1,-6.42"
         style="fill:#dadbd8;fill-opacity:1;fill-rule:nonzero;stroke:none"
         id="path80" />
      <path
         d="m 6159.67,3931.21 c 34.89,0.01 99.08,-90.17 158.75,-240.82 l -317.29,-0.15 c 55.91,151.41 123.65,240.96 158.54,240.97"
         style="fill:#dadbd8;fill-opacity:1;fill-rule:nonzero;stroke:none"
         id="path82" />
      <path
         d="m 6159.67,3931.21 c 0,0 -2.06,-0.15 -6.14,-0.69 -3.97,-1 -9.66,-3.38 -16.35,-7.83 -13.27,-9.06 -29.64,-26.51 -47.27,-51.35 -34.97,-49.89 -75.62,-129.63 -108.53,-235.01 -15.69,-52.87 -29.89,-112.04 -37.73,-177.03 -3.8,-32.48 -6.04,-66.35 -6.24,-101.34 -0.04,-34.91 -0.07,-70.91 -0.11,-107.92 -0.02,-148.02 -0.05,-312.05 -0.08,-486.35 v -2.55 h 2.56 c 70.75,0.02 144.89,0.04 220.38,0.07 75.52,0.04 149.68,0.08 220.45,0.13 h 2.55 v 2.55 c -0.18,174.36 -0.36,338.42 -0.51,486.47 -0.06,37 -0.12,73 -0.17,107.92 -0.03,17.45 -0.06,34.63 -0.09,51.53 -0.4,17.07 -2.08,33.6 -3.97,49.86 -7.84,64.98 -22.08,124.21 -38.88,176.76 -17.41,52.4 -37.15,98.11 -56,137.32 -19.05,39.13 -37.5,71.73 -54.92,96.76 -17.38,25.01 -33.45,42.71 -46.55,52.01 -3.46,2.03 -6.29,4.18 -9.1,5.36 -2.85,1.05 -5.15,2.26 -7.16,2.64 -4.08,0.54 -6.14,0.69 -6.14,0.69 0,0 2.06,-0.48 6.02,-1.16 1.96,-0.44 4.2,-1.71 6.97,-2.81 2.72,-1.23 5.49,-3.43 8.86,-5.49 12.77,-9.44 28.51,-27.21 45.58,-52.28 17.11,-25.08 35.28,-57.72 54.05,-96.86 18.57,-39.22 38.05,-84.97 55.17,-137.22 16.52,-52.42 30.5,-111.48 38.12,-176.18 1.83,-16.15 3.46,-32.73 3.8,-49.45 -0.01,-16.9 -0.02,-34.08 -0.04,-51.53 -0.02,-34.91 -0.04,-70.91 -0.07,-107.92 -0.02,-148.03 -0.05,-312.08 -0.08,-486.42 l 2.55,2.55 c -70.76,-0.02 -144.92,-0.04 -220.44,-0.06 -75.49,-0.05 -149.63,-0.09 -220.38,-0.13 l 2.55,-2.56 c -0.18,174.31 -0.36,338.33 -0.51,486.36 -0.05,36.99 -0.1,72.98 -0.14,107.89 0.12,34.83 2.26,68.55 5.95,100.9 7.61,64.68 21.57,123.77 36.98,176.51 32.37,105.15 72.46,184.96 106.8,234.94 17.32,24.89 33.37,42.42 46.32,51.62 6.51,4.52 12.04,7.01 15.91,8.14 3.97,0.68 6.03,1.16 6.03,1.16"
         style="fill:#dadbd8;fill-opacity:1;fill-rule:nonzero;stroke:none"
         id="path84" />
      <path
         d="m 6093.99,3429.84 c 0.49,-0.49 7.47,5.48 17.99,15.92 10.53,10.42 24.51,25.36 39.61,42.12 14.33,16.07 27.31,30.62 38.43,43.08 9.8,11.04 15.84,17.91 15.32,18.43 -0.48,0.5 -7.46,-5.48 -17.98,-15.92 -10.53,-10.42 -24.52,-25.35 -39.61,-42.13 -14.34,-16.06 -27.31,-30.61 -38.43,-43.07 -9.8,-11.04 -15.85,-17.91 -15.33,-18.43"
         style="fill:#dadbd8;fill-opacity:1;fill-rule:nonzero;stroke:none"
         id="path86" />
      <path
         d="m 6129.01,3429.7 c 0.99,-1.03 18.12,15.07 38.25,35.96 20.14,20.9 35.59,38.61 34.53,39.56 -1.06,0.95 -18.18,-15.15 -38.25,-35.97 -20.06,-20.82 -35.52,-38.53 -34.53,-39.55"
         style="fill:#dadbd8;fill-opacity:1;fill-rule:nonzero;stroke:none"
         id="path88" />

      <path
         d="m 6422.02,1753.69 h -365.9 c -54.5,0 -98.69,44.19 -98.69,98.7 v 365.89 c 0,54.51 44.19,98.7 98.69,98.7 h 365.9 c 54.5,0 98.69,-44.19 98.69,-98.7 v -365.89 c 0,-54.51 -44.19,-98.7 -98.69,-98.7"
         style="fill:#17282f;fill-opacity:1;fill-rule:nonzero;stroke:none"
         id="path92" />
      <path
         d="m 6339.38,1753.69 h -365.89 c -54.51,0 -98.69,44.19 -98.69,98.7 v 365.89 c 0,54.51 44.18,98.7 98.69,98.7 h 365.89 c 54.51,0 98.7,-44.19 98.7,-98.7 v -365.89 c 0,-54.51 -44.19,-98.7 -98.7,-98.7"
         style="fill:#33535f;fill-opacity:1;fill-rule:nonzero;stroke:none"
         id="path94" />
      <path
         d="m 5984.12,2038.67 53.59,53.58 103.33,-91.86 172.57,173.23 49.75,-53.58 -229.97,-222.99 -149.27,141.62"
         style="fill:#ffffff;fill-opacity:1;fill-rule:nonzero;stroke:none"
         id="path96" />
      <path
         d="m 6160.8,612.711 c 27.68,-12.02 48.04,-37.602 58.26,-66 10.21,-28.391 11.14,-59.41 7.74,-89.391 -6.58,-58.011 -39.54,-116.57 -75.03,-162.929 -48.85,42.64 -60.09,117.011 -63.42,155.101 -5.27,60.199 21.77,172.188 72.45,163.219"
         style="fill:#f2575d;fill-opacity:1;fill-rule:nonzero;stroke:none"
         id="path98" />
      <path
         d="m 6208.55,198.648 c -7.82,32.793 5.82,68.75 30.99,91.184 25.17,22.418 60.33,31.91 93.94,29.34 15.54,-1.192 32.34,-5.723 41.24,-18.524 8.31,-11.957 7.38,-28.648 0.63,-41.566 -6.75,-12.91 -18.43,-22.562 -30.77,-30.312 -42.33,-26.559 -88.17,-44.489 -136.03,-30.122"
         style="fill:#f2575d;fill-opacity:1;fill-rule:nonzero;stroke:none"
         id="path100" />
      <path
         d="m 6145.9,20.7695 c -0.29,0.0703 0.38,4.3008 1.75,11.9102 1.53,8.3789 3.52,19.2109 5.9,32.2109 5.4,26.918 12.33,65.4884 33.25,102.9184 20.64,37.343 49.53,64.843 73.86,78.492 12.08,6.988 22.65,11.148 30.12,13.32 3.68,1.238 6.69,1.711 8.67,2.199 2,0.422 3.06,0.578 3.1,0.43 0.34,-0.941 -16.93,-4.051 -40.35,-18.508 -23.48,-14.062 -51.4,-41.281 -71.7,-77.992 -20.51,-36.66 -27.88,-74.6797 -34.02,-101.4609 -2.95,-13.5 -5.36,-24.4375 -7.22,-31.9493 -1.86,-7.5195 -3.08,-11.6289 -3.36,-11.5703"
         style="fill:#17282f;fill-opacity:1;fill-rule:nonzero;stroke:none"
         id="path102" />
      <path
         d="m 6147.74,525.602 c 0.15,0.007 0.35,-1.793 0.6,-5.204 0.23,-3.867 0.52,-8.816 0.89,-14.949 0.69,-12.988 1.46,-31.801 2.2,-55.039 1.51,-46.48 2.69,-110.73 2.39,-181.699 -0.32,-70.981 -2.05,-135.231 -3.96,-181.6993 -0.95,-23.2304 -1.88,-42.0195 -2.68,-55.0117 -0.42,-6.1211 -0.76,-11.0781 -1.02,-14.9414 -0.28,-3.4102 -0.5,-5.1992 -0.64,-5.1875 -0.15,0 -0.21,1.8008 -0.21,5.2305 0.06,3.8672 0.13,8.8281 0.22,14.9687 0.33,13.5313 0.78,32.1992 1.34,55.0391 1.14,46.4726 2.4,110.6796 2.72,181.6206 0.3,70.918 -0.41,135.129 -1.15,181.61 -0.35,22.851 -0.65,41.519 -0.86,55.051 -0.04,6.148 -0.07,11.109 -0.09,14.98 0.02,3.418 0.11,5.231 0.25,5.231"
         style="fill:#17282f;fill-opacity:1;fill-rule:nonzero;stroke:none"
         id="path104" />
      <path
         d="m 6124.03,163.332 c -11.11,70.188 -58.42,133.648 -122.51,164.348 -16.32,7.82 -37.64,12.929 -51.06,0.789 -13.44,-12.168 -10.43,-33.989 -3.85,-50.887 27.36,-70.281 100.85,-119.902 176.27,-119.023"
         style="fill:#f2575d;fill-opacity:1;fill-rule:nonzero;stroke:none"
         id="path106" />
      <path
         d="m 6009.44,272.66 c 0.12,0.262 3.8,-1.359 10.36,-4.519 3.3,-1.559 7.32,-3.493 11.72,-6.25 4.38,-2.739 9.69,-5.411 14.91,-9.352 5.33,-3.758 11.27,-7.769 17.06,-12.84 6.07,-4.73 11.97,-10.437 18.15,-16.5 12.04,-12.398 24.15,-27.199 34.5,-44.32 10.19,-17.219 17.57,-34.879 22.73,-51.387 2.32,-8.34 4.56,-16.25 5.74,-23.863 1.65,-7.5196 2.27,-14.6681 2.93,-21.1602 0.9,-6.4766 0.6,-12.418 0.82,-17.5899 0.23,-5.1797 -0.1,-9.6406 -0.4,-13.2695 -0.53,-7.2696 -0.96,-11.2578 -1.25,-11.2383 -0.96,0.0391 0.7,16.1406 -2.14,41.7891 -0.85,6.3906 -1.62,13.4101 -3.4,20.7888 -1.3,7.473 -3.64,15.223 -6.02,23.391 -5.28,16.16 -12.63,33.449 -22.63,50.359 -10.17,16.813 -21.98,31.43 -33.67,43.781 -6,6.032 -11.73,11.762 -17.62,16.54 -5.6,5.109 -11.37,9.199 -16.52,13.082 -20.99,15.039 -35.7,21.738 -35.27,22.558"
         style="fill:#17282f;fill-opacity:1;fill-rule:nonzero;stroke:none"
         id="path108" />
      <path
         d="M 1702.21,1.98047 H 656.758 V 2508.96 H 1702.21 V 1.98047"
         style="fill:#dadbd8;fill-opacity:1;fill-rule:evenodd;stroke:none"
         id="path110" />
      <path
         d="M 1179.48,1.98047 H 353.012 V 2508.96 H 1179.48 V 1.98047"
         style="fill:#f3f2f1;fill-opacity:1;fill-rule:evenodd;stroke:none"
         id="path112" />
      <path
         d="m 1580.64,2195.19 h -250.38 v 25.79 h 250.38 v -25.79"
         style="fill:#17282f;fill-opacity:1;fill-rule:evenodd;stroke:none"
         id="path116" />
      <path
         d="m 1580.64,2121.34 h -250.38 v 25.78 h 250.38 v -25.78"
         style="fill:#17282f;fill-opacity:1;fill-rule:evenodd;stroke:none"
         id="path118" />
      <path
         d="m 1580.64,2047.49 h -250.38 v 25.78 h 250.38 v -25.78"
         style="fill:#17282f;fill-opacity:1;fill-rule:evenodd;stroke:none"
         id="path120" />
      <path
         d="M 1099.64,81.582 H 438.43 V 2402.33 h 661.21 V 81.582"
         style="fill:#dadbd8;fill-opacity:1;fill-rule:evenodd;stroke:none"
         id="path122" />
      <path
         d="M 1033.69,2233.94 H 485.922 v 82.95 h 547.768 v -82.95"
         style="fill:#e7e8e5;fill-opacity:1;fill-rule:evenodd;stroke:none"
         id="path124" />
      <path
         d="m 568.879,2233.94 h -82.957 v 82.95 h 82.957 v -82.95"
         style="fill:#f2575d;fill-opacity:1;fill-rule:evenodd;stroke:none"
         id="path126" />
      <path
         d="M 1050.69,2233.94 H 870.328 v 82.95 h 180.362 v -82.95"
         style="fill:#f3f2f1;fill-opacity:1;fill-rule:evenodd;stroke:none"
         id="path128" />
      <path
         d="M 1033.69,2086.17 H 485.922 v 82.95 h 547.768 v -82.95"
         style="fill:#e7e8e5;fill-opacity:1;fill-rule:evenodd;stroke:none"
         id="path130" />
      <path
         d="m 568.879,2086.17 h -82.957 v 82.95 h 82.957 v -82.95"
         style="fill:#ffffff;fill-opacity:1;fill-rule:evenodd;stroke:none"
         id="path132" />
      <path
         d="M 1050.69,2086.17 H 870.328 v 82.95 h 180.362 v -82.95"
         style="fill:#f3f2f1;fill-opacity:1;fill-rule:evenodd;stroke:none"
         id="path134" />
      <path
         d="M 1033.69,1938.4 H 485.922 v 82.95 h 547.768 v -82.95"
         style="fill:#e7e8e5;fill-opacity:1;fill-rule:evenodd;stroke:none"
         id="path136" />
      <path
         d="m 568.879,1938.4 h -82.957 v 82.95 h 82.957 v -82.95"
         style="fill:#f2575d;fill-opacity:1;fill-rule:evenodd;stroke:none"
         id="path138" />
      <path
         d="M 1050.69,1938.4 H 870.328 v 82.95 h 180.362 v -82.95"
         style="fill:#f3f2f1;fill-opacity:1;fill-rule:evenodd;stroke:none"
         id="path140" />
      <path
         d="M 1033.69,1790.63 H 485.922 v 82.96 h 547.768 v -82.96"
         style="fill:#e7e8e5;fill-opacity:1;fill-rule:evenodd;stroke:none"
         id="path142" />
      <path
         d="m 568.879,1790.63 h -82.957 v 82.96 h 82.957 v -82.96"
         style="fill:#ffffff;fill-opacity:1;fill-rule:evenodd;stroke:none"
         id="path144" />
      <path
         d="M 1050.69,1790.63 H 870.328 v 82.96 h 180.362 v -82.96"
         style="fill:#f3f2f1;fill-opacity:1;fill-rule:evenodd;stroke:none"
         id="path146" />
      <path
         d="M 1033.69,1642.86 H 485.922 v 82.96 h 547.768 v -82.96"
         style="fill:#e7e8e5;fill-opacity:1;fill-rule:evenodd;stroke:none"
         id="path148" />
      <path
         d="m 568.879,1642.86 h -82.957 v 82.96 h 82.957 v -82.96"
         style="fill:#f2575d;fill-opacity:1;fill-rule:evenodd;stroke:none"
         id="path150" />
      <path
         d="M 1050.69,1642.86 H 870.328 v 82.96 h 180.362 v -82.96"
         style="fill:#f3f2f1;fill-opacity:1;fill-rule:evenodd;stroke:none"
         id="path152" />
      <path
         d="M 1033.69,1495.09 H 485.922 v 82.96 h 547.768 v -82.96"
         style="fill:#e7e8e5;fill-opacity:1;fill-rule:evenodd;stroke:none"
         id="path154" />
      <path
         d="m 568.879,1495.09 h -82.957 v 82.96 h 82.957 v -82.96"
         style="fill:#f2575d;fill-opacity:1;fill-rule:evenodd;stroke:none"
         id="path156" />
      <path
         d="M 1050.69,1495.09 H 870.328 v 82.96 h 180.362 v -82.96"
         style="fill:#f3f2f1;fill-opacity:1;fill-rule:evenodd;stroke:none"
         id="path158" />
      <path
         d="M 1033.69,1347.32 H 485.922 v 82.96 h 547.768 v -82.96"
         style="fill:#e7e8e5;fill-opacity:1;fill-rule:evenodd;stroke:none"
         id="path160" />
      <path
         d="m 568.879,1347.32 h -82.957 v 82.96 h 82.957 v -82.96"
         style="fill:#ffffff;fill-opacity:1;fill-rule:evenodd;stroke:none"
         id="path162" />
      <path
         d="M 1050.69,1347.32 H 870.328 v 82.96 h 180.362 v -82.96"
         style="fill:#f3f2f1;fill-opacity:1;fill-rule:evenodd;stroke:none"
         id="path164" />
      <path
         d="M 1033.69,1199.55 H 485.922 v 82.96 h 547.768 v -82.96"
         style="fill:#e7e8e5;fill-opacity:1;fill-rule:evenodd;stroke:none"
         id="path166" />
      <path
         d="m 568.879,1199.55 h -82.957 v 82.96 h 82.957 v -82.96"
         style="fill:#ffffff;fill-opacity:1;fill-rule:evenodd;stroke:none"
         id="path168" />
      <path
         d="M 1050.69,1199.55 H 870.328 v 82.96 h 180.362 v -82.96"
         style="fill:#f3f2f1;fill-opacity:1;fill-rule:evenodd;stroke:none"
         id="path170" />
      <path
         d="M 1033.69,1051.78 H 485.922 v 82.96 h 547.768 v -82.96"
         style="fill:#e7e8e5;fill-opacity:1;fill-rule:evenodd;stroke:none"
         id="path172" />
      <path
         d="m 568.879,1051.78 h -82.957 v 82.96 h 82.957 v -82.96"
         style="fill:#ffffff;fill-opacity:1;fill-rule:evenodd;stroke:none"
         id="path174" />
      <path
         d="M 1050.69,1051.78 H 870.328 v 82.96 h 180.362 v -82.96"
         style="fill:#f3f2f1;fill-opacity:1;fill-rule:evenodd;stroke:none"
         id="path176" />
      <path
         d="M 1033.69,904.012 H 485.922 v 82.957 h 547.768 v -82.957"
         style="fill:#e7e8e5;fill-opacity:1;fill-rule:evenodd;stroke:none"
         id="path178" />
      <path
         d="m 568.879,904.012 h -82.957 v 82.957 h 82.957 v -82.957"
         style="fill:#f2575d;fill-opacity:1;fill-rule:evenodd;stroke:none"
         id="path180" />
      <path
         d="M 1050.69,904.012 H 870.328 v 82.957 h 180.362 v -82.957"
         style="fill:#f3f2f1;fill-opacity:1;fill-rule:evenodd;stroke:none"
         id="path182" />
      <path
         d="M 1033.69,756.25 H 485.922 v 82.949 H 1033.69 V 756.25"
         style="fill:#e7e8e5;fill-opacity:1;fill-rule:evenodd;stroke:none"
         id="path184" />
      <path
         d="m 568.879,756.25 h -82.957 v 82.949 h 82.957 V 756.25"
         style="fill:#ffffff;fill-opacity:1;fill-rule:evenodd;stroke:none"
         id="path186" />
      <path
         d="M 1050.69,756.25 H 870.328 v 82.949 H 1050.69 V 756.25"
         style="fill:#f3f2f1;fill-opacity:1;fill-rule:evenodd;stroke:none"
         id="path188" />
      <path
         d="M 1033.69,608.48 H 485.922 v 82.95 h 547.768 v -82.95"
         style="fill:#e7e8e5;fill-opacity:1;fill-rule:evenodd;stroke:none"
         id="path190" />
      <path
         d="m 568.879,608.48 h -82.957 v 82.95 h 82.957 v -82.95"
         style="fill:#f2575d;fill-opacity:1;fill-rule:evenodd;stroke:none"
         id="path192" />
      <path
         d="M 1050.69,608.48 H 870.328 v 82.95 h 180.362 v -82.95"
         style="fill:#f3f2f1;fill-opacity:1;fill-rule:evenodd;stroke:none"
         id="path194" />
      <path
         d="M 1033.69,460.711 H 485.922 v 82.949 h 547.768 v -82.949"
         style="fill:#e7e8e5;fill-opacity:1;fill-rule:evenodd;stroke:none"
         id="path196" />
      <path
         d="m 568.879,460.711 h -82.957 v 82.949 h 82.957 v -82.949"
         style="fill:#ffffff;fill-opacity:1;fill-rule:evenodd;stroke:none"
         id="path198" />
      <path
         d="M 1050.69,460.711 H 870.328 v 82.949 h 180.362 v -82.949"
         style="fill:#f3f2f1;fill-opacity:1;fill-rule:evenodd;stroke:none"
         id="path200" />
      <path
         d="M 1033.69,312.941 H 485.922 v 82.957 h 547.768 v -82.957"
         style="fill:#e7e8e5;fill-opacity:1;fill-rule:evenodd;stroke:none"
         id="path202" />
      <path
         d="m 568.879,312.941 h -82.957 v 82.957 h 82.957 v -82.957"
         style="fill:#f2575d;fill-opacity:1;fill-rule:evenodd;stroke:none"
         id="path204" />
      <path
         d="M 1050.69,312.941 H 870.328 v 82.957 h 180.362 v -82.957"
         style="fill:#f3f2f1;fill-opacity:1;fill-rule:evenodd;stroke:none"
         id="path206" />
      <path
         d="M 1033.69,165.172 H 485.922 v 82.957 h 547.768 v -82.957"
         style="fill:#e7e8e5;fill-opacity:1;fill-rule:evenodd;stroke:none"
         id="path208" />
      <path
         d="m 568.879,165.172 h -82.957 v 82.957 h 82.957 v -82.957"
         style="fill:#ffffff;fill-opacity:1;fill-rule:evenodd;stroke:none"
         id="path210" />
      <path
         d="M 1050.69,165.172 H 870.328 v 82.957 h 180.362 v -82.957"
         style="fill:#f3f2f1;fill-opacity:1;fill-rule:evenodd;stroke:none"
         id="path212" />
      <path
         d="M 5244.42,3215.56 H 1645.98 c -62.04,0 -112.32,-50.28 -112.32,-112.32 V 561.582 c 0,-62.043 50.28,-112.332 112.32,-112.332 H 3027.06 L 2960.09,5.21094 H 3961.44 L 3905.53,449.25 h 1338.9 c 62.03,0 112.32,50.289 112.32,112.32 v 2541.67 c 0,62.04 -50.29,112.32 -112.33,112.32"
         style="fill:#33535f;fill-opacity:1;fill-rule:nonzero;stroke:none"
         id="path216" />
      <path
         d="m 3493.25,716.559 c 48.95,-69.957 -27.66,-146.571 -97.64,-97.637 -2.3,1.629 -4.4,3.719 -6.01,6.027 -48.82,69.949 27.7,146.461 97.63,97.621 2.31,-1.609 4.41,-3.699 6.02,-6.011"
         style="fill:#17282f;fill-opacity:1;fill-rule:nonzero;stroke:none"
         id="path218" />
      <path
         d="M 5256.56,914.23 H 1634.29 v 2107.32 c 0,53.56 43.42,96.98 96.98,96.98 h 3428.32 c 53.56,0 96.97,-43.42 96.97,-96.97 V 914.23"
         style="fill:#17282f;fill-opacity:1;fill-rule:nonzero;stroke:none"
         id="path220" />
      <path
         d="m 4276.8,449.211 c 0,-1.231 -301.65,-2.219 -673.68,-2.219 -372.15,0 -673.74,0.988 -673.74,2.219 0,1.23 301.59,2.23 673.74,2.23 372.03,0 673.68,-1 673.68,-2.23"
         style="fill:#17282f;fill-opacity:1;fill-rule:nonzero;stroke:none"
         id="path222" />
      <path
         d="m 2262.15,2888.7 h -264.03 v 55.71 h 264.03 v -55.71"
         style="fill:#33535f;fill-opacity:1;fill-rule:nonzero;stroke:none"
         id="path224" />
      <path
         d="m 2130.13,2639.16 h -132.01 v 55.72 h 132.01 v -55.72"
         style="fill:#f2575d;fill-opacity:1;fill-rule:nonzero;stroke:none"
         id="path226" />
      <path
         d="m 2283.36,2513.67 h -185.89 v 55.71 h 185.89 v -55.71"
         style="fill:#33535f;fill-opacity:1;fill-rule:nonzero;stroke:none"
         id="path228" />
      <path
         d="m 2421.23,2513.67 h -108.3 v 55.71 h 108.3 v -55.71"
         style="fill:#33535f;fill-opacity:1;fill-rule:nonzero;stroke:none"
         id="path230" />
      <path
         d="m 3392.36,2513.67 h -222.75 v 55.71 h 222.75 v -55.71"
         style="fill:#33535f;fill-opacity:1;fill-rule:nonzero;stroke:none"
         id="path232" />
      <path
         d="m 3667.06,2391.33 h 376.332 v 55.707 H 3667.06 Z"
         style="fill:#33535f;fill-opacity:1;fill-rule:nonzero;stroke:none"
         id="path234" />
      <path
         d="M 4623.91,2513.67 H 4443.2 v 55.71 h 180.71 v -55.71"
         style="fill:#33535f;fill-opacity:1;fill-rule:nonzero;stroke:none"
         id="path236" />
      <path
         d="m 5042.7,2513.67 h -363.36 v 55.71 h 363.36 v -55.71"
         style="fill:#33535f;fill-opacity:1;fill-rule:nonzero;stroke:none"
         id="path238" />
      <path
         d="m 2283.36,2391.33 h -185.89 v 55.71 h 185.89 v -55.71"
         style="fill:#33535f;fill-opacity:1;fill-rule:nonzero;stroke:none"
         id="path240" />
      <path
         d="m 2169.14,2269.31 h -185.89 v 55.71 h 185.89 v -55.71"
         style="fill:#f2575d;fill-opacity:1;fill-rule:nonzero;stroke:none"
         id="path242" />
      <path
         d="m 2169.14,2147.29 h -86.85 V 2203 h 86.85 v -55.71"
         style="fill:#33535f;fill-opacity:1;fill-rule:nonzero;stroke:none"
         id="path244" />
      <path
         d="m 2487.97,1890.23 h -86.85 v 55.71 h 86.85 v -55.71"
         style="fill:#33535f;fill-opacity:1;fill-rule:nonzero;stroke:none"
         id="path246" />
      <path
         d="m 3595.82,1425.79 h 169.68 v 55.7227 h -169.68 z"
         style="fill:#33535f;fill-opacity:1;fill-rule:nonzero;stroke:none"
         id="path248" />
      <path
         d="m 4297.81,1425.79 h 415.711 v 55.7227 H 4297.81 Z"
         style="fill:#33535f;fill-opacity:1;fill-rule:nonzero;stroke:none"
         id="path250" />
      <path
         d="m 3126.61,1547.7 h -169.68 v 55.72 h 169.68 v -55.72"
         style="fill:#dadbd8;fill-opacity:1;fill-rule:nonzero;stroke:none"
         id="path252" />
      <path
         d="m 2511.74,1652.33 h -169.68 v 55.71 h 169.68 v -55.71"
         style="fill:#33535f;fill-opacity:1;fill-rule:nonzero;stroke:none"
         id="path254" />
      <path
         d="m 3293.05,1425.79 h 267.559 v 55.7227 H 3293.05 Z"
         style="fill:#33535f;fill-opacity:1;fill-rule:nonzero;stroke:none"
         id="path256" />
      <path
         d="m 2223.23,2022.99 h -140.94 v 55.72 h 140.94 v -55.72"
         style="fill:#33535f;fill-opacity:1;fill-rule:nonzero;stroke:none"
         id="path258" />
      <path
         d="m 2343.73,1888.14 h -261.44 v 55.72 h 261.44 v -55.72"
         style="fill:#33535f;fill-opacity:1;fill-rule:nonzero;stroke:none"
         id="path260" />
      <path
         d="m 2464.8,1784.9 h -382.51 v 55.71 h 382.51 v -55.71"
         style="fill:#33535f;fill-opacity:1;fill-rule:nonzero;stroke:none"
         id="path262" />
      <path
         d="m 3157.81,1784.9 h -382.5 v 55.71 h 382.5 v -55.71"
         style="fill:#33535f;fill-opacity:1;fill-rule:nonzero;stroke:none"
         id="path264" />
      <path
         d="M 2875.77,1547.7 H 2338.7 v 55.72 h 537.07 v -55.72"
         style="fill:#33535f;fill-opacity:1;fill-rule:nonzero;stroke:none"
         id="path266" />
      <path
         d="M 3247.11,1425.79 H 2338.7 v 55.72 h 908.41 v -55.72"
         style="fill:#33535f;fill-opacity:1;fill-rule:nonzero;stroke:none"
         id="path268" />
      <path
         d="m 2972.28,1303.89 h -908.4 v 55.71 h 908.4 v -55.71"
         style="fill:#33535f;fill-opacity:1;fill-rule:nonzero;stroke:none"
         id="path270" />
      <path
         d="m 2734.66,1784.9 h -229.48 v 55.71 h 229.48 v -55.71"
         style="fill:#33535f;fill-opacity:1;fill-rule:nonzero;stroke:none"
         id="path272" />
      <path
         d="M 2440.2,2147.29 H 2203.43 V 2203 h 236.77 v -55.71"
         style="fill:#33535f;fill-opacity:1;fill-rule:nonzero;stroke:none"
         id="path274" />
      <path
         d="m 2492.36,2022.97 h -236.77 v 55.72 h 236.77 v -55.72"
         style="fill:#33535f;fill-opacity:1;fill-rule:nonzero;stroke:none"
         id="path276" />
      <path
         d="M 3409.76,2022.97 H 2782.8 v 55.72 h 626.96 v -55.72"
         style="fill:#33535f;fill-opacity:1;fill-rule:nonzero;stroke:none"
         id="path278" />
      <path
         d="m 3426.83,2022.97 h 724.129 v 55.7227 H 3426.83 Z"
         style="fill:#33535f;fill-opacity:1;fill-rule:nonzero;stroke:none"
         id="path280" />
      <path
         d="M 2727.28,2022.97 H 2531.3 v 55.72 h 195.98 v -55.72"
         style="fill:#33535f;fill-opacity:1;fill-rule:nonzero;stroke:none"
         id="path282" />
      <path
         d="m 2783.05,2147.29 h -310.4 V 2203 h 310.4 v -55.71"
         style="fill:#33535f;fill-opacity:1;fill-rule:nonzero;stroke:none"
         id="path284" />
      <path
         d="M 2990.08,2147.29 H 2817.3 V 2203 h 172.78 v -55.71"
         style="fill:#dadbd8;fill-opacity:1;fill-rule:nonzero;stroke:none"
         id="path286" />
      <path
         d="m 2506.72,2391.33 h -193.79 v 55.71 h 193.79 v -55.71"
         style="fill:#33535f;fill-opacity:1;fill-rule:nonzero;stroke:none"
         id="path288" />
      <path
         d="m 3595.25,2391.33 h -956.87 v 55.71 h 956.87 v -55.71"
         style="fill:#33535f;fill-opacity:1;fill-rule:nonzero;stroke:none"
         id="path290" />
      <path
         d="m 4216.97,2022.97 h 452.453 v 55.7227 H 4216.97 Z"
         style="fill:#33535f;fill-opacity:1;fill-rule:nonzero;stroke:none"
         id="path292" />
      <path
         d="m 3809.56,1425.79 h 452.453 v 55.7227 H 3809.56 Z"
         style="fill:#33535f;fill-opacity:1;fill-rule:nonzero;stroke:none"
         id="path294" />
      <path
         d="m 4372.83,2513.67 h -942.6 v 55.71 h 942.6 v -55.71"
         style="fill:#33535f;fill-opacity:1;fill-rule:nonzero;stroke:none"
         id="path296" />
      <path
         d="m 3111.02,2513.67 h -655.94 v 55.71 h 655.94 v -55.71"
         style="fill:#33535f;fill-opacity:1;fill-rule:nonzero;stroke:none"
         id="path298" />
      <path
         d="m 2439.76,2770.58 h -441.64 v 55.71 h 441.64 v -55.71"
         style="fill:#33535f;fill-opacity:1;fill-rule:nonzero;stroke:none"
         id="path300" />
      <path
         d="m 3088.55,2770.58 h -604.72 v 55.71 h 604.72 v -55.71"
         style="fill:#33535f;fill-opacity:1;fill-rule:nonzero;stroke:none"
         id="path302" />
      <path
         d="M 2497.81,2888.7 H 2303.4 v 55.71 h 194.41 v -55.71"
         style="fill:#dadbd8;fill-opacity:1;fill-rule:nonzero;stroke:none"
         id="path304" />
      <path
         d="m 1847.71,2888.69 h 53.9492 v 55.7188 H 1847.71 Z"
         style="fill:#33535f;fill-opacity:1;fill-rule:nonzero;stroke:none"
         id="path306" />
      <path
         d="m 1901.66,2766.79 h -53.95 v 55.71 h 53.95 v -55.71"
         style="fill:#33535f;fill-opacity:1;fill-rule:nonzero;stroke:none"
         id="path308" />
      <path
         d="m 1901.66,2644.88 h -53.95 v 55.71 h 53.95 v -55.71"
         style="fill:#33535f;fill-opacity:1;fill-rule:nonzero;stroke:none"
         id="path310" />
      <path
         d="m 1901.66,2522.97 h -53.95 v 55.71 h 53.95 v -55.71"
         style="fill:#33535f;fill-opacity:1;fill-rule:nonzero;stroke:none"
         id="path312" />
      <path
         d="m 1901.66,2401.06 h -53.95 v 55.71 h 53.95 v -55.71"
         style="fill:#33535f;fill-opacity:1;fill-rule:nonzero;stroke:none"
         id="path314" />
      <path
         d="m 1901.66,2279.15 h -53.95 v 55.72 h 53.95 v -55.72"
         style="fill:#33535f;fill-opacity:1;fill-rule:nonzero;stroke:none"
         id="path316" />
      <path
         d="m 1901.66,2157.24 h -53.95 v 55.72 h 53.95 v -55.72"
         style="fill:#33535f;fill-opacity:1;fill-rule:nonzero;stroke:none"
         id="path318" />
      <path
         d="m 1901.66,2035.34 h -53.95 v 55.71 h 53.95 v -55.71"
         style="fill:#33535f;fill-opacity:1;fill-rule:nonzero;stroke:none"
         id="path320" />
      <path
         d="m 1901.66,1913.43 h -53.95 v 55.71 h 53.95 v -55.71"
         style="fill:#33535f;fill-opacity:1;fill-rule:nonzero;stroke:none"
         id="path322" />
      <path
         d="m 2466.66,1040.54 h -86.85 v 55.71 h 86.85 v -55.71"
         style="fill:#dadbd8;fill-opacity:1;fill-rule:nonzero;stroke:none"
         id="path324" />
      <path
         d="m 2327.01,1040.54 h -261.44 v 55.71 h 261.44 v -55.71"
         style="fill:#f2575d;fill-opacity:1;fill-rule:nonzero;stroke:none"
         id="path326" />
      <path
         d="m 1901.66,1046.72 h -53.95 v 55.71 h 53.95 v -55.71"
         style="fill:#33535f;fill-opacity:1;fill-rule:nonzero;stroke:none"
         id="path328" />
      <path
         d="m 1901.66,1791.52 h -53.95 v 55.71 h 53.95 v -55.71"
         style="fill:#33535f;fill-opacity:1;fill-rule:nonzero;stroke:none"
         id="path330" />
      <path
         d="m 1901.66,1669.61 h -53.95 v 55.71 h 53.95 v -55.71"
         style="fill:#33535f;fill-opacity:1;fill-rule:nonzero;stroke:none"
         id="path332" />
      <path
         d="m 1901.66,1547.7 h -53.95 v 55.72 h 53.95 v -55.72"
         style="fill:#33535f;fill-opacity:1;fill-rule:nonzero;stroke:none"
         id="path334" />
      <path
         d="m 1901.66,1425.79 h -53.95 v 55.72 h 53.95 v -55.72"
         style="fill:#33535f;fill-opacity:1;fill-rule:nonzero;stroke:none"
         id="path336" />
      <path
         d="m 1901.66,1303.89 h -53.95 v 55.71 h 53.95 v -55.71"
         style="fill:#33535f;fill-opacity:1;fill-rule:nonzero;stroke:none"
         id="path338" />
      <path
         d="m 2328.71,1175.6 h -264.83 v 55.71 h 264.83 v -55.71"
         style="fill:#33535f;fill-opacity:1;fill-rule:nonzero;stroke:none"
         id="path340" />
      <path
         d="m 2978.87,1175.6 h -599.06 v 55.71 h 599.06 v -55.71"
         style="fill:#33535f;fill-opacity:1;fill-rule:nonzero;stroke:none"
         id="path342" />
      <path
         d="m 1901.66,1175.6 h -53.95 v 55.71 h 53.95 v -55.71"
         style="fill:#33535f;fill-opacity:1;fill-rule:nonzero;stroke:none"
         id="path344" />
      <path
         d="m 3356.74,2770.94 h -194.41 v 55.71 h 194.41 v -55.71"
         style="fill:#dadbd8;fill-opacity:1;fill-rule:nonzero;stroke:none"
         id="path346" />
      <path
         d="M 4969.36,772.301 H 3455.2 V 914.23 h 96.94 V 869.262 H 5033.7 l 2.09,-53.422 -66.43,-43.539"
         style="fill:#20353d;fill-opacity:1;fill-rule:nonzero;stroke:none"
         id="path348" />
      <path
         d="m 3552.14,914.23 h -96.94 v 511.56 h 96.94 V 914.23 m 0,567.28 h -96.94 v 289.47 c 23.66,-51.17 55.47,-97.09 93.98,-136.33 0.98,-1.13 1.97,-2.25 2.96,-3.38 v -149.76 m -40.23,266.41 c -4.74,9.32 -9.18,18.85 -13.31,28.56 -10.45,24.57 -18.56,49.56 -24.43,74.71 h 77.97 v -68.45 L 3511.88,1748 c 0.01,-0.03 0.02,-0.05 0.03,-0.08"
         style="fill:#0f191d;fill-opacity:1;fill-rule:nonzero;stroke:none"
         id="path350" />
      <path
         d="m 3455.2,1425.79 h 96.9414 v 55.7227 H 3455.2 Z"
         style="fill:#20353d;fill-opacity:1;fill-rule:nonzero;stroke:none"
         id="path352" />
      <path
         d="m 3557.15,874.262 h 1583.26 v 1136.37 H 3557.15 Z"
         style="fill:#dadbd8;fill-opacity:1;fill-rule:nonzero;stroke:none"
         id="path354" />
      <path
         d="M 3562.14,879.262 H 5135.41 V 2005.63 H 3562.14 V 879.262 m 1583.28,-10 H 3552.14 V 2015.63 H 5145.42 V 869.262"
         style="fill:#17282f;fill-opacity:1;fill-rule:nonzero;stroke:none"
         id="path356" />
      <path
         d="m 3857.7,1835.21 h 256.051 v 54.0195 H 3857.7 Z"
         style="fill:#33535f;fill-opacity:1;fill-rule:nonzero;stroke:none"
         id="path358" />
      <path
         d="M 3985.73,1593.22 H 3857.7 v 54.03 h 128.03 v -54.03"
         style="fill:#f2575d;fill-opacity:1;fill-rule:nonzero;stroke:none"
         id="path360" />
      <path
         d="m 3954.05,1471.52 h 180.258 v 54.0313 H 3954.05 Z"
         style="fill:#33535f;fill-opacity:1;fill-rule:nonzero;stroke:none"
         id="path362" />
      <path
         d="m 4162.99,1471.52 h 105.027 v 54.0313 H 4162.99 Z"
         style="fill:#33535f;fill-opacity:1;fill-rule:nonzero;stroke:none"
         id="path364" />
      <path
         d="m 4134.32,1352.87 h -180.27 v 54.03 h 180.27 v -54.03"
         style="fill:#33535f;fill-opacity:1;fill-rule:nonzero;stroke:none"
         id="path366" />
      <path
         d="m 4023.55,1234.54 h -180.27 v 54.03 h 180.27 v -54.03"
         style="fill:#f2575d;fill-opacity:1;fill-rule:nonzero;stroke:none"
         id="path368" />
      <path
         d="m 4023.55,1116.21 h -84.22 v 54.03 h 84.22 v -54.03"
         style="fill:#33535f;fill-opacity:1;fill-rule:nonzero;stroke:none"
         id="path370" />
      <path
         d="m 4076.01,995.68 h -136.68 v 54.02 h 136.68 v -54.02"
         style="fill:#33535f;fill-opacity:1;fill-rule:nonzero;stroke:none"
         id="path372" />
      <path
         d="M 4286.42,1116.21 H 4056.8 v 54.03 h 229.62 v -54.03"
         style="fill:#33535f;fill-opacity:1;fill-rule:nonzero;stroke:none"
         id="path374" />
      <path
         d="m 4337.01,995.66 h -229.62 v 54.03 h 229.62 v -54.03"
         style="fill:#33535f;fill-opacity:1;fill-rule:nonzero;stroke:none"
         id="path376" />
      <path
         d="m 4890.28,995.66 h -271.62 v 54.03 h 271.62 v -54.03"
         style="fill:#33535f;fill-opacity:1;fill-rule:nonzero;stroke:none"
         id="path378" />
      <path
         d="m 4564.82,995.66 h -190.05 v 54.03 h 190.05 v -54.03"
         style="fill:#33535f;fill-opacity:1;fill-rule:nonzero;stroke:none"
         id="path380" />
      <path
         d="m 4618.9,1116.21 h -301.01 v 54.03 h 301.01 v -54.03"
         style="fill:#33535f;fill-opacity:1;fill-rule:nonzero;stroke:none"
         id="path382" />
      <path
         d="m 4819.67,1116.21 h -167.56 v 54.03 h 167.56 v -54.03"
         style="fill:#ffffff;fill-opacity:1;fill-rule:nonzero;stroke:none"
         id="path384" />
      <path
         d="m 4350.93,1352.87 h -187.94 v 54.03 h 187.94 v -54.03"
         style="fill:#33535f;fill-opacity:1;fill-rule:nonzero;stroke:none"
         id="path386" />
      <path
         d="m 4936.96,1471.52 h -636.11 v 54.03 h 636.11 v -54.03"
         style="fill:#33535f;fill-opacity:1;fill-rule:nonzero;stroke:none"
         id="path388" />
      <path
         d="m 3857.7,1720.66 h 428.293 v 54.0313 H 3857.7 Z"
         style="fill:#33535f;fill-opacity:1;fill-rule:nonzero;stroke:none"
         id="path390" />
      <path
         d="m 4328.73,1720.66 h 586.441 v 54.0313 H 4328.73 Z"
         style="fill:#33535f;fill-opacity:1;fill-rule:nonzero;stroke:none"
         id="path392" />
      <path
         d="m 4342.28,1835.21 h -188.53 v 54.02 h 188.53 v -54.02"
         style="fill:#ffffff;fill-opacity:1;fill-rule:nonzero;stroke:none"
         id="path394" />
      <path
         d="m 3711.84,1835.21 h 52.3203 v 54.0195 H 3711.84 Z"
         style="fill:#33535f;fill-opacity:1;fill-rule:nonzero;stroke:none"
         id="path396" />
      <path
         d="m 3711.84,1716.98 h 52.3203 v 54.0313 H 3711.84 Z"
         style="fill:#33535f;fill-opacity:1;fill-rule:nonzero;stroke:none"
         id="path398" />
      <path
         d="m 3711.84,1598.76 h 52.3203 v 54.0273 H 3711.84 Z"
         style="fill:#33535f;fill-opacity:1;fill-rule:nonzero;stroke:none"
         id="path400" />
      <path
         d="m 3711.84,1480.54 h 52.3203 v 54.0313 H 3711.84 Z"
         style="fill:#33535f;fill-opacity:1;fill-rule:nonzero;stroke:none"
         id="path402" />
      <path
         d="m 3764.16,1362.31 h -52.32 v 54.03 h 52.32 v -54.03"
         style="fill:#33535f;fill-opacity:1;fill-rule:nonzero;stroke:none"
         id="path404" />
      <path
         d="m 3764.16,1244.09 h -52.32 v 54.03 h 52.32 v -54.03"
         style="fill:#33535f;fill-opacity:1;fill-rule:nonzero;stroke:none"
         id="path406" />
      <path
         d="m 3764.16,1125.87 h -52.32 v 54.03 h 52.32 v -54.03"
         style="fill:#33535f;fill-opacity:1;fill-rule:nonzero;stroke:none"
         id="path408" />
      <path
         d="m 3764.16,1007.65 h -52.32 v 54.02 h 52.32 v -54.02"
         style="fill:#33535f;fill-opacity:1;fill-rule:nonzero;stroke:none"
         id="path410" />
      <path
         d="m 2703.8,455.359 -551.24,2.223 20.07,335.117 486.16,61.762 c 0,0 65.08,-299.141 45.01,-399.102"
         style="fill:#20353d;fill-opacity:1;fill-rule:nonzero;stroke:none"
         id="path412" />
      <path
         d="m 2084.84,854.461 c 0,0 21.32,-397.731 -67.81,-534.473 l 605.43,-14.898 c 0,0 47.02,232.289 36.33,549.371 h -573.95"
         style="fill:#f2575d;fill-opacity:1;fill-rule:nonzero;stroke:none"
         id="path414" />
      <path
         d="m 2657.16,777.449 c 0,-1.429 -126.02,-2.597 -281.45,-2.597 -155.49,0 -281.49,1.168 -281.49,2.597 0,1.442 126,2.61 281.49,2.61 155.43,0 281.45,-1.168 281.45,-2.61"
         style="fill:#17282f;fill-opacity:1;fill-rule:nonzero;stroke:none"
         id="path416" />
      <path
         d="m 2589.86,641.359 c 0,-1.437 -100.73,-2.597 -224.96,-2.597 -124.28,0 -224.99,1.16 -224.99,2.597 0,1.442 100.71,2.61 224.99,2.61 124.23,0 224.96,-1.168 224.96,-2.61"
         style="fill:#17282f;fill-opacity:1;fill-rule:nonzero;stroke:none"
         id="path418" />
      <path
         d="m 2594.8,567.059 c 0,-1.438 -100.73,-2.61 -224.96,-2.61 -124.27,0 -224.98,1.172 -224.98,2.61 0,1.433 100.71,2.601 224.98,2.601 124.23,0 224.96,-1.168 224.96,-2.601"
         style="fill:#17282f;fill-opacity:1;fill-rule:nonzero;stroke:none"
         id="path420" />
      <path
         d="m 2580.67,492.75 c 0,-1.441 -100.73,-2.598 -224.96,-2.598 -124.27,0 -224.98,1.157 -224.98,2.598 0,1.441 100.71,2.609 224.98,2.609 124.23,0 224.96,-1.168 224.96,-2.609"
         style="fill:#17282f;fill-opacity:1;fill-rule:nonzero;stroke:none"
         id="path422" />
      <path
         d="m 2010.67,447.91 h -74.53 l 0.16,1.34 h 74.36 c 0,-0.449 0.01,-0.898 0.01,-1.34"
         style="fill:#a7a9a8;fill-opacity:1;fill-rule:nonzero;stroke:none"
         id="path424" />
      <path
         d="m 2010.66,449.25 h -74.36 l 48.47,397.762 c 0,0 25.68,-291.84 25.89,-397.762"
         style="fill:#20353d;fill-opacity:1;fill-rule:nonzero;stroke:none"
         id="path426" />
      <path
         d="m 1806.34,847.012 c 0,0 21.33,-397.731 -67.81,-534.473 l 199.33,0.063 c 0,0 57.6,217.328 46.91,534.41 h -178.43"
         style="fill:#dadbd8;fill-opacity:1;fill-rule:nonzero;stroke:none"
         id="path428" />
      <path
         d="m 4593.75,2576.61 335.21,385.4 -337.56,245.22 264.91,155.91 c 0,0 415.5,-252.53 410.16,-404.06 -4.86,-138.01 -528.62,-487.12 -528.62,-487.12 l -144.1,104.65"
         style="fill:#f9a78d;fill-opacity:1;fill-rule:nonzero;stroke:none"
         id="path430" />
      <path
         d="m 3528.81,2189.92 c -73.36,-120.72 -89.6,-273.83 -30.21,-413.44 47.41,-111.45 135.4,-197.78 247.74,-243.07 112.34,-45.29 235.59,-44.11 347.05,3.31 111.47,47.41 197.79,135.39 243.07,247.74 45.29,112.33 44.12,235.59 -3.3,347.05 -47.41,111.46 -135.4,197.79 -247.74,243.07 -112.34,45.3 -235.59,44.12 -347.05,-3.3 -90.48,-38.49 -162.02,-103.12 -209.56,-181.36 m 801.93,-488.78 c -50.96,-83.87 -127.62,-153.12 -224.61,-194.38 -119.45,-50.82 -251.55,-52.07 -371.95,-3.54 -120.42,48.54 -214.71,141.05 -265.53,260.52 -104.91,246.59 10.37,532.57 256.98,637.49 119.46,50.81 251.56,52.07 371.97,3.54 120.4,-48.54 214.69,-141.05 265.51,-260.52 63.64,-149.61 46.24,-313.75 -32.37,-443.11"
         style="fill:#f2575d;fill-opacity:1;fill-rule:nonzero;stroke:none"
         id="path432" />
      <path
         d="m 3915.95,1467.71 c -51.12,0 -102.24,8.17 -151.79,24.53 -10.07,3.32 -20.06,6.98 -29.98,10.98 -7.55,3.04 -15,6.26 -22.34,9.64 -57.03,26.3 -107.59,62.77 -149.7,107.47 -3.38,3.59 -6.72,7.24 -10,10.94 -0.99,1.13 -1.98,2.25 -2.96,3.38 46.26,-47.14 102.18,-84.65 165.29,-110.09 58.75,-23.68 120.27,-35.5 181.76,-35.5 64.53,0 129.03,13.03 190.19,39.05 96.99,41.26 173.65,110.51 224.61,194.37 78.61,129.37 96.01,293.5 32.37,443.12 -20.28,47.68 -47.49,91.07 -80.53,129.09 42.01,-42.82 76.06,-93.58 100.24,-150.44 26.29,-61.8 38.75,-126.08 38.78,-189.37 0.03,-62.11 -11.92,-123.28 -34.53,-180.19 -7.34,-18.5 -15.81,-36.54 -25.36,-54.03 -3.6,-6.58 -7.36,-13.1 -11.26,-19.52 -45.92,-75.57 -112.7,-139.27 -196.43,-181.32 -9.19,-4.62 -18.59,-8.98 -28.18,-13.06 -42.08,-17.9 -85.74,-29.65 -129.88,-35.24 -20.03,-2.54 -40.17,-3.81 -60.3,-3.81"
         style="fill:#cc4341;fill-opacity:1;fill-rule:nonzero;stroke:none"
         id="path434" />
      <path
         d="m 3573.09,1656.79 c -39.51,40.09 -71.51,87.68 -94.2,141.03 -59.39,139.61 -43.15,292.73 30.21,413.44 47.54,78.24 119.08,142.88 209.56,181.36 57.08,24.28 117.24,36.44 177.46,36.44 57.37,0 114.78,-11.04 169.59,-33.14 67.81,-27.33 126.75,-69.62 173.25,-123.36 -43.03,43.65 -94.97,78.41 -153.54,102.02 -16.25,6.55 -32.75,12.14 -49.39,16.75 -39.47,10.92 -79.85,16.39 -120.2,16.39 -40.38,0 -80.73,-5.47 -120.15,-16.39 -19.37,-5.37 -38.51,-12.05 -57.31,-20.05 -90.48,-38.49 -162.02,-103.12 -209.56,-181.36 -21.12,-34.75 -37.51,-72.2 -48.72,-111.23 -5.24,-18.27 -9.35,-36.87 -12.28,-55.72 -3.56,-22.85 -5.38,-46.04 -5.4,-69.38 -0.02,-59.18 11.6,-119.3 36.19,-177.11 4.13,-9.71 8.57,-19.24 13.31,-28.56 14.67,-33.85 36.65,-62.8 53.59,-82.12 2.49,-3.04 5.02,-6.05 7.59,-9.01"
         style="fill:#cc4341;fill-opacity:1;fill-rule:nonzero;stroke:none"
         id="path436" />
      <path
         d="m 3509.1,2211.26 c -73.36,-120.71 -89.6,-273.83 -30.21,-413.44 47.41,-111.45 135.4,-197.78 247.74,-243.06 112.34,-45.3 235.59,-44.12 347.05,3.3 111.47,47.41 197.79,135.39 243.07,247.75 45.29,112.33 44.12,235.59 -3.3,347.05 -47.41,111.45 -135.4,197.78 -247.74,243.06 -112.34,45.3 -235.59,44.12 -347.05,-3.3 -90.48,-38.48 -162.02,-103.12 -209.56,-181.36 m 801.93,-488.78 c -50.96,-83.86 -127.62,-153.11 -224.61,-194.37 -119.45,-50.82 -251.55,-52.08 -371.95,-3.55 -120.42,48.54 -214.71,141.06 -265.53,260.52 -104.91,246.6 10.37,532.58 256.98,637.49 119.46,50.82 251.56,52.08 371.96,3.54 120.41,-48.53 214.7,-141.05 265.52,-260.51 63.64,-149.62 46.24,-313.75 -32.37,-443.12"
         style="fill:#f2575d;fill-opacity:1;fill-rule:nonzero;stroke:none"
         id="path438" />
      <path
         d="m 5017.75,2615.82 19.09,-29.66 c 17.02,-26.45 -3.85,-69.04 -41.21,-86.32 l -634.35,-388.37 -59.16,86.56 618.33,432.97 c 39.93,30.29 75.39,18.87 97.3,-15.18"
         style="fill:#f2575d;fill-opacity:1;fill-rule:nonzero;stroke:none"
         id="path440" />
      <path
         d="m 3916.01,2379.14 c -0.02,-0.18 -2.78,-0.26 -8,-0.24 -5.23,-0.21 -12.93,0.65 -22.82,-0.19 -19.78,-0.47 -48.43,-3.98 -82.5,-13.45 -17.06,-4.65 -35.24,-11.44 -54.37,-19.54 -18.8,-8.84 -38.83,-18.57 -58.41,-31.38 -19.74,-12.47 -39.7,-26.88 -58.69,-43.78 -19.07,-16.77 -37.81,-35.42 -54.47,-56.61 -16.77,-21.07 -30.9,-43.36 -42.53,-65.94 -11.39,-22.72 -20.06,-45.72 -26.86,-68.06 -12.85,-44.93 -17.37,-87.24 -16.43,-122.58 0.81,-35.36 5.46,-63.82 10.16,-83.05 1.86,-9.75 4.51,-17.01 5.66,-22.12 1.33,-5.05 1.96,-7.74 1.79,-7.8 -0.17,-0.05 -1.13,2.52 -2.79,7.49 -1.48,5.02 -4.46,12.22 -6.63,21.94 -5.33,19.19 -10.58,47.77 -11.88,83.45 -1.41,35.65 2.75,78.47 15.51,124.01 6.75,22.64 15.43,45.97 26.91,69.02 11.72,22.91 26.02,45.54 43.03,66.9 16.87,21.45 35.85,40.29 55.17,57.2 19.26,17.03 39.48,31.51 59.5,44 19.85,12.82 40.17,22.52 59.23,31.27 19.4,8.01 37.83,14.66 55.12,19.13 34.53,9.11 63.5,12.08 83.43,11.92 9.96,0.54 17.69,-0.66 22.92,-0.78 5.23,-0.36 7.96,-0.63 7.95,-0.81"
         style="fill:#ffffff;fill-opacity:1;fill-rule:nonzero;stroke:none"
         id="path442" />
      <path
         d="m 4295.09,1859.51 c -1.19,0.38 7.78,22.29 14.1,59.54 0.72,4.69 1.47,9.57 2.24,14.64 0.74,5.09 0.92,10.46 1.44,15.98 1.26,11.03 1.05,22.89 1.21,35.34 -0.68,24.9 -3.57,52.24 -9.97,80.29 -6.77,27.98 -16.38,53.74 -26.86,76.34 -5.7,11.08 -10.8,21.79 -16.85,31.11 -2.92,4.7 -5.47,9.43 -8.41,13.66 -2.95,4.19 -5.8,8.23 -8.53,12.1 -22.26,30.53 -40.05,46.14 -39.16,47.01 0.25,0.27 4.61,-3.65 12.33,-10.99 3.93,-3.61 8.57,-8.18 13.42,-14 4.92,-5.75 10.93,-11.98 16.37,-19.83 2.85,-3.85 5.82,-7.87 8.9,-12.04 3.06,-4.22 5.73,-8.95 8.77,-13.66 6.27,-9.34 11.59,-20.1 17.48,-31.27 10.86,-22.78 20.75,-48.87 27.61,-77.24 6.5,-28.44 9.27,-56.19 9.7,-81.42 -0.29,-12.62 -0.25,-24.63 -1.71,-35.78 -0.61,-5.57 -0.9,-11 -1.75,-16.13 -0.9,-5.11 -1.77,-10.03 -2.6,-14.75 -1.37,-9.45 -3.98,-17.71 -5.82,-25.05 -1.74,-7.37 -3.87,-13.53 -5.78,-18.51 -3.63,-10.02 -5.79,-15.47 -6.13,-15.34"
         style="fill:#ffffff;fill-opacity:1;fill-rule:nonzero;stroke:none"
         id="path444" />
      <path
         d="m 3994.75,2203.76 c 0.97,-1.07 -64.45,-62.34 -146.1,-136.85 -81.69,-74.53 -148.66,-134.07 -149.63,-133.01 -0.97,1.07 64.43,62.33 146.11,136.86 81.66,74.51 148.65,134.06 149.62,133"
         style="fill:#ffffff;fill-opacity:1;fill-rule:nonzero;stroke:none"
         id="path446" />
      <path
         d="m 4119.57,2124.9 c 0.11,-0.14 -1.49,-1.68 -4.65,-4.47 -3.61,-3.1 -8.24,-7.09 -13.97,-12.02 -12.75,-10.73 -30.33,-25.54 -51.85,-43.65 -43.81,-36.81 -104.18,-87.83 -170.25,-144.89 -66.07,-57.1 -125.31,-109.44 -168.09,-147.44 -21.05,-18.66 -38.25,-33.91 -50.71,-44.96 -5.71,-4.95 -10.33,-8.96 -13.92,-12.08 -3.22,-2.72 -4.97,-4.08 -5.1,-3.95 -0.12,0.13 1.39,1.76 4.39,4.72 3.42,3.31 7.82,7.56 13.26,12.81 11.58,11.05 28.53,26.83 49.61,46.19 42.17,38.72 101.05,91.52 167.16,148.65 66.09,57.09 126.88,107.69 171.31,143.79 22.21,18.05 40.29,32.52 52.9,42.38 5.99,4.62 10.83,8.36 14.6,11.27 3.37,2.53 5.19,3.79 5.31,3.65"
         style="fill:#ffffff;fill-opacity:1;fill-rule:nonzero;stroke:none"
         id="path448" />
      <path
         d="m 4026.27,2015.63 h -35.41 c 2.93,2.48 5.82,4.93 8.67,7.34 h 35.27 l -8.53,-7.34 m -42.61,0 h -161.58 l 8.51,7.34 h 161.89 c -2.91,-2.41 -5.85,-4.86 -8.82,-7.34 m 115.87,63.06 h -33.88 c 14.11,11.88 25.99,21.89 35.3,29.72 5.73,4.93 10.36,8.92 13.97,12.02 3.16,2.79 4.76,4.33 4.65,4.47 -0.01,0 -0.02,0.01 -0.03,0.01 -0.27,0 -2.08,-1.26 -5.28,-3.66 -3.77,-2.91 -8.61,-6.65 -14.6,-11.27 -9.91,-7.75 -23.2,-18.35 -39.22,-31.29 h -165.27 l 283.81,244.85 c 0,0 52.96,-40.5 84.08,-81.41 3.18,-4.39 6.29,-8.85 9.31,-13.36 0.18,-0.28 0.35,-0.56 0.53,-0.84 l -28.45,-24.49 c -4.89,6.59 -10.07,12.03 -14.4,17.09 -4.85,5.82 -9.49,10.39 -13.42,14 -7.48,7.11 -11.81,11.01 -12.29,11.01 -0.02,0 -0.03,-0.01 -0.04,-0.02 -0.86,-0.85 15.93,-15.63 37.33,-44.51 l -142.1,-122.32"
         style="fill:#57666b;fill-opacity:1;fill-rule:nonzero;stroke:none"
         id="path450" />
      <path
         d="m 4034.8,2022.97 h -35.27 c 18.13,15.34 34.8,29.37 49.57,41.79 5.81,4.89 11.33,9.53 16.55,13.93 h 33.88 l -64.73,-55.72 m -42.32,0 h -161.89 l 64.58,55.72 h 165.27 c -4.36,-3.53 -8.93,-7.23 -13.68,-11.09 -16.12,-13.1 -34.39,-28.1 -54.28,-44.63"
         style="fill:#6a858c;fill-opacity:1;fill-rule:nonzero;stroke:none"
         id="path452" />
      <path
         d="m 3552.14,1682.91 c -15.1,20.34 -28.57,42.06 -40.23,65.01 -0.01,0.03 -0.02,0.05 -0.03,0.08 l 40.26,34.74 v -99.83"
         style="fill:#4f5a5f;fill-opacity:1;fill-rule:nonzero;stroke:none"
         id="path454" />
      <path
         d="m 3590.24,1640.29 c 0,0 -0.02,0.01 -0.05,0.04 -0.68,0.62 -1.35,1.24 -2.03,1.86 -3.75,3.51 -12.26,11.74 -22.66,23.61 -1.13,1.37 -2.25,2.75 -3.36,4.14 v 121.43 l 248.35,214.26 h 161.19 c -29.67,-24.83 -62.25,-52.47 -96.23,-81.82 -66.11,-57.13 -124.99,-109.93 -167.16,-148.65 -21.08,-19.36 -38.03,-35.14 -49.61,-46.19 -5.44,-5.25 -9.84,-9.5 -13.26,-12.81 -3,-2.96 -4.51,-4.59 -4.39,-4.72 0.01,-0.01 0.02,-0.01 0.03,-0.01 0.25,0 1.99,1.36 5.07,3.96 3.59,3.12 8.21,7.13 13.92,12.08 12.46,11.05 29.66,26.3 50.71,44.96 42.78,38 102.02,90.34 168.09,147.44 35.63,30.77 69.6,59.79 100.21,85.76 h 35.6 l -135.22,-116.4 h -21.74 v -18.71 l -115.6,-99.51 h -30.26 v -26.05 l -121.6,-104.67 m 121.6,248.94 v -54.02 h 52.32 v 54.02 h -52.32"
         style="fill:#e5e5e3;fill-opacity:1;fill-rule:nonzero;stroke:none"
         id="path456" />
      <path
         d="m 3562.14,1669.94 c -3.41,4.26 -6.74,8.58 -10,12.97 v 99.83 l 10,8.63 v -121.43 m 452.52,335.69 h -35.6 c 3.99,3.39 7.93,6.72 11.8,10 h 35.41 l -11.61,-10 m -42.98,0 h -161.19 l 11.59,10 h 161.58 c -3.93,-3.28 -7.93,-6.62 -11.98,-10"
         style="fill:#57666b;fill-opacity:1;fill-rule:nonzero;stroke:none"
         id="path458" />
      <path
         d="m 3857.7,1870.52 v 18.71 h 21.74 l -21.74,-18.71"
         style="fill:#6a858c;fill-opacity:1;fill-rule:nonzero;stroke:none"
         id="path460" />
      <path
         d="m 3711.84,1835.21 h 52.3203 v 54.0195 H 3711.84 Z"
         style="fill:#6a858c;fill-opacity:1;fill-rule:nonzero;stroke:none"
         id="path462" />
      <path
         d="m 3711.84,1744.96 v 26.05 h 30.26 l -30.26,-26.05"
         style="fill:#6a858c;fill-opacity:1;fill-rule:nonzero;stroke:none"
         id="path464" />
      <path
         d="m 3565.5,1665.8 c -16.94,19.32 -38.92,48.27 -53.59,82.12 15,-29.51 32.97,-56.99 53.59,-82.12"
         style="fill:#dc7171;fill-opacity:1;fill-rule:nonzero;stroke:none"
         id="path466" />
      <path
         d="m 3590.19,1640.33 c -0.17,0.16 -0.88,0.79 -2.03,1.86 0.68,-0.62 1.35,-1.24 2.03,-1.86 m 682.18,588.44 c -3.02,4.51 -6.13,8.97 -9.31,13.36 3.4,-4.47 6.54,-8.94 9.31,-13.36"
         style="fill:#f57e87;fill-opacity:1;fill-rule:nonzero;stroke:none"
         id="path468" />
      <path
         d="m 4241.63,2201.01 c -21.4,28.88 -38.19,43.66 -37.33,44.51 0.01,0.01 0.02,0.02 0.04,0.02 0.48,0 4.81,-3.9 12.29,-11.01 3.93,-3.61 8.57,-8.18 13.42,-14 4.33,-5.06 9.51,-10.5 14.4,-17.09 l -2.82,-2.43"
         style="fill:#ffffff;fill-opacity:1;fill-rule:nonzero;stroke:none"
         id="path470" />
      <path
         d="m 3641.06,1711.43 c -0.01,0 -0.02,0 -0.03,0.01 -0.12,0.13 1.39,1.76 4.39,4.72 3.42,3.31 7.82,7.56 13.26,12.81 11.58,11.05 28.53,26.83 49.61,46.19 42.17,38.72 101.05,91.52 167.16,148.65 33.98,29.35 66.56,56.99 96.23,81.82 4.05,3.38 8.05,6.72 11.98,10 2.97,2.48 5.91,4.93 8.82,7.34 19.89,16.53 38.16,31.53 54.28,44.63 4.75,3.86 9.32,7.56 13.68,11.09 16.02,12.94 29.31,23.54 39.22,31.29 5.99,4.62 10.83,8.36 14.6,11.27 3.2,2.4 5.01,3.66 5.28,3.66 0.01,0 0.02,-0.01 0.03,-0.01 0.11,-0.14 -1.49,-1.68 -4.65,-4.47 -3.61,-3.1 -8.24,-7.09 -13.97,-12.02 -9.31,-7.83 -21.19,-17.84 -35.3,-29.72 -5.22,-4.4 -10.74,-9.04 -16.55,-13.93 -14.77,-12.42 -31.44,-26.45 -49.57,-41.79 -2.85,-2.41 -5.74,-4.86 -8.67,-7.34 -3.87,-3.28 -7.81,-6.61 -11.8,-10 -30.61,-25.97 -64.58,-54.99 -100.21,-85.76 -66.07,-57.1 -125.31,-109.44 -168.09,-147.44 -21.05,-18.66 -38.25,-33.91 -50.71,-44.96 -5.71,-4.95 -10.33,-8.96 -13.92,-12.08 -3.08,-2.6 -4.82,-3.96 -5.07,-3.96"
         style="fill:#ffffff;fill-opacity:1;fill-rule:nonzero;stroke:none"
         id="path472" />
      <path
         d="m 3694.81,1569 c 0,0 -0.01,0.01 -0.03,0.01 -10.07,4.97 -19.93,10.3 -29.54,15.96 -0.64,0.53 -1.29,1.07 -1.94,1.64 l 48.54,42.27 v -30.12 h 17.19 L 3694.81,1569"
         style="fill:#e5e5e3;fill-opacity:1;fill-rule:nonzero;stroke:none"
         id="path474" />
      <path
         d="m 4208.4,2015.63 h -52.51 l 61.08,53.2 v -45.74 l -8.57,-7.46 m 72.51,63.06 h -52.62 l 55.44,48.28 c 4.6,-10.97 8.94,-22.56 12.81,-34.69 l -15.63,-13.59"
         style="fill:#57666b;fill-opacity:1;fill-rule:nonzero;stroke:none"
         id="path476" />
      <path
         d="m 4216.97,2023.09 v 45.74 l 11.32,9.86 h 52.62 l -63.94,-55.6"
         style="fill:#6a858c;fill-opacity:1;fill-rule:nonzero;stroke:none"
         id="path478" />
      <path
         d="m 3764.16,1629.31 v 23.48 h -24.87 l 118.41,103.13 v -35.26 h 11.51 l -105.05,-91.35 m 167.18,145.38 h -52.09 l 69.49,60.52 h 52.18 l -69.58,-60.52 m 131.71,114.54 h -52.28 l 133.64,116.4 h 52.49 l -133.85,-116.4"
         style="fill:#e5e5e3;fill-opacity:1;fill-rule:nonzero;stroke:none"
         id="path480" />
      <path
         d="m 4196.9,2005.63 h -52.49 l 11.48,10 h 52.51 l -11.5,-10"
         style="fill:#57666b;fill-opacity:1;fill-rule:nonzero;stroke:none"
         id="path482" />
      <path
         d="m 4000.92,1835.21 h -52.18 l 62.03,54.02 h 52.28 l -62.13,-54.02"
         style="fill:#6a858c;fill-opacity:1;fill-rule:nonzero;stroke:none"
         id="path484" />
      <path
         d="m 3869.21,1720.66 h -11.51 v 35.26 l 21.55,18.77 h 52.09 l -62.13,-54.03"
         style="fill:#6a858c;fill-opacity:1;fill-rule:nonzero;stroke:none"
         id="path486" />
      <path
         d="m 3729.03,1598.76 h -17.19 v 30.12 l 27.45,23.91 h 24.87 v -23.48 l -35.13,-30.55"
         style="fill:#6a858c;fill-opacity:1;fill-rule:nonzero;stroke:none"
         id="path488" />
      <path
         d="m 3694.78,1569.01 c -0.73,0.17 -14.45,3.53 -29.54,15.96 9.61,-5.66 19.47,-10.99 29.54,-15.96"
         style="fill:#f57e87;fill-opacity:1;fill-rule:nonzero;stroke:none"
         id="path490" />
      <path
         d="m 4300.77,2095.96 c -3.97,12.05 -8.41,23.55 -13.13,34.42 l 25.81,22.48 v 0 c 3.37,-7.93 6.51,-15.93 9.42,-23.97 0.81,-3.34 1.69,-7.12 2.63,-11.42 l -24.73,-21.51"
         style="fill:#57666b;fill-opacity:1;fill-rule:nonzero;stroke:none"
         id="path492" />
      <path
         d="m 4322.87,2128.89 c -2.91,8.04 -6.05,16.04 -9.42,23.97 0,0 0.13,0.23 0.43,0.23 0.98,0 3.69,-2.52 8.99,-24.2"
         style="fill:#f57e87;fill-opacity:1;fill-rule:nonzero;stroke:none"
         id="path494" />
      <path
         d="m 4296.54,2092.28 c -3.87,12.13 -8.21,23.72 -12.81,34.69 l 3.91,3.41 c 4.72,-10.87 9.16,-22.37 13.13,-34.42 l -4.23,-3.68"
         style="fill:#ffffff;fill-opacity:1;fill-rule:nonzero;stroke:none"
         id="path496" />
      <path
         d="m 4593.75,2576.61 c 0,0 -195.67,-215.47 -200.05,-223.54 -4.38,-8.07 -57.14,-132.48 -44.08,-157.7 13.05,-25.21 111,-113.71 111,-113.71 0,0 34.95,15.14 1.89,74.27 -33.07,59.12 -33.07,59.12 -33.07,59.12 l 17.77,59.69 c 0,0 26.41,-75.67 41.69,-92.26 15.28,-16.59 75.88,-44.99 91.09,-30.45 15.22,14.55 17.51,32.36 17.51,32.36 0,0 41.46,-33.06 70.83,19.44 0,0 36.86,5.71 52.71,31.53 15.85,25.82 13.78,75.8 13.78,75.8 0,0 -12.25,23.86 -35.86,8.1 -23.62,-15.77 -34.91,-46.21 -34.91,-46.21 l -17.12,22.81 c 0,0 7.23,52.81 26.08,89.05 11.88,22.83 88.73,72.59 97.81,112.11 7.69,33.5 -59.35,55.7 -93.67,53.84 -5.17,-0.28 -10.27,-1.33 -15.12,-3.11 l -68.28,28.86"
         style="fill:#f9a78d;fill-opacity:1;fill-rule:nonzero;stroke:none"
         id="path498" />
      <path
         d="m 4576.66,2301.42 c -0.18,-0.01 -0.27,-2.09 -0.01,-5.83 0.25,-3.74 1,-9.15 2.67,-15.68 3.23,-12.99 11.04,-30.61 25.45,-45.54 14.41,-14.94 31.75,-23.38 44.61,-27.07 6.47,-1.9 11.84,-2.84 15.57,-3.22 3.74,-0.4 5.81,-0.38 5.83,-0.21 0.08,0.55 -8.23,1.16 -20.77,5.38 -12.48,4.12 -29.16,12.62 -43.16,27.13 -13.99,14.5 -21.89,31.48 -25.56,44.08 -3.77,12.69 -4.08,21.02 -4.63,20.96"
         style="fill:#f57f62;fill-opacity:1;fill-rule:nonzero;stroke:none"
         id="path500" />
      <path
         d="m 4510.95,2307.97 c -0.2,-0.02 -0.17,-2.23 0.06,-6.24 0.09,-2.01 0.28,-4.46 0.75,-7.28 0.45,-2.81 0.79,-6.06 1.68,-9.55 1.42,-7.06 3.94,-15.28 7.47,-24.13 3.71,-8.77 8.52,-18.12 14.66,-27.27 6.24,-9.07 13.15,-17 19.95,-23.68 6.91,-6.55 13.63,-11.92 19.67,-15.85 2.91,-2.11 5.81,-3.63 8.26,-5.08 2.44,-1.48 4.65,-2.56 6.49,-3.37 3.64,-1.7 5.68,-2.55 5.77,-2.37 0.26,0.52 -7.81,4.25 -19.35,12.51 -5.81,4.08 -12.28,9.53 -18.98,16.07 -6.57,6.66 -13.29,14.49 -19.42,23.4 -6.02,8.97 -12.78,19.29 -16.55,27.86 -3.61,8.63 -4.33,15.48 -5.98,22.38 -3.42,13.77 -3.91,22.65 -4.48,22.6"
         style="fill:#f57f62;fill-opacity:1;fill-rule:nonzero;stroke:none"
         id="path502" />
      <path
         d="m 4435.96,2323.54 c -0.31,0.1 -1.68,-2.89 -2.34,-8.11 -0.69,-5.19 -0.31,-12.65 2.38,-20.27 3.69,-10.32 7.68,-14.11 10.96,-17.22 3.82,-3.63 6.76,-5.08 6.94,-4.81 0.65,0.64 -10.12,8.33 -15.17,23 -5.35,14.56 -1.87,27.32 -2.77,27.41"
         style="fill:#f57f62;fill-opacity:1;fill-rule:nonzero;stroke:none"
         id="path504" />
      <path
         d="m 5110.61,2984.95 c -0.5,-0.81 -10.7,6.38 -29.28,13.09 -18.37,6.78 -45.91,12.07 -75.53,7.13 -29.75,-4.65 -52.87,-21.08 -67.08,-34.44 -14.4,-13.52 -21.56,-23.71 -22.3,-23.14 -0.27,0.2 1.24,2.92 4.44,7.53 3.21,4.61 8.25,11.03 15.3,18.25 13.8,14.31 37.63,32.06 68.78,36.93 30.78,5.14 59.24,-0.99 77.71,-8.82 9.34,-3.87 16.46,-7.92 21.13,-11.07 4.66,-3.14 7.01,-5.19 6.83,-5.46"
         style="fill:#f57f62;fill-opacity:1;fill-rule:nonzero;stroke:none"
         id="path506" />
      <path
         d="m 4096.47,3876.01 c 0.09,65.55 -0.2,131.46 -11.39,196.05 -11.19,64.58 -33.88,128.34 -74.52,179.77 -6.16,7.8 -53.48,58.17 -62.58,54.19 -6.52,-2.84 28.73,-52.7 27.21,-59.64 -14.42,-66.23 -1.56,-136.1 24.42,-198.7 25.98,-62.61 58.05,-116.1 96.86,-171.67"
         style="fill:#17282f;fill-opacity:1;fill-rule:nonzero;stroke:none"
         id="path508" />
      <path
         d="m 4025.64,4115.94 c -45.49,157.97 -175.34,263.17 -332,213.31 l -14.21,-5.45 c -142.97,-54.87 -219.91,-210.3 -176.71,-357.23 40.19,-136.7 86.36,-287.23 114.53,-358.03 58.34,-146.56 214.42,-112.94 214.42,-112.94 l 97.45,-224.06 309.93,158.89 -213.41,685.51"
         style="fill:#f9a78d;fill-opacity:1;fill-rule:nonzero;stroke:none"
         id="path510" />
      <path
         d="m 3831.98,3494.43 c 0,0 94.92,30.18 169.99,130.28 0,0 4.39,-137.68 -147.64,-180.82 l -22.35,50.54"
         style="fill:#f57f62;fill-opacity:1;fill-rule:nonzero;stroke:none"
         id="path512" />
      <path
         d="m 3607.28,3833.75 c 3.87,-11.25 16.59,-17.26 28.43,-13.44 11.8,3.83 18.27,16.03 14.39,27.29 -3.86,11.25 -16.59,17.28 -28.4,13.45 -11.83,-3.82 -18.29,-16.04 -14.42,-27.3"
         style="fill:#17282f;fill-opacity:1;fill-rule:nonzero;stroke:none"
         id="path514" />
      <path
         d="m 3557.65,3917.52 c 3.66,-1.74 15.07,16.17 37.73,24.79 22.5,8.94 43.58,3.67 44.97,7.39 0.73,1.69 -3.83,5.62 -13.08,8.11 -9.13,2.51 -23.23,2.95 -37.3,-2.52 -14.07,-5.49 -23.93,-15.22 -28.71,-23.15 -4.91,-8.01 -5.37,-13.88 -3.61,-14.62"
         style="fill:#17282f;fill-opacity:1;fill-rule:nonzero;stroke:none"
         id="path516" />
      <path
         d="m 3800.78,3901.62 c 3.87,-11.26 16.6,-17.26 28.42,-13.44 11.81,3.82 18.28,16.02 14.4,27.28 -3.87,11.25 -16.59,17.27 -28.4,13.46 -11.83,-3.83 -18.28,-16.05 -14.42,-27.3"
         style="fill:#17282f;fill-opacity:1;fill-rule:nonzero;stroke:none"
         id="path518" />
      <path
         d="m 3782.84,3993.43 c 3.67,-1.73 15.1,16.18 37.73,24.8 22.5,8.93 43.58,3.67 44.98,7.39 0.72,1.68 -3.8,5.62 -13.08,8.1 -9.13,2.51 -23.23,2.95 -37.3,-2.51 -14.07,-5.5 -23.93,-15.24 -28.72,-23.16 -4.89,-8.01 -5.35,-13.87 -3.61,-14.62"
         style="fill:#17282f;fill-opacity:1;fill-rule:nonzero;stroke:none"
         id="path520" />
      <path
         d="m 3768.4,3788.39 c -0.39,1.32 -15.39,-1.64 -39.31,-7.47 -6,-1.63 -11.91,-2.58 -14.4,0.99 -2.96,3.65 -2.94,10.81 -2.72,18.61 0.07,16.07 0.13,32.91 0.2,50.57 -0.3,71.75 -2.89,129.86 -5.78,129.83 -2.9,-0.04 -4.99,-58.24 -4.68,-129.99 0.22,-17.65 0.41,-34.47 0.62,-50.56 0.34,-7.4 -0.57,-16.29 5.71,-23.83 3.21,-3.72 8.66,-5.22 12.74,-4.8 4.14,0.29 7.42,1.47 10.34,2.4 23.41,7.57 37.68,12.93 37.28,14.25"
         style="fill:#17282f;fill-opacity:1;fill-rule:nonzero;stroke:none"
         id="path522" />
      <path
         d="m 3841.01,3798.3 c -3.77,-1.21 5.61,-25.79 -8.72,-51.29 -14.28,-25.55 -41.52,-32.83 -40.4,-36.35 0.26,-1.66 7.67,-2.53 18.84,1.41 10.98,3.79 25.48,13.35 34.25,28.95 8.72,15.62 8.76,32 5.73,42.4 -3,10.63 -8.08,15.66 -9.7,14.88"
         style="fill:#17282f;fill-opacity:1;fill-rule:nonzero;stroke:none"
         id="path524" />
      <path
         d="m 3748.85,4085.75 c 4.59,-5.3 26.07,6.3 53.85,13.29 27.63,7.54 52.03,7.99 53.44,14.85 0.55,3.25 -5.41,7.6 -16.35,10.24 -10.86,2.65 -26.72,3.05 -43.34,-1.29 -16.61,-4.38 -30.23,-12.5 -38.39,-20.15 -8.24,-7.67 -11.29,-14.39 -9.21,-16.94"
         style="fill:#17282f;fill-opacity:1;fill-rule:nonzero;stroke:none"
         id="path526" />
      <path
         d="m 3538.13,3996.34 c 5.96,-3.61 19.5,7.71 38.15,15.15 18.39,8.1 35.95,9.83 37.54,16.62 0.6,3.21 -3.88,7.41 -12.68,9.61 -8.69,2.23 -21.65,1.8 -34.38,-3.53 -12.73,-5.35 -22.1,-14.3 -26.6,-22.07 -4.6,-7.82 -4.74,-13.95 -2.03,-15.78"
         style="fill:#17282f;fill-opacity:1;fill-rule:nonzero;stroke:none"
         id="path528" />
      <path
         d="m 4055.46,4002.28 c 2.1,2.05 89.71,68.76 125.13,-33.15 35.42,-101.92 -74.21,-116.46 -75.4,-113.6 -1.19,2.87 -49.73,146.75 -49.73,146.75"
         style="fill:#f9a78d;fill-opacity:1;fill-rule:nonzero;stroke:none"
         id="path530" />
      <path
         d="m 4122.9,3904.96 c 0.34,0.48 2.21,-0.62 5.69,-0.95 3.39,-0.33 8.74,0.5 13.36,4.34 9.4,7.69 12.52,27.94 6.63,46.47 -2.96,9.37 -7.98,17.52 -13.8,23.7 -5.7,6.37 -12.34,9.9 -18.09,8.98 -5.83,-0.62 -8.54,-5.2 -8.79,-8.5 -0.37,-3.33 0.98,-5.14 0.5,-5.5 -0.2,-0.36 -2.78,0.94 -3.43,5.44 -0.27,2.17 0.08,4.99 1.8,7.78 1.75,2.83 5,5.1 8.91,6.01 8.05,2.18 17.64,-2.59 24.04,-9.36 6.85,-6.66 12.7,-15.75 16.03,-26.27 6.48,-20.76 2.65,-43.63 -10.6,-53.01 -6.52,-4.36 -13.25,-4.28 -17.18,-2.95 -4.03,1.43 -5.36,3.52 -5.07,3.82"
         style="fill:#f57f62;fill-opacity:1;fill-rule:nonzero;stroke:none"
         id="path532" />
      <path
         d="m 3511.67,4158.25 c -19.63,3.54 11.93,73.88 46.35,106.05 52.03,48.63 140.07,97.49 202.15,100.55 74.74,3.7 142.87,-11.1 198.08,-61.62 55.21,-50.52 92.51,-118.5 114.46,-190.05 6.69,-21.83 12.06,-45.13 6.69,-67.31 -6.65,-27.43 -29.24,-50.91 -17.51,-81.68 4.29,-11.25 4.92,-23.85 -0.08,-34.8 -11.98,-26.21 -41.17,-15.24 -58.02,-0.05 -36,32.45 -54.64,79.41 -72.11,124.61 -12.41,32.12 -24.98,64.98 -26.36,99.4 -0.76,18.73 1.84,37.54 0.05,56.2 -1.79,18.65 -8.94,38.1 -24.48,48.58 -2.53,1.71 -6.39,3.63 -11.14,5.6 -37.51,15.6 -80.6,9.5 -112.56,-15.59 -50.68,-39.8 -138.72,-103.42 -170.99,-92.55 -46.43,15.63 -61.45,30.97 -61.45,30.97 l -13.08,-28.31"
         style="fill:#17282f;fill-opacity:1;fill-rule:nonzero;stroke:none"
         id="path534" />
      <path
         d="m 3357.5,3209.85 c 0,0 -14.55,41.19 34.88,96.64 49.44,55.45 441.82,163.89 441.82,163.89 0,0 142.63,-161.51 266,-51.26 89.83,80.27 93.04,160.45 93.04,160.45 h 354.94 l 44.35,-364.7 -141.57,-0.82 -1093.46,-4.2"
         style="fill:#f2575d;fill-opacity:1;fill-rule:nonzero;stroke:none"
         id="path536" />
      <path
         d="m 4483.69,3579.57 c 0,0 92.61,18.66 177.19,-19.66 142.17,-64.43 389.06,-269.43 389.06,-269.43 l -300.33,-246.55 -208.02,170.65 -57.9,364.99"
         style="fill:#f2575d;fill-opacity:1;fill-rule:nonzero;stroke:none"
         id="path538" />
      <path
         d="m 4612.66,3154.79 c -0.1,-0.15 -1.42,0.54 -3.84,2 -2.42,1.45 -5.99,3.62 -10.36,6.74 -8.83,6.1 -21.26,15.52 -35.31,28.67 -13.98,13.16 -29.89,29.84 -44.49,50.8 -14.57,20.74 -28.23,46.4 -33.09,75.77 -10.37,58.15 -1.23,113.38 17.52,147.42 9.31,17.09 20.66,28.4 29.19,34.98 4.27,3.3 8.12,5.12 10.5,6.62 2.47,1.4 3.79,2.06 3.88,1.9 0.24,-0.42 -4.79,-3.62 -13.11,-10.1 -7.98,-6.93 -18.56,-18.28 -27.21,-35.13 -17.42,-33.46 -25.82,-87.75 -15.65,-144.73 4.72,-28.57 17.77,-53.36 31.91,-74 14.14,-20.75 29.58,-37.5 43.1,-50.87 13.59,-13.35 25.56,-23.14 33.96,-29.7 8.39,-6.6 13.25,-9.99 13,-10.37"
         style="fill:#17282f;fill-opacity:1;fill-rule:nonzero;stroke:none"
         id="path540" />
      <path
         d="m 4541.61,3214.58 c 0,-1.44 -244.44,-3.58 -545.9,-4.79 -301.57,-1.21 -545.97,-1.02 -545.97,0.42 -0.01,1.44 244.38,3.58 545.95,4.79 301.46,1.2 545.91,1.02 545.92,-0.42"
         style="fill:#17282f;fill-opacity:1;fill-rule:nonzero;stroke:none"
         id="path542" />
      <path
         d="m 3229.61,3264.49 c 0.68,-1.51 1.3,-3.03 1.87,-4.58 2.56,-7.05 3.94,-14.5 4.46,-21.97 0.24,-3.43 -0.26,-7.23 0.49,-10.59 0.51,-2.26 2.04,-4.11 2.92,-6.23 5.62,-13.5 4.33,-29.49 3.87,-43.74 -0.51,-16.08 -0.31,-33.14 8.09,-46.86 8.39,-13.73 27.94,-21.87 41.16,-12.7 -2.01,-10.04 5.85,-20.4 15.75,-22.98 9.91,-2.59 20.74,1.54 28.05,8.7 7.32,7.16 11.54,16.95 14.06,26.87 -0.71,-12 11.13,-22.31 23.16,-22.48 12.02,-0.16 23.05,7.83 29.4,18.04 6.35,10.21 8.74,22.36 10.13,34.31 1.39,11.94 4.15,34.32 7.27,45.93 0,0 15.1,-2.42 21.98,-3.08 9.34,-0.89 2.02,-0.2 2.02,-0.2 5.07,4.96 8.88,13.63 14.44,25.07 9.63,19.8 16.96,32.35 24.32,50.33 5.52,13.46 9.09,26.91 0.76,35.67 -20.04,21.09 -59.23,-21.8 -59.23,-21.8 -5.54,14.93 -51.08,17.36 -59.94,-2.53 -3.61,10.95 -2.23,17.3 -11.11,24.67 -8.87,7.36 -21.15,11.16 -32.27,8.12 -11.13,-3.04 -20.22,-13.78 -19.6,-25.29 -9.36,15.1 -28.78,23.22 -46.11,19.27 -10.42,-2.38 -19.63,-9.03 -25.71,-17.75 -3.06,-4.4 -5.24,-9.26 -6.58,-14.44 -0.48,-1.85 -1.29,-4.02 -1.07,-5.95 0.1,-0.96 0.49,-1.79 0.93,-2.62 2.04,-3.82 4.69,-7.2 6.49,-11.19"
         style="fill:#f9a78d;fill-opacity:1;fill-rule:nonzero;stroke:none"
         id="path544" />
      <path
         d="m 3181.53,3293.59 c -9.92,0.35 -20.72,-1.7 -27.34,-9.09 -7.84,-8.77 -9.43,-26.16 -8.53,-37.89 13.74,-2.6 20.85,-3.11 34.6,-5.71 2.9,-0.54 5.32,0.19 7.72,-1.52 6.34,-4.5 5.31,-19.67 7.86,-27.01 4.43,-12.74 20.75,-18.97 33.4,-14.28 12.64,4.68 20.79,18.13 21.43,31.6 0.64,13.48 -5.29,26.65 -13.97,36.98 -13.55,16.13 -34.11,26.16 -55.17,26.92"
         style="fill:#f9a78d;fill-opacity:1;fill-rule:nonzero;stroke:none"
         id="path546" />
      <path
         d="m 3301.85,3301.15 c 2.57,-0.13 2.56,-41.27 -0.03,-91.87 -2.59,-50.62 -6.77,-91.54 -9.34,-91.4 -2.57,0.13 -2.57,41.26 0.02,91.88 2.59,50.6 6.77,91.53 9.35,91.39"
         style="fill:#f57f62;fill-opacity:1;fill-rule:nonzero;stroke:none"
         id="path548" />
      <path
         d="m 3365.02,3292.44 c 2.46,0.11 5.81,-37.34 1.78,-83.39 -3.9,-46.07 -13.61,-82.39 -16.02,-81.86 -2.63,0.53 2.88,37.21 6.72,82.66 3.99,45.43 4.83,82.52 7.52,82.59"
         style="fill:#f57f62;fill-opacity:1;fill-rule:nonzero;stroke:none"
         id="path550" />
      <path
         d="m 3426.75,3283.98 c 2.63,0 3.73,-31.14 -1.11,-68.88 -4.81,-37.68 -10.62,-67.74 -13.05,-67.51 -2.7,0.25 -1,31.14 3.78,68.63 4.8,37.44 7.85,67.78 10.38,67.76"
         style="fill:#f57f62;fill-opacity:1;fill-rule:nonzero;stroke:none"
         id="path552" />
      <path
         d="m 3201.34,3287.16 c -0.07,1.1 6.59,2.58 16.11,-1.76 9.4,-4.07 20.15,-15.06 25.27,-29.57 5.05,-14.63 6.69,-27.23 6.28,-37.84 -1.13,-11.39 -9.39,-14.7 -9.59,-13.23 -0.72,1.04 3.75,4.98 2.99,13.43 -1.11,8.22 -3.93,21.75 -8.41,34.34 -4.62,12.87 -12.56,22.18 -19.81,27.13 -7.16,5.04 -12.97,6.07 -12.84,7.5"
         style="fill:#f57f62;fill-opacity:1;fill-rule:nonzero;stroke:none"
         id="path554" />
      <path
         d="m 4716.84,118.621 c 98.01,63.93 144.35,177.219 127.82,285.82 l 113.59,74.461 16.09,10.328 898.65,589.03 c 92.73,-58.91 215.09,-62.16 313.1,1.76 83.36,54.37 129.39,144.45 131.12,236.98 l -52.18,8.65 -57.22,-80 -131.51,27.67 -73.43,112.57 27.68,131.52 109.4,71.36 -74.06,19.39 c -78.35,23.08 -121.88,4.25 -195.66,-43.87 -97.87,-63.83 -144.22,-176.88 -127.9,-285.34 l -913.7,-598.899 -28.37,-18.371 -86.6,-56.77 c -92.68,58.66 -214.82,61.809 -312.69,-2.019 -73.48,-47.93 -172.61,-147.68 -183.3,-228.332 l 52.18,-8.649 109.4,71.36 131.52,-27.68 73.42,-112.57 -27.68,-131.52 -117.66,-33.289 8.26,-38.0704 c 85.38,-35.7109 186.37,-29.8906 269.73,24.4804"
         style="fill:#dadbd8;fill-opacity:1;fill-rule:nonzero;stroke:none"
         id="path556" />
      <path
         d="m 4559.2,71.6406 c -38.46,0 -76.62,7.668 -112.09,22.5 l -8.26,38.0704 117.66,33.289 27.68,131.52 -73.42,112.57 -131.52,27.68 -109.4,-71.36 -52.18,8.649 c 10.69,80.652 109.82,180.402 183.3,228.332 48.72,31.769 103.43,46.949 157.54,46.949 54.61,0 108.6,-15.469 155.15,-44.93 l 86.6,56.77 28.37,18.371 913.7,598.899 v 0 c -2.13,14.2 -3.2,28.47 -3.21,42.7 -0.1,94.51 46.05,187.16 131.11,242.64 52.55,34.28 89.74,53.69 135.11,53.69 18.33,0 38,-3.18 60.55,-9.82 l 74.06,-19.39 -41.57,-27.12 -67.83,-44.24 -27.68,-131.52 73.43,-112.57 131.51,-27.67 57.22,80 52.18,-8.65 c -1.73,-92.53 -47.76,-182.61 -131.12,-236.98 -18.62,-12.14 -38.11,-21.86 -58.11,-29.23 -28,-10.32 -56.99,-16.05 -85.97,-17.4 -4.49,-0.21 -8.97,-0.31 -13.46,-0.31 -54.76,0 -108.92,15.55 -155.56,45.18 L 5697,962.898 5694.85,961.5 5356.75,739.879 4974.34,489.23 l -16.09,-10.328 -45.23,-29.652 -68.36,-44.809 v 0 c 2.19,-14.421 3.28,-28.929 3.28,-43.39 0.03,-94.43 -46.11,-186.992 -131.1,-242.43 C 4668.1,86.832 4613.35,71.6406 4559.2,71.6406"
         style="fill:#8f9192;fill-opacity:1;fill-rule:nonzero;stroke:none"
         id="path558" />
      <path
         d="m 4664.65,127.27 c 98.02,63.929 144.36,177.222 127.82,285.832 l 113.6,74.457 16.08,10.32 898.66,589.031 c 92.73,-58.91 215.09,-62.16 313.1,1.77 83.36,54.37 129.38,144.44 131.12,236.97 l -109.4,-71.35 -131.52,27.68 -73.42,112.57 27.68,131.51 109.4,71.36 c -85.38,35.71 -186.36,29.89 -269.72,-24.48 -97.87,-63.83 -144.22,-176.88 -127.9,-285.34 l -913.71,-598.901 -28.36,-18.367 -86.6,-56.762 c -92.68,58.649 -214.82,61.801 -312.69,-2.031 -83.35,-54.367 -129.38,-144.437 -131.12,-236.98 l 109.4,71.363 131.52,-27.68 73.42,-112.57 -27.68,-131.52 -109.4,-71.351 c 85.38,-35.7112 186.37,-29.8987 269.72,24.469"
         style="fill:#dadbd8;fill-opacity:1;fill-rule:nonzero;stroke:none"
         id="path560" />
      <path
         d="m 4664.65,127.27 c 0,0 -5.21,-3.379 -15.58,-9.79 -10.72,-5.738 -26.66,-14.66 -49.3,-22.398 -22.53,-7.8007 -51.74,-14.3711 -86.83,-15.5 -34.95,-0.5312 -76.03,4.6485 -118.41,22.27 l -1.79,0.738 1.63,1.07 c 32.36,21.18 69.23,45.309 109.29,71.52 l -0.54,-0.77 c 8.49,40.57 17.72,84.692 27.52,131.551 l 0.2,-1.063 c -22.98,35.153 -47.68,72.922 -73.55,112.493 l 0.98,-0.661 c -40.86,8.559 -85.35,17.879 -131.54,27.551 l 1.25,0.239 c -33.82,-22.11 -71,-46.399 -109.33,-71.45 l -2.82,-1.84 0.06,3.372 c 0.78,45.859 12.68,93.168 36.36,135.867 23.53,42.691 58.96,80.551 103,107.261 43.75,27.02 96.23,42.809 150.32,42.782 53.99,0.23 109.36,-14.942 157.06,-45.133 l -2.33,-0.008 c 304.65,199.738 654.69,429.229 1028.5,674.299 l -1.09,-2.43 c -7.96,52.58 -1.23,109.07 21.08,160.24 22.06,51.24 60.1,96.52 108.02,127.62 40.12,26.19 86.53,42.16 133.74,46.18 47.21,4.14 95.05,-3.49 138.18,-21.57 l 4.31,-1.81 -3.92,-2.56 c -36.72,-23.95 -73.18,-47.73 -109.4,-71.34 l 1.07,1.56 c -9.31,-44.17 -18.54,-88.02 -27.7,-131.52 l -0.35,1.85 c 24.71,-37.9 49.17,-75.41 73.41,-112.59 l -1.53,1.05 c 44.33,-9.34 88.12,-18.56 131.51,-27.7 l -1.81,-0.34 c 36.89,24.05 73.34,47.81 109.41,71.33 l 3.78,2.46 -0.11,-4.49 c -1.31,-54.51 -17.43,-107.98 -46.4,-152.49 -28.75,-44.64 -69.4,-80.47 -115.61,-103.17 -46.1,-22.9 -97.56,-33.24 -147.33,-29.77 -49.8,3.22 -97.67,19.24 -138.4,44.92 l 2.33,0.01 C 5375.84,793.32 5016.74,558.461 4793.08,412.18 l 0.48,1.082 c 8.06,-53.742 -0.26,-102.262 -13.72,-141.043 -14.34,-38.719 -33.45,-68.34 -51.6,-89.508 -18.03,-21.441 -34.98,-34.43 -45.95,-43.34 -11.65,-8.109 -17.64,-12.101 -17.64,-12.101 0,0 5.78,4.32 17.28,12.562 10.84,9.039 27.61,22.148 45.43,43.617 17.94,21.211 36.8,50.781 50.89,89.332 13.21,38.621 21.3,86.84 13.14,140.149 l -0.11,0.699 0.59,0.391 c 223.41,146.66 582.11,382.14 1027.76,674.7 l 1.15,0.75 1.19,-0.74 c 40.15,-25.25 87.32,-40.99 136.36,-44.12 49.03,-3.38 99.67,6.84 145.03,29.42 45.49,22.38 85.47,57.68 113.73,101.6 28.47,43.82 44.3,96.45 45.57,150.06 l 3.66,-2.03 c -36.06,-23.53 -72.49,-47.31 -109.38,-71.37 l -0.83,-0.55 -0.97,0.21 c -43.39,9.12 -87.19,18.33 -131.52,27.65 l -0.99,0.21 -0.55,0.84 c -24.26,37.17 -48.72,74.67 -73.44,112.56 l -0.56,0.85 0.21,0.99 c 9.15,43.5 18.38,87.35 27.67,131.52 l 0.21,1 0.86,0.56 c 36.2,23.62 72.67,47.41 109.38,71.36 l 0.4,-4.36 c -42.4,17.77 -89.43,25.27 -135.83,21.2 -46.4,-3.96 -92,-19.65 -131.46,-45.4 -47.11,-30.58 -84.48,-75.07 -106.17,-125.43 -21.94,-50.3 -28.56,-105.84 -20.75,-157.53 l 0.24,-1.56 -1.33,-0.87 C 5317.57,1040.65 4967.42,811.352 4662.66,611.77 l -1.16,-0.758 -1.17,0.738 c -46.96,29.77 -101.53,44.789 -154.75,44.621 -53.33,0.09 -105.07,-15.422 -148.27,-42.019 -43.48,-26.301 -78.47,-63.602 -101.76,-105.711 -23.43,-42.11 -35.26,-88.809 -36.1,-134.11 l -2.75,1.528 c 38.37,24.98 75.59,49.211 109.46,71.261 l 0.58,0.379 0.68,-0.14 c 46.17,-9.77 90.64,-19.168 131.48,-27.809 l 0.63,-0.129 0.35,-0.539 c 25.79,-39.621 50.4,-77.453 73.3,-112.641 l 0.32,-0.492 -0.12,-0.57 c -9.92,-46.828 -19.26,-90.93 -27.85,-131.477 l -0.1,-0.504 -0.43,-0.277 c -40.13,-26.09 -77.08,-50.109 -109.51,-71.18 l -0.16,1.809 c 42.01,-17.6406 82.82,-22.9609 117.58,-22.6016 34.9,0.961 64.01,7.3321 86.52,14.9414 22.61,7.5512 38.58,16.2892 49.37,21.8592 10.44,6.242 15.85,9.321 15.85,9.321"
         style="fill:#17282f;fill-opacity:1;fill-rule:nonzero;stroke:none"
         id="path562" />
      <path
         d="m 5780.3,1126.86 c -0.21,-0.27 -2.52,1.25 -6.54,4.24 -4.06,2.92 -9.58,7.64 -16.04,13.84 -12.94,12.36 -29,31.61 -42.12,55.73 -13.05,24.17 -20.4,48.15 -23.68,65.74 -1.67,8.8 -2.6,16 -2.84,21 -0.31,4.99 -0.32,7.75 0.02,7.78 0.84,0.09 2.07,-10.86 6.21,-28.04 4.11,-17.16 11.83,-40.44 24.62,-64.13 12.86,-23.65 28.14,-42.83 40.27,-55.64 12.12,-12.85 20.63,-19.87 20.1,-20.52"
         style="fill:#17282f;fill-opacity:1;fill-rule:nonzero;stroke:none"
         id="path564" />
      <path
         d="M 1787.72,2905.58 H 1070 c -54.51,0 -98.691,44.19 -98.691,98.7 V 3722 c 0,54.51 44.181,98.7 98.691,98.7 h 717.72 c 54.51,0 98.7,-44.19 98.7,-98.7 v -717.72 c 0,-54.51 -44.19,-98.7 -98.7,-98.7"
         style="fill:#f2575d;fill-opacity:1;fill-rule:nonzero;stroke:none"
         id="path566" />
      <path
         d="m 1787.72,2905.58 h -134.24 c 54.51,0 98.69,44.19 98.69,98.7 v 520.87 199.12 l -0.02,-0.02 c -1,44.7 -31.72,82.06 -73.17,93.12 l 4.16,3.33 h -29.66 v 0 H 1070 v 0 h 717.72 c 54.51,0 98.7,-44.19 98.7,-98.7 v -717.72 c 0,-22.51 -7.54,-43.27 -20.23,-59.87 -5.31,-6.96 -11.53,-13.18 -18.48,-18.51 -16.63,-12.74 -37.42,-20.32 -59.99,-20.32"
         style="fill:#cc4341;fill-opacity:1;fill-rule:nonzero;stroke:none"
         id="path568" />
      <path
         d="M 1653.48,2905.58 H 935.758 c -54.508,0 -98.695,44.19 -98.695,98.7 V 3722 c 0,54.51 44.187,98.7 98.695,98.7 h 717.722 c 54.51,0 98.69,-44.19 98.69,-98.7 v -717.72 c 0,-54.51 -44.18,-98.7 -98.69,-98.7"
         style="fill:#f2575d;fill-opacity:1;fill-rule:nonzero;stroke:none"
         id="path570" />
      <path
         d="m 1219.71,3432.29 c -41.66,-43.14 -40.45,-111.88 2.69,-153.53 43.14,-41.65 111.88,-40.44 153.53,2.7 41.64,43.14 40.44,111.88 -2.7,153.53 -43.14,41.65 -111.88,40.44 -153.52,-2.7 m -53.95,134.81 c 19.13,11.56 39.5,20.33 60.51,26.3 l 12.47,59.89 101.19,1.78 14.57,-59.42 c 21.2,-5.22 41.87,-13.27 61.4,-24.15 l 51.15,33.52 72.81,-70.3 -31.7,-52.28 c 11.56,-19.14 20.33,-39.52 26.29,-60.53 l 59.89,-12.46 1.78,-101.2 -59.42,-14.57 c -5.22,-21.2 -13.27,-41.86 -24.15,-61.39 l 33.52,-51.15 -70.29,-72.81 -52.29,31.7 c -19.14,-11.57 -39.51,-20.33 -60.52,-26.3 l -12.47,-59.89 -101.19,-1.78 -14.57,59.42 c -21.21,5.23 -41.87,13.28 -61.4,24.16 l -51.14,-33.53 -72.82,70.31 31.7,52.28 c -11.56,19.14 -20.33,39.51 -26.3,60.52 l -59.889,12.46 -1.778,101.2 59.417,14.57 c 5.23,21.2 13.28,41.87 24.16,61.39 l -33.52,51.15 70.29,72.81 52.3,-31.7"
         style="fill:#ffffff;fill-opacity:1;fill-rule:nonzero;stroke:none"
         id="path572" />
      <path
         d="m 1678.98,3817.37 c -8.13,2.17 -16.68,3.33 -25.5,3.33 h 29.66 l -4.16,-3.33"
         style="fill:#dc7171;fill-opacity:1;fill-rule:nonzero;stroke:none"
         id="path574" />
      <path
         d="m 837.063,3143.62 v 110.35 l 156.402,124.92 1.426,-81.21 27.529,-5.73 -185.357,-148.33 m 192.657,264.24 27.43,21.9 c -1.73,-5.39 -3.27,-10.83 -4.62,-16.31 l -22.81,-5.59 m 358.55,176.87 c -11.04,4.46 -22.33,8.11 -33.77,10.92 l -14.57,59.42 -0.71,-0.02 207.38,165.65 h 106.88 c 8.82,0 17.37,-1.16 25.5,-3.33 l -290.71,-232.64"
         style="fill:#f57e87;fill-opacity:1;fill-rule:nonzero;stroke:none"
         id="path576" />
      <path
         d="m 1022.42,3291.95 -27.529,5.73 -1.426,81.21 36.255,28.97 22.81,5.59 c 1.35,5.48 2.89,10.92 4.62,16.31 l 282.07,225.29 0.71,0.02 14.57,-59.42 c 11.44,-2.81 22.73,-6.46 33.77,-10.92 l -365.85,-292.78"
         style="fill:#ffffff;fill-opacity:1;fill-rule:nonzero;stroke:none"
         id="path578" />
      <path
         d="m 933.492,2905.58 c -43.648,0 -80.426,29.23 -91.918,69.12 12.356,-39.38 48.727,-68.13 91.949,-69.09 l -0.031,-0.03"
         style="fill:#ffffff;fill-opacity:1;fill-rule:nonzero;stroke:none"
         id="path580" />
      <path
         d="M 1752.17,3525.15 V 3722 c 0,0.75 0,1.5 -0.02,2.25 l 0.02,0.02 v -199.12"
         style="fill:#dc7171;fill-opacity:1;fill-rule:nonzero;stroke:none"
         id="path582" />
      <path
         d="m 933.523,2905.61 c -43.222,0.96 -79.593,29.71 -91.949,69.09 -2.5,8.66 -3.801,17.83 -3.722,27.31 l 0.105,13 219.003,169.91 -7.58,-12.5 72.82,-70.31 51.14,33.53 c 13.02,-7.25 26.53,-13.25 40.38,-17.98 L 933.523,2905.61 M 1297.8,3248.3 c -27.14,0 -54.32,10.12 -75.4,30.46 -6.72,6.49 -12.42,13.64 -17.1,21.24 l 170.58,132.34 c 40.52,-41.87 40.82,-108.64 0.05,-150.88 -21.31,-22.06 -49.7,-33.16 -78.13,-33.16 m 296.61,157.45 -0.07,3.7 -59.89,12.46 c -5.96,21.01 -14.73,41.39 -26.29,60.53 l 31.7,52.28 -14.26,13.77 226.55,175.76 c 0.02,-0.75 0.02,-1.5 0.02,-2.25 v -196.85 l -157.76,-119.4"
         style="fill:#f57e87;fill-opacity:1;fill-rule:nonzero;stroke:none"
         id="path584" />
      <path
         d="m 1122.2,3102.11 -72.82,70.31 7.58,12.5 148.34,115.08 c 4.68,-7.6 10.38,-14.75 17.1,-21.24 21.08,-20.34 48.26,-30.46 75.4,-30.46 28.43,0 56.82,11.1 78.13,33.16 40.77,42.24 40.47,109.01 -0.05,150.88 l 149.72,116.15 14.26,-13.77 -31.7,-52.28 c 11.56,-19.14 20.33,-39.52 26.29,-60.53 l 59.89,-12.46 0.07,-3.7 -380.69,-288.09 c -13.85,4.73 -27.36,10.73 -40.38,17.98 l -51.14,-33.53"
         style="fill:#ffffff;fill-opacity:1;fill-rule:nonzero;stroke:none"
         id="path586" />
    </g>
  </g>
</svg>
