<?xml version="1.0" encoding="UTF-8" standalone="no"?>
<!-- Created with Inkscape (http://www.inkscape.org/) -->

<svg
   version="1.1"
   id="svg2"
   width="634.65332"
   height="577.53333"
   viewBox="0 0 634.65332 577.53333"
   sodipodi:docname="3324620.eps"
   xmlns:inkscape="http://www.inkscape.org/namespaces/inkscape"
   xmlns:sodipodi="http://sodipodi.sourceforge.net/DTD/sodipodi-0.dtd"
   xmlns="http://www.w3.org/2000/svg"
   xmlns:svg="http://www.w3.org/2000/svg">
  <defs
     id="defs6" />
  <sodipodi:namedview
     id="namedview4"
     pagecolor="#ffffff"
     bordercolor="#000000"
     borderopacity="0.25"
     inkscape:showpageshadow="2"
     inkscape:pageopacity="0.0"
     inkscape:pagecheckerboard="0"
     inkscape:deskcolor="#d1d1d1" />
  <g
     id="g8"
     inkscape:groupmode="layer"
     inkscape:label="ink_ext_XXXXXX"
     transform="matrix(1.3333333,0,0,-1.3333333,0,577.53333)">
    <g
       id="g10"
       transform="scale(0.1)">
      <path
         d="M 4080.51,2286.33 C 4986.43,1763.31 4986.42,915.309 4080.5,392.281 3174.58,-130.758 1705.81,-130.758 799.902,392.27 c -905.914,523.031 -905.91,1371.03 0.008,1894.06 905.92,523.03 2374.69,523.03 3280.6,0"
         style="fill:#ededeb;fill-opacity:1;fill-rule:nonzero;stroke:none"
         id="path12" />
      <path
         d="m 4386.36,1436.6 c 245.31,-141.63 245.31,-371.25 0,-512.881 -245.31,-141.637 -643.04,-141.637 -888.35,-0.008 -245.31,141.629 -245.31,371.259 0,512.889 245.31,141.63 643.05,141.63 888.35,0"
         style="fill:#dadbd8;fill-opacity:1;fill-rule:nonzero;stroke:none"
         id="path14" />
      <path
         d="M 451.621,1075.86 648.594,962.102 c 14.742,-8.512 38.636,-8.512 53.379,0 L 3002.19,2290.15 c 14.75,8.51 14.75,22.31 0,30.82 l -197,113.74 c -14.74,8.51 -38.64,8.51 -53.38,0 L 451.621,1106.68 c -14.742,-8.51 -14.742,-22.31 0,-30.82"
         style="fill:#dadbd8;fill-opacity:1;fill-rule:nonzero;stroke:none"
         id="path16" />
      <path
         d="M 3104.6,600.27 2221.14,90.1992 c -11.83,-6.8281 -31.03,-6.8281 -42.86,0 L 986.039,778.539 c -11.84,6.832 -11.84,17.91 0,24.75 L 1869.5,1313.36 c 11.83,6.83 31.03,6.83 42.86,0 L 3104.6,625.02 c 11.84,-6.829 11.84,-17.918 0,-24.75"
         style="fill:#dadbd8;fill-opacity:1;fill-rule:nonzero;stroke:none"
         id="path18" />
      <path
         d="m 2284.3,1213.07 c -6.38,0 -10.51,7.77 -5.96,13.13 l 61.19,72.05 168.32,34.27 c 0.01,0.03 0.02,0.05 0.04,0.07 l -0.02,-0.08 v 0 l 806.28,469.03 38.59,22.18 1.21,0.98 32.56,18.94 15.83,9.3 19.38,11.29 c 0.1,0.06 0.19,0.12 0.29,0.18 l 3.53,2.06 c 0.4,0.17 0.81,0.36 1.21,0.6 l 160.18,93.58 c 0.43,0.3 0.85,0.61 1.26,0.93 l 35.94,-20.75 c 9.97,-5.75 9.97,-20.13 0,-25.88 l -1112.19,-641.85 -225.5,-59.74 c -0.73,-0.2 -1.45,-0.29 -2.14,-0.29 m 1134.16,695.44 c -4.78,11.26 -11.26,23.46 -18.57,35.18 h 0.01 c 7.32,-11.72 13.8,-23.91 18.58,-35.17 l -0.02,-0.01"
         style="fill:#d7dcda;fill-opacity:1;fill-rule:nonzero;stroke:none"
         id="path20" />
      <path
         d="m 944.461,4129.36 -39.027,-13 v 74.46 c 0,59.02 -54.368,73.18 -113.395,43.67 -59.023,-29.51 -106.875,-101.29 -106.875,-160.32 v -10.81 c -13.391,4.63 -30.684,2.84 -49.594,-6.62 h -0.004 C 593.09,4035.5 558.66,3983.85 558.66,3941.38 v -4.92 l -54.418,-27.21 c -27.972,-13.98 -50.648,-48 -50.648,-75.97 0,-27.97 22.676,-39.31 50.648,-25.32 l 440.219,220.11 c 27.977,13.98 50.644,47.99 50.644,75.97 0,27.97 -22.667,39.31 -50.644,25.32"
         style="fill:#e7e8e5;fill-opacity:1;fill-rule:nonzero;stroke:none"
         id="path22" />
      <path
         d="m 1397.92,3961.61 -70.75,-35.38 c 0.35,2.73 0.6,5.45 0.6,8.11 v 17.75 c 0,31.59 -25.61,44.39 -57.2,28.6 -12.79,-6.39 -24.56,-16.53 -34.09,-28.39 -5.17,39.72 -41.16,54.52 -84.86,32.66 -47.27,-23.63 -85.58,-81.09 -85.58,-128.35 v -26.56 c 0,-12.24 2.62,-22.55 7.25,-30.76 l -58.77,-29.39 c -17.524,-8.76 -31.727,-30.06 -31.727,-47.59 0,-17.52 14.203,-24.62 31.727,-15.86 l 383.4,191.7 c 17.52,8.76 31.73,30.07 31.73,47.59 0,17.52 -14.21,24.63 -31.73,15.87"
         style="fill:#e7e8e5;fill-opacity:1;fill-rule:nonzero;stroke:none"
         id="path24" />
      <path
         d="m 534.41,1350.6 81.567,29.34 c 0,0 23.945,178.05 1.796,324.41 -33.14,218.99 -218.503,431.02 -350.601,472.03 C 23.5625,2251.99 25.3984,2021.86 208.789,1893.57 368.281,1781.99 510.359,1615.15 534.41,1350.6"
         style="fill:#26b6a6;fill-opacity:1;fill-rule:nonzero;stroke:none"
         id="path26" />
      <path
         d="m 574.414,1360.75 -0.973,0.16 c -5.171,1.13 -8.445,6.24 -7.312,11.41 43.726,200.32 -111.59,578.47 -330.367,690.73 -4.707,2.41 -6.559,8.19 -4.145,12.91 2.41,4.69 8.145,6.57 12.91,4.14 225.395,-115.65 385.418,-505.38 340.332,-711.88 -1.054,-4.86 -5.613,-8.03 -10.445,-7.47"
         style="fill:#ffffff;fill-opacity:1;fill-rule:nonzero;stroke:none"
         id="path28" />
      <path
         d="m 641.148,1173.96 c 3.938,23.7 6.395,58.54 7.086,67.1 2.454,30.18 -0.625,60.93 -10.523,89.6 -4.383,12.69 -13.09,24.95 -14.676,37.88 -1.523,12.43 1.41,24.36 -1.859,37.21 -6.446,25.32 -22.903,48.33 -45.707,61.37 -21.809,12.47 -50.172,18.04 -62.309,40.03 -8.176,14.8 -6.293,32.82 -5.621,49.72 1.02,25.84 -2.086,53.64 -18.691,73.48 -21.364,25.53 -58.809,30.6 -91.926,27.2 -33.121,-3.4 -65.895,-13.37 -99.07,-10.65 -56.098,4.59 -103.997,44.45 -159.696,52.58 -19.683,2.87 -39.8513,1.65 -59.3318,-2.39 -28.7969,-5.97 -58.3164,-19.99 -71.6367,-46.2 -12.19922,-24 -7.96875,-54.06 5.9336,-77.12 15.4766,-25.67 40.2578,-41.79 65.9102,-55.91 26.7777,-14.74 45.7737,-29.44 32.7147,-62.88 -3.777,-9.68 -8.301,-19.37 -8.738,-29.75 -0.778,-18.33 11.699,-35.16 27.293,-44.81 15.597,-9.65 33.988,-13.48 51.965,-17.14 21.214,-4.33 42.437,-8.66 63.652,-12.98 18.52,-3.78 41.301,-12.21 42.223,-31.09 0.566,-11.7 -8.153,-21.52 -12.68,-32.33 -9.066,-21.66 -0.203,-47.87 16.773,-64.09 16.985,-16.22 40.489,-23.89 63.731,-27.27 23.238,-3.38 46.871,-2.97 70.207,-5.62 36.023,-4.09 71.195,-15.56 102.703,-33.5 8.133,-4.63 16.242,-9.77 25.422,-11.58 13.43,-2.66 84.371,14.23 86.851,29.14"
         style="fill:#26b6a6;fill-opacity:1;fill-rule:nonzero;stroke:none"
         id="path30" />
      <path
         d="m 557.961,1144.54 c -1.481,0 -2.715,0.09 -3.664,0.28 -9.18,1.81 -17.289,6.95 -25.422,11.58 -31.508,17.94 -66.68,29.41 -102.703,33.5 -23.336,2.65 -46.969,2.24 -70.207,5.62 -23.242,3.38 -46.746,11.05 -63.731,27.27 -12.336,11.78 -20.386,28.84 -20.386,45.6 -0.004,6.3 1.136,12.57 3.613,18.49 4.387,10.47 12.703,20.01 12.703,31.24 0,0.36 -0.008,0.73 -0.023,1.09 -0.922,18.88 -23.703,27.31 -42.223,31.09 -21.215,4.32 -42.438,8.65 -63.652,12.98 -17.977,3.66 -36.368,7.49 -51.965,17.14 -15.106,9.35 -27.285,25.44 -27.328,43.1 0,0.57 0.011,1.14 0.035,1.71 0.437,10.38 4.961,20.07 8.738,29.75 2.906,7.44 4.227,13.96 4.223,19.76 -0.008,20.23 -16.1213,31.67 -36.9377,43.12 -25.6524,14.12 -50.4336,30.24 -65.9102,55.91 -8.28126,13.74 -13.1328188,29.96 -13.1211,45.9 0.0078125,10.82 2.25391,21.52 7.1875,31.22 13.3203,26.21 42.8398,40.23 71.6367,46.2 12.2266,2.53 24.7188,3.96 37.1988,3.96 7.403,0 14.805,-0.5 22.133,-1.57 55.699,-8.13 103.598,-47.99 159.696,-52.58 3.898,-0.32 7.793,-0.46 11.683,-0.46 29.203,0 58.16,8.11 87.387,11.11 5.906,0.6 11.945,0.94 18.012,0.94 27.945,0 56.363,-7.16 73.914,-28.14 14.789,-17.67 18.871,-41.65 18.863,-64.95 0,-2.86 -0.063,-5.71 -0.172,-8.53 -0.254,-6.34 -0.676,-12.83 -0.672,-19.26 0.004,-10.7 1.184,-21.21 6.293,-30.46 12.137,-21.99 40.5,-27.56 62.309,-40.03 22.804,-13.04 39.261,-36.05 45.707,-61.37 1.316,-5.17 1.629,-10.19 1.629,-15.16 0.004,-4.43 -0.242,-8.82 -0.242,-13.23 0,-2.93 0.113,-5.86 0.472,-8.82 1.586,-12.93 10.293,-25.19 14.676,-37.88 0.613,-1.77 1.199,-3.56 1.762,-5.35 v -154.75 c -10.321,-12.88 -63.637,-26.02 -81.512,-26.02"
         style="fill:#1db3a0;fill-opacity:1;fill-rule:nonzero;stroke:none"
         id="path32" />
      <path
         d="m 602.691,1151.88 c -3.257,0.27 -6.218,2.37 -7.453,5.61 -79.761,210.71 -269.375,379.17 -533.9138,474.36 -4.5429,1.64 -6.9062,6.65 -5.2695,11.19 1.6445,4.55 6.7226,6.84 11.1875,5.27 269.4338,-96.95 462.7458,-269.06 544.3558,-484.61 1.699,-4.53 -0.571,-9.57 -5.086,-11.28 -1.258,-0.48 -2.567,-0.64 -3.821,-0.54"
         style="fill:#ffffff;fill-opacity:1;fill-rule:nonzero;stroke:none"
         id="path34" />
      <path
         d="m 3426.72,1867.16 -18.24,-10.62 -21.97,-12.9 -878.64,-511.13 c 6.74,15.43 1.17,46.12 -14.73,75.49 -18.53,34.24 -46.71,61.22 -66.95,62.11 l 872.8,507.71 42.08,24.51 c -26.36,-17.38 58.97,-152.24 85.65,-135.17"
         style="fill:#26b6a6;fill-opacity:1;fill-rule:nonzero;stroke:none"
         id="path36" />
      <path
         d="m 3338.36,2000.75 c 11.6,7.26 31.95,-14.41 51.47,-41.95 26,-36.51 47.23,-84.94 31.89,-94.57 l -30.03,-17.5 -10.85,-6.07 c 15.36,9.64 -5.85,58.09 -31.86,94.6 -18.73,26.36 -40.09,46.56 -51.92,41.57 l -0.13,-0.07 41.43,23.99"
         style="fill:#e7e8e5;fill-opacity:1;fill-rule:nonzero;stroke:none"
         id="path38" />
      <path
         d="m 3305.95,1982.01 c 26.89,16.9 112.05,-118.65 85.16,-135.55 l -40.75,-23.81 c 26.89,16.9 -58.26,152.42 -85.15,135.53 l 40.74,23.83"
         style="fill:#26b6a6;fill-opacity:1;fill-rule:nonzero;stroke:none"
         id="path40" />
      <path
         d="m 3226.39,1935.52 40.23,23.52 c 26.27,16.78 109.76,-113.26 87.51,-134.19 l -1.39,-1.13 -40.69,-23.38 c 26.36,17.38 -58.97,152.25 -85.66,135.18"
         style="fill:#e7e8e5;fill-opacity:1;fill-rule:nonzero;stroke:none"
         id="path42" />
      <path
         d="m 2426.12,1470.2 0.06,-0.1 0.01,0.01 0.12,0.08 -0.19,0.01 -120.48,-138.5 120.48,138.5"
         style="fill:#fafaf9;fill-opacity:1;fill-rule:nonzero;stroke:none"
         id="path44" />
      <path
         d="m 2305.64,1331.7 -29.22,-33.6 29.22,33.6 z"
         style="fill:#dadbd8;fill-opacity:1;fill-rule:nonzero;stroke:none"
         id="path46" />
      <path
         d="m 2488.9,1433.8 c -16.72,21.07 -39.34,36.27 -62.59,36.39 l -0.13,-0.08 v 0 l -0.06,0.09 -120.48,-138.5 c 4.77,-0.78 9.37,-3.18 12.61,-6.78 14.21,-19 12.88,-28.38 12.88,-28.38 l 176.72,35.98 c 17.4,26.95 5.56,70.4 -18.95,101.28"
         style="fill:#f6879f;fill-opacity:1;fill-rule:nonzero;stroke:none"
         id="path48" />
      <path
         d="m 2318.25,1324.92 c -3.33,4.79 -10.24,7.23 -12.61,6.78 l -29.22,-33.6 h -0.01 c -2.71,-3.12 -1.99,-7.3 0.53,-9.66 1.51,-1.42 3.66,-2.19 6.1,-1.7 l 48.09,9.8 c 0,0 2.11,9.33 -12.88,28.38"
         style="fill:#273e47;fill-opacity:1;fill-rule:nonzero;stroke:none"
         id="path50" />
      <path
         d="m 3586.93,1960.65 -160.18,-93.58 c -0.96,-0.55 -1.9,-0.91 -2.84,-1.08 10.95,12.79 -9.32,58.12 -34.1,92.81 -17.99,25.34 -39.36,44.94 -51.45,41.95 l 167.03,97.69 c 36.58,25.5 84.72,-43.57 94.38,-93.05 3.81,-18.69 0.69,-35.2 -12.84,-44.74"
         style="fill:#f47089;fill-opacity:1;fill-rule:nonzero;stroke:none"
         id="path52" />
      <path
         d="m 2339.53,1298.25 v 0 l 168.32,34.27 v 0 l -168.32,-34.27 m 168.34,34.26 0.02,0.08 c 0.01,0.02 0.02,0.04 0.03,0.05 -0.02,-0.04 -0.04,-0.08 -0.05,-0.13"
         style="fill:#b3b6b6;fill-opacity:1;fill-rule:nonzero;stroke:none"
         id="path54" />
      <path
         d="m 2507.87,1332.51 v 0 c 0.01,0.05 0.03,0.09 0.05,0.13 9.05,14.1 10.12,32.69 5.59,51.63 l 794.92,460.49 c 8.49,-19.79 11.74,-36.75 4.98,-43.33 l -805.54,-468.92"
         style="fill:#19b19d;fill-opacity:1;fill-rule:nonzero;stroke:none"
         id="path56" />
      <path
         d="m 3423.71,1865.91 c 6.11,6.86 2.91,23.38 -5.25,42.6 l 0.02,0.01 c 8.14,-19.15 11.36,-35.61 5.43,-42.53 0.17,0.03 0.34,0.06 0.52,0.11 -0.24,-0.07 -0.47,-0.13 -0.72,-0.19"
         style="fill:#b3b6b6;fill-opacity:1;fill-rule:nonzero;stroke:none"
         id="path58" />
      <path
         d="m 3423.09,1865.28 c 0.22,0.2 0.43,0.41 0.62,0.63 0.25,0.06 0.48,0.12 0.72,0.19 0.04,0.01 0.09,0.02 0.13,0.04 l -1.47,-0.86"
         style="fill:#19b19d;fill-opacity:1;fill-rule:nonzero;stroke:none"
         id="path60" />
      <path
         d="m 3392.3,1847.35 c 7.18,6.32 4.06,23.41 -4.44,43.43 l 30.6,17.73 c 8.16,-19.22 11.36,-35.74 5.25,-42.6 -0.19,-0.22 -0.4,-0.43 -0.62,-0.63 l -30.79,-17.93"
         style="fill:#bfc0be;fill-opacity:1;fill-rule:nonzero;stroke:none"
         id="path62" />
      <path
         d="m 3354.77,1825.51 c 6.06,6.95 2.7,23.55 -5.66,42.82 l 38.75,22.45 c 8.5,-20.02 11.62,-37.11 4.44,-43.43 l -37.53,-21.84"
         style="fill:#19b19d;fill-opacity:1;fill-rule:nonzero;stroke:none"
         id="path64" />
      <path
         d="m 3313.41,1801.43 c 6.76,6.58 3.51,23.54 -4.98,43.33 l 40.68,23.57 c 8.36,-19.27 11.72,-35.87 5.66,-42.82 l -41.36,-24.08"
         style="fill:#bfc0be;fill-opacity:1;fill-rule:nonzero;stroke:none"
         id="path66" />
      <path
         d="m 2331.13,1296.54 c 0,0 0.94,4.18 -2.93,12.66 l 185.23,75.03 0.08,0.04 c 4.53,-18.94 3.46,-37.53 -5.59,-51.63 -0.01,-0.01 -0.02,-0.03 -0.03,-0.05 l 0.02,0.09 -0.06,-0.16 v 0 l -168.32,-34.27 -8.4,-1.71"
         style="fill:#f27785;fill-opacity:1;fill-rule:nonzero;stroke:none"
         id="path68" />
      <path
         d="m 2281.57,1286.59 c -1.83,0 -3.43,0.72 -4.63,1.85 l 51.26,20.76 c 3.87,-8.48 2.93,-12.66 2.93,-12.66 v 0 l -48.09,-9.8 c -0.5,-0.1 -0.99,-0.15 -1.47,-0.15"
         style="fill:#1f3239;fill-opacity:1;fill-rule:nonzero;stroke:none"
         id="path70" />
      <path
         d="m 3423.91,1865.99 c 5.93,6.92 2.71,23.38 -5.43,42.53 l 179.59,104.03 c 0.63,-2.41 1.24,-4.82 1.7,-7.16 0.98,-4.82 1.5,-9.49 1.5,-13.94 0.01,-12.8 -4.3,-23.72 -14.34,-30.8 v 0 l -162.37,-94.51 c -0.04,-0.02 -0.09,-0.03 -0.13,-0.04 -0.18,-0.05 -0.35,-0.08 -0.52,-0.11"
         style="fill:#e96374;fill-opacity:1;fill-rule:nonzero;stroke:none"
         id="path72" />
      <path
         d="m 2901.96,4282.18 c -15.04,8.01 -34.4,6.9 -55.6,-5.3 L 726.551,3052.95 c -23.051,-13.32 -44.012,-37.48 -59.668,-66.08 l -85.403,49.33 c 18.711,35.55 45.196,47.61 68.25,61.05 l 2119.68,1223.92 c 22.2,12.7 42.29,13.32 57.58,4.07 v 0.13 l 74.97,-43.19"
         style="fill:#33535f;fill-opacity:1;fill-rule:nonzero;stroke:none"
         id="path74" />
      <path
         d="m 593.145,1068.66 v 0.13 c -18.739,10.48 -30.579,35.26 -30.579,70.52 v 1791.5 c 0,40.08 2.797,75.89 18.914,105.39 l 85.403,-49.33 c -2.223,-4.07 -4.317,-8.26 -6.41,-12.57 -1.606,-3.46 -3.082,-6.91 -4.438,-10.36 l -0.617,-1.6 c -1.727,-3.95 -3.207,-8.01 -4.563,-12.08 -1.48,-4.2 -2.832,-8.51 -3.941,-12.7 -0.988,-3.21 -1.73,-6.41 -2.344,-9.62 -3.332,-13.8 -5.054,-27.86 -5.054,-41.42 V 1095.01 c 0,-35.63 12.082,-60.65 31.062,-71.01 l -77.433,44.66"
         style="fill:#17282f;fill-opacity:1;fill-rule:nonzero;stroke:none"
         id="path76" />
      <path
         d="M 2846.31,4276.76 707.391,3043.63 c -48.11,-27.77 -67.918,-75.5 -67.918,-139.64 V 1094.93 c 0,-64.14 39,-93.63 87.101,-65.85 L 2846.31,2252.9 c 48.11,27.78 87.11,102.29 87.11,166.44 v 1791.57 c 0,64.14 -39,93.63 -87.11,65.85"
         style="fill:#273e47;fill-opacity:1;fill-rule:nonzero;stroke:none"
         id="path78" />
      <path
         d="m 2729.56,2268.97 -1886.22,-1089 c -24.93,-14.39 -45.137,0.88 -45.137,34.13 v 1736.66 c 0,33.23 20.207,71.85 45.137,86.24 l 1886.22,1089 c 24.92,14.4 45.13,-0.88 45.13,-34.12 V 2355.22 c 0,-33.24 -20.21,-71.86 -45.13,-86.25"
         style="fill:#26b6a6;fill-opacity:1;fill-rule:nonzero;stroke:none"
         id="path80" />
      <path
         d="m 825.418,1174.55 c -16.016,0 -27.215,14.79 -27.215,39.55 v 1736.66 c 0,33.23 20.207,71.85 45.137,86.24 l 1886.22,1089 c 6.36,3.68 12.42,5.42 17.91,5.42 16.01,0 27.22,-14.79 27.22,-39.54 V 2355.22 c 0,-33.24 -20.21,-71.86 -45.13,-86.25 l -1886.22,-1089 c -6.367,-3.68 -12.43,-5.42 -17.922,-5.42 M 2695.8,3965.11 c -2.77,0 -5.89,-0.91 -9.19,-2.82 L 925.078,2945.38 c -11.351,-6.58 -20.609,-22.61 -20.609,-35.78 V 1337.61 c 0,-9.34 4.664,-14.75 11.429,-14.75 2.77,0 5.887,0.9 9.184,2.81 l 1761.528,1016.9 c 11.45,6.59 20.63,22.63 20.63,35.8 l -0.02,1572 c 0,9.33 -4.66,14.74 -11.42,14.74"
         style="fill:#1db3a0;fill-opacity:1;fill-rule:nonzero;stroke:none"
         id="path82" />
      <path
         d="m 741.543,1982.14 c 0,-16.72 -10.168,-36.14 -22.707,-43.39 -12.539,-7.23 -22.703,0.45 -22.703,17.17 0,16.72 10.164,36.14 22.703,43.39 12.539,7.24 22.707,-0.45 22.707,-17.17"
         style="fill:#17282f;fill-opacity:1;fill-rule:nonzero;stroke:none"
         id="path84" />
      <path
         d="m 718.836,2273 v 0 c -9.746,-5.63 -17.648,-20.73 -17.648,-33.73 v -154.61 c 0,-13 7.902,-18.97 17.648,-13.34 9.754,5.63 17.652,20.73 17.652,33.72 v 154.61 c 0,13 -7.898,18.97 -17.652,13.35"
         style="fill:#17282f;fill-opacity:1;fill-rule:nonzero;stroke:none"
         id="path86" />
      <path
         d="m 2707.03,3953.66 c -1.43,10.78 -10.11,14.69 -20.42,8.68 L 925.082,2945.42 c -5.629,-3.34 -10.781,-8.97 -14.602,-15.45 l -38.734,22.42 c 1.91,3.24 4.102,6.2 6.582,8.87 l 1.91,1.91 c 1.91,1.81 4.008,3.34 6.11,4.58 L 2647.88,3984.66 c 8.58,4.97 21.08,6.4 31.2,4.01 3.24,-0.67 6.2,-1.81 8.77,-3.34 1.25,-0.67 2.39,-1.53 3.63,-2.48 l 2.19,-2 1.62,-1.62 c 1.05,-1.05 1.91,-2.2 2.77,-3.34 0.76,-0.96 1.43,-2.01 2.1,-3.06 1.43,-2.28 2.76,-4.67 3.72,-7.25 0.66,-1.43 1.14,-2.86 1.62,-4.39 0.29,-1.05 0.58,-2.09 0.86,-3.24 0.28,-1.43 0.57,-2.86 0.67,-4.29"
         style="fill:#fafaf9;fill-opacity:1;fill-rule:nonzero;stroke:none"
         id="path88" />
      <path
         d="m 915.938,1322.86 c -6.774,0 -11.469,5.4 -11.469,14.75 V 2909.6 c 0,6.59 2.289,13.93 6.008,20.33 l -38.735,22.42 c -2.367,-3.93 -4.137,-8.49 -5.183,-12.79 -0.383,-1.71 -0.637,-3.18 -0.797,-5.12 l -0.106,-2.49 0.074,-1572.01 c 0,-13.17 8.59,-28.82 19.372,-35.02 6.39,-3.72 15.25,-5.01 23.75,-4.16 10.988,1.09 15.949,4.82 16.23,4.91 -4.496,-2.52 -8.187,-2.81 -9.144,-2.81"
         style="fill:#dadbd8;fill-opacity:1;fill-rule:nonzero;stroke:none"
         id="path90" />
      <path
         d="m 2707.22,3950.37 c 0,13.16 -9.26,18.51 -20.61,11.92 L 925.078,2945.38 c -11.351,-6.58 -20.609,-22.61 -20.609,-35.78 V 1337.61 c 0,-13.17 9.261,-18.52 20.613,-11.94 l 1761.528,1016.9 c 11.45,6.59 20.63,22.63 20.63,35.8 l -0.02,1572"
         style="fill:#ededeb;fill-opacity:1;fill-rule:nonzero;stroke:none"
         id="path92" />
      <path
         d="m 1181.73,2506.21 -97.76,-124.01 -57.05,-72.41 c -11.52,23.33 -17.47,52.92 -17.47,86.55 0,83.51 36.05,180.05 94.62,254.47 l 12.93,-23.93 64.73,-120.67"
         style="fill:#26b6a6;fill-opacity:1;fill-rule:nonzero;stroke:none"
         id="path94" />
      <path
         d="m 1265.44,2755.64 -76.44,-231.46 -34.54,64.12 -40.29,74.94 c 25.04,29.68 52.01,52.91 80.18,69.17 24.54,14.24 48.77,22.12 71.09,23.23"
         style="fill:#26b6a6;fill-opacity:1;fill-rule:nonzero;stroke:none"
         id="path96" />
      <path
         d="m 1352.89,2703.83 -143.7,-165.51 71.7,216.91 c 30.9,-3.23 56.15,-21.3 72,-51.4"
         style="fill:#26b6a6;fill-opacity:1;fill-rule:nonzero;stroke:none"
         id="path98" />
      <path
         d="m 1371.98,2614.46 c 0,-126.33 -83.01,-277.1 -185.11,-335.97 -63.41,-36.66 -119.76,-29.99 -151.97,17.57 l 160.76,203.99 0.91,1.11 163.09,187.83 c 8.18,-21.11 12.32,-46.15 12.32,-74.53"
         style="fill:#26b6a6;fill-opacity:1;fill-rule:nonzero;stroke:none"
         id="path100" />
      <path
         d="m 1189,2524.18 -34.54,64.12 -40.29,74.94 c 25.04,29.68 52.01,52.91 80.18,69.17 24.54,14.24 48.77,22.12 71.09,23.23 L 1189,2524.18"
         style="fill:#a1dfd6;fill-opacity:1;fill-rule:nonzero;stroke:none"
         id="path102" />
      <path
         d="m 1209.19,2538.32 71.7,216.91 c 30.9,-3.23 56.15,-21.3 72,-51.4 l -143.7,-165.51"
         style="fill:#06ab91;fill-opacity:1;fill-rule:nonzero;stroke:none"
         id="path104" />
      <path
         d="m 1110.63,2255.04 c -31.01,0 -57.31,13.82 -75.73,41.02 l 160.76,203.99 0.91,1.11 163.09,187.83 c 8.18,-21.11 12.32,-46.15 12.32,-74.53 0,-126.33 -83.01,-277.1 -185.11,-335.97 -27.15,-15.7 -53.01,-23.45 -76.24,-23.45"
         style="fill:#70cec3;fill-opacity:1;fill-rule:nonzero;stroke:none"
         id="path106" />
      <path
         d="m 1025.34,2811.86 9.69,5.6 c 2.41,1.39 4.4,3.25 5.97,5.56 1.57,2.32 2.35,5.33 2.35,9.03 0,3.7 -0.78,5.81 -2.35,6.31 -1.57,0.5 -3.56,0.05 -5.97,-1.33 l -9.69,-5.6 z m 9.69,45.65 c 3.78,2.19 7.16,3.52 10.13,4.01 2.98,0.48 5.52,0.09 7.6,-1.16 2.1,-1.26 3.69,-3.49 4.81,-6.68 1.12,-3.19 1.68,-7.35 1.68,-12.46 0,-6.6 -0.9,-12.6 -2.66,-18 -1.79,-5.38 -4.3,-10.16 -7.56,-14.34 l 10.65,-25.32 0.25,-1.3 -0.56,-2.37 -1.32,-1.63 -11.69,-6.74 c -1.14,-0.66 -1.95,-0.73 -2.44,-0.22 l -1.16,1.71 -9.52,22.79 -7.9,-4.56 v -28.3 c 0,-0.97 -0.24,-1.94 -0.71,-2.91 -0.44,-0.96 -0.99,-1.63 -1.63,-2 l -11.24,-6.49 -1.63,0.12 c -0.46,0.43 -0.68,1.14 -0.68,2.11 v 85.4 c 0,0.97 0.22,1.94 0.68,2.91 0.46,0.97 1,1.64 1.63,2 l 23.27,13.43"
         style="fill:#33535f;fill-opacity:1;fill-rule:nonzero;stroke:none"
         id="path108" />
      <path
         d="m 1116.43,2833.12 1.64,-0.1 c 0.45,-0.45 0.69,-1.16 0.69,-2.12 v -14.02 c 0,-0.97 -0.24,-1.94 -0.69,-2.9 -0.45,-0.97 -1.01,-1.65 -1.64,-2.01 l -40.7,-23.5 -1.63,0.12 c -0.45,0.44 -0.69,1.15 -0.69,2.11 v 85.41 c 0,0.97 0.24,1.94 0.69,2.91 0.46,0.96 1,1.63 1.63,2 l 40.02,23.1 1.62,-0.11 c 0.47,-0.45 0.7,-1.15 0.7,-2.12 v -14.01 c 0,-0.97 -0.23,-1.95 -0.7,-2.91 -0.45,-0.97 -0.99,-1.64 -1.62,-2 l -26.44,-15.27 v -14.27 l 24.55,14.17 1.63,-0.12 c 0.46,-0.44 0.68,-1.14 0.68,-2.11 v -14.02 c 0,-0.97 -0.22,-1.93 -0.68,-2.9 -0.47,-0.98 -1.01,-1.64 -1.63,-2.01 l -24.55,-14.17 v -14.81 l 27.12,15.66"
         style="fill:#33535f;fill-opacity:1;fill-rule:nonzero;stroke:none"
         id="path110" />
      <path
         d="m 1148.81,2881.83 10.55,6.09 c 2.41,1.39 4.39,3.35 5.97,5.9 1.57,2.54 2.36,5.66 2.36,9.36 0,3.69 -0.79,5.91 -2.36,6.62 -1.58,0.73 -3.56,0.4 -5.97,-0.99 l -10.55,-6.1 z m 10.98,47.72 c 3.67,2.11 6.97,3.38 9.88,3.79 2.92,0.4 5.41,-0.1 7.46,-1.51 2.07,-1.41 3.66,-3.73 4.77,-6.97 1.12,-3.23 1.67,-7.4 1.67,-12.52 0,-5.19 -0.55,-10.06 -1.67,-14.57 -1.11,-4.53 -2.7,-8.66 -4.77,-12.41 -2.05,-3.75 -4.54,-7.13 -7.46,-10.13 -2.91,-3 -6.21,-5.56 -9.88,-7.68 l -10.98,-6.34 v -26.98 c 0,-0.97 -0.23,-1.94 -0.7,-2.91 -0.44,-0.96 -1,-1.64 -1.63,-2 l -11.25,-6.49 -1.63,0.12 c -0.45,0.43 -0.69,1.14 -0.69,2.11 v 85.4 c 0,0.97 0.24,1.94 0.69,2.91 0.46,0.97 1,1.63 1.63,2 l 24.56,14.18"
         style="fill:#33535f;fill-opacity:1;fill-rule:nonzero;stroke:none"
         id="path112" />
      <path
         d="m 1231.84,2913.77 c 0.06,1.62 0.12,3.42 0.18,5.39 0.05,1.97 0.09,3.97 0.09,6 0,2.03 -0.04,3.97 -0.09,5.84 -0.06,1.85 -0.12,3.52 -0.18,4.98 -0.1,2.13 -0.41,3.99 -0.9,5.57 -0.48,1.56 -1.17,2.78 -2.05,3.63 -0.89,0.85 -2,1.29 -3.31,1.33 -1.32,0.03 -2.87,-0.47 -4.64,-1.49 -1.78,-1.03 -3.32,-2.32 -4.64,-3.87 -1.32,-1.55 -2.42,-3.26 -3.3,-5.14 -0.89,-1.88 -1.58,-3.89 -2.06,-6.02 -0.5,-2.13 -0.79,-4.34 -0.91,-6.6 -0.11,-1.56 -0.18,-3.3 -0.21,-5.21 -0.03,-1.92 -0.05,-3.88 -0.05,-5.91 0,-2.03 0.02,-4 0.05,-5.93 0.03,-1.92 0.1,-3.64 0.21,-5.16 0.23,-4.28 1.22,-7.36 2.97,-9.26 1.74,-1.91 4.39,-1.83 7.94,0.21 3.55,2.05 6.18,5.03 7.9,8.93 1.71,3.91 2.72,8.13 3,12.71 z m -37.69,1.11 c 0.17,5.04 0.86,10.09 2.1,15.16 1.23,5.07 2.98,9.88 5.24,14.39 2.25,4.52 5.01,8.67 8.25,12.43 3.22,3.76 6.96,6.86 11.2,9.31 4.18,2.41 7.9,3.61 11.17,3.61 3.25,-0.01 6.02,-0.98 8.28,-2.89 2.27,-1.91 4.01,-4.69 5.24,-8.34 1.22,-3.65 1.93,-7.9 2.1,-12.73 0.12,-3.73 0.17,-7.67 0.17,-11.8 0,-4.15 -0.05,-8.06 -0.17,-11.74 -0.17,-5.04 -0.88,-10.08 -2.1,-15.16 -1.23,-5.07 -2.97,-9.89 -5.24,-14.46 -2.26,-4.57 -5.03,-8.72 -8.28,-12.45 -3.27,-3.74 -6.99,-6.81 -11.17,-9.22 -4.24,-2.45 -7.98,-3.69 -11.2,-3.7 -3.24,-0.01 -6,0.96 -8.25,2.91 -2.26,1.96 -4.01,4.76 -5.24,8.41 -1.24,3.66 -1.93,7.89 -2.1,12.73 -0.11,3.55 -0.17,7.39 -0.17,11.55 0,4.13 0.06,8.13 0.17,11.99"
         style="fill:#33535f;fill-opacity:1;fill-rule:nonzero;stroke:none"
         id="path114" />
      <path
         d="m 1277.95,2957.71 9.7,5.6 c 2.4,1.39 4.39,3.25 5.97,5.56 1.58,2.32 2.36,5.33 2.36,9.03 0,3.7 -0.78,5.81 -2.36,6.31 -1.58,0.5 -3.57,0.06 -5.97,-1.33 l -9.7,-5.6 z m 9.7,45.66 c 3.78,2.18 7.16,3.51 10.14,4 2.98,0.49 5.51,0.09 7.6,-1.16 2.08,-1.26 3.69,-3.49 4.81,-6.68 1.12,-3.19 1.66,-7.35 1.66,-12.46 0,-6.6 -0.88,-12.6 -2.66,-18 -1.77,-5.38 -4.28,-10.16 -7.55,-14.33 l 10.64,-25.33 0.26,-1.3 -0.55,-2.37 -1.34,-1.63 -11.67,-6.74 c -1.15,-0.66 -1.96,-0.73 -2.44,-0.22 l -1.17,1.71 -9.53,22.79 -7.9,-4.56 v -28.3 c 0,-0.96 -0.23,-1.94 -0.69,-2.9 -0.45,-0.97 -1,-1.64 -1.63,-2 l -11.25,-6.5 -1.63,0.12 c -0.46,0.43 -0.69,1.14 -0.69,2.11 v 85.4 c 0,0.98 0.23,1.94 0.69,2.92 0.46,0.96 1,1.63 1.63,1.99 l 23.27,13.44"
         style="fill:#33535f;fill-opacity:1;fill-rule:nonzero;stroke:none"
         id="path116" />
      <path
         d="m 1369.66,3050.71 1.63,-0.11 c 0.46,-0.44 0.68,-1.15 0.68,-2.12 v -14.01 c 0,-0.97 -0.22,-1.94 -0.68,-2.9 -0.46,-0.97 -1,-1.64 -1.63,-2.01 l -15.11,-8.72 v -67.82 c 0,-0.97 -0.23,-1.95 -0.69,-2.91 -0.46,-0.97 -1.01,-1.64 -1.64,-2.01 l -11.25,-6.49 -1.63,0.12 c -0.45,0.43 -0.69,1.14 -0.69,2.11 v 67.82 l -15.11,-8.72 -1.63,0.12 c -0.46,0.43 -0.68,1.14 -0.68,2.11 v 14.01 c 0,0.97 0.22,1.94 0.68,2.91 0.47,0.97 1,1.63 1.63,2 l 46.12,26.62"
         style="fill:#33535f;fill-opacity:1;fill-rule:nonzero;stroke:none"
         id="path118" />
      <path
         d="m 1449.49,3096.76 1123.93,648.91 v -89.51 l -1123.93,-648.9 v 89.5"
         style="fill:#26b6a6;fill-opacity:1;fill-rule:nonzero;stroke:none"
         id="path120" />
      <path
         d="m 1442.57,2814.79 c -3.3,0 -6.5,1.72 -8.27,4.77 -2.64,4.57 -1.07,10.41 3.49,13.04 l 658.86,380.39 c 1.5,0.87 3.14,1.28 4.75,1.28 3.3,0 6.51,-1.71 8.29,-4.77 2.63,-4.56 1.07,-10.4 -3.49,-13.04 l -658.87,-380.39 c -1.5,-0.87 -3.14,-1.28 -4.76,-1.28"
         style="fill:#afbdbe;fill-opacity:1;fill-rule:nonzero;stroke:none"
         id="path122" />
      <path
         d="m 1442.57,2725.29 c -3.3,0 -6.5,1.71 -8.27,4.77 -2.64,4.57 -1.07,10.4 3.49,13.04 l 658.86,380.4 c 1.5,0.86 3.14,1.28 4.75,1.28 3.3,0 6.51,-1.71 8.29,-4.78 2.63,-4.57 1.07,-10.4 -3.49,-13.03 l -658.87,-380.4 c -1.5,-0.87 -3.14,-1.28 -4.76,-1.28"
         style="fill:#afbdbe;fill-opacity:1;fill-rule:nonzero;stroke:none"
         id="path124" />
      <path
         d="m 1442.57,2635.79 c -3.3,0 -6.5,1.71 -8.27,4.77 -2.64,4.57 -1.07,10.4 3.49,13.04 l 658.86,380.39 c 1.5,0.87 3.14,1.28 4.75,1.28 3.3,0 6.51,-1.71 8.29,-4.77 2.63,-4.57 1.07,-10.4 -3.49,-13.04 l -658.87,-380.39 c -1.5,-0.87 -3.14,-1.28 -4.76,-1.28"
         style="fill:#afbdbe;fill-opacity:1;fill-rule:nonzero;stroke:none"
         id="path126" />
      <path
         d="m 1442.57,2546.29 c -3.3,0 -6.5,1.71 -8.27,4.77 -2.64,4.56 -1.07,10.4 3.49,13.04 l 658.86,380.39 c 1.5,0.87 3.13,1.28 4.75,1.28 3.3,0 6.51,-1.71 8.29,-4.78 2.63,-4.56 1.07,-10.4 -3.49,-13.03 l -658.87,-380.4 c -1.5,-0.86 -3.14,-1.27 -4.76,-1.27"
         style="fill:#afbdbe;fill-opacity:1;fill-rule:nonzero;stroke:none"
         id="path128" />
      <path
         d="m 1442.57,2456.79 c -3.3,0 -6.5,1.71 -8.27,4.77 -2.64,4.56 -1.07,10.39 3.49,13.03 l 658.86,380.39 c 1.5,0.87 3.14,1.28 4.76,1.28 3.29,0 6.5,-1.71 8.28,-4.77 2.63,-4.57 1.07,-10.4 -3.49,-13.04 l -658.87,-380.39 c -1.5,-0.86 -3.14,-1.27 -4.76,-1.27"
         style="fill:#afbdbe;fill-opacity:1;fill-rule:nonzero;stroke:none"
         id="path130" />
      <path
         d="m 2196.19,3304.69 84.77,48.94 c 5.7,3.29 10.32,0.62 10.32,-5.96 v -97.89 c 0,-6.58 -4.62,-14.59 -10.32,-17.89 l -84.77,-48.94 c -5.71,-3.29 -10.33,-0.62 -10.33,5.97 v 97.88 c 0,6.59 4.62,14.6 10.33,17.89"
         style="fill:#26b6a6;fill-opacity:1;fill-rule:nonzero;stroke:none"
         id="path132" />
      <path
         d="m 2336.75,3385.85 84.78,48.94 c 5.7,3.29 10.32,0.62 10.32,-5.97 v -97.88 c 0,-6.59 -4.62,-14.59 -10.32,-17.89 l -84.78,-48.94 c -5.7,-3.3 -10.33,-0.62 -10.33,5.96 v 97.89 c 0,6.59 4.63,14.59 10.33,17.89"
         style="fill:#26b6a6;fill-opacity:1;fill-rule:nonzero;stroke:none"
         id="path134" />
      <path
         d="m 2477.32,3467.01 84.77,48.94 c 5.71,3.29 10.33,0.62 10.33,-5.97 v -97.88 c 0,-6.59 -4.62,-14.6 -10.33,-17.89 l -84.77,-48.94 c -5.7,-3.3 -10.32,-0.63 -10.32,5.96 v 97.89 c 0,6.58 4.62,14.59 10.32,17.89"
         style="fill:#26b6a6;fill-opacity:1;fill-rule:nonzero;stroke:none"
         id="path136" />
      <path
         d="m 2196.19,3142.37 84.77,48.94 c 5.7,3.3 10.32,0.63 10.32,-5.96 v -97.88 c 0,-6.59 -4.62,-14.6 -10.32,-17.9 l -84.77,-48.94 c -5.71,-3.29 -10.33,-0.62 -10.33,5.97 v 97.88 c 0,6.59 4.62,14.6 10.33,17.89"
         style="fill:#26b6a6;fill-opacity:1;fill-rule:nonzero;stroke:none"
         id="path138" />
      <path
         d="m 2336.75,3223.53 84.78,48.94 c 5.7,3.3 10.32,0.63 10.32,-5.96 v -97.89 c 0,-6.58 -4.62,-14.59 -10.32,-17.88 l -84.78,-48.95 c -5.7,-3.29 -10.33,-0.62 -10.33,5.97 v 97.88 c 0,6.59 4.63,14.6 10.33,17.89"
         style="fill:#26b6a6;fill-opacity:1;fill-rule:nonzero;stroke:none"
         id="path140" />
      <path
         d="m 2477.32,3304.69 84.77,48.94 c 5.71,3.29 10.33,0.62 10.33,-5.97 v -97.88 c 0,-6.58 -4.62,-14.59 -10.33,-17.89 l -84.77,-48.94 c -5.7,-3.29 -10.32,-0.62 -10.32,5.97 v 97.88 c 0,6.58 4.62,14.6 10.32,17.89"
         style="fill:#26b6a6;fill-opacity:1;fill-rule:nonzero;stroke:none"
         id="path142" />
      <path
         d="m 2196.19,2980.06 84.77,48.94 c 5.7,3.29 10.32,0.62 10.32,-5.96 v -97.89 c 0,-6.59 -4.62,-14.59 -10.32,-17.89 l -84.77,-48.94 c -5.71,-3.3 -10.33,-0.63 -10.33,5.96 v 97.89 c 0,6.58 4.62,14.59 10.33,17.89"
         style="fill:#26b6a6;fill-opacity:1;fill-rule:nonzero;stroke:none"
         id="path144" />
      <path
         d="m 2336.75,3061.22 84.78,48.94 c 5.7,3.29 10.32,0.62 10.32,-5.97 v -97.88 c 0,-6.59 -4.62,-14.6 -10.32,-17.89 l -84.78,-48.94 c -5.7,-3.3 -10.33,-0.63 -10.33,5.96 v 97.88 c 0,6.59 4.63,14.6 10.33,17.9"
         style="fill:#26b6a6;fill-opacity:1;fill-rule:nonzero;stroke:none"
         id="path146" />
      <path
         d="m 2477.32,3142.37 84.77,48.94 c 5.71,3.29 10.33,0.63 10.33,-5.96 v -97.88 c 0,-6.59 -4.62,-14.6 -10.33,-17.9 l -84.77,-48.94 c -5.7,-3.29 -10.32,-0.62 -10.32,5.97 v 97.88 c 0,6.59 4.62,14.6 10.32,17.89"
         style="fill:#26b6a6;fill-opacity:1;fill-rule:nonzero;stroke:none"
         id="path148" />
      <path
         d="m 1023.17,1552.82 1085.18,626.53 v -44.76 L 1023.17,1508.07 v 44.75"
         style="fill:#33535f;fill-opacity:1;fill-rule:nonzero;stroke:none"
         id="path150" />
      <path
         d="m 1023.17,1597.57 v 268.51 l 95.59,-55.19 92.04,170.62 109.79,-63.39 51.39,59.84 77.51,-44.75 112.74,168.48 89.97,-37.56 107.34,227.1 75.15,-130.47 102.56,148.72 38.22,-72.59 132.88,210.97 V 2224.1 L 1023.17,1597.57"
         style="fill:#26b6a6;fill-opacity:1;fill-rule:nonzero;stroke:none"
         id="path152" />
      <path
         d="m 1023.17,1891.07 89.17,-47.36 92.46,171.99 110.43,-63.76 49.6,57.88 77.51,-44.75 110.96,162.33 89.97,-37.56 116.27,246.14 77.52,-134.26 102.55,148.72 37.52,-72.56 131.22,208.33 v 185.41 l -137.21,-213.89 -56.58,102.01 -77.5,-134.26 -77.52,44.75 -77.51,-134.25 -77.51,44.75 -116.28,-201.38 -77.51,67.12 -76.79,-111.46 -121.17,66.71 -98.02,-164.76 -91.58,52.88 v -198.77"
         style="fill:#26b6a6;fill-opacity:1;fill-rule:nonzero;stroke:none"
         id="path154" />
      <path
         d="m 1112.34,1843.71 -89.17,47.36 v 198.77 l 91.58,-52.88 98.02,164.76 121.17,-66.71 76.79,111.46 77.51,-67.12 116.28,201.38 77.51,-44.75 77.51,134.25 77.52,-44.75 77.5,134.26 56.58,-102.01 137.21,213.89 v -185.41 l -131.22,-208.33 -37.52,72.56 -102.55,-148.72 -77.52,134.26 -116.27,-246.14 -89.97,37.56 -110.96,-162.33 -77.51,44.75 -49.6,-57.88 -110.43,63.76 -92.46,-171.99"
         style="fill:#06ab91;fill-opacity:1;fill-rule:nonzero;stroke:none"
         id="path156" />
      <path
         d="m 2185.86,2706.83 c -3.29,0 -6.5,1.71 -8.27,4.77 -2.63,4.56 -1.07,10.4 3.49,13.03 l 387.58,223.76 c 1.5,0.87 3.13,1.28 4.75,1.28 3.3,0 6.51,-1.71 8.28,-4.77 2.64,-4.56 1.08,-10.4 -3.49,-13.04 l -387.57,-223.75 c -1.51,-0.87 -3.14,-1.28 -4.77,-1.28"
         style="fill:#afbdbe;fill-opacity:1;fill-rule:nonzero;stroke:none"
         id="path158" />
      <path
         d="m 2185.86,2617.32 c -3.29,0 -6.5,1.71 -8.27,4.77 -2.63,4.57 -1.07,10.4 3.49,13.04 l 387.58,223.76 c 1.5,0.87 3.13,1.28 4.75,1.28 3.3,0 6.51,-1.71 8.28,-4.78 2.64,-4.56 1.08,-10.39 -3.49,-13.03 L 2190.63,2618.6 c -1.51,-0.87 -3.14,-1.28 -4.77,-1.28"
         style="fill:#afbdbe;fill-opacity:1;fill-rule:nonzero;stroke:none"
         id="path160" />
      <path
         d="m 2185.86,2527.83 c -3.29,0 -6.5,1.71 -8.27,4.77 -2.63,4.56 -1.07,10.39 3.49,13.03 l 387.58,223.76 c 1.5,0.87 3.14,1.28 4.76,1.28 3.29,0 6.5,-1.71 8.27,-4.77 2.64,-4.57 1.08,-10.4 -3.49,-13.04 L 2190.63,2529.1 c -1.51,-0.86 -3.14,-1.27 -4.77,-1.27"
         style="fill:#afbdbe;fill-opacity:1;fill-rule:nonzero;stroke:none"
         id="path162" />
      <path
         d="m 2185.86,2438.31 c -3.29,0 -6.5,1.72 -8.27,4.78 -2.63,4.57 -1.07,10.4 3.49,13.04 l 387.58,223.76 c 1.5,0.87 3.13,1.28 4.75,1.28 3.3,0 6.51,-1.71 8.28,-4.78 2.64,-4.56 1.08,-10.39 -3.49,-13.03 L 2190.63,2439.6 c -1.51,-0.87 -3.14,-1.29 -4.77,-1.29"
         style="fill:#afbdbe;fill-opacity:1;fill-rule:nonzero;stroke:none"
         id="path164" />
      <path
         d="m 2185.86,2348.82 c -3.29,0 -6.5,1.71 -8.27,4.77 -2.63,4.57 -1.07,10.4 3.49,13.04 l 387.58,223.76 c 1.5,0.87 3.14,1.28 4.76,1.28 3.29,0 6.5,-1.71 8.27,-4.78 2.64,-4.56 1.08,-10.4 -3.49,-13.03 L 2190.63,2350.1 c -1.51,-0.87 -3.14,-1.28 -4.77,-1.28"
         style="fill:#afbdbe;fill-opacity:1;fill-rule:nonzero;stroke:none"
         id="path166" />
      <path
         d="m 2185.86,2259.32 c -3.29,0 -6.5,1.71 -8.27,4.77 -2.63,4.56 -1.07,10.4 3.49,13.03 l 387.58,223.76 c 1.49,0.87 3.13,1.28 4.75,1.28 3.29,0 6.51,-1.71 8.28,-4.77 2.64,-4.57 1.08,-10.4 -3.49,-13.04 L 2190.63,2260.6 c -1.51,-0.87 -3.14,-1.28 -4.77,-1.28"
         style="fill:#afbdbe;fill-opacity:1;fill-rule:nonzero;stroke:none"
         id="path168" />
      <path
         d="m 2185.86,2169.81 c -3.29,0 -6.5,1.71 -8.27,4.77 -2.63,4.57 -1.07,10.4 3.49,13.04 l 387.58,223.76 c 1.5,0.87 3.14,1.28 4.75,1.28 3.3,0 6.51,-1.71 8.28,-4.77 2.64,-4.57 1.08,-10.41 -3.49,-13.04 l -387.57,-223.76 c -1.51,-0.87 -3.14,-1.28 -4.77,-1.28"
         style="fill:#afbdbe;fill-opacity:1;fill-rule:nonzero;stroke:none"
         id="path170" />
      <path
         d="m 1012.59,852.672 v -21.024 c 0,-6.617 4.65,-14.668 10.38,-17.968 L 2190.46,139.621 c 5.74,-3.32 15.03,-3.32 20.76,-0.012 l 836.34,482.871 c 5.73,3.309 10.38,11.36 10.38,17.981 v 21.008 c 0,6.621 -4.65,14.683 -10.38,17.992 L 1880.07,1353.51 c -5.73,3.31 -15.03,3.31 -20.76,0 L 1022.97,870.648 c -5.73,-3.308 -10.38,-11.359 -10.38,-17.976"
         style="fill:#26b6a6;fill-opacity:1;fill-rule:nonzero;stroke:none"
         id="path172" />
      <path
         d="m 2200.86,137.102 v 0.027 c 3.75,0 7.5,0.832 10.36,2.48 l 836.34,482.871 c 2.35,1.352 4.52,3.512 6.26,6.032 -1.74,-2.532 -3.91,-4.692 -6.27,-6.051 L 2211.21,139.59 c -2.89,-1.649 -6.57,-2.461 -10.35,-2.488"
         style="fill:#616466;fill-opacity:1;fill-rule:nonzero;stroke:none"
         id="path174" />
      <path
         d="m 3057.94,651.961 v 0 9.508 c 0,1.261 -0.16,2.57 -0.48,3.89 0.32,-1.32 0.49,-2.64 0.49,-3.89 l -0.01,-9.508"
         style="fill:#686c6e;fill-opacity:1;fill-rule:nonzero;stroke:none"
         id="path176" />
      <path
         d="m 3057.94,650.949 v 1.012 -1.012"
         style="fill:#616466;fill-opacity:1;fill-rule:nonzero;stroke:none"
         id="path178" />
      <path
         d="m 2200.86,137.129 0.01,44.98 v 0 c 3.28,0.032 6.51,0.621 9.17,1.871 0.42,0.192 0.82,0.399 1.21,0.622 l 836.33,482.839 c 2.34,1.348 3.73,3.051 4.14,4.821 0.52,2.16 -0.39,4.418 -2.75,6.238 v 0 c 4.01,-2.93 7.3,-8.109 8.49,-13.141 0.32,-1.32 0.48,-2.629 0.48,-3.89 v -9.508 -1.012 l -0.01,-10.508 c 0.01,-3.89 -1.61,-8.289 -4.11,-11.929 -1.74,-2.52 -3.91,-4.68 -6.26,-6.032 L 2211.22,139.609 c -2.86,-1.648 -6.61,-2.48 -10.36,-2.48"
         style="fill:#0b7465;fill-opacity:1;fill-rule:nonzero;stroke:none"
         id="path180" />
      <path
         d="m 1016.1,820.641 c -2.15,3.429 -3.51,7.422 -3.54,10.988 l 0.02,21.043 0.01,0.098 c 0,-0.04 0,-0.071 0,-0.098 v -21.024 c 0,-3.566 1.36,-7.566 3.51,-11.007 v 0"
         style="fill:#515355;fill-opacity:1;fill-rule:nonzero;stroke:none"
         id="path182" />
      <path
         d="m 2200.86,137.102 c -3.76,0.007 -7.54,0.859 -10.4,2.519 L 1022.96,813.68 c -2.64,1.519 -5.04,4.039 -6.86,6.961 v 0 c 1.83,-2.922 4.24,-5.442 6.87,-6.961 L 2190.46,139.621 c 2.87,-1.66 6.63,-2.492 10.39,-2.492 0,0 0,0 0.01,0 v -0.027 0"
         style="fill:#4b4d4f;fill-opacity:1;fill-rule:nonzero;stroke:none"
         id="path184" />
      <path
         d="m 2200.85,137.129 c -3.76,0 -7.52,0.832 -10.39,2.492 L 1022.97,813.68 c -2.63,1.519 -5.04,4.039 -6.87,6.961 -2.15,3.441 -3.51,7.441 -3.51,11.007 v 21.024 c 0,0.027 0,0.058 0,0.098 l 0.16,1.671 0.11,0.711 c 0.08,0.688 0.22,1.328 0.36,1.989 0.87,3.289 2.63,6.589 4.9,9.25 l -0.01,-0.012 0.83,0.922 -0.65,-0.653 1.34,1.391 0.34,0.301 0.86,0.719 0.4,0.332 -0.13,-0.129 -0.11,-0.114 -0.74,-0.699 c -1.56,-1.75 -1.97,-3.789 -1.24,-5.707 0.13,-0.351 0.31,-0.703 0.54,-1.051 0.63,-1.043 1.65,-2 3.02,-2.82 0.12,-0.082 0.25,-0.152 0.38,-0.23 l 1167.5,-674.059 c 2.82,-1.621 6.52,-2.473 10.23,-2.473 0.06,0 0.13,0 0.19,0 l -0.01,-44.98 c -0.01,0 -0.01,0 -0.01,0"
         style="fill:#0b584b;fill-opacity:1;fill-rule:nonzero;stroke:none"
         id="path186" />
      <path
         d="m 1012.82,855.289 c 0.12,0.832 0.3,1.68 0.56,2.543 -0.05,-0.203 -0.09,-0.391 -0.13,-0.57 -0.18,-0.66 -0.33,-1.321 -0.43,-1.973"
         style="fill:#9b9d9d;fill-opacity:1;fill-rule:nonzero;stroke:none"
         id="path188" />
      <path
         d="m 1012.66,853.922 c 0.04,0.437 0.09,0.898 0.16,1.367 0.1,0.652 0.25,1.313 0.43,1.973 -0.01,-0.043 -0.02,-0.082 -0.03,-0.121 -0.17,-0.649 -0.3,-1.301 -0.4,-1.95 l -0.07,-0.75 -0.09,-0.519"
         style="fill:#06ab91;fill-opacity:1;fill-rule:nonzero;stroke:none"
         id="path190" />
      <path
         d="m 1012.75,854.441 0.07,0.75 c 0.1,0.649 0.23,1.301 0.4,1.95 -0.14,-0.661 -0.28,-1.301 -0.36,-1.989 l -0.11,-0.711"
         style="fill:#09362e;fill-opacity:1;fill-rule:nonzero;stroke:none"
         id="path192" />
      <path
         d="m 3047.96,679.219 c -0.13,0.082 -0.26,0.16 -0.4,0.242 L 1880.07,1353.51 c -2.86,1.65 -6.62,2.48 -10.38,2.48 -3.76,0 -7.51,-0.83 -10.38,-2.48 l -401.21,-231.64 401.19,231.66 c 2.88,1.65 6.64,2.47 10.4,2.47 3.76,0 7.52,-0.82 10.4,-2.47 l 1167.49,-674.05 0.38,-0.261"
         style="fill:#9b9d9d;fill-opacity:1;fill-rule:nonzero;stroke:none"
         id="path194" />
      <path
         d="m 2200.84,182.129 c -3.7,0 -7.51,0.82 -10.39,2.473 l -1167.5,674.05 c -0.13,0.067 -0.26,0.149 -0.38,0.219 -1.36,0.848 -2.37,1.809 -3.02,2.82 -0.22,0.348 -0.39,0.719 -0.51,1.079 -0.72,1.851 -0.31,3.91 1.24,5.671 l 0.71,0.707 0.36,0.332 -0.12,-0.089 0.08,0.078 1.64,1.133 435.15,251.268 401.21,231.64 c 2.87,1.65 6.62,2.48 10.38,2.48 3.76,0 7.52,-0.83 10.38,-2.48 L 3047.56,679.461 c 0.14,-0.082 0.27,-0.16 0.4,-0.242 l 0.96,-0.668 0.05,-0.051 c 0,0.012 -0.01,0.012 -0.01,0.012 0,0 0.01,0 0.01,-0.012 l 0.05,-0.051 c 2.3,-1.847 3.2,-4.07 2.7,-6.187 -0.43,-1.762 -1.81,-3.461 -4.15,-4.793 L 2211.23,184.602 c -0.38,-0.223 -0.78,-0.43 -1.19,-0.622 -2.68,-1.23 -5.9,-1.851 -9.2,-1.851 m -272.4,1082.301 c -2.26,0 -4.51,-0.5 -6.23,-1.49 L 1194.45,842.77 c -3.44,-1.981 -6.23,-6.809 -6.23,-10.778 v -8.133 c 0,-3.968 2.79,-8.8 6.23,-10.789 l 961.52,-555.129 c 1.72,-0.992 3.97,-1.492 6.23,-1.492 2.25,0 4.51,0.5 6.23,1.492 l 727.77,420.18 c 3.43,1.988 6.22,6.82 6.23,10.789 v 8.11 c 0,3.972 -2.8,8.8 -6.23,10.789 l -961.53,555.131 c -1.72,0.99 -3.98,1.49 -6.23,1.49"
         style="fill:#06ab91;fill-opacity:1;fill-rule:nonzero;stroke:none"
         id="path196" />
      <path
         d="m 2210.04,183.98 c 0.41,0.192 0.81,0.399 1.19,0.622 l 836.34,482.867 c 2.34,1.332 3.72,3.031 4.15,4.793 -0.41,-1.77 -1.8,-3.473 -4.14,-4.821 L 2211.25,184.602 c -0.39,-0.223 -0.79,-0.43 -1.21,-0.622 m 838.93,494.52 c 0,0.012 -0.01,0.012 -0.01,0.012 0,0 0.01,0 0.01,-0.012 v 0"
         style="fill:#0a483e;fill-opacity:1;fill-rule:nonzero;stroke:none"
         id="path198" />
      <path
         d="m 1022.57,858.871 c -1.37,0.82 -2.39,1.777 -3.02,2.82 0.65,-1.011 1.66,-1.972 3.02,-2.82 m -1.58,10.277 0.11,0.114 0.13,0.129 0.12,0.089 -0.36,-0.332"
         style="fill:#09362e;fill-opacity:1;fill-rule:nonzero;stroke:none"
         id="path200" />
      <path
         d="m 1018.21,866.559 0.01,0.023 0.05,0.059 v -0.012 l -0.02,-0.008 v -0.012 c -0.02,-0.019 -0.03,-0.027 -0.04,-0.05"
         style="fill:#e2e2e0;fill-opacity:1;fill-rule:nonzero;stroke:none"
         id="path202" />
      <path
         d="m 1018.12,866.391 0.09,0.168 c 0.01,0.023 0.02,0.031 0.04,0.05 l -0.12,-0.199 c 0,-0.008 0,-0.008 -0.01,-0.019 m 0.15,0.238 v 0.012 l 0.02,0.007 -0.02,-0.019"
         style="fill:#25b5a3;fill-opacity:1;fill-rule:nonzero;stroke:none"
         id="path204" />
      <path
         d="m 1018.25,866.609 v 0.012 l 0.02,0.008 c -0.01,-0.008 -0.02,-0.008 -0.02,-0.02"
         style="fill:#4d4f51;fill-opacity:1;fill-rule:nonzero;stroke:none"
         id="path206" />
      <path
         d="m 1018.11,866.379 0.01,0.012 c 0.01,0.011 0.01,0.011 0.01,0.019 l 0.12,0.199 c 0,0.012 0.01,0.012 0.02,0.02 l 0.02,0.019 0.65,0.653 -0.83,-0.922"
         style="fill:#0b5247;fill-opacity:1;fill-rule:nonzero;stroke:none"
         id="path208" />
      <path
         d="m 1381.91,1140.53 c 1.69,3.07 4.46,5.87 8.46,8.18 2.59,1.48 5.53,2.72 8.71,3.65 18.11,5.28 44.55,1.64 64.15,-9.67 9.55,-5.52 15.89,-11.99 18.87,-18.38 -1.69,-3.06 -4.45,-5.84 -8.42,-8.14 -11.5,-6.65 -29.89,-7.66 -47.65,-3.67 -8.92,1.99 -17.61,5.24 -25.3,9.68 -9.53,5.5 -15.85,11.96 -18.82,18.35 z m -53.18,10.84 c -0.07,-18.86 26.22,-38.59 33.46,-55.34 0.63,-1.45 1.13,-2.86 1.53,-4.23 -3.62,-11.88 -14.59,-20.12 -16.91,-28.08 -0.59,-1.92 -0.83,-3.7 -0.84,-5.43 -0.03,-3.02 -0.01,-14.01 0,-15.83 0.01,-3.51 0.87,-6.89 1.5,-11.02 -0.51,-3.4 -1.34,-7.2 -2.73,-11.6 -2.77,-8.83 -3.85,-15.19 -3.84,-19.86 0,-2.73 0.03,-12.941 0.02,-15.378 -0.05,-9.102 3.95,-11.961 7.88,-14.231 l 46.84,-27.051 350.46,202.39 v 15.57 l -46.81,27.02 c -3.86,2.23 -8.62,4.48 -23.59,4.54 -0.97,0.01 -2,0 -3.09,0.01 -7.83,-0.13 -18.16,-0.81 -32.04,-2.26 -26.34,-2.74 -41,-1.91 -52.77,-1.21 -4.82,0.29 -9.11,0.55 -13.57,0.52 -3.09,0.02 -6.23,-0.11 -9.67,-0.45 -20.14,-1.99 -41.24,-14.62 -81.72,-9.08 l -1.26,0.18 c -28.77,4.15 -62.74,19.22 -95.25,19.33 -1.08,0.01 -2.12,0 -3.23,-0.02 -12.7,-0.36 -25.22,-3.16 -37.09,-9.98 -12.6,-7.28 -17.26,-15.01 -17.3,-22.88 -0.02,-2.76 0.03,-13.17 0.02,-15.63"
         style="fill:#17282f;fill-opacity:1;fill-rule:nonzero;stroke:none"
         id="path210" />
      <path
         d="m 1683.4,1151.96 c -4.62,-2.65 -13.23,-1.94 -19.3,1.56 -6.1,3.53 -7.33,8.5 -2.71,11.15 4.55,2.63 13.16,1.93 19.26,-1.6 6.07,-3.5 7.3,-8.48 2.75,-11.11 z m -209.72,-35.79 c -11.5,-6.65 -29.88,-7.66 -47.65,-3.67 -8.92,1.99 -17.61,5.24 -25.3,9.68 -23.01,13.28 -27.63,32.12 -10.36,42.09 2.59,1.49 5.53,2.73 8.71,3.66 18.11,5.27 44.55,1.63 64.15,-9.68 23.01,-13.28 27.7,-32.11 10.45,-42.08 z m -60.69,-120.35 c -4.55,-2.629 -13.16,-1.918 -19.27,1.61 -6.06,3.5 -7.37,8.52 -2.82,11.15 4.62,2.65 13.2,1.9 19.3,-1.62 6.07,-3.5 7.42,-8.48 2.79,-11.14 z m 262.71,197.02 c -0.97,0.01 -2,0 -3.09,0.01 -7.83,-0.13 -18.16,-0.81 -32.04,-2.26 -26.34,-2.74 -41,-1.91 -52.77,-1.21 -4.82,0.29 -9.11,0.55 -13.57,0.52 -3.09,0.02 -6.23,-0.11 -9.67,-0.45 -20.14,-1.99 -41.24,-14.62 -81.72,-9.08 l -1.26,0.18 c -28.77,4.15 -62.74,19.22 -95.25,19.33 -1.08,0.01 -2.12,0 -3.23,-0.02 -12.7,-0.36 -25.22,-3.16 -37.09,-9.98 -42.81,-24.74 5.91,-54.52 16.18,-78.28 10.35,-23.81 -11.95,-36.13 -15.38,-47.88 -3.61,-11.76 6.05,-18.11 -2.07,-43.88 -8.06,-25.75 -1.88,-30.481 4.06,-33.91 l 46.84,-27.039 350.46,202.389 -46.81,27.02 c -3.86,2.23 -8.62,4.48 -23.59,4.54"
         style="fill:#273e47;fill-opacity:1;fill-rule:nonzero;stroke:none"
         id="path212" />
      <path
         d="m 2168.43,257.941 727.77,420.18 c 3.43,1.988 6.22,6.82 6.23,10.789 v 8.11 c 0,3.972 -2.8,8.8 -6.23,10.789 l -961.53,555.131 c -3.44,1.99 -9.02,1.99 -12.46,0 L 1194.45,842.77 c -3.44,-1.981 -6.23,-6.809 -6.23,-10.778 v -8.133 c 0,-3.968 2.79,-8.8 6.23,-10.789 l 961.52,-555.129 c 3.44,-1.98 9.01,-1.98 12.46,0"
         style="fill:#fafaf9;fill-opacity:1;fill-rule:nonzero;stroke:none"
         id="path214" />
      <path
         d="m 2897.71,706.672 c 1.82,-1.93 1.33,-4.422 -1.5,-6.063 L 2168.44,280.441 c -1.74,-0.992 -3.98,-1.519 -6.23,-1.5 l -0.02,-22.472 c 2.25,-0.028 4.54,0.48 6.23,1.5 l 727.78,420.172 c 3.44,1.949 6.25,6.8 6.21,10.761 l 0.03,8.118 c -0.03,3.39 -2.01,7.359 -4.73,9.652"
         style="fill:#ededeb;fill-opacity:1;fill-rule:nonzero;stroke:none"
         id="path216" />
      <path
         d="m 1193.14,841.813 -1.69,-1.684 -0.72,-0.969 c -0.71,-1.031 -1.31,-2.168 -1.77,-3.351 l -0.61,-2.297 -0.12,-1.543 -0.01,-8.078 c 0.02,-4 2.78,-8.801 6.23,-10.789 l 961.51,-555.133 c 1.74,-1.008 3.99,-1.528 6.23,-1.5 l 0.02,22.472 c -2.26,0.028 -4.53,0.508 -6.23,1.5 L 1194.47,835.57 c -2.95,1.7 -3.4,4.282 -1.33,6.243"
         style="fill:#dadbd8;fill-opacity:1;fill-rule:nonzero;stroke:none"
         id="path218" />
      <path
         d="m 1555.65,1178.54 c -2.29,-6.18 -7.32,-11.82 -15.06,-15.89 -13.15,-6.91 -30.42,-7.52 -45.03,-2.63 -6.43,2.22 -12.42,5.51 -17.15,9.85 -4.03,3.7 -6.75,7.79 -8.27,11.99 2.3,6.2 7.36,11.86 15.14,15.93 1.9,1 3.9,1.9 5.96,2.65 18.57,6.61 42.38,2.72 56.11,-9.85 4.05,-3.73 6.78,-7.84 8.3,-12.05 z M 1441.13,943.379 c 0,-2.668 0.01,-13.129 0.01,-15.668 0,-7.422 3.07,-14.469 8.18,-21.41 l 428.82,247.459 v 15.57 c -13.04,6.69 -27.6,10.45 -41.83,10.52 l -0.55,-0.01 c -9.94,-0.02 -19.72,-1.91 -28.52,-5.9 -31.06,-14.13 -40.16,-18.57 -59.19,-26.58 -5.08,-2.16 -19.63,-4 -29.18,4.17 l -0.65,0.54 -12.84,11.79 -34.71,32.16 c 0,0 -4.34,5.28 -16.46,5.25 l -0.86,-0.01 c -2.41,-0.04 -5.11,-0.31 -8.18,-0.87 -8.9,-1.62 -22.31,-1.51 -35.63,0.53 -15.22,2.31 -30.31,7.15 -38.65,14.78 -15.01,13.77 -37.44,21.12 -59.7,21.18 l -1.75,0.02 c -14,-0.17 -27.85,-3.25 -39.57,-9.44 -20.78,-10.96 -29.77,-28.84 -25.93,-46.3 -2.96,-13.43 1.77,-27.94 14.92,-39.99 5.37,-4.93 8.32,-11.41 9.54,-18.28 -1.3,-7.94 -4.4,-15.21 -8.38,-19.93 -3.49,-4.16 -4.63,-7.65 -4.63,-10.43 -0.01,-3.67 0,-13.27 0.01,-15.59 0,-5.1 3.81,-7.79 3.81,-7.79 l 40.2,-36.84 12.84,-11.78 1.37,-1.46 c -1.44,-2.55 -2.94,-4.22 -2.94,-4.22 l -51.88,-40.491 c -12.55,-11.32 -17.65,-21.461 -17.67,-30.98"
         style="fill:#273e47;fill-opacity:1;fill-rule:nonzero;stroke:none"
         id="path220" />
      <path
         d="m 1547.35,1206.15 c 15.25,-14.01 12.31,-33.47 -6.76,-43.5 -13.15,-6.91 -30.42,-7.52 -45.03,-2.63 -6.43,2.22 -12.42,5.51 -17.15,9.85 -15.25,14.01 -12.24,33.48 6.87,43.48 1.9,1.01 3.9,1.91 5.96,2.66 18.57,6.61 42.38,2.72 56.11,-9.86 z m 288.96,-26.3 -0.55,-0.01 c -9.94,-0.02 -19.72,-1.91 -28.52,-5.9 -31.06,-14.13 -40.16,-18.57 -59.19,-26.58 -5.08,-2.16 -19.63,-4 -29.18,4.17 l -0.65,0.54 -12.84,11.79 -34.71,32.16 c 0,0 -4.33,5.28 -16.46,5.25 l -0.86,-0.01 c -2.41,-0.04 -5.11,-0.31 -8.18,-0.87 -8.9,-1.62 -22.31,-1.51 -35.63,0.53 -15.22,2.31 -30.31,7.15 -38.65,14.78 -15.01,13.77 -37.44,21.12 -59.7,21.18 l -1.75,0.02 c -14,-0.17 -27.85,-3.25 -39.57,-9.44 -30.93,-16.31 -35.88,-47.95 -11.01,-70.73 15.68,-14.37 11.1,-42.01 1.16,-53.77 -9.93,-11.82 -0.81,-18.25 -0.81,-18.25 l 40.2,-36.83 12.84,-11.79 c 9.66,-8.79 -1.57,-21.24 -1.57,-21.24 l -51.88,-40.491 c -22.38,-20.187 -21.16,-36.609 -9.48,-52.488 l 428.82,247.459 c -13.04,6.69 -27.6,10.45 -41.83,10.52"
         style="fill:#33535f;fill-opacity:1;fill-rule:nonzero;stroke:none"
         id="path222" />
      <path
         d="m 1760.42,581.039 c -2.67,0 -5.35,0.59 -7.38,1.77 L 1525.5,714.18 c -4.08,2.351 -4.08,6.172 0,8.519 l 314.09,181.332 c 2.04,1.18 4.71,1.77 7.38,1.77 2.67,0 5.34,-0.59 7.38,-1.77 L 2081.89,772.66 c 4.08,-2.351 4.08,-6.168 0,-8.519 L 1767.8,582.809 c -2.04,-1.18 -4.71,-1.77 -7.38,-1.77 m -173.05,137.383 v 0 l 173.09,-99.922 11.92,6.879 -173.08,99.922 -11.93,-6.879 m 69.24,0 -11.93,-6.871 138.48,-79.949 11.92,6.878 -138.47,79.942 m 187.78,-65.281 -17.3,-9.993 5.3,-3.058 17.31,9.992 -5.31,3.059 m -177.02,85.281 v 0 l 150.4,-86.832 11.92,6.879 -150.39,86.82 -11.93,-6.867 m 60.58,4.988 -11.93,-6.871 124.45,-71.848 11.92,6.879 -124.44,71.84 m 173.7,-57.23 -17.3,-10 5.3,-3.059 17.31,9.988 -5.31,3.071 m -95.92,38.539 v 0 l 69.39,-40.059 11.91,6.879 -69.37,40.063 -11.93,-6.883 m 25.24,25.402 -11.93,-6.879 78.79,-45.48 11.91,6.879 -78.77,45.48 m 6.52,22.449 v 0 l 94.92,-54.8 11.91,6.882 -94.9,54.789 -11.93,-6.871 m 67.78,0.84 -11.93,-6.879 61.77,-35.66 11.92,6.879 -61.76,35.66 m 57.47,-6.98 v 0 l 26.99,-15.571 11.91,6.871 -26.97,15.59 -11.93,-6.89 m -221.37,47.949 v 0 l 13,-7.5 12.96,7.5 -12.98,7.492 -12.98,-7.492"
         style="fill:#d6f1ea;fill-opacity:1;fill-rule:nonzero;stroke:none"
         id="path224" />
      <path
         d="m 1760.46,618.5 -173.09,99.922 11.93,6.879 173.08,-99.922 -11.92,-6.879"
         style="fill:#26b6a6;fill-opacity:1;fill-rule:nonzero;stroke:none"
         id="path226" />
      <path
         d="m 1769.77,610.012 17.3,9.988 5.31,-3.059 -17.31,-10 -5.3,3.071"
         style="fill:#33535f;fill-opacity:1;fill-rule:nonzero;stroke:none"
         id="path228" />
      <path
         d="m 1783.16,631.602 -138.48,79.949 11.93,6.871 138.47,-79.942 -11.92,-6.878"
         style="fill:#26b6a6;fill-opacity:1;fill-rule:nonzero;stroke:none"
         id="path230" />
      <path
         d="m 1792.46,623.109 17.31,10 5.3,-3.07 -17.31,-9.988 -5.3,3.058"
         style="fill:#33535f;fill-opacity:1;fill-rule:nonzero;stroke:none"
         id="path232" />
      <path
         d="m 1817.77,651.59 -150.4,86.832 11.93,6.867 150.39,-86.82 -11.92,-6.879"
         style="fill:#26b6a6;fill-opacity:1;fill-rule:nonzero;stroke:none"
         id="path234" />
      <path
         d="m 1827.09,643.148 17.3,9.993 5.31,-3.059 -17.31,-9.992 -5.3,3.058"
         style="fill:#33535f;fill-opacity:1;fill-rule:nonzero;stroke:none"
         id="path236" />
      <path
         d="m 1840.47,664.691 -124.45,71.848 11.93,6.871 124.44,-71.84 -11.92,-6.879"
         style="fill:#26b6a6;fill-opacity:1;fill-rule:nonzero;stroke:none"
         id="path238" />
      <path
         d="m 1849.78,656.262 17.31,9.988 5.3,-3.059 -17.3,-10 -5.31,3.071"
         style="fill:#33535f;fill-opacity:1;fill-rule:nonzero;stroke:none"
         id="path240" />
      <path
         d="m 1875.12,684.66 -69.39,40.059 11.93,6.883 69.37,-40.063 -11.91,-6.879"
         style="fill:#26b6a6;fill-opacity:1;fill-rule:nonzero;stroke:none"
         id="path242" />
      <path
         d="m 1884.35,676.18 17.3,10 5.31,-3.071 -17.31,-9.988 -5.3,3.059"
         style="fill:#33535f;fill-opacity:1;fill-rule:nonzero;stroke:none"
         id="path244" />
      <path
         d="m 1897.83,697.762 -78.79,45.48 11.93,6.879 78.77,-45.48 -11.91,-6.879"
         style="fill:#26b6a6;fill-opacity:1;fill-rule:nonzero;stroke:none"
         id="path246" />
      <path
         d="m 1907.04,689.289 17.31,9.992 5.3,-3.062 -17.31,-9.989 -5.3,3.059"
         style="fill:#33535f;fill-opacity:1;fill-rule:nonzero;stroke:none"
         id="path248" />
      <path
         d="m 1932.41,717.77 -94.92,54.8 11.93,6.871 94.9,-54.789 -11.91,-6.882"
         style="fill:#26b6a6;fill-opacity:1;fill-rule:nonzero;stroke:none"
         id="path250" />
      <path
         d="m 1941.9,709.359 17.3,9.993 5.31,-3.063 -17.31,-10 -5.3,3.07"
         style="fill:#33535f;fill-opacity:1;fill-rule:nonzero;stroke:none"
         id="path252" />
      <path
         d="m 1955.11,730.871 -61.77,35.66 11.93,6.879 61.76,-35.66 -11.92,-6.879"
         style="fill:#26b6a6;fill-opacity:1;fill-rule:nonzero;stroke:none"
         id="path254" />
      <path
         d="m 1964.59,722.469 17.31,9.992 5.31,-3.07 -17.31,-9.993 -5.31,3.071"
         style="fill:#33535f;fill-opacity:1;fill-rule:nonzero;stroke:none"
         id="path256" />
      <path
         d="m 1989.73,750.859 -26.99,15.571 11.93,6.89 26.97,-15.59 -11.91,-6.871"
         style="fill:#26b6a6;fill-opacity:1;fill-rule:nonzero;stroke:none"
         id="path258" />
      <path
         d="m 1760.46,618.5 -173.09,99.922 11.93,6.879 173.08,-99.922 -11.92,-6.879"
         style="fill:#26b6a6;fill-opacity:1;fill-rule:nonzero;stroke:none"
         id="path260" />
      <path
         d="m 1817.77,651.59 -150.4,86.832 11.93,6.867 150.39,-86.82 -11.92,-6.879"
         style="fill:#26b6a6;fill-opacity:1;fill-rule:nonzero;stroke:none"
         id="path262" />
      <path
         d="m 1875.12,684.66 -69.39,40.059 11.93,6.883 69.37,-40.063 -11.91,-6.879"
         style="fill:#26b6a6;fill-opacity:1;fill-rule:nonzero;stroke:none"
         id="path264" />
      <path
         d="m 1932.41,717.77 -94.92,54.8 11.93,6.871 94.9,-54.789 -11.91,-6.882"
         style="fill:#26b6a6;fill-opacity:1;fill-rule:nonzero;stroke:none"
         id="path266" />
      <path
         d="m 1989.73,750.859 -26.99,15.571 11.93,6.89 26.97,-15.59 -11.91,-6.871"
         style="fill:#26b6a6;fill-opacity:1;fill-rule:nonzero;stroke:none"
         id="path268" />
      <path
         d="m 1999.19,742.48 17.3,10 5.31,-3.07 -17.31,-9.988 -5.3,3.058"
         style="fill:#33535f;fill-opacity:1;fill-rule:nonzero;stroke:none"
         id="path270" />
      <path
         d="m 2012.43,763.961 -13.43,7.75 11.93,6.871 13.42,-7.742 -11.92,-6.879"
         style="fill:#26b6a6;fill-opacity:1;fill-rule:nonzero;stroke:none"
         id="path272" />
      <path
         d="m 2021.88,755.59 17.3,9.992 5.31,-3.07 -17.31,-9.992 -5.3,3.07"
         style="fill:#33535f;fill-opacity:1;fill-rule:nonzero;stroke:none"
         id="path274" />
      <path
         d="m 1754.35,821.871 -12.98,-7.492 13,-7.5 12.96,7.5 -12.98,7.492"
         style="fill:#26b6a6;fill-opacity:1;fill-rule:nonzero;stroke:none"
         id="path276" />
      <path
         d="m 1754.37,806.879 -13,7.5 12.98,7.492 12.98,-7.492 -12.96,-7.5"
         style="fill:#0cad96;fill-opacity:1;fill-rule:nonzero;stroke:none"
         id="path278" />
      <path
         d="m 1856.63,878.82 -92.78,-53.558 c -1.87,-1.082 -1.87,-2.832 0,-3.91 l 2.54,-1.45 c 1.87,-1.082 4.9,-1.082 6.77,0 l 92.76,53.559 c 1.88,1.078 1.87,2.82 0,3.898 l -2.51,1.461 c -1.87,1.082 -4.91,1.082 -6.78,0"
         style="fill:#33535f;fill-opacity:1;fill-rule:nonzero;stroke:none"
         id="path280" />
      <path
         d="m 1775.99,809.379 -12.98,-7.5 13,-7.488 12.96,7.488 -12.98,7.5"
         style="fill:#26b6a6;fill-opacity:1;fill-rule:nonzero;stroke:none"
         id="path282" />
      <path
         d="m 1878.28,866.332 -92.79,-53.562 c -1.87,-1.079 -1.87,-2.829 0,-3.911 l 2.54,-1.457 c 1.87,-1.082 4.9,-1.082 6.77,0 l 92.76,53.559 c 1.87,1.078 1.87,2.828 0,3.91 l -2.51,1.461 c -1.87,1.078 -4.9,1.078 -6.77,0"
         style="fill:#33535f;fill-opacity:1;fill-rule:nonzero;stroke:none"
         id="path284" />
      <path
         d="m 1760.46,618.5 -173.09,99.922 11.93,6.879 173.08,-99.922 -11.92,-6.879"
         style="fill:#26b6a6;fill-opacity:1;fill-rule:nonzero;stroke:none"
         id="path286" />
      <path
         d="m 1817.77,651.59 -150.4,86.832 11.93,6.867 150.39,-86.82 -11.92,-6.879"
         style="fill:#26b6a6;fill-opacity:1;fill-rule:nonzero;stroke:none"
         id="path288" />
      <path
         d="m 1875.12,684.66 -69.39,40.059 11.93,6.883 69.37,-40.063 -11.91,-6.879"
         style="fill:#26b6a6;fill-opacity:1;fill-rule:nonzero;stroke:none"
         id="path290" />
      <path
         d="m 1932.41,717.77 -94.92,54.8 11.93,6.871 94.9,-54.789 -11.91,-6.882"
         style="fill:#26b6a6;fill-opacity:1;fill-rule:nonzero;stroke:none"
         id="path292" />
      <path
         d="m 1760.46,618.5 -173.09,99.922 11.93,6.879 173.08,-99.922 -11.92,-6.879"
         style="fill:#26b6a6;fill-opacity:1;fill-rule:nonzero;stroke:none"
         id="path294" />
      <path
         d="m 1817.77,651.59 -150.4,86.832 11.93,6.867 150.39,-86.82 -11.92,-6.879"
         style="fill:#26b6a6;fill-opacity:1;fill-rule:nonzero;stroke:none"
         id="path296" />
      <path
         d="m 1875.12,684.66 -69.39,40.059 11.93,6.883 69.37,-40.063 -11.91,-6.879"
         style="fill:#26b6a6;fill-opacity:1;fill-rule:nonzero;stroke:none"
         id="path298" />
      <path
         d="m 1932.41,717.77 -94.92,54.8 11.93,6.871 94.9,-54.789 -11.91,-6.882"
         style="fill:#26b6a6;fill-opacity:1;fill-rule:nonzero;stroke:none"
         id="path300" />
      <path
         d="m 1989.73,750.859 -26.99,15.571 11.93,6.89 26.97,-15.59 -11.91,-6.871"
         style="fill:#26b6a6;fill-opacity:1;fill-rule:nonzero;stroke:none"
         id="path302" />
      <path
         d="m 1760.46,618.5 -173.09,99.922 11.93,6.879 173.08,-99.922 -11.92,-6.879"
         style="fill:#0cad96;fill-opacity:1;fill-rule:nonzero;stroke:none"
         id="path304" />
      <path
         d="m 1817.77,651.59 -150.4,86.832 11.93,6.867 150.39,-86.82 -11.92,-6.879"
         style="fill:#0cad96;fill-opacity:1;fill-rule:nonzero;stroke:none"
         id="path306" />
      <path
         d="m 1875.12,684.66 -69.39,40.059 11.93,6.883 69.37,-40.063 -11.91,-6.879"
         style="fill:#0cad96;fill-opacity:1;fill-rule:nonzero;stroke:none"
         id="path308" />
      <path
         d="m 1932.41,717.77 -94.92,54.8 11.93,6.871 94.9,-54.789 -11.91,-6.882"
         style="fill:#0cad96;fill-opacity:1;fill-rule:nonzero;stroke:none"
         id="path310" />
      <path
         d="m 1989.73,750.859 -26.99,15.571 11.93,6.89 26.97,-15.59 -11.91,-6.871"
         style="fill:#0cad96;fill-opacity:1;fill-rule:nonzero;stroke:none"
         id="path312" />
      <path
         d="m 2154.61,354.301 c -3.52,0 -7.04,0.781 -9.72,2.328 l -299.68,173.023 c -5.37,3.098 -5.37,8.118 0,11.219 l 309.4,178.649 c 2.69,1.539 6.2,2.32 9.72,2.32 3.52,0 7.04,-0.781 9.72,-2.328 l 299.68,-173.02 c 5.37,-3.101 5.37,-8.121 0,-11.222 l -309.4,-178.641 c -2.68,-1.547 -6.2,-2.328 -9.72,-2.328 m 31.42,247.648 v 0 c -2.94,-0.051 -5.8,-0.148 -8.74,-0.308 -2.5,-0.102 -4.9,-0.262 -7.22,-0.461 -3.57,-0.309 -7.05,-0.668 -10.61,-1.078 -2.05,-0.262 -4.2,-0.571 -6.16,-0.981 -1.33,-0.16 -2.58,-0.371 -3.74,-0.621 -1.79,-0.309 -3.66,-0.668 -5.45,-1.078 -6.41,-1.34 -12.66,-2.992 -18.63,-4.891 -2.14,-0.718 -4.37,-1.492 -6.42,-2.269 -2.67,-0.922 -5.17,-1.961 -7.58,-3.032 -2.5,-1.031 -4.91,-2.121 -7.22,-3.351 -2.32,-1.137 -4.64,-2.367 -6.87,-3.66 -50.38,-29.09 -50.38,-76.25 0,-105.34 25.14,-14.508 58.11,-21.77 91.1,-21.77 33.02,0 66.06,7.27 91.27,21.832 50.29,29.028 50.29,76.188 0,105.231 -3.22,1.859 -6.6,3.598 -10.08,5.199 -1.43,0.719 -2.95,1.391 -4.55,2.008 -1.34,0.562 -2.59,1.082 -3.92,1.652 -9.99,3.91 -20.78,6.949 -31.93,9.059 -3.48,0.672 -7.13,1.23 -10.61,1.801 -7.13,1.031 -14.36,1.699 -21.67,1.91 -0.46,0.019 -0.93,0.031 -1.39,0.051 -2.24,0.078 -4.48,0.117 -6.72,0.117 -0.03,0 -0.06,0 -0.09,0 v 0 0 c -0.01,0 -0.02,0 -0.03,0 -0.43,0 -0.87,0 -1.31,-0.008 -0.48,0 -0.95,-0.012 -1.43,-0.012 m -208.09,-10.75 v 0 l 17.14,-9.867 17.06,9.867 -17.1,9.871 -17.1,-9.871 m 96.84,55.961 v 0 l 17.13,-9.871 17.06,9.871 -17.09,9.871 -17.1,-9.871 m 114.55,-177.789 c -1.43,0 -2.85,0 -4.1,0.109 -1.34,0.051 -2.5,0.102 -3.75,0.2 -23.45,0.769 -46.37,6.39 -64.21,16.679 -39.41,22.762 -39.41,59.633 0.01,82.383 v 0 0 c 4.36,2.52 9.09,4.738 13.91,6.688 v 0 c 3.65,1.5 7.58,2.84 11.5,3.968 1.96,0.614 3.92,1.133 5.98,1.602 1.69,0.461 3.39,0.82 4.99,1.129 2.05,0.461 4.02,0.871 6.15,1.18 1.87,0.363 3.66,0.671 5.53,0.832 l 1.69,0.25 v 0 c 2.59,0.261 5.27,0.57 7.94,0.781 v 0 l 1.07,0.098 0.27,-0.059 v 0 c 2.2,0.258 4.41,0.379 6.77,0.379 0.02,0 0.05,0 0.07,0 0.01,0 0.02,0 0.02,0 0.22,0 0.44,0 0.67,0 0.25,-0.008 0.51,-0.008 0.76,-0.008 v 0 c 0.11,0 0.22,0.008 0.33,0.02 1.36,0.078 2.69,0.109 3.98,0.109 0.05,0 0.09,0 0.14,0 v 0 c 0.85,0 1.68,-0.012 2.51,-0.031 9.81,-0.098 19.44,-1.129 28.8,-2.938 v 0 0 c 14.45,-2.773 28,-7.41 39.51,-14.051 v 0 c 39.32,-22.699 39.32,-59.57 0,-82.269 -18.55,-10.711 -42.27,-16.383 -66.71,-16.891 -1.15,-0.16 -2.49,-0.101 -3.83,-0.16"
         style="fill:#d6f1ea;fill-opacity:1;fill-rule:nonzero;stroke:none"
         id="path314" />
      <path
         d="m 1898.21,545.109 -17.1,-9.867 17.13,-9.871 17.07,9.871 -17.1,9.867"
         style="fill:#26b6a6;fill-opacity:1;fill-rule:nonzero;stroke:none"
         id="path316" />
      <path
         d="m 1965.66,579.012 -56.46,-32.563 c -1.48,-0.847 -1.48,-2.238 0.01,-3.09 l 4.66,-2.679 c 1.49,-0.86 3.88,-0.86 5.36,0 l 56.43,32.562 c 1.47,0.848 1.48,2.227 0,3.078 l -4.65,2.692 c -1.47,0.847 -3.87,0.847 -5.35,0"
         style="fill:#33535f;fill-opacity:1;fill-rule:nonzero;stroke:none"
         id="path318" />
      <path
         d="m 1995.04,601.07 -17.1,-9.871 17.14,-9.867 17.06,9.867 -17.1,9.871"
         style="fill:#26b6a6;fill-opacity:1;fill-rule:nonzero;stroke:none"
         id="path320" />
      <path
         d="m 1995.08,581.332 -17.14,9.867 17.1,9.871 17.1,-9.871 -17.06,-9.867"
         style="fill:#0cad96;fill-opacity:1;fill-rule:nonzero;stroke:none"
         id="path322" />
      <path
         d="m 2063.48,634.789 -56.45,-32.547 c -1.48,-0.863 -1.48,-2.242 0,-3.094 l 4.67,-2.687 c 1.48,-0.852 3.88,-0.852 5.35,0 l 56.43,32.559 c 1.48,0.851 1.48,2.242 0,3.089 l -4.64,2.68 c -1.48,0.859 -3.88,0.859 -5.36,0"
         style="fill:#33535f;fill-opacity:1;fill-rule:nonzero;stroke:none"
         id="path324" />
      <path
         d="m 2091.88,657.031 -17.1,-9.871 17.13,-9.871 17.06,9.871 -17.09,9.871"
         style="fill:#26b6a6;fill-opacity:1;fill-rule:nonzero;stroke:none"
         id="path326" />
      <path
         d="m 2091.91,637.289 -17.13,9.871 17.1,9.871 17.09,-9.871 -17.06,-9.871"
         style="fill:#08917e;fill-opacity:1;fill-rule:nonzero;stroke:none"
         id="path328" />
      <path
         d="m 2161.31,690.582 -56.46,-32.562 c -1.48,-0.848 -1.48,-2.231 0,-3.079 l 4.67,-2.691 c 1.48,-0.848 3.88,-0.848 5.36,0 l 56.43,32.559 c 1.47,0.851 1.47,2.242 0,3.089 l -4.65,2.684 c -1.48,0.859 -3.87,0.859 -5.35,0"
         style="fill:#33535f;fill-opacity:1;fill-rule:nonzero;stroke:none"
         id="path330" />
      <path
         d="m 2259.87,486.422 c -18.55,-10.711 -42.27,-16.383 -66.71,-16.891 -1.15,-0.16 -2.49,-0.101 -3.83,-0.16 -1.43,0 -2.85,0 -4.1,0.109 -1.34,0.051 -2.5,0.102 -3.75,0.2 -23.45,0.769 -46.37,6.39 -64.21,16.679 -39.41,22.762 -39.41,59.633 0.01,82.383 4.36,2.52 9.09,4.738 13.91,6.688 3.65,1.5 7.58,2.84 11.5,3.968 1.96,0.614 3.92,1.133 5.98,1.602 1.69,0.461 3.39,0.82 4.99,1.129 2.05,0.461 4.02,0.871 6.15,1.18 1.87,0.363 3.66,0.671 5.53,0.832 l 1.69,0.25 c 2.59,0.261 5.27,0.57 7.94,0.781 l 1.07,0.098 0.27,-0.059 c 2.67,0.32 5.35,0.418 8.29,0.371 2.41,0.148 4.73,0.148 6.96,0.098 9.81,-0.098 19.44,-1.129 28.8,-2.938 14.45,-2.773 28,-7.41 39.51,-14.051 39.32,-22.699 39.32,-59.57 0,-82.269 m 9.81,98.949 c -1.43,0.719 -2.95,1.391 -4.55,2.008 -1.34,0.562 -2.59,1.082 -3.92,1.652 -9.99,3.91 -20.78,6.949 -31.93,9.059 -3.48,0.672 -7.13,1.23 -10.61,1.801 -7.13,1.031 -14.36,1.699 -21.67,1.91 -3.66,0.148 -7.31,0.199 -10.97,0.148 -2.94,-0.051 -5.8,-0.148 -8.74,-0.308 -2.5,-0.102 -4.9,-0.262 -7.22,-0.461 -3.57,-0.309 -7.05,-0.668 -10.61,-1.078 -2.05,-0.262 -4.2,-0.571 -6.16,-0.981 -1.33,-0.16 -2.58,-0.371 -3.74,-0.621 -1.79,-0.309 -3.66,-0.668 -5.45,-1.078 -6.41,-1.34 -12.66,-2.992 -18.63,-4.891 -2.14,-0.718 -4.37,-1.492 -6.42,-2.269 -2.67,-0.922 -5.17,-1.961 -7.58,-3.032 -2.5,-1.031 -4.91,-2.121 -7.22,-3.351 -2.32,-1.137 -4.64,-2.367 -6.87,-3.66 -50.38,-29.09 -50.38,-76.25 0,-105.34 50.29,-29.039 131.98,-29.039 182.37,0.062 50.29,29.028 50.29,76.188 0,105.231 -3.22,1.859 -6.6,3.598 -10.08,5.199"
         style="fill:#26b6a6;fill-opacity:1;fill-rule:nonzero;stroke:none"
         id="path332" />
      <path
         d="m 2220.36,582.742 c -9.36,1.809 -18.99,2.84 -28.8,2.938 -0.83,0.019 -1.66,0.031 -2.51,0.031 0.85,0 1.68,-0.012 2.51,-0.031 9.81,-0.098 19.44,-1.129 28.8,-2.938 v 0 m -35.76,2.84 v 0 0 c 0.11,0 0.22,0.008 0.33,0.02 -0.11,-0.012 -0.22,-0.02 -0.33,-0.02 m -0.76,0.008 c -0.23,0 -0.45,0 -0.67,0 0.22,0 0.44,0 0.67,0 m -0.76,0 c 0.02,0 0.05,0 0.07,0 v 0 c -0.02,0 -0.05,0 -0.07,0 m 5.83,0.121 c 0.05,0 0.09,0 0.14,0 v 0 c -0.05,0 -0.09,0 -0.14,0 m 6.7,16.141 c -2.24,0.078 -4.48,0.117 -6.72,0.117 2.24,0 4.48,-0.039 6.72,-0.117 m -9.58,0.097 c 0.48,0 0.95,0.012 1.43,0.012 -0.48,0 -0.95,-0.012 -1.43,-0.012 m 2.74,0.02 c 0.01,0 0.02,0 0.03,0 v 0 c -0.01,0 -0.02,0 -0.03,0"
         style="fill:#99b5ae;fill-opacity:1;fill-rule:nonzero;stroke:none"
         id="path334" />
      <path
         d="m 2117.28,568.742 -19.89,11.477 c 2.23,1.293 4.55,2.523 6.87,3.66 2.31,1.23 4.72,2.32 7.22,3.351 2.41,1.071 4.91,2.11 7.58,3.032 2.05,0.777 4.28,1.551 6.42,2.269 5.97,1.899 12.22,3.551 18.63,4.891 1.79,0.41 3.66,0.769 5.45,1.078 1.16,0.25 2.41,0.461 3.74,0.621 1.96,0.41 4.11,0.719 6.16,0.981 3.56,0.41 7.04,0.769 10.61,1.078 2.32,0.199 4.72,0.359 7.22,0.461 2.94,0.16 5.8,0.257 8.74,0.308 v 0 c 0.48,0 0.95,0.012 1.43,0.012 0.44,0.008 0.88,0.008 1.31,0.008 0.01,0 0.02,0 0.03,0 0.03,0 0.06,0 0.09,0 2.24,0 4.48,-0.039 6.72,-0.117 0.46,-0.02 0.93,-0.032 1.39,-0.051 7.31,-0.321 14.54,-0.981 21.67,-1.91 3.48,-0.571 7.13,-1.129 10.61,-1.801 l -8.92,-15.348 v 0 c -9.36,1.809 -18.99,2.84 -28.8,2.938 -0.83,0.019 -1.66,0.031 -2.51,0.031 v 0 0 0 c -0.05,0 -0.09,0 -0.14,0 -1.29,0 -2.62,-0.031 -3.98,-0.109 -0.11,-0.012 -0.22,-0.02 -0.33,-0.02 v 0 c -0.25,0 -0.51,0 -0.76,0.008 -0.23,0 -0.45,0 -0.67,0 0,0 -0.01,0 -0.02,0 v 0 0 c -0.02,0 -0.05,0 -0.07,0 -2.36,0 -4.57,-0.121 -6.77,-0.379 v 0 l -0.27,0.059 -1.07,-0.098 v 0 c -2.67,-0.113 -5.35,-0.422 -7.94,-0.781 v 0 l -1.69,-0.25 c -1.87,-0.161 -3.66,-0.469 -5.53,-0.832 -2.13,-0.309 -4.1,-0.719 -6.15,-1.18 -1.6,-0.309 -3.3,-0.668 -4.99,-1.129 -2.06,-0.469 -4.02,-0.988 -5.98,-1.602 -3.92,-1.128 -7.85,-2.468 -11.5,-3.968 v 0 c -4.91,-1.899 -9.55,-4.168 -13.91,-6.688 v 0 0"
         style="fill:#0cad96;fill-opacity:1;fill-rule:nonzero;stroke:none"
         id="path336" />
      <path
         d="m 2259.87,568.691 v 0 c -11.51,6.641 -25.06,11.278 -39.51,14.051 l 8.92,15.348 c 11.15,-2.11 21.94,-5.149 31.93,-9.059 1.33,-0.57 2.58,-1.09 3.92,-1.652 1.6,-0.617 3.12,-1.289 4.55,-2.008 3.48,-1.601 6.86,-3.34 10.08,-5.199 l -19.89,-11.481"
         style="fill:#08917e;fill-opacity:1;fill-rule:nonzero;stroke:none"
         id="path338" />
      <path
         d="m 1436.47,780.051 7.63,4.398 c 1.89,1.09 2.97,2.27 3.25,3.543 0.27,1.27 -0.86,2.629 -3.38,4.078 -2.51,1.45 -4.87,2.102 -7.05,1.95 -2.2,-0.161 -4.25,-0.79 -6.13,-1.879 l -7.63,-4.399 z m -19.63,20.14 c 2.96,1.707 6.04,3 9.21,3.868 3.19,0.871 6.44,1.293 9.75,1.273 3.33,-0.023 6.73,-0.543 10.21,-1.543 3.49,-1 6.98,-2.5 10.46,-4.508 4.49,-2.601 7.52,-5.152 9.11,-7.672 1.56,-2.519 1.85,-4.968 0.84,-7.347 l 29.79,-7.543 1.18,-0.449 0.96,-1.059 -0.46,-0.941 -9.18,-5.301 c -0.9,-0.52 -1.81,-0.727 -2.73,-0.637 -0.93,0.09 -1.76,0.227 -2.53,0.41 l -26.74,6.797 -6.2,-3.59 19.25,-11.117 1.16,-1.293 -0.56,-1.16 -8.84,-5.098 -2,-0.332 -2.24,0.68 -58.11,33.551 -1.18,1.3 0.56,1.149 18.29,10.562"
         style="fill:#33535f;fill-opacity:1;fill-rule:nonzero;stroke:none"
         id="path340" />
      <path
         d="m 1529.37,809.07 2.01,0.328 2.25,-0.679 9.54,-5.5 1.16,-1.297 -0.57,-1.16 -31.97,-18.473 -2.01,-0.32 -2.25,0.683 -58.11,33.547 -1.17,1.301 0.57,1.152 31.44,18.161 1.99,0.316 2.26,-0.68 9.54,-5.5 1.15,-1.297 -0.54,-1.152 -20.78,-12 9.71,-5.609 19.29,11.14 2.01,0.321 2.23,-0.672 9.54,-5.508 1.18,-1.301 -0.56,-1.152 -19.29,-11.137 10.07,-5.82 21.31,12.308"
         style="fill:#33535f;fill-opacity:1;fill-rule:nonzero;stroke:none"
         id="path342" />
      <path
         d="m 1534.39,835.551 8.29,4.789 c 1.89,1.09 2.9,2.312 3.02,3.66 0.13,1.359 -1.06,2.762 -3.58,4.219 -2.51,1.453 -4.95,2.14 -7.3,2.062 -2.35,-0.07 -4.46,-0.652 -6.35,-1.742 l -8.29,-4.789 z m -19.52,21.238 c 2.87,1.66 5.9,2.902 9.05,3.731 3.17,0.812 6.45,1.179 9.83,1.089 3.4,-0.078 6.86,-0.629 10.37,-1.648 3.51,-1.02 7,-2.531 10.48,-4.539 3.53,-2.043 6.19,-4.082 7.95,-6.102 1.78,-2.039 2.71,-4.019 2.82,-5.961 0.13,-1.937 -0.51,-3.828 -1.9,-5.668 -1.4,-1.851 -3.54,-3.601 -6.42,-5.261 l -8.63,-4.981 18.36,-10.597 1.15,-1.301 -0.56,-1.16 -8.83,-5.102 -2.01,-0.328 -2.24,0.68 -58.12,33.55 -1.17,1.301 0.57,1.149 19.3,11.148"
         style="fill:#33535f;fill-opacity:1;fill-rule:nonzero;stroke:none"
         id="path344" />
      <path
         d="m 1610.52,866.93 c -1.04,0.652 -2.19,1.371 -3.47,2.16 -1.27,0.781 -2.59,1.582 -3.97,2.371 -1.38,0.801 -2.74,1.551 -4.08,2.269 -1.33,0.719 -2.53,1.36 -3.59,1.918 -1.59,0.821 -3.21,1.481 -4.85,1.993 -1.64,0.5 -3.28,0.82 -4.91,0.961 -1.62,0.128 -3.22,0.05 -4.8,-0.231 -1.56,-0.289 -3.05,-0.832 -4.45,-1.641 -1.39,-0.8 -2.33,-1.66 -2.83,-2.57 -0.5,-0.91 -0.63,-1.828 -0.4,-2.769 0.24,-0.942 0.79,-1.879 1.67,-2.832 0.87,-0.95 2.02,-1.887 3.43,-2.797 0.93,-0.641 2.03,-1.34 3.29,-2.102 1.27,-0.762 2.59,-1.531 3.97,-2.328 1.38,-0.793 2.74,-1.562 4.08,-2.312 1.35,-0.75 2.6,-1.411 3.77,-1.981 3.18,-1.641 6.45,-2.617 9.79,-2.969 3.36,-0.351 6.42,0.282 9.21,1.891 2.79,1.598 3.87,3.371 3.24,5.289 -0.63,1.93 -2.33,3.82 -5.1,5.68 z m -45.18,-8.121 c -3.23,2.023 -5.85,4.16 -7.84,6.441 -2,2.27 -3.21,4.551 -3.62,6.84 -0.42,2.289 0.01,4.551 1.26,6.75 1.25,2.211 3.54,4.281 6.87,6.199 3.29,1.902 6.85,3.211 10.71,3.953 3.84,0.738 7.76,0.977 11.72,0.75 3.97,-0.242 7.92,-0.941 11.85,-2.09 3.94,-1.16 7.65,-2.672 11.15,-4.531 2.67,-1.441 5.41,-2.969 8.23,-4.601 2.82,-1.629 5.41,-3.168 7.79,-4.641 3.21,-2.02 5.83,-4.16 7.83,-6.438 2,-2.269 3.23,-4.562 3.67,-6.859 0.43,-2.312 0,-4.57 -1.29,-6.781 -1.31,-2.211 -3.61,-4.25 -6.89,-6.149 -3.33,-1.933 -6.9,-3.261 -10.69,-3.992 -3.81,-0.75 -7.71,-0.988 -11.7,-0.73 -4,0.25 -7.96,0.961 -11.89,2.109 -3.95,1.16 -7.66,2.66 -11.15,4.531 -2.55,1.371 -5.23,2.871 -8.05,4.489 -2.81,1.632 -5.47,3.211 -7.96,4.75"
         style="fill:#33535f;fill-opacity:1;fill-rule:nonzero;stroke:none"
         id="path346" />
      <path
         d="m 1634.96,894.652 7.62,4.399 c 1.89,1.09 2.97,2.269 3.25,3.539 0.28,1.269 -0.85,2.629 -3.36,4.082 -2.52,1.449 -4.88,2.098 -7.07,1.937 -2.2,-0.16 -4.24,-0.777 -6.13,-1.879 l -7.63,-4.398 z m -19.63,20.129 c 2.97,1.719 6.05,3.008 9.21,3.879 3.19,0.86 6.45,1.289 9.76,1.27 3.32,-0.028 6.72,-0.539 10.21,-1.539 3.49,-1 6.96,-2.512 10.44,-4.512 4.5,-2.598 7.53,-5.149 9.11,-7.68 1.57,-2.519 1.86,-4.969 0.86,-7.34 l 29.77,-7.539 1.19,-0.449 0.96,-1.062 -0.46,-0.938 -9.18,-5.301 c -0.9,-0.519 -1.81,-0.73 -2.72,-0.64 -0.93,0.09 -1.78,0.218 -2.54,0.41 l -26.74,6.789 -6.21,-3.578 19.25,-11.121 1.17,-1.289 -0.56,-1.161 -8.84,-5.101 -2,-0.328 -2.25,0.668 -58.11,33.562 -1.17,1.301 0.56,1.148 18.29,10.551"
         style="fill:#33535f;fill-opacity:1;fill-rule:nonzero;stroke:none"
         id="path348" />
      <path
         d="m 1679.76,951.992 2,0.317 2.25,-0.668 9.53,-5.512 1.18,-1.297 -0.57,-1.152 -11.87,-6.86 46.15,-26.64 1.16,-1.301 -0.56,-1.16 -8.84,-5.098 -2,-0.332 -2.25,0.68 -46.15,26.64 -11.88,-6.847 -2,-0.321 -2.24,0.668 -9.53,5.5 -1.18,1.301 0.56,1.149 36.24,20.933"
         style="fill:#33535f;fill-opacity:1;fill-rule:nonzero;stroke:none"
         id="path350" />
      <path
         d="m 1773.48,945.391 292.79,169.039 -62.76,36.23 -292.8,-169.039 62.77,-36.23"
         style="fill:#26b6a6;fill-opacity:1;fill-rule:nonzero;stroke:none"
         id="path352" />
      <path
         d="m 1919.85,916.09 c -1.78,0 -3.51,0.922 -4.46,2.582 -1.42,2.457 -0.58,5.609 1.88,7.027 l 242.36,139.921 c 0.81,0.46 1.69,0.69 2.57,0.69 1.78,0 3.51,-0.93 4.46,-2.58 1.42,-2.46 0.58,-5.61 -1.88,-7.03 L 1922.42,916.781 c -0.81,-0.472 -1.69,-0.691 -2.57,-0.691"
         style="fill:#b6c5c5;fill-opacity:1;fill-rule:nonzero;stroke:none"
         id="path354" />
      <path
         d="m 1961.68,891.941 c -1.78,0 -3.51,0.918 -4.46,2.579 -1.43,2.46 -0.58,5.609 1.88,7.031 l 242.35,139.919 c 0.81,0.46 1.7,0.69 2.57,0.69 1.78,0 3.51,-0.93 4.47,-2.58 1.42,-2.46 0.57,-5.61 -1.89,-7.03 L 1964.25,892.629 c -0.81,-0.469 -1.7,-0.688 -2.57,-0.688"
         style="fill:#b6c5c5;fill-opacity:1;fill-rule:nonzero;stroke:none"
         id="path356" />
      <path
         d="m 2003.5,867.781 c -1.77,0.008 -3.51,0.93 -4.46,2.578 -1.42,2.461 -0.58,5.61 1.89,7.032 l 242.35,139.919 c 0.81,0.47 1.7,0.7 2.57,0.7 1.78,0 3.51,-0.93 4.46,-2.58 1.42,-2.46 0.58,-5.61 -1.88,-7.03 L 2006.07,868.48 c -0.81,-0.468 -1.69,-0.699 -2.57,-0.699"
         style="fill:#b6c5c5;fill-opacity:1;fill-rule:nonzero;stroke:none"
         id="path358" />
      <path
         d="m 2045.33,843.629 c -1.78,0 -3.51,0.93 -4.46,2.582 -1.42,2.461 -0.58,5.609 1.88,7.031 L 2285.1,993.16 c 0.81,0.469 1.7,0.699 2.57,0.699 1.78,0 3.51,-0.929 4.46,-2.578 1.42,-2.461 0.58,-5.609 -1.88,-7.031 L 2047.9,844.332 c -0.81,-0.473 -1.7,-0.703 -2.57,-0.703"
         style="fill:#b6c5c5;fill-opacity:1;fill-rule:nonzero;stroke:none"
         id="path360" />
      <path
         d="m 2087.16,819.48 c -1.78,0 -3.51,0.93 -4.47,2.579 -1.42,2.461 -0.57,5.613 1.89,7.031 l 242.35,139.922 c 0.81,0.468 1.69,0.687 2.57,0.687 1.78,0 3.51,-0.918 4.46,-2.57 1.42,-2.457 0.58,-5.609 -1.88,-7.027 l -242.35,-139.93 c -0.81,-0.461 -1.7,-0.692 -2.57,-0.692"
         style="fill:#b6c5c5;fill-opacity:1;fill-rule:nonzero;stroke:none"
         id="path362" />
      <path
         d="m 2254.63,722.98 c -1.78,0 -3.51,0.922 -4.47,2.583 -1.42,2.457 -0.57,5.609 1.89,7.027 l 242.35,139.922 c 0.81,0.468 1.7,0.687 2.57,0.687 1.78,0 3.51,-0.918 4.47,-2.57 1.42,-2.469 0.57,-5.617 -1.89,-7.039 L 2257.2,723.672 c -0.81,-0.473 -1.7,-0.692 -2.57,-0.692"
         style="fill:#b6c5c5;fill-opacity:1;fill-rule:nonzero;stroke:none"
         id="path364" />
      <path
         d="m 2296.45,698.832 c -1.77,0 -3.51,0.918 -4.46,2.57 -1.42,2.469 -0.58,5.618 1.88,7.039 l 242.35,139.918 c 0.81,0.473 1.69,0.692 2.57,0.692 1.78,0 3.51,-0.922 4.46,-2.571 1.42,-2.468 0.58,-5.621 -1.88,-7.039 L 2299.02,699.52 c -0.81,-0.469 -1.69,-0.688 -2.57,-0.688"
         style="fill:#b6c5c5;fill-opacity:1;fill-rule:nonzero;stroke:none"
         id="path366" />
      <path
         d="m 2338.28,674.68 c -1.78,0 -3.51,0.922 -4.47,2.582 -1.42,2.457 -0.58,5.609 1.89,7.027 l 242.35,139.922 c 0.81,0.469 1.69,0.691 2.56,0.691 1.78,0 3.51,-0.922 4.47,-2.582 1.42,-2.461 0.58,-5.609 -1.89,-7.031 L 2340.84,675.371 c -0.81,-0.469 -1.69,-0.691 -2.56,-0.691"
         style="fill:#b6c5c5;fill-opacity:1;fill-rule:nonzero;stroke:none"
         id="path368" />
      <path
         d="m 2380.1,650.531 c -1.78,0 -3.51,0.918 -4.46,2.571 -1.42,2.468 -0.58,5.617 1.88,7.039 l 242.35,139.918 c 0.81,0.472 1.7,0.691 2.57,0.691 1.78,0 3.51,-0.918 4.46,-2.578 1.43,-2.461 0.58,-5.613 -1.88,-7.031 L 2382.67,651.219 c -0.81,-0.469 -1.69,-0.688 -2.57,-0.688"
         style="fill:#b6c5c5;fill-opacity:1;fill-rule:nonzero;stroke:none"
         id="path370" />
      <path
         d="m 2421.93,626.379 c -1.78,0 -3.51,0.922 -4.46,2.57 -1.42,2.473 -0.58,5.621 1.88,7.043 L 2661.7,775.91 c 0.81,0.469 1.69,0.692 2.57,0.692 1.78,0 3.51,-0.922 4.46,-2.582 1.42,-2.461 0.58,-5.61 -1.88,-7.028 L 2424.5,627.07 c -0.81,-0.468 -1.69,-0.691 -2.57,-0.691"
         style="fill:#b6c5c5;fill-opacity:1;fill-rule:nonzero;stroke:none"
         id="path372" />
      <path
         d="m 2463.69,602.191 c -1.78,0 -3.51,0.93 -4.46,2.579 -1.42,2.46 -0.58,5.609 1.88,7.031 l 242.35,139.918 c 0.81,0.472 1.69,0.691 2.56,0.691 1.78,0 3.51,-0.918 4.47,-2.57 1.42,-2.469 0.58,-5.621 -1.89,-7.039 L 2466.26,602.879 c -0.81,-0.457 -1.7,-0.688 -2.57,-0.688"
         style="fill:#b6c5c5;fill-opacity:1;fill-rule:nonzero;stroke:none"
         id="path374" />
      <path
         d="m 3669.36,2796.34 -243.51,-84.76 -6.86,-11.14 231.67,-367.12 230.61,104 6.87,11.13 -218.78,347.89"
         style="fill:#273e47;fill-opacity:1;fill-rule:nonzero;stroke:none"
         id="path376" />
      <path
         d="m 3676.22,2807.47 -250.37,-95.89 231.67,-367.12 230.62,103.99 -211.92,359.02"
         style="fill:#33535f;fill-opacity:1;fill-rule:nonzero;stroke:none"
         id="path378" />
      <path
         d="m 3678.17,2770.72 -212.74,-88.11 192.72,-300.08 196.15,94.91 -176.13,293.28"
         style="fill:#ededeb;fill-opacity:1;fill-rule:nonzero;stroke:none"
         id="path380" />
      <path
         d="m 3530.37,2709.5 -6.35,7.12 c -5.7,6.38 0.05,15.63 12.93,22.18 0,-0.01 0,-0.01 0.01,-0.02 0.55,-0.61 1.19,-1.31 1.88,-2.08 -8.6,-4.72 -13.64,-10.65 -13.64,-15.89 0,-1.96 0.71,-3.83 2.2,-5.49 l 4.59,-5.15 -1.62,-0.67 m 58.93,45.92 c -0.5,0.56 -1.01,1.12 -1.52,1.69 4.21,0.81 8.34,1.21 12.21,1.21 5.98,0 11.31,-0.96 15.22,-2.85 -3.39,1.03 -7.44,1.55 -11.85,1.55 -4.43,0 -9.22,-0.53 -14.06,-1.6"
         style="fill:#29444e;fill-opacity:1;fill-rule:nonzero;stroke:none"
         id="path382" />
      <path
         d="m 3535.91,2703.3 -5.54,6.2 1.62,0.67 5.58,-6.26 -1.66,-0.61"
         style="fill:#c3c5c2;fill-opacity:1;fill-rule:nonzero;stroke:none"
         id="path384" />
      <path
         d="m 3599.01,2788.94 c -4.09,4.59 -13.1,5.98 -20.12,3.09 l -12.72,-5.23 c 0,0 -25.86,28.82 -56.73,19.65 -30.87,-9.17 -4.27,-41.84 -4.27,-41.84 0,0 -6,-2.57 -13.39,-5.75 -7.4,-3.18 -10.41,-9.46 -6.72,-14.02 l 6.68,-8.28 114.84,43.83 c 0,0 -3.48,3.95 -7.57,8.55"
         style="fill:#26b6a6;fill-opacity:1;fill-rule:nonzero;stroke:none"
         id="path386" />
      <path
         d="m 3491.74,2736.56 -6.68,8.28 c -1.06,1.32 -1.57,2.78 -1.57,4.27 -0.01,3.66 3.03,7.49 8.29,9.75 7.39,3.18 13.39,5.75 13.39,5.75 v 0 0 c 0,0 -10.65,13.08 -10.65,25.01 0,6.93 3.58,13.46 14.92,16.83 0.46,0.14 0.91,0.26 1.37,0.38 21.11,-16.34 36.45,-22.5 50.49,-22.5 10.42,0 20.12,3.38 30.93,8.5 2.75,-0.75 5.15,-2.07 6.78,-3.89 4.09,-4.6 7.57,-8.55 7.57,-8.55 l -20.9,-7.98 c 1.86,0.93 4.26,1.77 7.07,2.71 v 0 0 l -2.14,5.31 -80.83,-29.31 6.54,-5.11 c 0.47,0.18 0.94,0.33 1.4,0.47 l -25.98,-9.92"
         style="fill:#19b19d;fill-opacity:1;fill-rule:nonzero;stroke:none"
         id="path388" />
      <path
         d="m 3592.75,2775.12 c -10.92,-3.66 -15.83,-5.83 -5.71,-17.17 11.55,-12.96 20.87,-22.49 20.87,-22.49 l -50.73,-19.47 c 0,0 -14.37,16.39 -20.22,22.79 -5.84,6.4 -12.57,10.33 -20.64,7.23 l -6.54,5.11 80.83,29.31 2.14,-5.31"
         style="fill:#26b6a6;fill-opacity:1;fill-rule:nonzero;stroke:none"
         id="path390" />
      <path
         d="m 3538.84,2736.7 c -0.69,0.77 -1.33,1.47 -1.88,2.08 -4.45,4.87 -9.4,8.31 -15.07,8.31 -1.79,0 -3.64,-0.34 -5.57,-1.08 l -6.54,5.11 80.83,29.31 2.14,-5.31 c -6.76,-2.26 -11.22,-3.96 -11.23,-7.62 -0.01,-2.24 1.66,-5.23 5.52,-9.55 0.76,-0.86 1.51,-1.7 2.26,-2.53 -3.16,-0.69 -6.35,-1.62 -9.46,-2.78 l -33.07,-12.34 c -2.89,-1.08 -5.55,-2.29 -7.93,-3.6"
         style="fill:#08917e;fill-opacity:1;fill-rule:nonzero;stroke:none"
         id="path392" />
      <path
         d="m 3634.91,2737.65 c 0,0 -5.34,5.96 -11.9,13.32 -6.57,7.36 -25.9,8.11 -43.17,1.67 l -33.07,-12.34 c -17.26,-6.44 -25.95,-17.62 -19.37,-24.98 l 11.89,-13.33 95.62,35.66"
         style="fill:#26b6a6;fill-opacity:1;fill-rule:nonzero;stroke:none"
         id="path394" />
      <path
         d="m 3539.29,2701.99 -1.72,1.92 -5.58,6.26 -4.59,5.15 c -1.49,1.66 -2.2,3.53 -2.2,5.49 0,6.69 8.22,14.51 21.57,19.49 l 33.07,12.34 c 7.88,2.94 16.19,4.38 23.52,4.38 8.74,0 16.08,-2.05 19.65,-6.05 6.56,-7.36 11.9,-13.32 11.9,-13.32 l -95.62,-35.66"
         style="fill:#19b19d;fill-opacity:1;fill-rule:nonzero;stroke:none"
         id="path396" />
      <path
         d="m 3789.95,2618.82 c 0,0 3.36,41.96 -10.26,55.07 -13.62,13.12 -64.42,6.23 -90.48,15.03 -27.97,9.43 -21.22,-21.1 -7.18,-29.56 30.51,-18.37 88.59,-22.94 107.92,-40.54"
         style="fill:#c35363;fill-opacity:1;fill-rule:nonzero;stroke:none"
         id="path398" />
      <path
         d="m 4243.98,1363.21 c 7.37,-2.75 11.58,-16.63 14.84,-50.55 2.02,-21 9.19,-48.77 -22.84,-65.83 -18.22,-9.7 -51.03,-14.52 -75.72,0.8 -27.74,17.2 -36.38,56.47 -68.92,81.98 -28.52,22.37 -74.38,44.71 -90.43,79.27 -13.21,28.48 -13.13,69.14 34.15,66.96 57.65,-2.66 90.26,-48.09 129.39,-48.97 21.85,-0.48 72.16,-60.91 79.53,-63.66"
         style="fill:#17282f;fill-opacity:1;fill-rule:nonzero;stroke:none"
         id="path400" />
      <path
         d="m 4243.89,1379.94 0.18,-34.2 c 0.01,-16.75 -71.11,-41.66 -91.03,-3.47 -1.51,3.29 -9.23,50.14 -9.23,50.14 l 100.08,-12.47"
         style="fill:#c35363;fill-opacity:1;fill-rule:nonzero;stroke:none"
         id="path402" />
      <path
         d="m 3939.47,1178.06 c 0,0 12.52,0 17.46,-51.17 1.87,-19.48 6.53,-59.45 -0.11,-73.91 -6.64,-14.46 -42.71,-20.86 -83.16,-24.49 -30.18,-2.71 -57.44,-17.31 -85.42,-33.111 -25.8,-14.578 -57.43,-23.629 -86.57,-23.859 l -1.92,-0.008 c -26.48,-0.11 -51.66,2.988 -76.19,13.258 -18.98,7.929 -40.31,20.8 -46.12,41.97 -0.78,2.82 -1.29,5.75 -0.97,8.66 0.57,5.1 3.74,9.62 7.67,12.91 3.94,3.3 8.64,5.53 13.27,7.72 27.44,12.99 55.14,25.47 82.14,39.25 26.24,13.4 52.45,26.91 77.57,42.3 12.51,7.65 24.75,15.76 36.52,24.51 5.14,3.83 10.66,7.51 15.66,11.43 2.7,2.1 7.82,11.32 11.61,11.11 l 118.56,-6.57"
         style="fill:#17282f;fill-opacity:1;fill-rule:nonzero;stroke:none"
         id="path404" />
      <path
         d="m 3936.22,1215.91 c 0,0 0,-25.69 0.21,-40.36 0.2,-14.68 -17.17,-36.64 -62.43,-35.27 -31.79,0.96 -54.03,9.32 -52.89,35.29 l -0.2,37.41 115.31,2.93"
         style="fill:#c35363;fill-opacity:1;fill-rule:nonzero;stroke:none"
         id="path406" />
      <path
         d="m 4263.62,1799.28 c -15.05,103.56 -38.3,165 -38.3,165 0,0 10.6,142.58 15.34,277.74 5.13,145.98 -2.37,326.32 -11.54,415.19 0,0 -459.32,43.55 -466.86,-125.22 -7.55,-168.76 1.36,-587.1 1.36,-668.24 0,-74.34 9.13,-148.22 22.62,-286.33 12.94,-132.35 32.84,-375.97 32.84,-375.97 53.94,-28.8 120.19,3.09 120.19,3.09 0,0 37.31,336.61 46.82,421.68 11.22,100.28 -18.37,181.34 -18.37,181.34 0,0 5.38,64.77 22.43,208.14 12.04,101.3 22.01,222.19 22.01,222.19 0,0 9.07,-164.35 18.63,-243.94 8.85,-73.8 19.42,-103.34 47.76,-247.99 27.52,-140.52 59.32,-373 59.32,-373 53.95,-28.81 107.26,5.3 107.26,5.3 0,0 33.54,317.46 18.49,421.02"
         style="fill:#273e47;fill-opacity:1;fill-rule:nonzero;stroke:none"
         id="path408" />
      <path
         d="m 4012.16,2237.89 21.73,141 c 0,0 89.39,28.42 134.83,81.63 0,0 -24.24,-61.94 -107.56,-95.27 l -33.36,-118.72 -9.28,-110.14 -6.36,101.5"
         style="fill:#17282f;fill-opacity:1;fill-rule:nonzero;stroke:none"
         id="path410" />
      <path
         d="m 4134.59,3223.08 c 71.64,17.29 116.9,-17.47 143.33,-114.89 22.66,-83.49 55.83,-256.3 68.72,-320.89 4.77,-23.88 14.16,-51.28 -36.13,-81.45 -99.41,-59.61 -225.36,-113.75 -225.36,-113.75 l -27.49,103 111.06,227.42 -34.13,300.56"
         style="fill:#273e47;fill-opacity:1;fill-rule:nonzero;stroke:none"
         id="path412" />
      <path
         d="m 3936.73,3268.43 21.45,-150.72 148.61,7.65 -13.03,176.1 -157.03,-33.03"
         style="fill:#c35363;fill-opacity:1;fill-rule:nonzero;stroke:none"
         id="path414" />
      <path
         d="m 3839.4,3454.48 c 0,0 -36.38,-53.35 -32.42,-58.7 3.96,-5.36 30.04,-10.56 30.04,-10.56 l 2.38,69.26"
         style="fill:#aa3b4b;fill-opacity:1;fill-rule:nonzero;stroke:none"
         id="path416" />
      <path
         d="m 3852.58,3498.38 c -19,0.31 -34.69,-14.9 -34.99,-33.89 -0.3,-19 14.9,-34.7 33.9,-35 18.99,-0.29 34.69,14.92 34.99,33.91 0.29,18.99 -14.9,34.69 -33.9,34.98 z m -1.25,-78.73 c -24.41,0.39 -43.97,20.56 -43.58,44.99 0.38,24.42 20.56,43.98 44.99,43.59 24.41,-0.38 43.96,-20.57 43.58,-44.99 -0.39,-24.42 -20.56,-43.98 -44.99,-43.59"
         style="fill:#17282f;fill-opacity:1;fill-rule:nonzero;stroke:none"
         id="path418" />
      <path
         d="m 3940.4,3602.05 c -72.13,-14.02 -93.39,-45.3 -101.97,-159.41 -8.96,-119.22 2.63,-156.92 18.05,-173.24 10.42,-11.01 69.2,-13.9 98.99,-6.19 37.3,9.66 121.68,38.06 161.94,97.47 47.34,69.9 61,165.42 12.13,205.47 -68.78,56.36 -159.78,41.62 -189.14,35.9"
         style="fill:#c35363;fill-opacity:1;fill-rule:nonzero;stroke:none"
         id="path420" />
      <path
         d="m 3937.87,3260.18 c -31.04,-3.42 -72.77,0.11 -81.39,9.22 34.66,-2.14 77.16,15.18 77.16,15.18 l 4.23,-24.4"
         style="fill:#aa3b4b;fill-opacity:1;fill-rule:nonzero;stroke:none"
         id="path422" />
      <path
         d="m 3824.95,3566.14 c 0.07,-1.49 0.25,-2.97 0.53,-4.44 2.07,-10.86 9.87,-20.1 19.51,-25.47 7.29,-4.06 15.55,-6.07 23.82,-6.68 3,-0.22 24.17,-1.09 24.92,1.27 -2.6,-8.14 -7.92,-14.14 -7.82,-23.51 0.08,-8.29 4.12,-16.81 11.39,-20.79 4.18,-2.29 9.21,-3.03 12.89,-6.07 6.66,-5.49 4.09,-18.07 6.95,-25.41 0.94,-2.38 17.41,-24.34 18.23,-21.38 0.01,0.01 12.62,45.97 51.42,39.55 39.07,-6.46 43.57,-56.45 18.42,-86.38 -25.17,-29.94 -47.98,-17.95 -47.98,-17.95 0,0 0.17,-65.99 28.8,-103.8 0,0 33.1,-11.29 94.48,0.78 37.73,7.43 91.64,53.58 114.79,103 48.94,104.54 53.74,199.23 -13.02,228.68 -9.21,68.83 -84.05,89.11 -142.79,90.87 -38.18,1.14 -76.59,-2.7 -114.48,2.11 -18.03,2.29 -35.76,6.52 -53.44,10.75 -11.12,2.67 -22.58,5.36 -33.87,3.54 -22.67,-3.66 -39.38,-25.98 -41.13,-48.88 -0.92,-11.96 1.28,-24.08 6.21,-35 5.38,-11.92 13.52,-20.19 24.08,-27.38 l 1.47,-1.47 -0.04,-2.33 c -1.8,-7.77 -3.81,-15.74 -3.34,-23.61"
         style="fill:#17282f;fill-opacity:1;fill-rule:nonzero;stroke:none"
         id="path424" />
      <path
         d="m 4177.3,3589.46 43.42,24.68 c -6.82,11.99 -22.06,16.18 -34.06,9.37 -11.98,-6.81 -16.18,-22.06 -9.36,-34.05"
         style="fill:#17282f;fill-opacity:1;fill-rule:nonzero;stroke:none"
         id="path426" />
      <path
         d="m 3934.62,3407.83 2.12,49.9 c -13.78,0.59 -25.43,-10.12 -26,-23.89 -0.59,-13.79 10.11,-25.43 23.88,-26.01"
         style="fill:#17282f;fill-opacity:1;fill-rule:nonzero;stroke:none"
         id="path428" />
      <path
         d="m 3812.04,3473.83 133.46,-19.42 -5.54,-9.31 -128.09,18.68 0.17,10.05"
         style="fill:#17282f;fill-opacity:1;fill-rule:nonzero;stroke:none"
         id="path430" />
      <path
         d="m 4243.46,3143.84 c -15.82,61.86 -38.16,82.06 -92,83.5 -16.12,0.43 -71.13,-8.19 -82.77,-10.57 -5.67,-26.13 -73.22,-43.91 -141.6,-29.79 -20.33,-5.94 -74.16,-20.57 -91.05,-26.71 -48.38,-17.56 -71.82,-67.79 -75.02,-227.26 0,0 -9.26,-378.2 0.13,-443.49 121.97,-47.55 248.56,-45.41 318.46,-29.77 145.5,32.56 162.77,93.08 162.77,93.08 0,0 -7.63,151.79 -12.58,267.21 7.29,73.5 18.26,128.78 22.23,187.41 4.01,59.39 -2.61,113.11 -8.57,136.39"
         style="fill:#33535f;fill-opacity:1;fill-rule:nonzero;stroke:none"
         id="path432" />
      <path
         d="m 3281.82,3028.42 c 4.46,-3.07 36.94,-29.78 51.16,-43.02 l 28.34,123.33 c 0.11,0.4 -13.03,12.22 -14.26,13.62 -4.47,5.12 -9.12,10.16 -12.89,15.85 -8.65,13.03 -15.04,28.3 -21.15,42.57 -7.05,16.5 -16,30.67 -26.69,45.1 -10.41,14.07 -20.83,28.13 -31.24,42.19 -2.02,2.73 -4.23,5.6 -7.43,6.72 -5.2,1.83 -11.06,-1.95 -13.35,-6.96 -2.29,-5.01 -1.88,-10.81 -1.13,-16.27 1.52,-10.94 4.28,-21.71 8.18,-32.04 2.3,-6.07 9.03,-21.12 -4.87,-19.53 -4.44,0.5 -8.06,3.65 -11.33,6.69 -16.9,15.73 -32.7,32.65 -47.23,50.59 -4.84,5.99 -9.65,12.19 -16.01,16.55 -6.36,4.35 -14.68,6.63 -21.9,3.92 -9.23,-3.48 -13.82,-13.61 -17.49,-22.78 -4.63,-11.62 -9.32,-23.52 -9.87,-36.02 -0.35,-7.96 1.01,-15.91 2.98,-23.63 7.8,-30.6 25.21,-57.86 46.71,-80.69 19.41,-20.63 35.1,-34.8 59.24,-49.77 4.86,-3.01 14.04,-8.24 23.16,-13.89 13.42,-8.3 21.57,-11.85 37.07,-22.53"
         style="fill:#c35363;fill-opacity:1;fill-rule:nonzero;stroke:none"
         id="path434" />
      <path
         d="m 3558.85,2964.75 -218.65,160.32 -42.63,-106.63 c 0,0 146.23,-139.05 217.2,-199.35 30.26,-26.59 63.1,-20.65 95.42,-4.82 55.51,27.18 197.48,137.19 197.48,137.19 0,0 75.8,131.99 28.37,208.81 0,0 -36.16,-5.41 -67.76,-31.99 -33.92,-28.55 -205.26,-162.73 -205.26,-162.73 l -4.17,-0.8"
         style="fill:#c35363;fill-opacity:1;fill-rule:nonzero;stroke:none"
         id="path436" />
      <path
         d="m 3845.33,3163.36 c 0,0 -32.94,3.37 -67.51,-16.27 -24.88,-14.13 -214.8,-177.46 -214.8,-177.46 l -153.7,108.83 c -42.42,-10.67 -71.1,-66.3 -75.08,-104.39 0,0 82.35,-76.23 131.19,-125.75 79.6,-80.68 98.3,-70.57 142.48,-47.55 45.66,23.77 206.04,141.03 206.04,141.03 0,0 49.5,36.84 58.92,78.47 26,114.83 -27.54,143.09 -27.54,143.09"
         style="fill:#273e47;fill-opacity:1;fill-rule:nonzero;stroke:none"
         id="path438" />
      <path
         d="m 3521.82,2909.98 c 0,0 -4.78,38.51 28.48,68.66 l 12.72,-9.01 c 0,0 -27.67,-18.97 -41.2,-59.65"
         style="fill:#21363e;fill-opacity:1;fill-rule:nonzero;stroke:none"
         id="path440" />
      <path
         d="m 3409.32,3078.46 -38.36,27.51 c 0,0 -27.56,-13.4 -49.68,-44.4 -22.11,-31 -23.71,-54.36 -23.71,-54.36 l 36.67,-33.14 c 15.9,39.66 41.01,77.56 75.08,104.39"
         style="fill:#17282f;fill-opacity:1;fill-rule:nonzero;stroke:none"
         id="path442" />
      <path
         d="m 3314.41,3008.07 c 1.34,-3.72 5.44,-5.66 9.16,-4.32 3.72,1.34 5.65,5.44 4.31,9.16 -1.33,3.73 -5.43,5.66 -9.16,4.32 -3.72,-1.34 -5.65,-5.44 -4.31,-9.16"
         style="fill:#26b6a6;fill-opacity:1;fill-rule:nonzero;stroke:none"
         id="path444" />
      <path
         d="m 4096.92,3258.84 1.07,-14.49 c 0,0 -20.17,-23.45 -61.31,-31.08 -69.15,-12.84 -93.33,8.63 -93.33,8.63 l -1.77,12.45 c 0,0 -6.63,2.73 -17.86,-5.9 -11.22,-8.64 -47.85,-56.04 -47.85,-56.04 0,0 13.18,3.85 56.4,-14.53 44.83,-19.07 100.38,-16.62 134.92,-5.09 34.53,11.53 60.6,45.61 62.33,58.28 1.71,12.66 -20.72,52.96 -32.6,47.77"
         style="fill:#17282f;fill-opacity:1;fill-rule:nonzero;stroke:none"
         id="path446" />
    </g>
  </g>
</svg>
